<?xml version="1.0" encoding="UTF-8" standalone="no"?>
<svg width="14px" height="20px" viewBox="0 0 14 20" version="1.1" xmlns="http://www.w3.org/2000/svg" xmlns:xlink="http://www.w3.org/1999/xlink">
    <title>Boston B Icon</title>
    <g id="b-logo" stroke="none" stroke-width="1" fill="none" fill-rule="evenodd">
        <g id="b-logo-copy">
            <path d="M0.0211733715,0 L6.23128327,0 C7.91460626,0 9.4386895,0.0634417344 10.4168194,0.359552687 C12.3958505,0.951774592 13.1920491,2.41100877 13.1920491,3.82804751 C13.1920491,4.63184092 12.9644953,5.11820278 12.896341,5.26633255 C12.1683765,6.78908275 10.6215219,7.08526799 9.75716897,7.2543469 C10.7352988,7.40247666 12.0319082,7.59280187 12.9190325,8.52340445 C13.4877572,9.09445435 13.8061568,9.91927118 13.8061568,10.76526 C13.8061568,11.9286061 13.1465863,13.5569935 11.1447039,14.3819589 C9.93918007,14.8683951 8.64249084,14.9318368 6.80000802,14.9318368 L0.0211733715,14.9318368 L0.0211733715,0 L0.0211733715,0 Z M3.84276717,2.79173347 L3.84276717,5.90074989 L6.86816231,5.90074989 C7.77813788,5.87965217 9.25667841,5.83738245 9.25667841,4.29338595 C9.25667841,2.85524949 7.91460626,2.79173347 7.14109905,2.79173347 L3.84276717,2.79173347 L3.84276717,2.79173347 Z M3.84276717,8.60794391 L3.84276717,12.2246428 L6.64068839,12.2246428 C7.98284044,12.2034708 9.73439761,12.1611268 9.73439761,10.4480514 C9.73439761,8.65036221 8.14208017,8.62911591 7.32311015,8.60794391 L3.84276717,8.60794391 L3.84276717,8.60794391 Z" fill="#FFFFFF"></path>
            <path d="M0,16.8421053 L13.6628171,16.8421053 L13.6628171,20 L0,20 L0,16.8421053 Z" fill="#FB4D42"></path>
        </g>
    </g>
</svg>
