<?xml version="1.0" encoding="UTF-8" standalone="no"?>
<svg width="129px" height="16px" viewBox="0 0 129 16" version="1.1" xmlns="http://www.w3.org/2000/svg" xmlns:xlink="http://www.w3.org/1999/xlink">
    <title>City of Boston Logo</title>
    <g id="cob-logo" stroke="none" stroke-width="1" fill="none" fill-rule="evenodd">
        <g id="logo">
            <path d="M6.13599629,9.43972222 C7.38219852,9.43972222 8.40055659,8.95333333 9.1917885,7.98055556 L10.8170928,9.63191667 C9.52757143,11.0646389 8.00781262,11.7807639 6.25805566,11.7807639 C4.50805937,11.7807639 3.06680148,11.2353472 1.93476067,10.1452222 C0.802480519,9.05486111 0.236460111,7.67856944 0.236460111,6.01634722 C0.236460111,4.35436111 0.813250464,2.96720833 1.96730983,1.85536111 C3.1213692,0.74375 4.53247124,0.187944444 6.20109462,0.187944444 C8.06477365,0.187944444 9.62497959,0.88825 10.8821911,2.28838889 L9.30523191,4.05213889 C8.50370872,3.06873611 7.50665121,2.57715278 6.3150167,2.57715278 C5.36151763,2.57715278 4.54587384,2.88433333 3.86904267,3.49893056 C3.19173284,4.11376389 2.85331725,4.94204167 2.85331725,5.98423611 C2.85331725,7.02643056 3.17258627,7.86297222 3.81208163,8.493625 C4.45133766,9.12451389 5.22605566,9.43972222 6.13599629,9.43972222" id="Fill-1" fill="#091F2F"></path>
            <path d="M12.7480241,0.444361111 L15.2835083,0.444361111 L15.2835083,11.6523194 L12.7480241,11.6523194 L12.7480241,0.444361111 Z" id="Fill-2" fill="#091F2F"></path>
            <path d="M22.7269759,2.60902778 L22.7269759,11.6523194 L20.1914917,11.6523194 L20.1914917,2.60902778 L16.9734323,2.60902778 L16.9734323,0.444361111 L25.9450353,0.444361111 L25.9450353,2.60902778 L22.7269759,2.60902778" id="Fill-3" fill="#091F2F"></path>
            <path d="M33.3901781,11.6523194 L30.8546939,11.6523194 L30.8546939,7.22688889 L26.9215102,0.444361111 L29.6683247,0.444361111 L32.122436,4.613375 L34.5767866,0.444361111 L37.3233618,0.444361111 L33.3901781,7.22688889 L33.3901781,11.6523194" id="Fill-4" fill="#091F2F"></path>
            <path d="M49.0379499,5.63384722 C49.0379499,6.37901389 48.9015306,7.05688889 48.628692,7.66723611 C48.3558534,8.27781944 47.98082,8.74602778 47.5040705,9.07256944 C47.0275603,9.398875 46.4790111,9.56226389 45.8581837,9.56226389 C45.1404267,9.56226389 44.5703377,9.35118056 44.1479165,8.92854167 C43.725256,8.506375 43.5139258,7.93191667 43.5139258,7.20516667 C43.5139258,6.47133333 43.6477124,5.79818056 43.9150464,5.18570833 C44.1823803,4.57370833 44.5571744,4.097 45.0394286,3.75558333 C45.5216827,3.41440278 46.0788479,3.24393056 46.7109239,3.24393056 C47.4396902,3.24393056 48.0097792,3.45784722 48.4211911,3.88568056 C48.832603,4.31351389 49.0379499,4.89623611 49.0379499,5.63384722 L49.0379499,5.63384722 Z M47.7089388,5.57859722 C47.7089388,5.18405556 47.6172746,4.87522222 47.4339462,4.65186111 C47.2510965,4.42873611 46.9892672,4.31729167 46.6491763,4.31729167 C46.3014267,4.31729167 45.9900557,4.44904167 45.7150631,4.71277778 C45.4403098,4.97651389 45.2273043,5.33445833 45.0758071,5.78613889 C44.9245492,6.23805556 44.8486809,6.72019444 44.8486809,7.23279167 C44.8486809,7.64244444 44.9413024,7.95576389 45.1263061,8.17345833 C45.3115492,8.39115278 45.5853451,8.5 45.9479332,8.5 C46.2844341,8.5 46.5874286,8.374625 46.8566772,8.12363889 C47.1256865,7.87288889 47.3348627,7.52155556 47.4844453,7.06963889 C47.6340278,6.61795833 47.7089388,6.12070833 47.7089388,5.57859722 L47.7089388,5.57859722 Z" id="Fill-5" fill="#091F2F"></path>
            <path d="M48.8723321,12.18475 C48.5358312,12.18475 48.2574879,12.14225 48.0368237,12.05725 L48.0368237,11.0060833 C48.2761558,11.0799861 48.4891614,11.1168194 48.6760798,11.1168194 C49.1772412,11.1168194 49.5079981,10.7385694 49.6688293,9.98254167 L50.8855937,4.32838889 L49.8820742,4.32838889 L49.9998256,3.74188889 L51.08759,3.321375 L51.2053414,2.81231944 C51.3697625,2.08202778 51.6213006,1.56305556 51.9597161,1.25493056 C52.2978924,0.947041667 52.7772746,0.792861111 53.398102,0.792861111 C53.8281818,0.792861111 54.2228404,0.872194444 54.5813599,1.03086111 L54.2395937,2.00458333 C53.9629258,1.90140278 53.7085158,1.84969444 53.476603,1.84969444 C53.218603,1.84969444 53.0120594,1.92902778 52.8569722,2.08745833 C52.7016456,2.246125 52.5829369,2.50631944 52.500846,2.86780556 L52.3998479,3.34356944 L53.6843432,3.34356944 L53.476603,4.32838889 L52.1923469,4.32838889 L50.9418367,10.1541944 C50.7920148,10.8511944 50.5471781,11.3637917 50.2070872,11.6922222 C49.8669963,12.0204167 49.4220779,12.18475 48.8723321,12.18475" id="Fill-6" fill="#091F2F"></path>
            <path d="M65.215603,11.6523194 L60.2420427,11.6523194 L60.2420427,0.444361111 L64.6627458,0.444361111 C65.4319592,0.444361111 66.0958664,0.5355 66.6539889,0.717069444 C67.2116327,0.898875 67.6316605,1.14466667 67.9135937,1.45468056 C68.4228924,2.03197222 68.6773024,2.68411111 68.6773024,3.41086111 C68.6773024,4.28730556 68.3901039,4.93944444 67.8159462,5.36704167 C67.6208905,5.51673611 67.4851892,5.61023611 67.4095603,5.64754167 C67.333692,5.68508333 67.1982301,5.74647222 67.0031744,5.83194444 C67.7075288,5.981875 68.2682839,6.29448611 68.6854397,6.77001389 C69.1023562,7.24577778 69.3110538,7.83629167 69.3110538,8.54179167 C69.3110538,9.32213889 69.0403692,10.0115833 68.4985213,10.610125 C67.8700353,11.305 66.7755696,11.6523194 65.215603,11.6523194 L65.215603,11.6523194 Z M62.7775269,4.98218056 L63.9801707,4.98218056 C64.684525,4.98218056 65.2072263,4.90756944 65.5487532,4.75763889 C65.8898015,4.60818056 66.0606846,4.28470833 66.0606846,3.78769444 C66.0606846,3.29068056 65.9034434,2.96177778 65.5892004,2.80145833 C65.2749573,2.64113889 64.7438794,2.56109722 63.9964453,2.56109722 L62.7775269,2.56109722 L62.7775269,4.98218056 L62.7775269,4.98218056 Z M62.7775269,9.53581944 L64.5165139,9.53581944 C65.2424082,9.53581944 65.7868887,9.44775 66.1499555,9.271375 C66.5127829,9.095 66.6946753,8.74768056 66.6946753,8.22894444 C66.6946753,7.71068056 66.502013,7.36879167 66.1176456,7.20280556 C65.7325603,7.03729167 65.1179555,6.95441667 64.2728738,6.95441667 L62.7775269,6.95441667 L62.7775269,9.53581944 L62.7775269,9.53581944 Z" id="Fill-7" fill="#091F2F"></path>
            <path d="M80.9320631,10.1050833 C79.783269,11.2112639 78.369295,11.7647083 76.6899017,11.7647083 C75.010269,11.7647083 73.5965343,11.2112639 72.4479796,10.1050833 C71.2994249,8.99866667 70.7250278,7.62261111 70.7250278,5.97620833 C70.7250278,4.33027778 71.2994249,2.95375 72.4479796,1.84756944 C73.5965343,0.741152778 75.010269,0.187944444 76.6899017,0.187944444 C78.369295,0.187944444 79.783269,0.741152778 80.9320631,1.84756944 C82.0803785,2.95375 82.6545362,4.33027778 82.6545362,5.97620833 C82.6545362,7.62261111 82.0803785,8.99866667 80.9320631,10.1050833 L80.9320631,10.1050833 Z M80.0707069,5.98423611 C80.0707069,4.98477778 79.7454545,4.13241667 79.0954286,3.42691667 C78.4451633,2.72118056 77.6460334,2.36866667 76.698039,2.36866667 C75.7500445,2.36866667 74.9509147,2.72118056 74.3008887,3.42691667 C73.6506234,4.13241667 73.3256104,4.98477778 73.3256104,5.98423611 C73.3256104,6.98393056 73.6506234,7.83369444 74.3008887,8.53376389 C74.9509147,9.23383333 75.7500445,9.58398611 76.698039,9.58398611 C77.6460334,9.58398611 78.4451633,9.23383333 79.0954286,8.53376389 C79.7454545,7.83369444 80.0707069,6.98393056 80.0707069,5.98423611 L80.0707069,5.98423611 Z" id="Fill-8" fill="#091F2F"></path>
            <path d="M87.3581299,2.68127778 C87.1142505,2.87913889 86.9924304,3.14098611 86.9924304,3.46705556 C86.9924304,3.793125 87.141295,4.05213889 87.4395028,4.24456944 C87.7372319,4.437 88.4250724,4.66413889 89.5035028,4.92598611 C90.5814545,5.18806944 91.4186382,5.58095833 92.0145751,6.10465278 C92.6102727,6.62834722 92.9084805,7.392875 92.9084805,8.39729167 C92.9084805,9.40218056 92.5265065,10.2172361 91.7625584,10.8426944 C90.9988497,11.4679167 89.9936549,11.7807639 88.747692,11.7807639 C86.9491113,11.7807639 85.328833,11.1231944 83.8882931,9.80852778 L85.399436,7.98055556 C86.623859,9.03880556 87.7563785,9.56793056 88.7965158,9.56793056 C89.262256,9.56793056 89.6279555,9.46923611 89.8933748,9.271375 C90.1590334,9.07351389 90.2918627,8.80623611 90.2918627,8.46954167 C90.2918627,8.13284722 90.1508961,7.86580556 89.8692022,7.66794444 C89.587269,7.47008333 89.0291466,7.26986111 88.1950742,7.06656944 C86.8727644,6.75655556 85.9058627,6.35304167 85.2938905,5.85602778 C84.681679,5.35901389 84.3758126,4.57890278 84.3758126,3.51498611 C84.3758126,2.45154167 84.7628126,1.63105556 85.5377699,1.05376389 C86.3122486,0.476472222 87.2793896,0.187944444 88.4387143,0.187944444 C89.1971577,0.187944444 89.9556011,0.316152778 90.7142839,0.572805556 C91.4724879,0.829222222 92.1335232,1.19283333 92.6971503,1.66316667 L91.4131336,3.49090278 C90.4270853,2.75352778 89.4084879,2.38472222 88.3573414,2.38472222 C87.9349202,2.38472222 87.6017699,2.48365278 87.3581299,2.68127778" id="Fill-9" fill="#091F2F"></path>
            <path d="M99.9407755,2.60902778 L99.9407755,11.6523194 L97.4052913,11.6523194 L97.4052913,2.60902778 L94.1874712,2.60902778 L94.1874712,0.444361111 L103.158835,0.444361111 L103.158835,2.60902778 L99.9407755,2.60902778" id="Fill-10" fill="#091F2F"></path>
            <path d="M114.272699,10.1050833 C113.123905,11.2112639 111.709692,11.7647083 110.030538,11.7647083 C108.350905,11.7647083 106.936931,11.2112639 105.788377,10.1050833 C104.640061,8.99866667 104.065664,7.62261111 104.065664,5.97620833 C104.065664,4.33027778 104.640061,2.95375 105.788377,1.84756944 C106.936931,0.741152778 108.350905,0.187944444 110.030538,0.187944444 C111.709692,0.187944444 113.123905,0.741152778 114.272699,1.84756944 C115.421015,2.95375 115.995173,4.33027778 115.995173,5.97620833 C115.995173,7.62261111 115.421015,8.99866667 114.272699,10.1050833 L114.272699,10.1050833 Z M113.411104,5.98423611 C113.411104,4.98477778 113.086091,4.13241667 112.436065,3.42691667 C111.7858,2.72118056 110.98643,2.36866667 110.038436,2.36866667 C109.090442,2.36866667 108.291551,2.72118056 107.641525,3.42691667 C106.99126,4.13241667 106.666007,4.98477778 106.666007,5.98423611 C106.666007,6.98393056 106.99126,7.83369444 107.641525,8.53376389 C108.291551,9.23383333 109.090442,9.58398611 110.038436,9.58398611 C110.98643,9.58398611 111.7858,9.23383333 112.436065,8.53376389 C113.086091,7.83369444 113.411104,6.98393056 113.411104,5.98423611 L113.411104,5.98423611 Z" id="Fill-11" fill="#091F2F"></path>
            <path d="M126.122271,0.444361111 L128.657755,0.444361111 L128.657755,11.6523194 L126.122271,11.6523194 L120.710015,4.62943056 L120.710015,11.6523194 L118.174531,11.6523194 L118.174531,0.444361111 L120.547508,0.444361111 L126.122271,7.65968056 L126.122271,0.444361111" id="Fill-12" fill="#091F2F"></path>
            <path d="M59,14 L129,14 L129,16 L59,16 L59,14 Z" id="Fill-13" fill="#FB4D42"></path>
        </g>
    </g>
</svg>
