<svg xmlns="http://www.w3.org/2000/svg" viewBox="0 0 738 528.12"><title>allston</title><g id="allston"><path d="M25.29,491.7H712.16v.13l-.22-261.14h0l-98.43-6.54a3726.27,3726.27,0,0,0-489.37-.06l-99.65,6.59" fill="#fff" stroke="#fdb718" stroke-miterlimit="10" stroke-width="4"/><line x1="25.3" y1="491.7" x2="24.49" y2="230.69" fill="#fff" stroke="#fdb718" stroke-miterlimit="10" stroke-width="4"/><path d="M25.42,268.4l99.65-6.59a3726.27,3726.27,0,0,1,489.37.06l98.43,6.54" fill="#fff" stroke="#fdb718" stroke-miterlimit="10" stroke-width="4"/><path d="M24.49,251.23l99.65-6.59a3726.27,3726.27,0,0,1,489.37.06l98.43,6.54" fill="#fff" stroke="#fdb718" stroke-miterlimit="10" stroke-width="4"/><path d="M25.42,315l99.65-6.59a3726.27,3726.27,0,0,1,489.37.06L712.87,315" fill="#fff" stroke="#fdb718" stroke-miterlimit="10" stroke-width="4"/><path d="M25.42,324.63,125.07,318a3726.27,3726.27,0,0,1,489.37.06l98.43,6.54" fill="#fff" stroke="#fdb718" stroke-miterlimit="10" stroke-width="4"/><path d="M26.05,469.57,125.71,463a3726.27,3726.27,0,0,1,489.37.06l98.43,6.54" fill="#fff" stroke="#fdb718" stroke-miterlimit="10" stroke-width="4"/><path d="M712.87,398.31l-29.29-1.95-21.1-1.4-48-3.19L610,391.5q-13.88-.91-27.8-1.7-23.77-1.38-47.64-2.42-13.89-.63-27.81-1.14-23.79-.88-47.64-1.45-13.89-.34-27.8-.57-22.67-.38-45.37-.47-16.78-.09-33.58,0-22.08.1-44.14.46-13.91.23-27.81.56-23.48.55-46.91,1.41-13.92.49-27.8,1.11-23.87,1-47.64,2.4-13.93.79-27.81,1.7l-5.16.33-47.3,3.12-21.1,1.4-31.25,2.06" fill="#fff" stroke="#fdb718" stroke-miterlimit="10" stroke-width="4"/><path d="M25.42,407.91l99.65-6.59a3726.23,3726.23,0,0,1,489.37.06l98.43,6.54" fill="#fff" stroke="#fdb718" stroke-miterlimit="10" stroke-width="4"/><line x1="135.27" y1="261.81" x2="135.27" y2="307.72" fill="#fff" stroke="#fdb718" stroke-miterlimit="10" stroke-width="4"/><line x1="286.09" y1="255.96" x2="286.09" y2="301.34" fill="#fff" stroke="#fdb718" stroke-miterlimit="10" stroke-width="4"/><line x1="447.47" y1="255.96" x2="447.47" y2="301.23" fill="#fff" stroke="#fdb718" stroke-miterlimit="10" stroke-width="4"/><line x1="602.44" y1="261.81" x2="602.44" y2="307.71" fill="#fff" stroke="#fdb718" stroke-miterlimit="10" stroke-width="4"/><path d="M393.16,436.6v55.1H345.31V436.6c0-15.83,10.72-28.68,23.93-28.68S393.16,420.77,393.16,436.6Z" fill="#fdb718"/><path d="M467.69,491.7V444.86c0-13.94-9.09-25.22-20.3-25.22s-20.3,11.29-20.3,25.22V491.7Z" fill="#fdb718"/><path d="M545.82,448.39V491.7H505.21V448.39c0-13.12,9.09-23.75,20.3-23.75S545.82,435.27,545.82,448.39Z" fill="#fdb718"/><path d="M583.36,491.7V458.08c0-10.85,9.09-19.65,20.3-19.65s20.3,8.8,20.3,19.65V491.7Z" fill="#fdb718"/><path d="M697.41,491.7V463.39c0-9.63-7-17.44-15.59-17.44s-15.59,7.81-15.59,17.44V491.7Z" fill="#fdb718"/><path d="M385.54,345.13v38.62q-17.32-.09-34.65,0V345.13c0-11.32,7.75-20.5,17.33-20.5S385.54,333.81,385.54,345.13Z" fill="#fdb718"/><path d="M461.06,351.72v33.06q-14.34-.34-28.69-.57V351.72c0-9.78,6.43-17.73,14.35-17.73S461.06,341.94,461.06,351.72Z" fill="#fdb718"/><path d="M538.92,359.78v27.59q-14.34-.63-28.7-1.14V359.78a14.35,14.35,0,0,1,28.7,0Z" fill="#fdb718"/><path d="M616.78,391.5V366.23c0-6.43-6.42-11.64-14.35-11.64s-14.35,5.21-14.35,11.64v23.56Z" fill="#fdb718"/><path d="M692.7,374.46v21.91L670.92,395V374.46a10.89,10.89,0,1,1,21.77,0Z" fill="#fdb718"/><path d="M223.56,357.42v28.76q-14.36.49-28.69,1.11V357.42a14.35,14.35,0,1,1,28.69,0Z" fill="#fdb718"/><path d="M147.89,389.69V363.88c0-6.43-6.43-11.64-14.35-11.64s-14.35,5.21-14.35,11.64v27.51Z" fill="#fdb718"/><rect x="361.42" y="267.35" width="14.85" height="19.04" fill="#fdb718"/><rect x="520.35" y="273.41" width="12.6" height="19.04" fill="#fdb718"/><rect x="676.32" y="282.93" width="10.97" height="16.02" fill="#fdb718"/><rect x="211" y="273.41" width="12.6" height="19.04" transform="translate(434.6 565.85) rotate(-180)" fill="#fdb718"/><rect x="51.17" y="284.44" width="10.97" height="16.02" transform="translate(113.31 584.89) rotate(-180)" fill="#fdb718"/><path d="M301.58,351.14v33.07q-14.35.23-28.7.56V351.14c0-9.78,6.43-17.72,14.35-17.72S301.58,341.35,301.58,351.14Z" fill="#fdb718"/><path d="M67.54,374.46v20.39l-21.77,1.4V374.46a10.89,10.89,0,1,1,21.77,0Z" fill="#fdb718"/><path d="M311.39,447.36V491.7H270.78V447.36c0-13.94,9.09-25.22,20.3-25.22S311.39,433.42,311.39,447.36Z" fill="#fdb718"/><path d="M192.64,491.7V450.9c0-13.12,9.09-23.75,20.3-23.75s20.3,10.63,20.3,23.75v40.8Z" fill="#fdb718"/><path d="M114.5,491.7V460.6c0-10.85,9.08-19.66,20.3-19.66s20.29,8.81,20.29,19.66v31.1Z" fill="#fdb718"/><path d="M72.25,491.7V463.39c0-9.63-7-17.44-15.59-17.44s-15.61,7.81-15.61,17.44V491.7Z" fill="#fdb718"/></g></svg>