<svg xmlns="http://www.w3.org/2000/svg" viewBox="0 0 738 528.12"><title>back bay</title><g id="back_bay" data-name="back bay"><polygon points="442.73 139.81 442.73 222.27 294.66 222.27 294.37 139.81 332.16 84.71 369.97 29.62 407.78 84.71 442.73 139.81" fill="#fff" stroke="#fdb718" stroke-miterlimit="10" stroke-width="4"/><polygon points="279.2 141.39 279.2 142.37 314.72 142.37 296.6 89.9 279.2 141.39" fill="#fff" stroke="#fdb718" stroke-miterlimit="10" stroke-width="4"/><polygon points="457.9 141.39 457.9 142.37 421.25 142.37 439.95 89.9 457.9 141.39" fill="#fff" stroke="#fdb718" stroke-miterlimit="10" stroke-width="4"/><rect x="279.2" y="142.32" width="36.66" height="68.7" fill="#fff" stroke="#fdb718" stroke-miterlimit="10" stroke-width="4"/><rect x="421.25" y="142.32" width="36.66" height="68.7" fill="#fff" stroke="#fdb718" stroke-miterlimit="10" stroke-width="4"/><line x1="279.2" y1="174.09" x2="457.9" y2="174.09" fill="none" stroke="#fdb718" stroke-miterlimit="10" stroke-width="4"/><polygon points="394.07 142.32 394.07 211.02 343.03 211.02 343.03 142.32 369.06 82.42 394.07 142.32" fill="#fff" stroke="#fdb718" stroke-miterlimit="10" stroke-width="4"/><line x1="421.25" y1="142.32" x2="315.86" y2="142.32" fill="none" stroke="#fdb718" stroke-miterlimit="10" stroke-width="4"/><path d="M368.55,151.15c-6.86,0-12.45,6.4-12.45,14.3V202.2H381V165.45C381,157.55,375.41,151.15,368.55,151.15Z" fill="#fdb718"/><rect x="171.66" y="211.02" width="393.78" height="280.43" fill="#fff" stroke="#fdb718" stroke-miterlimit="10" stroke-width="4"/><path d="M279.6,257.84c-6.93,0-12.59,15.21-12.59,34V379h25.18V291.8C292.19,273,286.53,257.84,279.6,257.84Z" fill="#fdb718"/><path d="M372.47,257.84c-6.93,0-12.59,15.21-12.59,34V379h25.18V291.8C385.06,273,379.4,257.84,372.47,257.84Z" fill="#fdb718"/><path d="M326,257.84c-6.93,0-12.59,15.21-12.59,34V379h25.18V291.8C338.63,273,333,257.84,326,257.84Z" fill="#fdb718"/><path d="M418.91,257.84c-6.93,0-12.59,15.21-12.59,34V379H431.5V291.8C431.5,273,425.84,257.84,418.91,257.84Z" fill="#fdb718"/><path d="M457.5,257.84c-6.93,0-12.59,15.21-12.59,34V379H470.1V291.8C470.1,273,464.44,257.84,457.5,257.84Z" fill="#fdb718"/><polygon points="429.29 369.51 429.29 491.45 307.81 491.45 307.81 369.51 369.35 320.04 429.29 369.51" fill="#fff" stroke="#fdb718" stroke-miterlimit="10" stroke-width="4"/><path d="M368.55,368.73c-21.19,0-38.47,15.4-38.47,34.39v88.33H407V403.12C407,384.13,389.74,368.73,368.55,368.73Z" fill="#fdb718"/><path d="M232.62,401.84A25.17,25.17,0,0,0,207.44,427v64.5h50.37V427A25.17,25.17,0,0,0,232.62,401.84Z" fill="#fdb718"/><rect x="254.3" y="392.14" width="17.53" height="96.83" fill="#fff" stroke="#fdb718" stroke-miterlimit="10" stroke-width="4"/><rect x="254.3" y="467.57" width="24.26" height="23.14" fill="#fff" stroke="#fdb718" stroke-miterlimit="10" stroke-width="4"/><rect x="254.3" y="390.43" width="24.26" height="11.57" fill="#fff" stroke="#fdb718" stroke-miterlimit="10" stroke-width="4"/><rect x="153.52" y="393.25" width="17.53" height="97.92" fill="#fff" stroke="#fdb718" stroke-miterlimit="10" stroke-width="4"/><rect x="148.68" y="468.43" width="24.26" height="23.4" fill="#fff" stroke="#fdb718" stroke-miterlimit="10" stroke-width="4"/><rect x="148.68" y="390.43" width="24.26" height="11.7" fill="#fff" stroke="#fdb718" stroke-miterlimit="10" stroke-width="4"/><polygon points="255.25 391.6 255.25 491.08 172 491.08 172 391.6 214.17 351.24 255.25 391.6" fill="#fff" stroke="#fdb718" stroke-linecap="square" stroke-miterlimit="10" stroke-width="4"/><path d="M213.63,395.77c-13.87,0-25.18,12-25.18,26.71v68.6h50.37v-68.6C238.81,407.73,227.49,395.77,213.63,395.77Z" fill="#fdb718"/><path d="M543.37,401.47a25.17,25.17,0,0,0-25.18,25.11v64.5h50.37v-64.5A25.17,25.17,0,0,0,543.37,401.47Z" fill="#fdb718"/><rect x="565.05" y="391.79" width="17.53" height="98.28" fill="#fff" stroke="#fdb718" stroke-miterlimit="10" stroke-width="4"/><rect x="565.05" y="468.34" width="24.26" height="23.48" fill="#fff" stroke="#fdb718" stroke-miterlimit="10" stroke-width="4"/><rect x="565.05" y="390.06" width="24.26" height="11.74" fill="#fff" stroke="#fdb718" stroke-miterlimit="10" stroke-width="4"/><rect x="464.27" y="392.87" width="17.53" height="97.92" fill="#fff" stroke="#fdb718" stroke-miterlimit="10" stroke-width="4"/><rect x="459.43" y="468.06" width="24.26" height="23.4" fill="#fff" stroke="#fdb718" stroke-miterlimit="10" stroke-width="4"/><rect x="459.43" y="390.06" width="24.26" height="11.7" fill="#fff" stroke="#fdb718" stroke-miterlimit="10" stroke-width="4"/><polygon points="566 391.23 566 490.7 482.75 490.7 482.75 391.23 524.92 350.86 566 391.23" fill="#fff" stroke="#fdb718" stroke-linecap="square" stroke-miterlimit="10" stroke-width="4"/><path d="M524.38,395.4c-13.87,0-25.18,12-25.18,26.71v68.6h50.37V422.1C549.56,407.35,538.24,395.4,524.38,395.4Z" fill="#fdb718"/><line x1="307.81" y1="414.56" x2="429.29" y2="414.56" fill="none" stroke="#fdb718" stroke-miterlimit="10" stroke-width="4"/><line x1="307.81" y1="397.42" x2="429.29" y2="397.42" fill="none" stroke="#fdb718" stroke-miterlimit="10" stroke-width="4"/><line x1="171.29" y1="229.92" x2="565.81" y2="229.92" fill="#fff" stroke="#fdb718" stroke-miterlimit="10" stroke-width="4"/><path d="M197.76,256.61c-4.91,0-8.92,7.6-8.92,17V317.2h17.84V273.59C206.68,264.21,202.67,256.61,197.76,256.61Z" fill="#fdb718"/><path d="M228.61,256.61c-4.91,0-8.92,7.6-8.92,17V317.2h17.84V273.59C237.53,264.21,233.53,256.61,228.61,256.61Z" fill="#fdb718"/><rect x="180.86" y="317.2" width="64.65" height="17.41" fill="none" stroke="#fdb718" stroke-miterlimit="10" stroke-width="4"/><line x1="278.9" y1="397.78" x2="458.2" y2="397.78" fill="none" stroke="#fdb718" stroke-miterlimit="10" stroke-width="4"/><line x1="481.61" y1="232.86" x2="481.61" y2="400.36" fill="#fff" stroke="#fdb718" stroke-miterlimit="10" stroke-width="4"/><line x1="254.95" y1="231.5" x2="254.95" y2="399" fill="#fff" stroke="#fdb718" stroke-miterlimit="10" stroke-width="4"/><path d="M509.49,256.61c-4.91,0-8.92,7.6-8.92,17V317.2h17.84V273.59C518.41,264.21,514.4,256.61,509.49,256.61Z" fill="#fdb718"/><path d="M540.35,256.61c-4.91,0-8.92,7.6-8.92,17V317.2h17.84V273.59C549.27,264.21,545.26,256.61,540.35,256.61Z" fill="#fdb718"/><rect x="492.6" y="317.52" width="64.65" height="17.41" fill="none" stroke="#fdb718" stroke-miterlimit="10" stroke-width="4"/><polygon points="209.23 198.17 172.12 198.17 190.68 143.07 209.23 87.98 227.78 143.07 246.33 198.17 209.23 198.17" fill="#fff" stroke="#fdb718" stroke-miterlimit="10" stroke-width="4"/><polygon points="194.08 164.99 194.08 211.46 171.36 211.46 171.36 164.99 182.95 144.35 194.08 164.99" fill="#fff" stroke="#fdb718" stroke-miterlimit="10" stroke-width="4"/><polygon points="247.09 164.99 247.09 211.46 223.43 211.46 223.43 164.99 235.5 144.35 247.09 164.99" fill="#fff" stroke="#fdb718" stroke-miterlimit="10" stroke-width="4"/><polygon points="223.13 173.25 223.13 211.46 194.85 211.46 194.85 173.25 209.28 139.94 223.13 173.25" fill="#fff" stroke="#fdb718" stroke-miterlimit="10" stroke-width="4"/><path d="M209.12,171c-3.8,0-6.9,4.33-6.9,9.68v24.85H216V180.63C216,175.29,212.92,171,209.12,171Z" fill="#fdb718"/><polygon points="527.26 197.17 490.16 197.17 508.71 142.07 527.26 86.97 545.81 142.07 564.37 197.17 527.26 197.17" fill="#fff" stroke="#fdb718" stroke-miterlimit="10" stroke-width="4"/><polygon points="512.12 163.99 512.12 210.46 489.4 210.46 489.4 163.99 500.98 143.34 512.12 163.99" fill="#fff" stroke="#fdb718" stroke-miterlimit="10" stroke-width="4"/><polygon points="565.13 163.99 565.13 210.46 541.46 210.46 541.46 163.99 553.53 143.34 565.13 163.99" fill="#fff" stroke="#fdb718" stroke-miterlimit="10" stroke-width="4"/><polygon points="541.16 172.25 541.16 210.45 512.89 210.45 512.89 172.25 527.31 138.93 541.16 172.25" fill="#fff" stroke="#fdb718" stroke-miterlimit="10" stroke-width="4"/><path d="M527.16,170c-3.8,0-6.9,4.33-6.9,9.68v24.85h13.79V179.63C534.05,174.29,531,170,527.16,170Z" fill="#fdb718"/><line x1="171.29" y1="246.08" x2="564.37" y2="246.08" fill="none" stroke="#fdb718" stroke-miterlimit="10" stroke-width="4"/></g></svg>