<svg xmlns="http://www.w3.org/2000/svg" viewBox="0 0 738 528.12"><title>bay village</title><g id="bay_village" data-name="bay village"><path d="M462.36,163.21V491.83H294V163.21h2v-9.49h19.05v9.49h17.7v-9.49h19.06v9.49h17.7v-9.49h19.06v9.49h17.7v-9.49h19.05v9.49h17.7V146.6a10.42,10.42,0,0,1,4.48-6.71,9.18,9.18,0,0,1,10.08,0,10.48,10.48,0,0,1,4.51,7v16.37Z" fill="#fff" stroke="#fdb718" stroke-miterlimit="10" stroke-width="4"/><rect x="296.65" y="229.66" width="50.77" height="262.16" fill="#fff" stroke="#fdb718" stroke-miterlimit="10" stroke-width="4"/><rect x="189.86" y="47.09" width="106.8" height="444.73" fill="#fff" stroke="#fdb718" stroke-miterlimit="10" stroke-width="4"/><rect x="453.12" y="323.17" width="87.07" height="168.66" fill="#fff" stroke="#fdb718" stroke-miterlimit="10" stroke-width="4"/><path d="M218.82,277.17h.07a9.37,9.37,0,0,0-.07,1.22Z" fill="#fdb718"/><path d="M243.29,277.17v1.22a9.37,9.37,0,0,0-.07-1.22Z" fill="#fdb718"/><line x1="189.35" y1="375.44" x2="297.16" y2="375.44" fill="none" stroke="#fdb718" stroke-miterlimit="10" stroke-width="4"/><line x1="189.35" y1="391.61" x2="297.16" y2="391.61" fill="none" stroke="#fdb718" stroke-miterlimit="10" stroke-width="4"/><line x1="347.83" y1="391.57" x2="453.12" y2="391.57" fill="none" stroke="#fdb718" stroke-miterlimit="10" stroke-width="4"/><line x1="455.08" y1="342.01" x2="540.19" y2="342.01" fill="none" stroke="#fdb718" stroke-miterlimit="10" stroke-width="4"/><line x1="296.24" y1="375.44" x2="347.43" y2="375.44" fill="none" stroke="#fdb718" stroke-miterlimit="10" stroke-width="4"/><line x1="296.24" y1="385.62" x2="347.43" y2="385.62" fill="none" stroke="#fdb718" stroke-miterlimit="10" stroke-width="4"/><path d="M270.48,277.17a28.73,28.73,0,0,0,.16-3,27.25,27.25,0,1,0-54.5,0,28.73,28.73,0,0,0,.16,3" fill="none" stroke="#fdb718" stroke-miterlimit="10" stroke-width="4"/><line x1="213.23" y1="277.16" x2="273.28" y2="277.16" fill="none" stroke="#fdb718" stroke-miterlimit="10" stroke-width="4"/><path d="M243.23,193.95h.06a7.83,7.83,0,0,0-.06,1Z" fill="#fdb718"/><path d="M243.29,193.95v1a7.83,7.83,0,0,0-.06-1Z" fill="#fdb718"/><path d="M251.56,195v31.32H235V195a7.83,7.83,0,0,1,.06-1,8.29,8.29,0,0,1,16.48,0A7.83,7.83,0,0,1,251.56,195Z" fill="#fdb718"/><path d="M445.5,192.32v31.32H428.9V192.32a7.83,7.83,0,0,1,.06-1,8.29,8.29,0,0,1,16.48,0A7.83,7.83,0,0,1,445.5,192.32Z" fill="#fdb718"/><path d="M416.11,192.32v31.32H399.5V192.32a7.83,7.83,0,0,1,.06-1,8.29,8.29,0,0,1,16.48,0A7.83,7.83,0,0,1,416.11,192.32Z" fill="#fdb718"/><path d="M386.71,192.32v31.32H370.11V192.32a7.83,7.83,0,0,1,.06-1,8.29,8.29,0,0,1,16.48,0A7.83,7.83,0,0,1,386.71,192.32Z" fill="#fdb718"/><path d="M357.32,192.32v31.32H340.71V192.32a7.83,7.83,0,0,1,.06-1,8.29,8.29,0,0,1,16.48,0A7.83,7.83,0,0,1,357.32,192.32Z" fill="#fdb718"/><path d="M263.52,198.64a20.9,20.9,0,0,0,.12-2.23,20.39,20.39,0,1,0-40.78,0,20.9,20.9,0,0,0,.12,2.23" fill="none" stroke="#fdb718" stroke-miterlimit="10" stroke-width="4"/><line x1="220.87" y1="198.64" x2="265.65" y2="198.64" fill="none" stroke="#fdb718" stroke-miterlimit="10" stroke-width="4"/><line x1="188.87" y1="163.21" x2="297.64" y2="163.21" fill="none" stroke="#fdb718" stroke-miterlimit="10" stroke-width="4"/><line x1="189.04" y1="134.37" x2="297.47" y2="134.37" fill="none" stroke="#fdb718" stroke-miterlimit="10" stroke-width="4"/><line x1="188.85" y1="84.1" x2="297.66" y2="84.1" fill="none" stroke="#fdb718" stroke-miterlimit="10" stroke-width="4"/><line x1="189.01" y1="56.92" x2="296.36" y2="56.92" fill="none" stroke="#fdb718" stroke-miterlimit="10" stroke-width="4"/><line x1="189.58" y1="93.86" x2="296.93" y2="93.86" fill="none" stroke="#fdb718" stroke-miterlimit="10" stroke-width="4"/><rect x="226.68" y="142.65" width="12.28" height="12.28" fill="#fdb718"/><rect x="247.55" y="142.65" width="12.28" height="12.28" fill="#fdb718"/><rect x="221.37" y="93.86" width="4.75" height="22.3" fill="#fdb718"/><rect x="234.38" y="93.86" width="4.75" height="22.3" fill="#fdb718"/><rect x="247.38" y="93.86" width="4.75" height="22.3" fill="#fdb718"/><rect x="260.39" y="93.86" width="4.75" height="22.3" fill="#fdb718"/><rect x="231.01" y="333.17" width="24.49" height="42.27" fill="#fdb718"/><path d="M255.46,269.4v40.93H231.09V269.4a9.13,9.13,0,0,1,.09-1.34c.73-5.47,5.86-9.71,12.1-9.71s11.37,4.24,12.1,9.71A9.13,9.13,0,0,1,255.46,269.4Z" fill="#fdb718"/><line x1="233.27" y1="305.38" x2="233.27" y2="354.31" fill="none" stroke="#fdb718" stroke-miterlimit="10" stroke-width="4"/><line x1="253.26" y1="308.71" x2="253.26" y2="357.64" fill="none" stroke="#fdb718" stroke-miterlimit="10" stroke-width="4"/><rect x="233.32" y="409.77" width="19.86" height="31.54" fill="#fdb718"/><line x1="274.94" y1="375.44" x2="274.94" y2="391.61" fill="none" stroke="#fdb718" stroke-miterlimit="10" stroke-width="4"/><line x1="211.57" y1="375.44" x2="211.57" y2="391.61" fill="none" stroke="#fdb718" stroke-miterlimit="10" stroke-width="4"/><rect x="277.21" y="27" width="19.44" height="19.44" fill="#fff" stroke="#fdb718" stroke-miterlimit="10" stroke-width="4"/><rect x="189.86" y="27" width="19.44" height="19.44" fill="#fff" stroke="#fdb718" stroke-miterlimit="10" stroke-width="4"/><rect x="218.19" y="35.67" width="21.41" height="11.42" fill="#fff" stroke="#fdb718" stroke-miterlimit="10" stroke-width="4"/><rect x="247.55" y="35.67" width="21.41" height="11.42" fill="#fff" stroke="#fdb718" stroke-miterlimit="10" stroke-width="4"/><rect x="306.41" y="245.11" width="4.42" height="25.81" fill="#fdb718"/><rect x="326.67" y="272.08" width="4.42" height="25.81" fill="#fdb718"/><rect x="306.41" y="304.35" width="4.42" height="25.81" fill="#fdb718"/><rect x="326.67" y="331.33" width="4.42" height="25.81" fill="#fdb718"/><rect x="307.66" y="386.6" width="4.42" height="25.81" fill="#fdb718"/><rect x="327.93" y="413.58" width="4.42" height="25.81" fill="#fdb718"/><line x1="436.82" y1="276.64" x2="434.46" y2="276.64" fill="none" stroke="#fdb718" stroke-miterlimit="10" stroke-width="4"/><path d="M433.16,269.6v34.33H412.72V269.6a7.66,7.66,0,0,1,.08-1.12c.61-4.59,4.92-8.15,10.15-8.15s9.53,3.56,10.15,8.15A7.66,7.66,0,0,1,433.16,269.6Z" fill="#fdb718"/><path d="M445.05,274.11c0,.85-.05,1.69-.14,2.53H362.33a22.64,22.64,0,0,1-.14-2.53A23,23,0,0,1,385,250.92a22.71,22.71,0,0,1,18.58,9.69,22.71,22.71,0,0,1,18.58-9.69A23,23,0,0,1,445.05,274.11Z" fill="none" stroke="#fdb718" stroke-miterlimit="10" stroke-width="4"/><path d="M396,269.6v34.33H375.57V269.6a7.66,7.66,0,0,1,.08-1.12c.61-4.59,4.92-8.15,10.15-8.15s9.53,3.56,10.15,8.15A7.66,7.66,0,0,1,396,269.6Z" fill="#fdb718"/><line x1="403.62" y1="260.61" x2="403.62" y2="277.78" fill="none" stroke="#fdb718" stroke-miterlimit="10" stroke-width="4"/><line x1="340.52" y1="224.86" x2="445.5" y2="224.86" fill="none" stroke="#fdb718" stroke-miterlimit="10" stroke-width="4"/><line x1="339.69" y1="375.44" x2="453.12" y2="375.44" fill="none" stroke="#fdb718" stroke-miterlimit="10" stroke-width="4"/><rect x="375.57" y="330.64" width="20.44" height="43.4" fill="#fdb718"/><rect x="412.72" y="330.64" width="20.44" height="43.4" fill="#fdb718"/><line x1="377.56" y1="303.94" x2="377.56" y2="344.23" fill="none" stroke="#fdb718" stroke-miterlimit="10" stroke-width="4"/><line x1="394" y1="303.02" x2="394" y2="343.32" fill="none" stroke="#fdb718" stroke-miterlimit="10" stroke-width="4"/><line x1="414.75" y1="301.71" x2="414.75" y2="342.01" fill="none" stroke="#fdb718" stroke-miterlimit="10" stroke-width="4"/><line x1="431.17" y1="301.71" x2="431.17" y2="342.01" fill="none" stroke="#fdb718" stroke-miterlimit="10" stroke-width="4"/><rect x="376.78" y="409.02" width="19.86" height="31.54" fill="#fdb718"/><rect x="469.71" y="360.47" width="13.68" height="24.04" fill="#fdb718"/><rect x="507.24" y="360.47" width="13.68" height="24.04" fill="#fdb718"/><rect x="413.01" y="409.02" width="19.86" height="31.54" fill="#fdb718"/><polygon points="496.65 323.54 444.16 323.54 470.41 284.34 496.65 245.13 522.9 284.34 549.15 323.54 496.65 323.54" fill="#fff" stroke="#fdb718" stroke-miterlimit="10" stroke-width="4"/><path d="M322.29,168.5l-27.11,59.14h54.21Zm0,10.12,20.27,44.22H302Z" fill="#fdb718"/><polygon points="342.56 222.84 302.02 222.84 322.29 178.62 342.56 222.84" fill="#fff"/><polyline points="329.93 191.93 327.51 191.93 316.52 191.93 313.83 191.93" fill="none" stroke="#fdb718" stroke-miterlimit="10" stroke-width="4"/><polyline points="335.24 203.09 332.39 203.09 309.71 203.09 307.45 203.09" fill="none" stroke="#fdb718" stroke-miterlimit="10" stroke-width="4"/><polyline points="340.73 214.23 337.76 214.23 306.75 214.23 304.53 214.23" fill="none" stroke="#fdb718" stroke-miterlimit="10" stroke-width="4"/></g></svg>