<svg xmlns="http://www.w3.org/2000/svg" viewBox="0 0 738 528.12"><title>beacon hill</title><g id="beacon_hill" data-name="beacon hill"><line x1="369" y1="42.27" x2="369" y2="91.62" fill="#fff" stroke="#fdb718" stroke-miterlimit="10" stroke-width="4"/><path d="M388.66,76.71H349.34c0-12.08,8.79-21.85,19.66-21.85S388.66,64.63,388.66,76.71Z" fill="#fdb718"/><rect x="353.07" y="76.71" width="31.86" height="41.64" fill="#fff" stroke="#fdb718" stroke-miterlimit="10" stroke-width="4"/><line x1="341.45" y1="76.71" x2="396.55" y2="76.71" fill="#fff" stroke="#fdb718" stroke-miterlimit="10" stroke-width="4"/><circle cx="369" cy="189.79" r="75.56" fill="#fff" stroke="#fdb718" stroke-miterlimit="10" stroke-width="4"/><rect x="251.8" y="224.16" width="234.39" height="48.83" fill="#fff" stroke="#fdb718" stroke-miterlimit="10" stroke-width="4"/><polygon points="369.25 159.99 245.25 224.16 492.75 224.16 369.25 159.99" fill="#fff" stroke="#fdb718" stroke-miterlimit="10" stroke-width="4"/><rect x="270.45" y="240.09" width="22.85" height="32.9" fill="#fdb718"/><rect x="315.03" y="240.09" width="22.85" height="32.9" fill="#fdb718"/><rect x="357.58" y="240.09" width="22.85" height="32.9" fill="#fdb718"/><rect x="404.18" y="240.09" width="22.85" height="32.9" fill="#fdb718"/><rect x="448.76" y="240.09" width="22.85" height="32.9" fill="#fdb718"/><rect x="25.89" y="284.3" width="686.22" height="206.64" fill="#fff" stroke="#fdb718" stroke-miterlimit="10" stroke-width="4"/><line x1="25.89" y1="311.11" x2="712.11" y2="311.11" fill="#fff" stroke="#fdb718" stroke-miterlimit="10" stroke-width="4"/><line x1="25.89" y1="470.16" x2="712.11" y2="470.16" fill="#fff" stroke="#fdb718" stroke-miterlimit="10" stroke-width="4"/><line x1="25.89" y1="411.34" x2="712.11" y2="411.34" fill="#fff" stroke="#fdb718" stroke-miterlimit="10" stroke-width="4"/><rect x="166.22" y="261.17" width="405.56" height="229.77" fill="#fff" stroke="#fdb718" stroke-miterlimit="10" stroke-width="4"/><line x1="166.22" y1="387.62" x2="571.78" y2="387.62" fill="#fff" stroke="#fdb718" stroke-miterlimit="10" stroke-width="4"/><line x1="166.22" y1="300.31" x2="571.78" y2="300.31" fill="#fff" stroke="#fdb718" stroke-miterlimit="10" stroke-width="4"/><path d="M227.42,438.9v52.93h-36.9V438.9c0-15.21,8.26-27.55,18.45-27.55S227.42,423.69,227.42,438.9Z" fill="#fdb718"/><path d="M547.14,438v52.93h-36.9V438c0-15.21,8.26-27.55,18.45-27.55S547.14,422.8,547.14,438Z" fill="#fdb718"/><path d="M467.21,438v52.93h-36.9V438c0-15.21,8.26-27.55,18.45-27.55S467.21,422.8,467.21,438Z" fill="#fdb718"/><path d="M307.35,438v52.93h-36.9V438c0-15.21,8.26-27.55,18.45-27.55S307.35,422.8,307.35,438Z" fill="#fdb718"/><rect x="243.87" y="300.31" width="16.61" height="87.31" fill="#fff" stroke="#fdb718" stroke-miterlimit="10" stroke-width="4"/><rect x="166.08" y="301.08" width="16.61" height="86.28" fill="#fff" stroke="#fdb718" stroke-miterlimit="10" stroke-width="4"/><rect x="555.03" y="301.08" width="16.61" height="86.53" fill="#fff" stroke="#fdb718" stroke-miterlimit="10" stroke-width="3.98"/><rect x="477.24" y="300.31" width="16.61" height="87.31" fill="#fff" stroke="#fdb718" stroke-miterlimit="10" stroke-width="4"/><rect x="321.66" y="300.31" width="16.61" height="87.31" fill="#fff" stroke="#fdb718" stroke-miterlimit="10" stroke-width="4"/><rect x="399.45" y="300.31" width="16.61" height="87.31" fill="#fff" stroke="#fdb718" stroke-miterlimit="10" stroke-width="4"/><path d="M387.45,438v52.93h-36.9V438c0-15.21,8.26-27.55,18.45-27.55S387.45,422.8,387.45,438Z" fill="#fdb718"/><line x1="166.22" y1="432.93" x2="571.78" y2="432.93" fill="#fff" stroke="#fdb718" stroke-miterlimit="10" stroke-width="4"/><rect x="135.53" y="450.04" width="30.55" height="40.24" fill="#fff" stroke="#fdb718" stroke-miterlimit="10" stroke-width="4"/><rect x="571.64" y="450.04" width="30.55" height="40.24" fill="#fff" stroke="#fdb718" stroke-miterlimit="10" stroke-width="4"/><rect x="40.95" y="424.62" width="15.42" height="32.9" fill="#fdb718"/><rect x="78.34" y="424.62" width="15.42" height="32.9" fill="#fdb718"/><rect x="115.74" y="424.62" width="15.42" height="32.9" fill="#fdb718"/><rect x="602.19" y="424.62" width="15.42" height="32.9" fill="#fdb718"/><rect x="639.58" y="424.62" width="15.42" height="32.9" fill="#fdb718"/><rect x="676.97" y="424.62" width="15.42" height="32.9" fill="#fdb718"/><rect x="275.32" y="317.66" width="29.57" height="54.15" fill="#fdb718"/><rect x="354.22" y="317.66" width="29.57" height="54.15" fill="#fdb718"/><rect x="433.35" y="317.66" width="29.57" height="54.15" fill="#fdb718"/><rect x="512.37" y="316.89" width="29.57" height="54.15" fill="#fdb718"/><rect x="196.31" y="316.89" width="29.57" height="54.15" fill="#fdb718"/><path d="M680.06,332c-5.73,0-11.13,4.64-11.13,10.37V390h22.26V342.33C691.19,336.6,685.79,332,680.06,332Z" fill="#fdb718"/><path d="M601.13,332C595.4,332,590,336.6,590,342.33V390h22.26V342.33C612.26,336.6,606.86,332,601.13,332Z" fill="#fdb718"/><path d="M640.59,332c-5.73,0-11.13,4.64-11.13,10.37V390h22.26V342.33C651.72,336.6,646.32,332,640.59,332Z" fill="#fdb718"/><path d="M133.23,332c-5.73,0-11.13,4.64-11.13,10.37V390h22.26V342.33C144.36,336.6,139,332,133.23,332Z" fill="#fdb718"/><path d="M54.3,332c-5.73,0-11.13,4.64-11.13,10.37V390H65.43V342.33C65.43,336.6,60,332,54.3,332Z" fill="#fdb718"/><path d="M93.76,332c-5.73,0-11.13,4.64-11.13,10.37V390h22.26V342.33C104.89,336.6,99.49,332,93.76,332Z" fill="#fdb718"/><circle cx="248.93" cy="411.41" r="8.22" fill="#fff" stroke="#fdb718" stroke-miterlimit="10" stroke-width="4"/><circle cx="329.96" cy="411.41" r="8.22" fill="#fff" stroke="#fdb718" stroke-miterlimit="10" stroke-width="4"/><circle cx="408.88" cy="411.41" r="8.22" fill="#fff" stroke="#fdb718" stroke-miterlimit="10" stroke-width="4"/><circle cx="488.73" cy="411.41" r="8.22" fill="#fff" stroke="#fdb718" stroke-miterlimit="10" stroke-width="4"/><rect x="341.45" y="102.93" width="55.1" height="13.88" fill="#fff" stroke="#fdb718" stroke-miterlimit="10" stroke-width="4"/></g></svg>