<svg xmlns="http://www.w3.org/2000/svg" viewBox="0 0 738 528.12"><title>brighton</title><g id="brighton"><rect x="242.22" y="176.99" width="256.37" height="314.84" fill="#fff" stroke="#fdb718" stroke-miterlimit="10" stroke-width="4"/><line x1="255.08" y1="348.83" x2="482.7" y2="348.83" fill="#fff" stroke="#fdb718" stroke-miterlimit="10" stroke-width="4"/><polygon points="409.99 125.86 330.69 125.86 211.64 182.25 529.73 182.25 409.99 125.86" fill="#fff" stroke="#fdb718" stroke-miterlimit="10" stroke-width="4"/><rect x="482.7" y="141.82" width="74.93" height="350.01" fill="#fff" stroke="#fdb718" stroke-miterlimit="10" stroke-width="4"/><polygon points="520.17 147.14 475.84 147.14 498.01 90.4 520.17 33.66 542.34 90.4 564.5 147.14 520.17 147.14" fill="#fff" stroke="#fdb718" stroke-miterlimit="10" stroke-width="4"/><line x1="534.51" y1="70.47" x2="505.84" y2="70.47" fill="#fff" stroke="#fdb718" stroke-miterlimit="10" stroke-width="4"/><line x1="256.86" y1="225.86" x2="482.92" y2="225.86" fill="#fff" stroke="#fdb718" stroke-miterlimit="10" stroke-width="4"/><line x1="251.84" y1="171.64" x2="482.92" y2="171.64" fill="#fff" stroke="#fdb718" stroke-miterlimit="10" stroke-width="4"/><line x1="255.08" y1="284.38" x2="482.92" y2="284.38" fill="#fff" stroke="#fdb718" stroke-miterlimit="10" stroke-width="4"/><line x1="482.92" y1="209.91" x2="557.42" y2="209.91" fill="#fff" stroke="#fdb718" stroke-miterlimit="10" stroke-width="4"/><line x1="482.92" y1="158.84" x2="557.42" y2="158.84" fill="#fff" stroke="#fdb718" stroke-miterlimit="10" stroke-width="4"/><line x1="482.92" y1="272.67" x2="557.42" y2="272.67" fill="#fff" stroke="#fdb718" stroke-miterlimit="10" stroke-width="4"/><rect x="314.12" y="284.38" width="109.78" height="207.45" fill="#fff" stroke="#fdb718" stroke-miterlimit="10" stroke-width="4"/><line x1="314.12" y1="316.82" x2="423.89" y2="316.82" fill="#fff" stroke="#fdb718" stroke-miterlimit="10" stroke-width="4"/><line x1="314.38" y1="306.45" x2="424.16" y2="306.45" fill="#fff" stroke="#fdb718" stroke-miterlimit="10" stroke-width="4"/><line x1="255.3" y1="414.17" x2="482.92" y2="414.17" fill="#fff" stroke="#fdb718" stroke-miterlimit="10" stroke-width="4"/><line x1="255.08" y1="448.21" x2="482.92" y2="448.21" fill="#fff" stroke="#fdb718" stroke-miterlimit="10" stroke-width="4"/><line x1="481.14" y1="401.4" x2="559.2" y2="401.4" fill="#fff" stroke="#fdb718" stroke-miterlimit="10" stroke-width="4"/><line x1="481.14" y1="327.99" x2="559.2" y2="327.99" fill="#fff" stroke="#fdb718" stroke-miterlimit="10" stroke-width="4"/><line x1="481.14" y1="435.44" x2="559.2" y2="435.44" fill="#fff" stroke="#fdb718" stroke-miterlimit="10" stroke-width="4"/><rect x="314.74" y="458.85" width="18.99" height="32.98" fill="#fff" stroke="#fdb718" stroke-miterlimit="10" stroke-width="4"/><rect x="403.4" y="458.85" width="18.99" height="32.98" fill="#fff" stroke="#fdb718" stroke-miterlimit="10" stroke-width="4"/><path d="M520.17,362.77a10.85,10.85,0,0,0-10.86,10.82v27.8H531V373.6A10.85,10.85,0,0,0,520.17,362.77Z" fill="#fdb718"/><path d="M452.52,377.67c-4.82,0-8.76,4.85-8.76,10.82v27.8h17.52v-27.8C461.28,382.51,457.34,377.67,452.52,377.67Z" fill="#fdb718"/><path d="M452.52,311.71c-4.82,0-8.76,4.85-8.76,10.82v27.8h17.52v-27.8C461.28,316.55,457.34,311.71,452.52,311.71Z" fill="#fdb718"/><path d="M452.52,246.22c-4.82,0-8.76,4.85-8.76,10.82v27.8h17.52V257C461.28,251.07,457.34,246.22,452.52,246.22Z" fill="#fdb718"/><path d="M285.23,246.22c-4.82,0-8.76,4.85-8.76,10.82v27.8H294V257C294,251.07,290.05,246.22,285.23,246.22Z" fill="#fdb718"/><path d="M285.23,376.44c-4.82,0-8.76,4.85-8.76,10.82v27.8H294v-27.8C294,381.29,290.05,376.44,285.23,376.44Z" fill="#fdb718"/><path d="M285.23,310.48c-4.82,0-8.76,4.85-8.76,10.82v27.8H294v-27.8C294,315.33,290.05,310.48,285.23,310.48Z" fill="#fdb718"/><path d="M369,246.22c-4.82,0-8.76,4.85-8.76,10.82v27.8h17.52V257C377.76,251.07,373.83,246.22,369,246.22Z" fill="#fdb718"/><path d="M520.17,289.53a10.85,10.85,0,0,0-10.86,10.82v27.8H531v-27.8A10.85,10.85,0,0,0,520.17,289.53Z" fill="#fdb718"/><path d="M520.17,233.64a10.85,10.85,0,0,0-10.86,10.82v27.8H531v-27.8A10.85,10.85,0,0,0,520.17,233.64Z" fill="#fdb718"/><path d="M368.77,391.47a21.7,21.7,0,0,0-21.71,21.65v55.6h43.42v-55.6A21.7,21.7,0,0,0,368.77,391.47Z" fill="#fdb718"/><line x1="333.11" y1="468.72" x2="404.91" y2="468.72" fill="#fff" stroke="#fdb718" stroke-miterlimit="10" stroke-width="4"/><line x1="333.11" y1="480.12" x2="404.91" y2="480.12" fill="#fff" stroke="#fdb718" stroke-miterlimit="10" stroke-width="4"/><rect x="328.96" y="327.99" width="14.67" height="26.77" fill="#fdb718"/><rect x="361.67" y="327.99" width="14.67" height="26.77" fill="#fdb718"/><rect x="394.38" y="327.99" width="14.67" height="26.77" fill="#fdb718"/><rect x="445.86" y="457.67" width="15.96" height="24.47" fill="#fdb718"/><rect x="382.74" y="260.44" width="15.96" height="24.47" fill="#fdb718"/><rect x="339.32" y="259.11" width="15.96" height="24.47" fill="#fdb718"/><rect x="509.24" y="436.02" width="21.86" height="33.51" fill="#fdb718"/><rect x="274.04" y="193.15" width="21.86" height="33.51" fill="#fdb718"/><rect x="442.65" y="193.15" width="21.86" height="33.51" fill="#fdb718"/><rect x="358.34" y="193.15" width="21.86" height="33.51" fill="#fdb718"/><rect x="400.49" y="193.15" width="21.86" height="33.51" fill="#fdb718"/><rect x="316.19" y="193.15" width="21.86" height="33.51" fill="#fdb718"/><rect x="509.24" y="176.99" width="21.86" height="33.51" fill="#fdb718"/><rect x="180.36" y="144.61" width="74.93" height="347.21" fill="#fff" stroke="#fdb718" stroke-miterlimit="10" stroke-width="3.98"/><polygon points="217.83 149.93 173.5 149.93 195.66 93.19 217.83 36.45 239.99 93.19 262.16 149.93 217.83 149.93" fill="#fff" stroke="#fdb718" stroke-miterlimit="10" stroke-width="4"/><line x1="232.16" y1="73.26" x2="203.49" y2="73.26" fill="#fff" stroke="#fdb718" stroke-miterlimit="10" stroke-width="4"/><line x1="180.58" y1="212.7" x2="255.08" y2="212.7" fill="#fff" stroke="#fdb718" stroke-miterlimit="10" stroke-width="4"/><line x1="180.58" y1="161.63" x2="255.08" y2="161.63" fill="#fff" stroke="#fdb718" stroke-miterlimit="10" stroke-width="4"/><line x1="180.58" y1="275.46" x2="255.08" y2="275.46" fill="#fff" stroke="#fdb718" stroke-miterlimit="10" stroke-width="4"/><line x1="178.8" y1="404.19" x2="256.86" y2="404.19" fill="#fff" stroke="#fdb718" stroke-miterlimit="10" stroke-width="4"/><line x1="178.8" y1="330.79" x2="256.86" y2="330.79" fill="#fff" stroke="#fdb718" stroke-miterlimit="10" stroke-width="4"/><line x1="178.8" y1="438.23" x2="256.86" y2="438.23" fill="#fff" stroke="#fdb718" stroke-miterlimit="10" stroke-width="4"/><path d="M217.83,365.57A10.85,10.85,0,0,0,207,376.39v27.8h21.71v-27.8A10.85,10.85,0,0,0,217.83,365.57Z" fill="#fdb718"/><path d="M217.83,292.32A10.85,10.85,0,0,0,207,303.15v27.8h21.71v-27.8A10.85,10.85,0,0,0,217.83,292.32Z" fill="#fdb718"/><path d="M217.83,236.43A10.85,10.85,0,0,0,207,247.26v27.8h21.71v-27.8A10.85,10.85,0,0,0,217.83,236.43Z" fill="#fdb718"/><rect x="206.9" y="438.81" width="21.86" height="33.51" fill="#fdb718"/><rect x="206.9" y="179.78" width="21.86" height="33.51" fill="#fdb718"/><rect x="277.25" y="457.67" width="15.96" height="24.47" fill="#fdb718"/><circle cx="390.62" cy="242.06" r="6.29" fill="#fff" stroke="#fdb718" stroke-miterlimit="10" stroke-width="4"/><circle cx="347.3" cy="242.06" r="6.29" fill="#fff" stroke="#fdb718" stroke-miterlimit="10" stroke-width="4"/><rect x="333.34" y="377.67" width="10.53" height="10.53" fill="#fff" stroke="#fdb718" stroke-miterlimit="10" stroke-width="4"/><rect x="393.67" y="377.67" width="10.53" height="10.53" fill="#fff" stroke="#fdb718" stroke-miterlimit="10" stroke-width="4"/><polygon points="387.65 104.38 387.65 157.94 350.35 157.94 350.35 104.38 369 87.04 387.65 104.38" fill="#fff" stroke="#fdb718" stroke-miterlimit="10" stroke-width="4"/><line x1="369" y1="41.88" x2="369" y2="87.94" fill="#fff" stroke="#fdb718" stroke-miterlimit="10" stroke-width="4"/><path d="M369,109.32c-4.82,0-8.76,4.85-8.76,10.82v27.8h17.52v-27.8C377.76,114.16,373.82,109.32,369,109.32Z" fill="#fdb718"/><line x1="355.68" y1="64.91" x2="381.85" y2="64.91" fill="#fff" stroke="#fdb718" stroke-miterlimit="10" stroke-width="4"/></g></svg>