<svg xmlns="http://www.w3.org/2000/svg" viewBox="0 0 738 528.12"><title>charlestown</title><g id="charlestown"><polygon points="182.41 123.5 182.41 491.83 106.89 491.83 106.89 123.5 125.76 77.18 144.63 30.86 163.53 77.18 182.41 123.5" fill="#fff" stroke="#fdb718" stroke-miterlimit="10" stroke-width="4"/><rect x="135.04" y="92.08" width="19.21" height="19.21" fill="#fdb718"/><rect x="206.46" y="317.86" width="423.85" height="173.96" fill="#fff" stroke="#fdb718" stroke-miterlimit="10" stroke-width="4"/><line x1="394.46" y1="362.08" x2="448.64" y2="362.08" fill="none" stroke="#fdb718" stroke-miterlimit="10" stroke-width="4"/><rect x="394.46" y="375.87" width="48.89" height="80.74" fill="#fdb718"/><polygon points="514.91 307.83 514.91 309.23 323.65 309.23 323.46 307.39 362.49 289.41 420.2 262.83 477.92 289.41 514.02 307.39 514.91 307.83" fill="#fff" stroke="#fdb718" stroke-miterlimit="10" stroke-width="4"/><rect x="323.46" y="456.6" width="191.45" height="11.53" fill="#fff" stroke="#fdb718" stroke-miterlimit="10" stroke-width="4"/><rect x="312.73" y="468.14" width="212.91" height="11.53" fill="#fff" stroke="#fdb718" stroke-miterlimit="10" stroke-width="4"/><rect x="296.68" y="479.65" width="245" height="11.53" fill="#fff" stroke="#fdb718" stroke-miterlimit="10" stroke-width="4"/><polygon points="513.41 337.17 323.46 337.17 323.65 309.23 514.91 309.23 514.91 337.17 513.41 337.17" fill="#fff" stroke="#fdb718" stroke-miterlimit="10" stroke-width="3.98"/><rect x="327.23" y="350.59" width="10.57" height="105.51" fill="#fff" stroke="#fdb718" stroke-miterlimit="10" stroke-width="4"/><rect x="323.46" y="442.93" width="18.11" height="13.42" fill="#fff" stroke="#fdb718" stroke-miterlimit="10" stroke-width="4"/><rect x="323.46" y="337.17" width="18.11" height="13.42" fill="#fff" stroke="#fdb718" stroke-miterlimit="10" stroke-width="4"/><rect x="386.14" y="350.84" width="10.57" height="105.51" fill="#fff" stroke="#fdb718" stroke-miterlimit="10" stroke-width="4"/><rect x="382.37" y="443.18" width="18.11" height="13.42" fill="#fff" stroke="#fdb718" stroke-miterlimit="10" stroke-width="4"/><rect x="382.37" y="337.42" width="18.11" height="13.42" fill="#fff" stroke="#fdb718" stroke-miterlimit="10" stroke-width="4"/><rect x="443.35" y="350.84" width="10.57" height="105.51" fill="#fff" stroke="#fdb718" stroke-miterlimit="10" stroke-width="4"/><rect x="439.58" y="443.18" width="18.11" height="13.42" fill="#fff" stroke="#fdb718" stroke-miterlimit="10" stroke-width="4"/><rect x="439.58" y="337.42" width="18.11" height="13.42" fill="#fff" stroke="#fdb718" stroke-miterlimit="10" stroke-width="4"/><rect x="500.56" y="350.59" width="10.57" height="105.51" fill="#fff" stroke="#fdb718" stroke-miterlimit="10" stroke-width="4"/><rect x="496.8" y="442.93" width="18.11" height="13.42" fill="#fff" stroke="#fdb718" stroke-miterlimit="10" stroke-width="4"/><rect x="496.8" y="337.17" width="18.11" height="13.42" fill="#fff" stroke="#fdb718" stroke-miterlimit="10" stroke-width="4"/><line x1="631.11" y1="344.13" x2="514.91" y2="344.13" fill="none" stroke="#fdb718" stroke-miterlimit="10" stroke-width="4"/><line x1="631.11" y1="329.68" x2="514.91" y2="329.68" fill="none" stroke="#fdb718" stroke-miterlimit="10" stroke-width="4"/><line x1="325.15" y1="344.13" x2="207.26" y2="344.13" fill="none" stroke="#fdb718" stroke-miterlimit="10" stroke-width="4"/><line x1="325.15" y1="329.68" x2="207.26" y2="329.68" fill="none" stroke="#fdb718" stroke-miterlimit="10" stroke-width="4"/><rect x="560.8" y="376.19" width="21.98" height="40.37" fill="#fdb718"/><rect x="254" y="376.19" width="21.98" height="40.37" fill="#fdb718"/><line x1="207.26" y1="456.11" x2="631.11" y2="456.11" fill="none" stroke="#fdb718" stroke-miterlimit="10" stroke-width="4"/><rect x="247.59" y="367.68" width="35.14" height="57.39" fill="none" stroke="#fdb718" stroke-miterlimit="10" stroke-width="4"/><rect x="554.22" y="367.68" width="35.14" height="57.39" fill="none" stroke="#fdb718" stroke-miterlimit="10" stroke-width="4"/><line x1="144.65" y1="168.95" x2="164.82" y2="168.95" fill="none" stroke="#fdb718" stroke-miterlimit="10" stroke-width="4"/><line x1="124.47" y1="247.95" x2="144.65" y2="247.95" fill="none" stroke="#fdb718" stroke-miterlimit="10" stroke-width="4"/><line x1="145.69" y1="337.42" x2="165.86" y2="337.42" fill="none" stroke="#fdb718" stroke-miterlimit="10" stroke-width="4"/><line x1="124.47" y1="429.95" x2="144.65" y2="429.95" fill="none" stroke="#fdb718" stroke-miterlimit="10" stroke-width="4"/></g></svg>