<svg xmlns="http://www.w3.org/2000/svg" viewBox="0 0 738 528.12"><title>dorchester</title><g id="dorchester"><rect x="242.3" y="165.47" width="257.31" height="326.35" fill="#fff" stroke="#fdb717" stroke-miterlimit="10" stroke-width="4"/><rect x="423.84" y="196.82" width="40.8" height="41.07" fill="#fdb718"/><rect x="423.84" y="292.69" width="40.8" height="41.07" fill="#fdb718"/><rect x="423.84" y="392.46" width="40.8" height="41.07" fill="#fdb718"/><rect x="295.88" y="327.36" width="82.93" height="59.03" fill="#fff" stroke="#fdb717" stroke-miterlimit="10" stroke-width="4"/><rect x="295.88" y="225.33" width="82.93" height="59.03" fill="#fff" stroke="#fdb717" stroke-miterlimit="10" stroke-width="4"/><rect x="295.88" y="431.31" width="82.93" height="59.03" fill="#fff" stroke="#fdb717" stroke-miterlimit="10" stroke-width="4"/><line x1="313.2" y1="430.68" x2="313.2" y2="469.18" fill="#fff" stroke="#fdb717" stroke-miterlimit="10" stroke-width="4"/><line x1="332.45" y1="430.68" x2="332.45" y2="469.18" fill="#fff" stroke="#fdb717" stroke-miterlimit="10" stroke-width="4"/><line x1="351.7" y1="430.68" x2="351.7" y2="469.18" fill="#fff" stroke="#fdb717" stroke-miterlimit="10" stroke-width="4"/><line x1="295.88" y1="367.15" x2="388.28" y2="367.15" fill="#fff" stroke="#fdb717" stroke-miterlimit="10" stroke-width="4"/><line x1="295.88" y1="267.05" x2="388.28" y2="267.05" fill="#fff" stroke="#fdb717" stroke-miterlimit="10" stroke-width="4"/><line x1="313.2" y1="226.62" x2="313.2" y2="265.12" fill="#fff" stroke="#fdb717" stroke-miterlimit="10" stroke-width="4"/><line x1="332.45" y1="226.62" x2="332.45" y2="265.12" fill="#fff" stroke="#fdb717" stroke-miterlimit="10" stroke-width="4"/><line x1="351.7" y1="226.62" x2="351.7" y2="265.12" fill="#fff" stroke="#fdb717" stroke-miterlimit="10" stroke-width="4"/><line x1="313.2" y1="326.72" x2="313.2" y2="365.23" fill="#fff" stroke="#fdb717" stroke-miterlimit="10" stroke-width="4"/><line x1="332.45" y1="326.72" x2="332.45" y2="365.23" fill="#fff" stroke="#fdb717" stroke-miterlimit="10" stroke-width="4"/><line x1="351.7" y1="326.72" x2="351.7" y2="365.23" fill="#fff" stroke="#fdb717" stroke-miterlimit="10" stroke-width="4"/><rect x="242.3" y="471.1" width="257.31" height="20.72" fill="#fff" stroke="#fdb717" stroke-miterlimit="10" stroke-width="4"/><polygon points="505.65 164.78 232.35 164.78 228.33 143.72 509.67 143.72 505.65 164.78" fill="#fff" stroke="#fdb717" stroke-miterlimit="10" stroke-width="4"/><rect x="274.27" y="165.17" width="114.95" height="19.82" fill="#fff" stroke="#fdb717" stroke-miterlimit="10" stroke-width="4"/><rect x="274.98" y="470.72" width="114.95" height="19.82" fill="#fff" stroke="#fdb717" stroke-miterlimit="10" stroke-width="4"/><rect x="274.27" y="166.36" width="21.6" height="322.89" fill="#fff" stroke="#fdb717" stroke-miterlimit="10" stroke-width="4"/><rect x="368.39" y="166.36" width="20.83" height="322.89" fill="#fff" stroke="#fdb717" stroke-miterlimit="10" stroke-width="4"/></g></svg>