<svg xmlns="http://www.w3.org/2000/svg" viewBox="0 0 738 528.12"><title>downtown</title><g id="downtown"><polygon points="522.4 216.07 522.4 221.6 520.87 221.6 520.87 219.22 218.57 219.22 218.57 221.6 215.6 221.6 215.6 216.93 370.02 131.56 522.4 216.07" fill="#fff" stroke="#fdb718" stroke-miterlimit="10" stroke-width="4"/><rect x="215.6" y="219.22" width="306.8" height="2.38" fill="#fff" stroke="#fdb718" stroke-miterlimit="10" stroke-width="4"/><polygon points="342.78 146.62 369.1 132.72 396.15 145.96 395.88 114.39 403.26 114.39 403.26 98.22 394.74 98.22 394.74 97.09 342.6 97.09 342.6 98.22 334.74 98.22 334.74 114.39 342.62 114.39 342.78 146.62" fill="#fff" stroke="#fdb718" stroke-miterlimit="10" stroke-width="4"/><polygon points="393.67 48.19 393.67 55.48 390.92 55.48 390.92 97.09 347.08 97.09 347.08 55.48 344.33 55.48 344.33 48.19 393.67 48.19" fill="#fff" stroke="#fdb718" stroke-miterlimit="10" stroke-width="4"/><rect x="364.49" y="56.8" width="8.87" height="34.95" fill="#fdb718"/><rect x="377.96" y="56.8" width="8.67" height="34.95" fill="#fdb718"/><rect x="351.38" y="56.8" width="8.39" height="34.95" fill="#fdb718"/><path d="M369,25.72c-11.45,0-20.73,9.56-20.73,22.47h41.46C389.73,35.27,380.45,25.72,369,25.72Z" fill="#fff" stroke="#fdb718" stroke-miterlimit="10" stroke-width="4"/><rect x="215.6" y="219.22" width="306.8" height="91.34" fill="#fff" stroke="#fdb718" stroke-miterlimit="10" stroke-width="4"/><rect x="215.6" y="310.56" width="306.8" height="88.96" fill="#fff" stroke="#fdb718" stroke-miterlimit="10" stroke-width="4"/><rect x="215.61" y="399.52" width="306.78" height="91.21" fill="#fff" stroke="#fdb718" stroke-miterlimit="10" stroke-width="4"/><path d="M497.91,255v31.18H471.79V255a13.06,13.06,0,1,1,26.13,0Z" fill="#fdb718"/><path d="M440,255v31.18H413.86V255A13.06,13.06,0,1,1,440,255Z" fill="#fdb718"/><path d="M382.06,255v31.18H355.94V255a13.06,13.06,0,1,1,26.13,0Z" fill="#fdb718"/><path d="M324.14,255v31.18H298V255a13.06,13.06,0,1,1,26.13,0Z" fill="#fdb718"/><path d="M266.21,255v31.18H240.09V255a13.06,13.06,0,1,1,26.13,0Z" fill="#fdb718"/><path d="M497.91,348.91V380.1H471.79V348.91a13.06,13.06,0,1,1,26.13,0Z" fill="#fdb718"/><path d="M440,348.91V380.1H413.86V348.91a13.06,13.06,0,1,1,26.13,0Z" fill="#fdb718"/><path d="M382.06,348.91V380.1H355.94V348.91a13.06,13.06,0,1,1,26.13,0Z" fill="#fdb718"/><path d="M324.14,348.91V380.1H298V348.91a13.06,13.06,0,1,1,26.13,0Z" fill="#fdb718"/><path d="M266.21,348.91V380.1H240.09V348.91a13.06,13.06,0,1,1,26.13,0Z" fill="#fdb718"/><path d="M497.91,442.8V474H471.79V442.8a13.06,13.06,0,1,1,26.13,0Z" fill="#fdb718"/><path d="M440,442.8V474H413.86V442.8a13.06,13.06,0,1,1,26.13,0Z" fill="#fdb718"/><path d="M382.06,442.8V474H355.94V442.8a13.06,13.06,0,1,1,26.13,0Z" fill="#fdb718"/><path d="M324.14,442.8V474H298V442.8a13.06,13.06,0,1,1,26.13,0Z" fill="#fdb718"/><path d="M266.21,442.8V474H240.09V442.8a13.06,13.06,0,1,1,26.13,0Z" fill="#fdb718"/><path d="M301.5,218.6a70,70,0,0,1,135,0" fill="none" stroke="#fdb718" stroke-miterlimit="10" stroke-width="4"/><path d="M339.5,217.94a30.6,30.6,0,0,1,59,0" fill="none" stroke="#fdb718" stroke-miterlimit="10" stroke-width="4"/><circle cx="275.67" cy="202.33" r="7.7" fill="none" stroke="#fdb718" stroke-miterlimit="10" stroke-width="4"/><circle cx="461.82" cy="202.33" r="7.7" fill="none" stroke="#fdb718" stroke-miterlimit="10" stroke-width="4"/><line x1="522.4" y1="297.97" x2="215.6" y2="297.97" fill="none" stroke="#fdb718" stroke-miterlimit="10" stroke-width="4"/><polyline points="215.61 412.11 284.39 412.11 341.3 412.11 398.21 412.11 455.13 412.11 522.39 412.11" fill="none" stroke="#fdb718" stroke-miterlimit="10" stroke-width="4"/><line x1="522.21" y1="230.7" x2="215.79" y2="230.7" fill="none" stroke="#fdb718" stroke-miterlimit="10" stroke-width="4"/><line x1="283.38" y1="399.52" x2="283.38" y2="310.56" fill="none" stroke="#fdb718" stroke-miterlimit="10" stroke-width="4"/><line x1="283.38" y1="490.73" x2="283.38" y2="412.11" fill="none" stroke="#fdb718" stroke-miterlimit="10" stroke-width="4"/><line x1="283.38" y1="297.97" x2="283.38" y2="230.7" fill="none" stroke="#fdb718" stroke-miterlimit="10" stroke-width="4"/><line x1="340.29" y1="399.52" x2="340.29" y2="310.56" fill="none" stroke="#fdb718" stroke-miterlimit="10" stroke-width="4"/><polyline points="340.29 412.11 340.29 490.73 340.29 491.83" fill="none" stroke="#fdb718" stroke-miterlimit="10" stroke-width="4"/><line x1="340.29" y1="297.97" x2="340.29" y2="231.79" fill="none" stroke="#fdb718" stroke-miterlimit="10" stroke-width="4"/><line x1="397.2" y1="399.52" x2="397.2" y2="310.56" fill="none" stroke="#fdb718" stroke-miterlimit="10" stroke-width="4"/><polyline points="397.2 412.11 397.2 490.73 397.2 491.83" fill="none" stroke="#fdb718" stroke-miterlimit="10" stroke-width="4"/><line x1="397.2" y1="297.97" x2="397.2" y2="231.79" fill="none" stroke="#fdb718" stroke-miterlimit="10" stroke-width="4"/><line x1="454.12" y1="399.52" x2="454.12" y2="310.56" fill="none" stroke="#fdb718" stroke-miterlimit="10" stroke-width="4"/><polyline points="454.12 412.11 454.12 490.73 454.12 491.83" fill="none" stroke="#fdb718" stroke-miterlimit="10" stroke-width="4"/><line x1="454.12" y1="297.97" x2="454.12" y2="231.79" fill="none" stroke="#fdb718" stroke-miterlimit="10" stroke-width="4"/></g></svg>