<svg xmlns="http://www.w3.org/2000/svg" viewBox="0 0 738 528.12"><title>east boston</title><g id="east_boston" data-name="east boston"><polyline points="249.79 310.23 272.96 343.73 464.32 343.73 487.48 310.23" fill="#fff" stroke="#fdb718" stroke-miterlimit="10" stroke-width="4"/><polygon points="481.07 123.42 481.07 163.04 256.2 163.04 256.2 123.42 298.17 75.48 439.11 75.48 479.47 121.58 481.07 123.42" fill="#fff" stroke="#fdb718" stroke-miterlimit="10" stroke-width="4"/><path d="M257.26,162.67V163H292v21.59H272.27V163.38h-15V303.72h15V280.63H292v23.09h22.18V280.63h22.19v23.09H358.6V280.63h22.18v23.09H403V280.63h22.18v23.09h22.19V280.63h16.57v23.09h18.22v-141Zm167.89.36v21.59H403V163Zm38.76,61.29H447.33v-23.1h16.57Zm-149.68-23.1h22.19v23.1H314.23Zm44.38,0h22.18v23.1H358.6Zm44.37,0h22.18v23.1H403ZM380.78,163v21.59H358.6V163Zm-66.55,0h22.19v21.59H314.23Zm-42,38.2H292v23.1H272.27Zm0,62.79V240.93H292V264Zm42,0V240.93h22.19V264Zm44.38,0V240.93h22.18V264ZM403,264V240.93h22.18V264Zm44.37,0V240.93h16.57V264Zm33.19-100.64H463.91v21.25H447.33V163h33.19Z" fill="#fff" stroke="#fdb718" stroke-miterlimit="10" stroke-width="4"/><rect x="272.27" y="280.63" width="19.78" height="23.09" fill="#fdb718"/><rect x="314.23" y="280.63" width="22.19" height="23.09" fill="#fdb718"/><rect x="358.6" y="280.63" width="22.18" height="23.09" fill="#fdb718"/><rect x="402.97" y="280.63" width="22.18" height="23.09" fill="#fdb718"/><rect x="447.33" y="280.63" width="16.57" height="23.09" fill="#fdb718"/><rect x="447.33" y="240.93" width="16.57" height="23.09" fill="#fdb718"/><rect x="402.97" y="240.93" width="22.18" height="23.09" fill="#fdb718"/><rect x="358.6" y="240.93" width="22.18" height="23.09" fill="#fdb718"/><rect x="314.23" y="240.93" width="22.19" height="23.09" fill="#fdb718"/><rect x="272.27" y="240.93" width="19.78" height="23.09" fill="#fdb718"/><rect x="272.27" y="201.23" width="19.78" height="23.1" fill="#fdb718"/><rect x="314.23" y="201.23" width="22.19" height="23.1" fill="#fdb718"/><rect x="358.6" y="201.23" width="22.18" height="23.1" fill="#fdb718"/><rect x="402.97" y="201.23" width="22.18" height="23.1" fill="#fdb718"/><rect x="447.33" y="201.23" width="16.57" height="23.1" fill="#fdb718"/><polygon points="480.52 163.04 480.52 163.38 463.91 163.38 463.91 184.63 447.33 184.63 447.33 163.04 480.52 163.04" fill="#fdb718"/><rect x="255.65" y="163.38" width="16.61" height="151.4" fill="#fff" stroke="#fdb718" stroke-miterlimit="10" stroke-width="4"/><rect x="463.91" y="163.38" width="16.61" height="60.95" fill="#fff" stroke="#fdb718" stroke-miterlimit="10" stroke-width="4"/><rect x="463.91" y="240.93" width="16.61" height="23.09" fill="#fff" stroke="#fdb718" stroke-miterlimit="10" stroke-width="4"/><rect x="463.91" y="280.63" width="16.61" height="23.09" fill="#fff" stroke="#fdb718" stroke-miterlimit="10" stroke-width="4"/><rect x="185.23" y="120.6" width="72.25" height="371.23" fill="#fff" stroke="#fdb718" stroke-miterlimit="10" stroke-width="4"/><rect x="480.52" y="120.6" width="72.25" height="371.23" fill="#fff" stroke="#fdb718" stroke-miterlimit="10" stroke-width="4"/><rect x="228.53" y="184.63" width="282.33" height="16.6" fill="#fff" stroke="#fdb718" stroke-miterlimit="10" stroke-width="4"/><rect x="228.53" y="224.33" width="282.33" height="16.6" fill="#fff" stroke="#fdb718" stroke-miterlimit="10" stroke-width="4"/><rect x="228.53" y="264.02" width="282.33" height="16.61" fill="#fff" stroke="#fdb718" stroke-miterlimit="10" stroke-width="4"/><polyline points="292.05 162.54 292.05 162.67 292.05 163.04" fill="none" stroke="#fdb718" stroke-miterlimit="10" stroke-width="4"/><polyline points="314.23 162.54 314.23 162.67 314.23 163.04" fill="none" stroke="#fdb718" stroke-miterlimit="10" stroke-width="4"/><polyline points="336.42 162.54 336.42 162.67 336.42 163.04" fill="none" stroke="#fdb718" stroke-miterlimit="10" stroke-width="4"/><polyline points="358.6 162.54 358.6 162.67 358.6 163.04" fill="none" stroke="#fdb718" stroke-miterlimit="10" stroke-width="4"/><polyline points="380.78 162.54 380.78 162.67 380.78 163.04" fill="none" stroke="#fdb718" stroke-miterlimit="10" stroke-width="4"/><polyline points="402.97 162.54 402.97 162.67 402.97 163.04" fill="none" stroke="#fdb718" stroke-miterlimit="10" stroke-width="4"/><polyline points="425.15 162.54 425.15 162.67 425.15 163.04" fill="none" stroke="#fdb718" stroke-miterlimit="10" stroke-width="4"/><polyline points="447.33 162.54 447.33 162.67 447.33 163.04" fill="none" stroke="#fdb718" stroke-miterlimit="10" stroke-width="4"/><polygon points="292.05 163.04 292.05 184.63 272.26 184.63 272.26 163.38 257.26 163.38 257.26 163.04 292.05 163.04" fill="#fdb718"/><rect x="314.23" y="163.04" width="22.19" height="21.59" fill="#fdb718"/><rect x="358.6" y="163.04" width="22.18" height="21.59" fill="#fdb718"/><rect x="402.97" y="163.04" width="22.18" height="21.59" fill="#fdb718"/><polyline points="255.46 151.87 263.57 151.87 265.22 151.87 469.73 151.87 471.2 151.87 480.96 151.87" fill="none" stroke="#fdb718" stroke-miterlimit="10" stroke-width="4"/><polygon points="422.62 51.16 422.43 51.7 414.06 74.83 325.48 74.83 316.96 51.7 316.76 51.16 316.96 50.62 325.33 27.49 413.9 27.49 422.42 50.62 422.62 51.16" fill="#fff" stroke="#fdb718" stroke-miterlimit="10" stroke-width="4"/><line x1="316.96" y1="50.62" x2="422.43" y2="50.62" fill="none" stroke="#fdb718" stroke-miterlimit="10" stroke-width="4"/><line x1="369.69" y1="27.49" x2="369.69" y2="74.82" fill="none" stroke="#fdb718" stroke-miterlimit="10" stroke-width="4"/><line x1="396.75" y1="27.49" x2="401.32" y2="50.62" fill="none" stroke="#fdb718" stroke-miterlimit="10" stroke-width="4"/><line x1="396.75" y1="74.8" x2="401.32" y2="51.67" fill="none" stroke="#fdb718" stroke-miterlimit="10" stroke-width="4"/><line x1="342.63" y1="27.5" x2="338.07" y2="50.63" fill="none" stroke="#fdb718" stroke-miterlimit="10" stroke-width="4"/><line x1="342.63" y1="74.81" x2="338.07" y2="51.69" fill="none" stroke="#fdb718" stroke-miterlimit="10" stroke-width="4"/><rect x="228.53" y="303.72" width="282.33" height="16.61" fill="#fff" stroke="#fdb718" stroke-miterlimit="10" stroke-width="4"/><rect x="525.31" y="131.98" width="6.06" height="24.24" fill="#fdb718"/><rect x="537.43" y="131.98" width="6.06" height="24.24" fill="#fdb718"/><rect x="197.09" y="131.98" width="6.06" height="24.24" fill="#fdb718"/><rect x="209.21" y="131.98" width="6.06" height="24.24" fill="#fdb718"/><line x1="482.13" y1="173.83" x2="552.77" y2="173.83" fill="none" stroke="#fdb718" stroke-miterlimit="10" stroke-width="4"/><line x1="481.32" y1="213.68" x2="551.97" y2="213.68" fill="none" stroke="#fdb718" stroke-miterlimit="10" stroke-width="4"/><line x1="481.32" y1="253.52" x2="551.97" y2="253.52" fill="none" stroke="#fdb718" stroke-miterlimit="10" stroke-width="4"/><line x1="481.32" y1="293.36" x2="551.97" y2="293.36" fill="none" stroke="#fdb718" stroke-miterlimit="10" stroke-width="4"/><line x1="482.13" y1="333.2" x2="552.77" y2="333.2" fill="none" stroke="#fdb718" stroke-miterlimit="10" stroke-width="4"/><line x1="481.32" y1="373.04" x2="551.97" y2="373.04" fill="none" stroke="#fdb718" stroke-miterlimit="10" stroke-width="4"/><line x1="482.13" y1="412.89" x2="552.77" y2="412.89" fill="none" stroke="#fdb718" stroke-miterlimit="10" stroke-width="4"/><line x1="481.32" y1="452.73" x2="551.97" y2="452.73" fill="none" stroke="#fdb718" stroke-miterlimit="10" stroke-width="4"/><line x1="186.44" y1="173.83" x2="257.08" y2="173.83" fill="none" stroke="#fdb718" stroke-miterlimit="10" stroke-width="4"/><line x1="185.63" y1="213.68" x2="256.28" y2="213.68" fill="none" stroke="#fdb718" stroke-miterlimit="10" stroke-width="4"/><line x1="185.63" y1="253.52" x2="256.28" y2="253.52" fill="none" stroke="#fdb718" stroke-miterlimit="10" stroke-width="4"/><line x1="185.63" y1="293.36" x2="256.28" y2="293.36" fill="none" stroke="#fdb718" stroke-miterlimit="10" stroke-width="4"/><line x1="186.44" y1="333.2" x2="257.08" y2="333.2" fill="none" stroke="#fdb718" stroke-miterlimit="10" stroke-width="4"/><line x1="185.63" y1="373.04" x2="256.28" y2="373.04" fill="none" stroke="#fdb718" stroke-miterlimit="10" stroke-width="4"/><line x1="186.44" y1="412.89" x2="257.08" y2="412.89" fill="none" stroke="#fdb718" stroke-miterlimit="10" stroke-width="4"/><line x1="185.63" y1="452.73" x2="256.28" y2="452.73" fill="none" stroke="#fdb718" stroke-miterlimit="10" stroke-width="4"/></g></svg>