<svg xmlns="http://www.w3.org/2000/svg" viewBox="0 0 738 528.12"><title>fenway-kenmore</title><g id="fenway_kenmore" data-name="fenway/kenmore"><rect x="229.35" y="171.84" width="279.3" height="319.99" fill="#fff" stroke="#fdb718" stroke-miterlimit="10" stroke-width="4"/><rect x="320.6" y="29.33" width="96.8" height="96.8" rx="2.89" ry="2.89" fill="#fff" stroke="#fdb718" stroke-miterlimit="10" stroke-width="4"/><path d="M334.6,101.26l31.68-54.87a3.14,3.14,0,0,1,5.44,0l31.68,54.87a3.14,3.14,0,0,1-2.72,4.71H337.32A3.14,3.14,0,0,1,334.6,101.26Z" fill="#fff" stroke="#fdb718" stroke-miterlimit="10" stroke-width="4"/><line x1="334.84" y1="126.13" x2="334.84" y2="171.31" fill="none" stroke="#fdb718" stroke-miterlimit="10" stroke-width="4"/><line x1="404.49" y1="126.13" x2="404.49" y2="171.31" fill="none" stroke="#fdb718" stroke-miterlimit="10" stroke-width="4"/><line x1="334.18" y1="148.72" x2="403.82" y2="148.72" fill="none" stroke="#fdb718" stroke-miterlimit="10" stroke-width="4"/><line x1="369.66" y1="126.13" x2="369.66" y2="171.31" fill="none" stroke="#fdb718" stroke-miterlimit="10" stroke-width="4"/><line x1="334.18" y1="126.13" x2="403.82" y2="171.31" fill="none" stroke="#fdb718" stroke-miterlimit="10" stroke-width="4"/><line x1="403.82" y1="126.13" x2="334.18" y2="171.31" fill="none" stroke="#fdb718" stroke-miterlimit="10" stroke-width="4"/><rect x="458.44" y="199.42" width="29.95" height="45.16" fill="#fdb718"/><rect x="455.53" y="190.32" width="35.77" height="9.1" fill="#fff" stroke="#fdb718" stroke-miterlimit="10" stroke-width="4"/><rect x="455.53" y="245.34" width="35.77" height="9.1" fill="#fff" stroke="#fdb718" stroke-miterlimit="10" stroke-width="4"/><rect x="245.58" y="199.42" width="29.95" height="45.16" fill="#fdb718"/><rect x="242.67" y="190.32" width="35.77" height="9.1" fill="#fff" stroke="#fdb718" stroke-miterlimit="10" stroke-width="4"/><rect x="242.67" y="245.34" width="35.77" height="9.1" fill="#fff" stroke="#fdb718" stroke-miterlimit="10" stroke-width="4"/><rect x="312.62" y="190.72" width="108.72" height="9.06" fill="#fff" stroke="#fdb718" stroke-miterlimit="10" stroke-width="4"/><rect x="312.62" y="244.98" width="108.72" height="9.06" fill="#fff" stroke="#fdb718" stroke-miterlimit="10" stroke-width="4"/><rect x="317.77" y="200.57" width="29.95" height="45.16" fill="#fdb718"/><rect x="351.98" y="200.57" width="29.95" height="45.16" fill="#fdb718"/><rect x="386.2" y="200.57" width="29.95" height="45.16" fill="#fdb718"/><rect x="457.85" y="285.81" width="29.95" height="45.16" fill="#fdb718"/><rect x="454.94" y="276.72" width="35.77" height="9.1" fill="#fff" stroke="#fdb718" stroke-miterlimit="10" stroke-width="4"/><rect x="454.94" y="331.73" width="35.77" height="9.1" fill="#fff" stroke="#fdb718" stroke-miterlimit="10" stroke-width="4"/><rect x="244.99" y="285.81" width="29.95" height="45.16" fill="#fdb718"/><rect x="242.08" y="276.72" width="35.77" height="9.1" fill="#fff" stroke="#fdb718" stroke-miterlimit="10" stroke-width="4"/><rect x="242.08" y="331.73" width="35.77" height="9.1" fill="#fff" stroke="#fdb718" stroke-miterlimit="10" stroke-width="4"/><rect x="312.03" y="277.11" width="108.72" height="9.06" fill="#fff" stroke="#fdb718" stroke-miterlimit="10" stroke-width="4"/><rect x="312.03" y="331.37" width="108.72" height="9.06" fill="#fff" stroke="#fdb718" stroke-miterlimit="10" stroke-width="4"/><rect x="317.18" y="286.97" width="29.95" height="45.16" fill="#fdb718"/><rect x="351.39" y="286.97" width="29.95" height="45.16" fill="#fdb718"/><rect x="385.61" y="286.97" width="29.95" height="45.16" fill="#fdb718"/><rect x="459.86" y="367.74" width="29.95" height="45.16" fill="#fdb718"/><rect x="456.95" y="358.65" width="35.77" height="9.1" fill="#fff" stroke="#fdb718" stroke-miterlimit="10" stroke-width="4"/><rect x="456.95" y="413.66" width="35.77" height="9.1" fill="#fff" stroke="#fdb718" stroke-miterlimit="10" stroke-width="4"/><rect x="247" y="367.74" width="29.95" height="45.16" fill="#fdb718"/><rect x="244.09" y="358.65" width="35.77" height="9.1" fill="#fff" stroke="#fdb718" stroke-miterlimit="10" stroke-width="4"/><rect x="244.09" y="413.66" width="35.77" height="9.1" fill="#fff" stroke="#fdb718" stroke-miterlimit="10" stroke-width="4"/><rect x="314.05" y="359.04" width="108.72" height="9.06" fill="#fff" stroke="#fdb718" stroke-miterlimit="10" stroke-width="4"/><rect x="314.05" y="413.3" width="108.72" height="9.06" fill="#fff" stroke="#fdb718" stroke-miterlimit="10" stroke-width="4"/><rect x="319.19" y="368.9" width="29.95" height="45.16" fill="#fdb718"/><rect x="353.41" y="368.9" width="29.95" height="45.16" fill="#fdb718"/><rect x="387.63" y="368.9" width="29.95" height="45.16" fill="#fdb718"/><rect x="245.58" y="440.58" width="37.3" height="50.97" fill="#fff" stroke="#fdb718" stroke-miterlimit="10" stroke-width="4"/><rect x="454.17" y="440.58" width="37.3" height="50.97" fill="#fff" stroke="#fdb718" stroke-miterlimit="10" stroke-width="4"/><rect x="316.19" y="440.58" width="107.17" height="50.97" fill="#fff" stroke="#fdb718" stroke-miterlimit="10" stroke-width="4"/></g></svg>