<svg xmlns="http://www.w3.org/2000/svg" viewBox="0 0 738 528.12"><title>hyde park</title><g id="hyde_park" data-name="hyde park"><polygon points="552.11 116.11 552.11 491.83 185.89 491.83 185.89 116.12 215.32 62.19 522.69 62.19 552.11 116.11" fill="#fff" stroke="#fdb718" stroke-miterlimit="10" stroke-width="4"/><polygon points="215.32 267.36 156.11 312.15 215.32 312.15 522.68 312.15 581.89 312.15 522.68 267.36 215.32 267.36" fill="#fff" stroke="#fdb718" stroke-miterlimit="10" stroke-width="4"/><rect x="225.68" y="192.01" width="32.94" height="58.13" fill="#fdb718"/><rect x="321.14" y="192.01" width="32.94" height="58.13" fill="#fdb718"/><rect x="383.93" y="192.01" width="32.94" height="58.13" fill="#fdb718"/><rect x="478.31" y="192.01" width="32.94" height="58.13" fill="#fdb718"/><rect x="225.68" y="310.22" width="32.94" height="58.13" fill="#fdb718"/><rect x="321.14" y="310.85" width="41.72" height="112.67" fill="#fdb718"/><rect x="375.15" y="310.85" width="41.72" height="112.67" fill="#fdb718"/><rect x="478.31" y="310.22" width="32.94" height="58.13" fill="#fdb718"/><line x1="369" y1="409" x2="369" y2="491.83" fill="none" stroke="#fdb718" stroke-miterlimit="10" stroke-width="4"/><rect x="305.55" y="423.53" width="126.92" height="13.48" fill="none" stroke="#fdb718" stroke-miterlimit="10" stroke-width="4"/><rect x="305.55" y="437.23" width="126.92" height="13.48" fill="none" stroke="#fdb718" stroke-miterlimit="10" stroke-width="4"/><rect x="305.55" y="450.94" width="126.92" height="13.48" fill="none" stroke="#fdb718" stroke-miterlimit="10" stroke-width="4"/><rect x="305.55" y="464.64" width="126.92" height="13.48" fill="none" stroke="#fdb718" stroke-miterlimit="10" stroke-width="4"/><rect x="305.55" y="478.34" width="126.92" height="13.48" fill="none" stroke="#fdb718" stroke-miterlimit="10" stroke-width="4"/><rect x="432.62" y="423.53" width="118.95" height="68.29" fill="none" stroke="#fdb718" stroke-miterlimit="10" stroke-width="4"/><rect x="186.84" y="423.53" width="118.95" height="68.29" fill="none" stroke="#fdb718" stroke-miterlimit="10" stroke-width="4"/><polyline points="432.62 423.53 432.62 379.96 551.58 379.96" fill="none" stroke="#fdb718" stroke-miterlimit="10" stroke-width="4"/><line x1="445.22" y1="379.96" x2="445.22" y2="423.53" fill="none" stroke="#fdb718" stroke-miterlimit="10" stroke-width="4"/><line x1="460.72" y1="379.96" x2="460.72" y2="423.53" fill="none" stroke="#fdb718" stroke-miterlimit="10" stroke-width="4"/><line x1="476.22" y1="379.96" x2="476.22" y2="423.53" fill="none" stroke="#fdb718" stroke-miterlimit="10" stroke-width="4"/><line x1="491.72" y1="379.96" x2="491.72" y2="423.53" fill="none" stroke="#fdb718" stroke-miterlimit="10" stroke-width="4"/><line x1="507.22" y1="379.96" x2="507.22" y2="423.53" fill="none" stroke="#fdb718" stroke-miterlimit="10" stroke-width="4"/><line x1="522.73" y1="379.96" x2="522.73" y2="423.53" fill="none" stroke="#fdb718" stroke-miterlimit="10" stroke-width="4"/><line x1="538.23" y1="379.96" x2="538.23" y2="423.53" fill="none" stroke="#fdb718" stroke-miterlimit="10" stroke-width="4"/><polyline points="305.5 423.53 305.5 379.96 186.55 379.96" fill="none" stroke="#fdb718" stroke-miterlimit="10" stroke-width="4"/><line x1="292.91" y1="379.96" x2="292.91" y2="423.53" fill="none" stroke="#fdb718" stroke-miterlimit="10" stroke-width="4"/><line x1="277.41" y1="379.96" x2="277.41" y2="423.53" fill="none" stroke="#fdb718" stroke-miterlimit="10" stroke-width="4"/><line x1="261.91" y1="379.96" x2="261.91" y2="423.53" fill="none" stroke="#fdb718" stroke-miterlimit="10" stroke-width="4"/><line x1="246.4" y1="379.96" x2="246.4" y2="423.53" fill="none" stroke="#fdb718" stroke-miterlimit="10" stroke-width="4"/><line x1="230.9" y1="379.96" x2="230.9" y2="423.53" fill="none" stroke="#fdb718" stroke-miterlimit="10" stroke-width="4"/><line x1="215.4" y1="379.96" x2="215.4" y2="423.53" fill="none" stroke="#fdb718" stroke-miterlimit="10" stroke-width="4"/><line x1="199.9" y1="379.96" x2="199.9" y2="423.53" fill="none" stroke="#fdb718" stroke-miterlimit="10" stroke-width="4"/><line x1="538.23" y1="310.22" x2="538.23" y2="384.81" fill="none" stroke="#fdb718" stroke-miterlimit="10" stroke-width="4"/><line x1="199.9" y1="312.15" x2="199.9" y2="386.75" fill="none" stroke="#fdb718" stroke-miterlimit="10" stroke-width="4"/><polygon points="581.89 170.7 156.11 170.7 185.89 116.12 215.32 62.19 522.69 62.19 552.11 116.11 581.89 170.7" fill="#fff" stroke="#fdb718" stroke-miterlimit="10" stroke-width="4"/><rect x="240.7" y="28.5" width="24.61" height="68.56" fill="#fff" stroke="#fdb718" stroke-miterlimit="10" stroke-width="4"/><rect x="472.69" y="27.91" width="24.61" height="68.56" fill="#fff" stroke="#fdb718" stroke-miterlimit="10" stroke-width="4"/></g></svg>