<svg xmlns="http://www.w3.org/2000/svg" viewBox="0 0 738 528.12"><title>jamaica plain</title><g id="jamaica_plain" data-name="jamaica plain"><rect x="115.01" y="267" width="507.98" height="181.16" fill="#fff" stroke="#fdb718" stroke-miterlimit="10" stroke-width="4"/><line x1="113.39" y1="317.51" x2="622.99" y2="317.51" fill="none" stroke="#fdb718" stroke-miterlimit="10" stroke-width="4"/><rect x="96.44" y="280.92" width="545.11" height="10.41" fill="#fff" stroke="#fdb718" stroke-miterlimit="10" stroke-width="4"/><rect x="531.74" y="352.74" width="66.11" height="96.09" fill="#fff" stroke="#fdb718" stroke-miterlimit="10" stroke-width="4"/><rect x="142.06" y="352.74" width="66.11" height="96.09" fill="#fff" stroke="#fdb718" stroke-miterlimit="10" stroke-width="4"/><rect x="229.04" y="113.01" width="279.23" height="335.82" fill="#fff" stroke="#fdb718" stroke-miterlimit="10" stroke-width="4"/><rect x="335.6" y="368.02" width="66.11" height="80.81" fill="#fff" stroke="#fdb718" stroke-miterlimit="10" stroke-width="4"/><line x1="229.04" y1="149.99" x2="508.26" y2="149.99" fill="none" stroke="#fdb718" stroke-miterlimit="10" stroke-width="4"/><line x1="229.04" y1="168.71" x2="508.26" y2="168.71" fill="none" stroke="#fdb718" stroke-miterlimit="10" stroke-width="4"/><line x1="265.37" y1="448.83" x2="265.37" y2="169.15" fill="none" stroke="#fdb718" stroke-miterlimit="10" stroke-width="4"/><polyline points="470.77 448.83 470.77 424.81 470.77 169.15" fill="none" stroke="#fdb718" stroke-miterlimit="10" stroke-width="4"/><polygon points="526.49 109.95 526.49 112.39 211.12 112.39 210.81 109.17 275.18 77.65 370.33 31.05 465.5 77.65 525.02 109.17 526.49 109.95" fill="#fff" stroke="#fdb718" stroke-miterlimit="10" stroke-width="4"/><line x1="233.73" y1="113.01" x2="368.65" y2="48.67" fill="none" stroke="#fdb718" stroke-miterlimit="10" stroke-width="4"/><line x1="502.68" y1="112.39" x2="367.76" y2="48.06" fill="none" stroke="#fdb718" stroke-miterlimit="10" stroke-width="4"/><line x1="229.04" y1="129.57" x2="508.26" y2="129.57" fill="none" stroke="#fdb718" stroke-miterlimit="10" stroke-width="4"/><rect x="433.67" y="179.89" width="28.17" height="255.05" fill="#fff" stroke="#fdb718" stroke-miterlimit="10" stroke-width="4"/><rect x="423.8" y="168.71" width="47.9" height="24.28" fill="#fff" stroke="#fdb718" stroke-miterlimit="10" stroke-width="4"/><rect x="426.32" y="423.87" width="42.87" height="24.28" fill="#fff" stroke="#fdb718" stroke-miterlimit="10" stroke-width="4"/><rect x="275.24" y="180.44" width="28.17" height="255.05" fill="#fff" stroke="#fdb718" stroke-miterlimit="10" stroke-width="4"/><rect x="265.37" y="169.27" width="47.9" height="24.28" fill="#fff" stroke="#fdb718" stroke-miterlimit="10" stroke-width="4"/><rect x="267.89" y="424.43" width="42.87" height="24.28" fill="#fff" stroke="#fdb718" stroke-miterlimit="10" stroke-width="4"/><path d="M401.74,368H335.56c2.93-17.4,16.63-30.56,33.08-30.56S398.81,350.62,401.74,368Z" fill="#fff" stroke="#fdb718" stroke-miterlimit="10" stroke-width="4"/><rect x="343.91" y="377.98" width="49.47" height="70.84" fill="#fdb718"/><path d="M391.14,368h-45c2-12,11.31-21,22.48-21S389.15,356.07,391.14,368Z" fill="#fff" stroke="#fdb718" stroke-miterlimit="10" stroke-width="4"/><rect x="331.65" y="192.99" width="74.01" height="74.01" fill="#fff" stroke="#fdb718" stroke-miterlimit="10" stroke-width="4"/><circle cx="368.65" cy="230.9" r="27.4" fill="#fff" stroke="#fdb718" stroke-miterlimit="10" stroke-width="4"/><line x1="311.85" y1="291.33" x2="425.45" y2="291.33" fill="none" stroke="#fdb718" stroke-miterlimit="10" stroke-width="4"/><line x1="311.85" y1="317.51" x2="425.45" y2="317.51" fill="none" stroke="#fdb718" stroke-miterlimit="10" stroke-width="4"/><line x1="311.85" y1="304.42" x2="425.45" y2="304.42" fill="none" stroke="#fdb718" stroke-miterlimit="10" stroke-width="4"/><rect x="540.06" y="376.48" width="49.47" height="70.84" fill="#fdb718"/><rect x="150.38" y="376.48" width="49.47" height="70.84" fill="#fdb718"/><rect x="115.01" y="448.83" width="507.98" height="13.88" fill="#fff" stroke="#fdb718" stroke-miterlimit="10" stroke-width="4"/><rect x="97.51" y="463.39" width="542.98" height="13.88" fill="#fff" stroke="#fdb718" stroke-miterlimit="10" stroke-width="4"/><rect x="83.13" y="477.94" width="571.74" height="13.88" fill="#fff" stroke="#fdb718" stroke-miterlimit="10" stroke-width="4"/><line x1="323.3" y1="424.43" x2="323.3" y2="491.83" fill="none" stroke="#fdb718" stroke-miterlimit="10" stroke-width="4"/><line x1="413.27" y1="422.07" x2="413.27" y2="489.47" fill="none" stroke="#fdb718" stroke-miterlimit="10" stroke-width="4"/></g></svg>