<svg xmlns="http://www.w3.org/2000/svg" viewBox="0 0 738 528.12"><title>mattapan</title><g id="mattapan"><rect x="153.42" y="59.17" width="431.16" height="432.65" fill="#fff" stroke="#fdb718" stroke-miterlimit="10" stroke-width="4"/><rect x="328.11" y="248.4" width="81.77" height="159.05" fill="#fdb718"/><polyline points="451.1 85.34 469.34 85.34 600.47 85.34 600.47 59.17 469.34 59.17 451.1 59.17 287.89 59.17 269.65 59.17 137.53 59.17 137.53 85.34 269.65 85.34 287.89 85.34" fill="#fff" stroke="#fdb718" stroke-miterlimit="10" stroke-width="4"/><rect x="255.35" y="31.32" width="227.3" height="27.86" fill="#fff" stroke="#fdb718" stroke-miterlimit="10" stroke-width="4"/><rect x="269.52" y="59.17" width="17.24" height="348.27" fill="#fff" stroke="#fdb718" stroke-miterlimit="10" stroke-width="4"/><rect x="451.46" y="59.17" width="17.74" height="348.27" fill="#fff" stroke="#fdb718" stroke-miterlimit="10" stroke-width="4"/><line x1="286.9" y1="148.56" x2="451.1" y2="148.56" fill="none" stroke="#fdb718" stroke-miterlimit="10" stroke-width="4"/><line x1="306.41" y1="148.56" x2="306.41" y2="208.15" fill="none" stroke="#fdb718" stroke-miterlimit="10" stroke-width="4"/><line x1="327.28" y1="148.56" x2="327.28" y2="208.15" fill="none" stroke="#fdb718" stroke-miterlimit="10" stroke-width="4"/><line x1="348.14" y1="148.56" x2="348.14" y2="208.15" fill="none" stroke="#fdb718" stroke-miterlimit="10" stroke-width="4"/><line x1="369" y1="148.56" x2="369" y2="208.15" fill="none" stroke="#fdb718" stroke-miterlimit="10" stroke-width="4"/><line x1="389.86" y1="148.56" x2="389.86" y2="208.15" fill="none" stroke="#fdb718" stroke-miterlimit="10" stroke-width="4"/><line x1="410.72" y1="148.56" x2="410.72" y2="208.15" fill="none" stroke="#fdb718" stroke-miterlimit="10" stroke-width="4"/><line x1="431.59" y1="148.56" x2="431.59" y2="208.15" fill="none" stroke="#fdb718" stroke-miterlimit="10" stroke-width="4"/><rect x="255.35" y="208.15" width="227.3" height="21.42" fill="#fff" stroke="#fdb718" stroke-miterlimit="10" stroke-width="4"/><line x1="153.16" y1="407.45" x2="584.32" y2="407.45" fill="none" stroke="#fdb718" stroke-miterlimit="10" stroke-width="4"/><rect x="286.76" y="355.68" width="32.06" height="51.76" fill="none" stroke="#fdb718" stroke-miterlimit="10" stroke-width="4"/><rect x="418.83" y="355.68" width="32.06" height="51.76" fill="none" stroke="#fdb718" stroke-miterlimit="10" stroke-width="4"/><rect x="318.81" y="355.68" width="20.86" height="136.14" fill="#fff" stroke="#fdb718" stroke-miterlimit="10" stroke-width="4"/><rect x="400.59" y="355.68" width="20.86" height="136.14" fill="#fff" stroke="#fdb718" stroke-miterlimit="10" stroke-width="4"/><line x1="339.68" y1="423.75" x2="400.59" y2="423.75" fill="none" stroke="#fdb718" stroke-miterlimit="10" stroke-width="4"/><line x1="339.68" y1="441.31" x2="400.59" y2="441.31" fill="none" stroke="#fdb718" stroke-miterlimit="10" stroke-width="4"/><line x1="339.68" y1="458.86" x2="400.59" y2="458.86" fill="none" stroke="#fdb718" stroke-miterlimit="10" stroke-width="4"/><line x1="339.68" y1="476.41" x2="400.59" y2="476.41" fill="none" stroke="#fdb718" stroke-miterlimit="10" stroke-width="4"/><rect x="180.36" y="269.26" width="60.49" height="105.8" fill="#fdb718"/><rect x="495.59" y="260.32" width="60.49" height="105.8" fill="#fdb718"/><rect x="495.59" y="118.32" width="60.49" height="60.49" fill="#fdb718"/><rect x="179.74" y="118.32" width="60.49" height="60.49" fill="#fdb718"/><rect x="314.8" y="85.34" width="107.89" height="42.91" fill="#fdb718"/><line x1="179.74" y1="327.92" x2="240.23" y2="327.92" fill="none" stroke="#fff" stroke-miterlimit="10" stroke-width="4"/><line x1="495.59" y1="327.92" x2="556.08" y2="327.92" fill="none" stroke="#fff" stroke-miterlimit="10" stroke-width="4"/><rect x="183.59" y="430.19" width="54.03" height="28.67" fill="#fdb718"/><rect x="498.82" y="430.19" width="54.03" height="28.67" fill="#fdb718"/></g></svg>