<svg xmlns="http://www.w3.org/2000/svg" viewBox="0 0 738 528.12"><title>mission hill</title><g id="mission_hill" data-name="mission hill"><rect x="236.2" y="225.96" width="264.64" height="262.42" fill="#fff" stroke="#fdb718" stroke-miterlimit="10" stroke-width="3.98"/><path d="M287.6,387.63H248.94c1.71-10,9.72-17.65,19.32-17.65S285.89,377.58,287.6,387.63Z" fill="#fff" stroke="#fdb718" stroke-miterlimit="10" stroke-width="4"/><path d="M398.25,387.2H341.37c2.52-14.62,14.3-25.69,28.43-25.69S395.73,372.58,398.25,387.2Z" fill="#fff" stroke="#fdb718" stroke-miterlimit="10" stroke-width="4"/><path d="M289.86,396.14v73.77H246.68V396.14a67.16,67.16,0,0,1,.37-7.13h42.43A67.16,67.16,0,0,1,289.86,396.14Z" fill="#fdb718"/><polygon points="378.4 133.1 378.4 136.62 369.55 136.62 369.55 151.4 366.01 151.4 366.01 136.62 357.15 136.62 357.15 133.1 366.01 133.1 366.01 125.55 369.55 125.55 369.55 133.1 378.4 133.1" fill="#fff" stroke="#fdb718" stroke-miterlimit="10" stroke-width="4"/><line x1="239.65" y1="335.42" x2="499.49" y2="335.42" fill="#fff" stroke="#fdb718" stroke-miterlimit="10" stroke-width="4"/><polygon points="368.78 150.96 236.82 225.96 501.17 225.96 368.78 150.96" fill="#fff" stroke="#fdb718" stroke-miterlimit="10" stroke-width="4"/><ellipse cx="283.5" cy="250.87" rx="5.51" ry="5.48" fill="#fff" stroke="#fdb718" stroke-miterlimit="10" stroke-width="4"/><ellipse cx="459.66" cy="250.87" rx="5.51" ry="5.48" fill="#fff" stroke="#fdb718" stroke-miterlimit="10" stroke-width="4"/><line x1="238.51" y1="236.71" x2="499.49" y2="236.71" fill="#fff" stroke="#fdb718" stroke-miterlimit="10" stroke-width="4"/><polyline points="479.5 225.26 368.78 163.81 259.82 225.26" fill="none" stroke="#fdb718" stroke-miterlimit="10" stroke-width="4"/><path d="M353.82,206.21v17.63H341.17V206.21c0-7,2.83-12.68,6.32-12.68S353.82,199.21,353.82,206.21Z" fill="#fdb718"/><path d="M375.1,195.94v27.9H362.45v-27.9c0-7,2.83-12.68,6.32-12.68S375.1,188.94,375.1,195.94Z" fill="#fdb718"/><path d="M396.39,206.21v17.63H383.74V206.21c0-7,2.83-12.68,6.32-12.68S396.39,199.21,396.39,206.21Z" fill="#fdb718"/><line x1="236.82" y1="470.59" x2="496.25" y2="470.59" fill="#fff" stroke="#fdb718" stroke-miterlimit="10" stroke-width="4"/><line x1="236.82" y1="479.68" x2="501.17" y2="479.68" fill="#fff" stroke="#fdb718" stroke-miterlimit="10" stroke-width="4"/><line x1="236.82" y1="488.76" x2="501.17" y2="488.76" fill="#fff" stroke="#fdb718" stroke-miterlimit="10" stroke-width="4"/><polyline points="238.51 361.51 343.18 361.51 341.88 361.51 371.04 344.19 400.19 361.51 398.82 361.51 498.28 361.51" fill="none" stroke="#fdb718" stroke-miterlimit="10" stroke-width="4"/><rect x="333.59" y="388.66" width="71" height="81.44" fill="#fdb718"/><line x1="314.81" y1="461.84" x2="314.81" y2="490.83" fill="#fff" stroke="#fdb718" stroke-miterlimit="10" stroke-width="4"/><line x1="424.16" y1="461.14" x2="424.16" y2="490.12" fill="#fff" stroke="#fdb718" stroke-miterlimit="10" stroke-width="4"/><line x1="237.16" y1="266.84" x2="500.84" y2="266.84" fill="#fff" stroke="#fdb718" stroke-miterlimit="10" stroke-width="4"/><line x1="237.16" y1="283.09" x2="500.84" y2="283.09" fill="#fff" stroke="#fdb718" stroke-miterlimit="10" stroke-width="4"/><line x1="300.39" y1="284.09" x2="300.39" y2="337.42" fill="#fff" stroke="#fdb718" stroke-miterlimit="10" stroke-width="4"/><line x1="281.6" y1="284.09" x2="281.6" y2="337.42" fill="#fff" stroke="#fdb718" stroke-miterlimit="10" stroke-width="4"/><line x1="454.02" y1="284.99" x2="454.02" y2="337.42" fill="#fff" stroke="#fdb718" stroke-miterlimit="10" stroke-width="4"/><line x1="435.06" y1="284.99" x2="435.06" y2="337.42" fill="#fff" stroke="#fdb718" stroke-miterlimit="10" stroke-width="4"/><ellipse cx="369.47" cy="286.74" rx="43.42" ry="42.84" fill="#fff" stroke="#fdb718" stroke-miterlimit="10" stroke-width="4"/><ellipse cx="369.47" cy="286.74" rx="37.26" ry="36.76" fill="#fff" stroke="#fdb718" stroke-miterlimit="10" stroke-width="4"/><ellipse cx="369.65" cy="313.39" rx="5.55" ry="5.48" fill="#fff" stroke="#fdb718" stroke-miterlimit="10" stroke-width="4"/><ellipse cx="396.15" cy="286.5" rx="5.55" ry="5.48" fill="#fff" stroke="#fdb718" stroke-miterlimit="10" stroke-width="4"/><ellipse cx="342.79" cy="286.5" rx="5.55" ry="5.48" fill="#fff" stroke="#fdb718" stroke-miterlimit="10" stroke-width="4"/><ellipse cx="350.21" cy="268.87" rx="5.55" ry="5.48" fill="#fff" stroke="#fdb718" stroke-miterlimit="10" stroke-width="4"/><ellipse cx="389.09" cy="268.87" rx="5.55" ry="5.48" fill="#fff" stroke="#fdb718" stroke-miterlimit="10" stroke-width="4"/><ellipse cx="389.09" cy="305.09" rx="5.55" ry="5.48" fill="#fff" stroke="#fdb718" stroke-miterlimit="10" stroke-width="4"/><ellipse cx="350.21" cy="305.09" rx="5.55" ry="5.48" fill="#fff" stroke="#fdb718" stroke-miterlimit="10" stroke-width="4"/><ellipse cx="369.65" cy="260.1" rx="5.55" ry="5.48" fill="#fff" stroke="#fdb718" stroke-miterlimit="10" stroke-width="4"/><ellipse cx="369.64" cy="286.5" rx="15.87" ry="15.66" fill="#fff" stroke="#fdb718" stroke-miterlimit="10" stroke-width="4"/><rect x="364.42" y="271.32" width="10.43" height="30.36" rx="4.24" ry="4.24" fill="#fff" stroke="#fdb718" stroke-miterlimit="10" stroke-width="4"/><rect x="364.49" y="271.11" width="10.29" height="30.77" rx="4.24" ry="4.24" transform="translate(656.13 -83.14) rotate(90)" fill="#fff" stroke="#fdb718" stroke-miterlimit="10" stroke-width="4"/><path d="M378.57,286.5a4.37,4.37,0,0,1-4.4,4.34H374v0a4.4,4.4,0,0,1-8.8,0v0h-.13a4.34,4.34,0,1,1,0-8.68h.13v0a4.4,4.4,0,0,1,8.8,0v0h.13A4.37,4.37,0,0,1,378.57,286.5Z" fill="#fff" stroke="#fdb718" stroke-miterlimit="10" stroke-width="4"/><rect x="239.22" y="401.02" width="12.69" height="68.01" fill="#fff" stroke="#fdb718" stroke-miterlimit="10" stroke-width="4"/><rect x="236.2" y="388.82" width="18.71" height="12.2" fill="#fff" stroke="#fdb718" stroke-miterlimit="10" stroke-width="4"/><rect x="236.2" y="456.04" width="18.71" height="12.2" fill="#fff" stroke="#fdb718" stroke-miterlimit="10" stroke-width="4"/><rect x="284.64" y="401.56" width="12.69" height="68.01" fill="#fff" stroke="#fdb718" stroke-miterlimit="10" stroke-width="4"/><rect x="281.63" y="389.35" width="18.71" height="12.2" fill="#fff" stroke="#fdb718" stroke-miterlimit="10" stroke-width="4"/><rect x="281.63" y="456.57" width="18.71" height="12.2" fill="#fff" stroke="#fdb718" stroke-miterlimit="10" stroke-width="4"/><path d="M488.43,387.2H449.77c1.71-10,9.72-17.65,19.32-17.65S486.72,377.15,488.43,387.2Z" fill="#fff" stroke="#fdb718" stroke-miterlimit="10" stroke-width="4"/><path d="M490.69,395.71v73.77H447.51V395.71a67.16,67.16,0,0,1,.37-7.13h42.43A67.16,67.16,0,0,1,490.69,395.71Z" fill="#fdb718"/><rect x="440.04" y="400.59" width="12.69" height="68.01" fill="#fff" stroke="#fdb718" stroke-miterlimit="10" stroke-width="4"/><rect x="437.03" y="388.39" width="18.71" height="12.2" fill="#fff" stroke="#fdb718" stroke-miterlimit="10" stroke-width="4"/><rect x="437.03" y="455.61" width="18.71" height="12.2" fill="#fff" stroke="#fdb718" stroke-miterlimit="10" stroke-width="4"/><rect x="485.47" y="401.13" width="12.69" height="68.01" fill="#fff" stroke="#fdb718" stroke-miterlimit="10" stroke-width="4"/><rect x="482.45" y="388.93" width="18.71" height="12.2" fill="#fff" stroke="#fdb718" stroke-miterlimit="10" stroke-width="4"/><rect x="482.45" y="456.14" width="18.71" height="12.2" fill="#fff" stroke="#fdb718" stroke-miterlimit="10" stroke-width="4"/><rect x="327.25" y="401.47" width="12.69" height="68.01" fill="#fff" stroke="#fdb718" stroke-miterlimit="10" stroke-width="4"/><rect x="324.24" y="389.27" width="18.71" height="12.2" fill="#fff" stroke="#fdb718" stroke-miterlimit="10" stroke-width="4"/><rect x="324.24" y="456.49" width="18.71" height="12.2" fill="#fff" stroke="#fdb718" stroke-miterlimit="10" stroke-width="4"/><rect x="398.25" y="401.47" width="12.69" height="68.01" fill="#fff" stroke="#fdb718" stroke-miterlimit="10" stroke-width="4"/><rect x="395.24" y="389.27" width="18.71" height="12.2" fill="#fff" stroke="#fdb718" stroke-miterlimit="10" stroke-width="4"/><rect x="395.24" y="456.49" width="18.71" height="12.2" fill="#fff" stroke="#fdb718" stroke-miterlimit="10" stroke-width="4"/><line x1="435.47" y1="388.66" x2="289.49" y2="388.66" fill="#fff" stroke="#fdb718" stroke-miterlimit="10" stroke-width="4"/><rect x="137.27" y="134.49" width="99.55" height="354.5" fill="#fff" stroke="#fdb718" stroke-miterlimit="10" stroke-width="4"/><polygon points="187.04 32.82 156.82 133.94 217.27 133.94 187.04 32.82" fill="#fff" stroke="#fdb718" stroke-miterlimit="10" stroke-width="4"/><polygon points="187.04 83.38 177.53 106.86 196.56 106.86 187.04 83.38" fill="#fff" stroke="#fdb718" stroke-miterlimit="10" stroke-width="4"/><rect x="173.55" y="106.85" width="26.99" height="27.09" fill="#fff" stroke="#fdb718" stroke-miterlimit="10" stroke-width="4"/><line x1="154.46" y1="166.77" x2="219.63" y2="166.77" fill="#fff" stroke="#fdb718" stroke-miterlimit="10" stroke-width="4"/><line x1="154.46" y1="133.94" x2="219.63" y2="133.94" fill="#fff" stroke="#fdb718" stroke-miterlimit="10" stroke-width="4"/><rect x="158.65" y="175.94" width="56.79" height="77.29" fill="#fff" stroke="#fdb718" stroke-miterlimit="10" stroke-width="4"/><path d="M182.08,190.29v54H169v-54a6.53,6.53,0,1,1,13,0Z" fill="#fdb718"/><path d="M205.05,190.29v54H192v-54a6.53,6.53,0,1,1,13,0Z" fill="#fdb718"/><rect x="158.6" y="251.83" width="56.89" height="26.29" fill="#fff" stroke="#fdb718" stroke-miterlimit="10" stroke-width="4"/><line x1="145.59" y1="278.66" x2="228.5" y2="278.66" fill="#fff" stroke="#fdb718" stroke-miterlimit="10" stroke-width="4"/><rect x="137.6" y="278.66" width="19.71" height="209.72" fill="#fff" stroke="#fdb718" stroke-miterlimit="10" stroke-width="4"/><rect x="217.33" y="278.66" width="19.71" height="209.72" fill="#fff" stroke="#fdb718" stroke-miterlimit="10" stroke-width="4"/><line x1="157.25" y1="365.93" x2="216.84" y2="366.31" fill="#fff" stroke="#fdb718" stroke-miterlimit="10" stroke-width="4"/><line x1="157.25" y1="405.64" x2="216.84" y2="405.64" fill="#fff" stroke="#fdb718" stroke-miterlimit="10" stroke-width="4"/><line x1="157.25" y1="468.19" x2="216.83" y2="468.19" fill="#fff" stroke="#fdb718" stroke-miterlimit="10" stroke-width="4"/><path d="M202.76,426.09V451H171.33v-24.9c0-7.16,7-13,15.72-13S202.76,418.93,202.76,426.09Z" fill="#fff" stroke="#fdb718" stroke-miterlimit="10" stroke-width="4"/><path d="M176.15,151.77V167h-9.21V151.77c0-6.06,2.06-11,4.61-11S176.15,145.71,176.15,151.77Z" fill="#fdb718"/><path d="M191.65,151.77V167h-9.21V151.77c0-6.06,2.06-11,4.61-11S191.65,145.71,191.65,151.77Z" fill="#fdb718"/><path d="M207.15,151.77V167h-9.21V151.77c0-6.06,2.06-11,4.61-11S207.15,145.71,207.15,151.77Z" fill="#fdb718"/><path d="M204.66,317.14V366H169.43V317.14c0-14,7.89-25.42,17.61-25.42S204.66,303.11,204.66,317.14Z" fill="#fff" stroke="#fdb718" stroke-miterlimit="10" stroke-width="4"/><path d="M185,322.44V358h-9.93V322.44c0-6.53,2.22-11.83,5-11.83S185,315.91,185,322.44Z" fill="#fdb718"/><path d="M199,322.44V358H189.1V322.44c0-6.53,2.22-11.83,5-11.83S199,315.91,199,322.44Z" fill="#fdb718"/><ellipse cx="187.04" cy="302.62" rx="5.46" ry="5.43" fill="#fdb718"/><path d="M196.43,435.77V460.5H177.66V435.77c0-7.11,4.2-12.88,9.38-12.88S196.43,428.66,196.43,435.77Z" fill="#fdb718"/><ellipse cx="187.04" cy="264.94" rx="5.51" ry="5.48" fill="#fff" stroke="#fdb718" stroke-miterlimit="10" stroke-width="4"/><polygon points="157.31 120.02 157.31 166.77 137.27 166.77 137.27 120.02 147.28 99.25 157.31 120.02" fill="#fff" stroke="#fdb718" stroke-miterlimit="10" stroke-width="4"/><line x1="137.27" y1="120.02" x2="157.3" y2="120.02" fill="none" stroke="#fdb718" stroke-miterlimit="10" stroke-width="4"/><polygon points="237.16 120.02 237.16 166.77 217.12 166.77 217.12 120.02 227.13 99.25 237.16 120.02" fill="#fff" stroke="#fdb718" stroke-miterlimit="10" stroke-width="4"/><line x1="217.12" y1="120.02" x2="237.16" y2="120.02" fill="none" stroke="#fdb718" stroke-miterlimit="10" stroke-width="4"/><rect x="500.84" y="134.49" width="99.55" height="354.5" fill="#fff" stroke="#fdb718" stroke-miterlimit="10" stroke-width="4"/><polygon points="550.62 32.82 520.39 133.94 580.84 133.94 550.62 32.82" fill="#fff" stroke="#fdb718" stroke-miterlimit="10" stroke-width="4"/><polygon points="550.62 83.38 541.1 106.86 560.13 106.86 550.62 83.38" fill="#fff" stroke="#fdb718" stroke-miterlimit="10" stroke-width="4"/><rect x="537.12" y="106.85" width="26.99" height="27.09" fill="#fff" stroke="#fdb718" stroke-miterlimit="10" stroke-width="4"/><line x1="518.03" y1="166.77" x2="583.2" y2="166.77" fill="#fff" stroke="#fdb718" stroke-miterlimit="10" stroke-width="4"/><line x1="518.03" y1="133.94" x2="583.2" y2="133.94" fill="#fff" stroke="#fdb718" stroke-miterlimit="10" stroke-width="4"/><rect x="522.22" y="175.94" width="56.79" height="77.29" fill="#fff" stroke="#fdb718" stroke-miterlimit="10" stroke-width="4"/><path d="M545.65,190.29v54h-13v-54a6.53,6.53,0,1,1,13,0Z" fill="#fdb718"/><path d="M568.63,190.29v54h-13v-54a6.53,6.53,0,1,1,13,0Z" fill="#fdb718"/><rect x="522.17" y="251.83" width="56.89" height="26.29" fill="#fff" stroke="#fdb718" stroke-miterlimit="10" stroke-width="4"/><line x1="509.16" y1="278.66" x2="592.07" y2="278.66" fill="#fff" stroke="#fdb718" stroke-miterlimit="10" stroke-width="4"/><rect x="501.17" y="278.66" width="19.71" height="209.72" fill="#fff" stroke="#fdb718" stroke-miterlimit="10" stroke-width="4"/><rect x="580.91" y="278.66" width="19.71" height="209.72" fill="#fff" stroke="#fdb718" stroke-miterlimit="10" stroke-width="4"/><line x1="520.82" y1="365.93" x2="580.41" y2="366.31" fill="#fff" stroke="#fdb718" stroke-miterlimit="10" stroke-width="4"/><line x1="520.82" y1="405.64" x2="580.41" y2="405.64" fill="#fff" stroke="#fdb718" stroke-miterlimit="10" stroke-width="4"/><line x1="520.82" y1="468.19" x2="580.41" y2="468.19" fill="#fff" stroke="#fdb718" stroke-miterlimit="10" stroke-width="4"/><path d="M566.33,426.09V451H534.9v-24.9c0-7.16,7-13,15.72-13S566.33,418.93,566.33,426.09Z" fill="#fff" stroke="#fdb718" stroke-miterlimit="10" stroke-width="4"/><path d="M539.72,151.77V167h-9.21V151.77c0-6.06,2.06-11,4.61-11S539.72,145.71,539.72,151.77Z" fill="#fdb718"/><path d="M555.22,151.77V167H546V151.77c0-6.06,2.06-11,4.61-11S555.22,145.71,555.22,151.77Z" fill="#fdb718"/><path d="M570.72,151.77V167h-9.21V151.77c0-6.06,2.06-11,4.61-11S570.72,145.71,570.72,151.77Z" fill="#fdb718"/><path d="M568.23,317.14V366H533V317.14c0-14,7.89-25.42,17.61-25.42S568.23,303.11,568.23,317.14Z" fill="#fff" stroke="#fdb718" stroke-miterlimit="10" stroke-width="4"/><path d="M548.56,322.44V358h-9.93V322.44c0-6.53,2.22-11.83,5-11.83S548.56,315.91,548.56,322.44Z" fill="#fdb718"/><path d="M562.6,322.44V358h-9.93V322.44c0-6.53,2.22-11.83,5-11.83S562.6,315.91,562.6,322.44Z" fill="#fdb718"/><ellipse cx="550.62" cy="302.62" rx="5.46" ry="5.43" fill="#fdb718"/><path d="M560,435.77V460.5H541.23V435.77c0-7.11,4.2-12.88,9.38-12.88S560,428.66,560,435.77Z" fill="#fdb718"/><ellipse cx="550.62" cy="264.94" rx="5.51" ry="5.48" fill="#fff" stroke="#fdb718" stroke-miterlimit="10" stroke-width="4"/><polygon points="520.88 120.02 520.88 166.77 500.84 166.77 500.84 120.02 510.85 99.25 520.88 120.02" fill="#fff" stroke="#fdb718" stroke-miterlimit="10" stroke-width="4"/><line x1="500.84" y1="120.02" x2="520.88" y2="120.02" fill="none" stroke="#fdb718" stroke-miterlimit="10" stroke-width="4"/><polygon points="600.73 120.02 600.73 166.77 580.7 166.77 580.7 120.02 590.71 99.25 600.73 120.02" fill="#fff" stroke="#fdb718" stroke-miterlimit="10" stroke-width="4"/><line x1="580.7" y1="120.02" x2="600.73" y2="120.02" fill="none" stroke="#fdb718" stroke-miterlimit="10" stroke-width="4"/><path d="M389.14,387.2H350.48c1.71-10,9.72-17.65,19.32-17.65S387.43,377.15,389.14,387.2Z" fill="#fff" stroke="#fdb718" stroke-miterlimit="10" stroke-width="4"/></g></svg>