<svg xmlns="http://www.w3.org/2000/svg" viewBox="0 0 738 528.12"><title>roslindale</title><g id="roslindale"><rect x="348.71" y="294.81" width="47.45" height="13.34" fill="#fff" stroke="#fdb717" stroke-miterlimit="10" stroke-width="3.96"/><rect x="283.1" y="304.99" width="176.56" height="186.76" fill="#fff" stroke="#fdb717" stroke-miterlimit="10" stroke-width="3.96"/><line x1="283.57" y1="318.41" x2="459.66" y2="318.41" fill="none" stroke="#fdb717" stroke-miterlimit="10" stroke-width="3.96"/><path d="M341.94,292,370,228.11c1.07-2.44,3.75-2.44,4.82,0L402.93,292c1.07,2.44-.27,5.48-2.41,5.48H344.35C342.2,297.44,340.86,294.39,341.94,292Z" fill="#fff" stroke="#fdb717" stroke-miterlimit="10" stroke-width="3.96"/><path d="M364,257.82l7.74-17.6a.69.69,0,0,1,1.33,0l7.74,17.6c.3.67-.07,1.51-.66,1.51H364.69C364.1,259.33,363.73,258.49,364,257.82Z" fill="#fff" stroke="#fdb717" stroke-miterlimit="10" stroke-width="3.96"/><path d="M417.14,412.5v79.32H326.56V412.5a37.61,37.61,0,0,1,3.14-15h0l0,0c12.07-22.28,42.13-38.34,42.13-38.34s30.06,16.06,42.13,38.34l0,.05A37.61,37.61,0,0,1,417.14,412.5Z" fill="#fdb717"/><line x1="283.1" y1="351.8" x2="460.39" y2="351.8" fill="none" stroke="#fdb717" stroke-miterlimit="10" stroke-width="3.96"/><ellipse cx="304.73" cy="373.24" rx="9.07" ry="9.1" fill="none" stroke="#fdb717" stroke-miterlimit="10" stroke-width="3.96"/><ellipse cx="372.43" cy="278.42" rx="11.77" ry="11.81" fill="#fff" stroke="#fdb717" stroke-miterlimit="10" stroke-width="3.96"/><ellipse cx="438.63" cy="373.24" rx="9.07" ry="9.1" fill="none" stroke="#fdb717" stroke-miterlimit="10" stroke-width="3.96"/><line x1="295.66" y1="318.41" x2="295.66" y2="351.8" fill="none" stroke="#fdb717" stroke-miterlimit="10" stroke-width="3.96"/><line x1="310.77" y1="318.41" x2="310.77" y2="351.8" fill="none" stroke="#fdb717" stroke-miterlimit="10" stroke-width="3.96"/><line x1="325.89" y1="318.41" x2="325.89" y2="351.8" fill="none" stroke="#fdb717" stroke-miterlimit="10" stroke-width="3.96"/><line x1="341" y1="318.41" x2="341" y2="351.8" fill="none" stroke="#fdb717" stroke-miterlimit="10" stroke-width="3.96"/><line x1="356.11" y1="318.41" x2="356.11" y2="351.8" fill="none" stroke="#fdb717" stroke-miterlimit="10" stroke-width="3.96"/><line x1="401.45" y1="318.41" x2="401.45" y2="351.8" fill="none" stroke="#fdb717" stroke-miterlimit="10" stroke-width="3.96"/><line x1="371.22" y1="318.41" x2="371.22" y2="351.8" fill="none" stroke="#fdb717" stroke-miterlimit="10" stroke-width="3.96"/><line x1="416.56" y1="318.41" x2="416.56" y2="351.8" fill="none" stroke="#fdb717" stroke-miterlimit="10" stroke-width="3.96"/><line x1="386.33" y1="318.41" x2="386.33" y2="351.8" fill="none" stroke="#fdb717" stroke-miterlimit="10" stroke-width="3.96"/><line x1="431.67" y1="318.41" x2="431.67" y2="351.8" fill="none" stroke="#fdb717" stroke-miterlimit="10" stroke-width="3.96"/><line x1="446.78" y1="318.41" x2="446.78" y2="351.8" fill="none" stroke="#fdb717" stroke-miterlimit="10" stroke-width="3.96"/><line x1="283.1" y1="335.11" x2="459.06" y2="335.11" fill="none" stroke="#fdb717" stroke-miterlimit="10" stroke-width="3.96"/><rect x="108.12" y="365.87" width="135.63" height="7.37" fill="#fdb717"/><rect x="112.79" y="373.24" width="129.79" height="118.51" fill="#fff" stroke="#fdb717" stroke-miterlimit="10" stroke-width="3.96"/><path d="M115.87,412.79l-3.08-7.07A43.63,43.63,0,0,1,115.87,412.79Z" fill="#fdb717"/><path d="M261,161.58l-18.22,96.48h40.66l-18.22-96.48A2.15,2.15,0,0,0,261,161.58Z" fill="#fff" stroke="#fdb717" stroke-miterlimit="10" stroke-width="3.96"/><rect x="242.79" y="319.56" width="40.66" height="172.21" fill="#fff" stroke="#fdb717" stroke-miterlimit="10" stroke-width="3.96"/><rect x="247.72" y="258.05" width="30.79" height="61.5" fill="#fff" stroke="#fdb717" stroke-miterlimit="10" stroke-width="3.96"/><rect x="238.43" y="258.05" width="49.38" height="14.55" fill="#fff" stroke="#fdb717" stroke-miterlimit="10" stroke-width="3.96"/><rect x="242.79" y="305" width="40.66" height="14.55" fill="#fff" stroke="#fdb717" stroke-miterlimit="10" stroke-width="3.96"/><ellipse cx="262.98" cy="153.9" rx="10.38" ry="3.62" fill="#fff" stroke="#fdb717" stroke-miterlimit="10" stroke-width="3.96"/><ellipse cx="262.98" cy="145.91" rx="4.36" ry="4.37" fill="#fff" stroke="#fdb717" stroke-miterlimit="10" stroke-width="3.96"/><ellipse cx="262.98" cy="161.89" rx="4.36" ry="4.37" fill="#fff" stroke="#fdb717" stroke-miterlimit="10" stroke-width="3.96"/><rect x="236.85" y="406.11" width="52.54" height="14.55" fill="#fff" stroke="#fdb717" stroke-miterlimit="10" stroke-width="3.96"/><line x1="243.75" y1="359.08" x2="283.81" y2="359.08" fill="none" stroke="#fdb717" stroke-miterlimit="10" stroke-width="3.96"/><line x1="250.5" y1="319.56" x2="250.5" y2="359.08" fill="none" stroke="#fdb717" stroke-miterlimit="10" stroke-width="3.96"/><line x1="263.2" y1="319.56" x2="263.2" y2="359.08" fill="none" stroke="#fdb717" stroke-miterlimit="10" stroke-width="3.96"/><line x1="275.89" y1="319.56" x2="275.89" y2="359.08" fill="none" stroke="#fdb717" stroke-miterlimit="10" stroke-width="3.96"/><line x1="242.42" y1="338.74" x2="283.2" y2="338.74" fill="none" stroke="#fdb717" stroke-miterlimit="10" stroke-width="3.96"/><polyline points="236.84 410.96 245.6 415.81 254.35 410.96 263.11 415.81 271.87 410.96 280.63 415.81 289.39 410.96" fill="none" stroke="#fdb717" stroke-miterlimit="10" stroke-width="3.96"/><line x1="253.75" y1="431.84" x2="253.75" y2="482.78" fill="none" stroke="#fdb717" stroke-miterlimit="10" stroke-width="3.96"/><line x1="272.49" y1="431.84" x2="272.49" y2="482.78" fill="none" stroke="#fdb717" stroke-miterlimit="10" stroke-width="3.96"/><line x1="241.18" y1="413.39" x2="121.91" y2="413.39" fill="none" stroke="#fdb717" stroke-miterlimit="10" stroke-width="3.96"/><polyline points="242.94 382.33 242.55 382.33 117.5 382.33" fill="none" stroke="#fdb717" stroke-miterlimit="10" stroke-width="3.96"/><polyline points="242.94 392.69 242.55 392.69 123.13 392.69" fill="none" stroke="#fdb717" stroke-miterlimit="10" stroke-width="3.96"/><polyline points="242.94 403.04 242.55 403.04 128.78 403.04" fill="none" stroke="#fdb717" stroke-miterlimit="10" stroke-width="3.96"/><path d="M203.43,453.08v38.33H159.66V453.08a18.17,18.17,0,0,1,1.52-7.27h0v0c5.83-10.76,20.36-18.52,20.36-18.52s14.52,7.76,20.36,18.52v0A18.17,18.17,0,0,1,203.43,453.08Z" fill="#fdb717"/><rect x="206.63" y="427.27" width="16.93" height="9.42" fill="none" stroke="#fdb717" stroke-miterlimit="10" stroke-width="3.96"/><rect x="139.54" y="427.27" width="16.93" height="9.42" fill="none" stroke="#fdb717" stroke-miterlimit="10" stroke-width="3.96"/><rect x="38.8" y="412.79" width="88.14" height="78.96" fill="#fff" stroke="#fdb717" stroke-miterlimit="10" stroke-width="3.96"/><path d="M70.6,447.58v23.49H59.44V447.58c0-6.75,2.5-12.23,5.58-12.23S70.6,440.83,70.6,447.58Z" fill="#fdb717"/><path d="M88.44,447.58v23.49H77.29V447.58c0-6.75,2.5-12.23,5.58-12.23S88.44,440.83,88.44,447.58Z" fill="#fdb717"/><path d="M106.29,447.58v23.49H95.14V447.58c0-6.75,2.5-12.23,5.58-12.23S106.29,440.83,106.29,447.58Z" fill="#fdb717"/><rect x="494.25" y="365.87" width="135.63" height="7.37" transform="translate(1124.12 739.11) rotate(180)" fill="#fdb717"/><rect x="495.42" y="373.24" width="129.79" height="118.51" transform="translate(1120.64 864.99) rotate(180)" fill="#fff" stroke="#fdb717" stroke-miterlimit="10" stroke-width="3.96"/><path d="M622.13,412.79l3.08-7.07A43.63,43.63,0,0,0,622.13,412.79Z" fill="#fdb717"/><path d="M477,161.58l18.22,96.48H454.55l18.22-96.48A2.15,2.15,0,0,1,477,161.58Z" fill="#fff" stroke="#fdb717" stroke-miterlimit="10" stroke-width="3.96"/><rect x="454.56" y="319.56" width="40.66" height="172.21" fill="#fff" stroke="#fdb717" stroke-miterlimit="10" stroke-width="3.96"/><rect x="459.49" y="258.05" width="30.79" height="61.5" fill="#fff" stroke="#fdb717" stroke-miterlimit="10" stroke-width="3.96"/><rect x="450.19" y="258.05" width="49.38" height="14.55" transform="translate(949.77 530.66) rotate(180)" fill="#fff" stroke="#fdb717" stroke-miterlimit="10" stroke-width="3.96"/><rect x="454.56" y="305" width="40.66" height="14.55" fill="#fff" stroke="#fdb717" stroke-miterlimit="10" stroke-width="3.96"/><ellipse cx="475.02" cy="153.9" rx="10.38" ry="3.62" fill="#fff" stroke="#fdb717" stroke-miterlimit="10" stroke-width="3.96"/><ellipse cx="475.02" cy="145.91" rx="4.36" ry="4.37" fill="#fff" stroke="#fdb717" stroke-miterlimit="10" stroke-width="3.96"/><ellipse cx="475.02" cy="161.89" rx="4.36" ry="4.37" fill="#fff" stroke="#fdb717" stroke-miterlimit="10" stroke-width="3.96"/><rect x="448.61" y="406.11" width="52.54" height="14.55" fill="#fff" stroke="#fdb717" stroke-miterlimit="10" stroke-width="3.96"/><line x1="494.25" y1="359.08" x2="454.19" y2="359.08" fill="none" stroke="#fdb717" stroke-miterlimit="10" stroke-width="3.96"/><line x1="487.5" y1="319.56" x2="487.5" y2="359.08" fill="none" stroke="#fdb717" stroke-miterlimit="10" stroke-width="3.96"/><line x1="474.8" y1="319.56" x2="474.8" y2="359.08" fill="none" stroke="#fdb717" stroke-miterlimit="10" stroke-width="3.96"/><line x1="462.11" y1="319.56" x2="462.11" y2="359.08" fill="none" stroke="#fdb717" stroke-miterlimit="10" stroke-width="3.96"/><line x1="495.58" y1="338.74" x2="454.8" y2="338.74" fill="none" stroke="#fdb717" stroke-miterlimit="10" stroke-width="3.96"/><polyline points="501.15 415.81 492.4 410.96 483.65 415.81 474.89 410.96 466.13 415.81 457.37 410.96 448.61 415.81" fill="none" stroke="#fdb717" stroke-miterlimit="10" stroke-width="3.96"/><line x1="484.25" y1="431.84" x2="484.25" y2="482.78" fill="none" stroke="#fdb717" stroke-miterlimit="10" stroke-width="3.96"/><line x1="465.51" y1="431.84" x2="465.51" y2="482.78" fill="none" stroke="#fdb717" stroke-miterlimit="10" stroke-width="3.96"/><line x1="496.82" y1="413.39" x2="616.09" y2="413.38" fill="none" stroke="#fdb717" stroke-miterlimit="10" stroke-width="3.96"/><polyline points="620.5 382.33 495.45 382.33 495.06 382.33" fill="none" stroke="#fdb717" stroke-miterlimit="10" stroke-width="3.96"/><polyline points="614.87 392.69 495.45 392.69 495.06 392.69" fill="none" stroke="#fdb717" stroke-miterlimit="10" stroke-width="3.96"/><polyline points="609.23 403.04 495.45 403.04 495.06 403.04" fill="none" stroke="#fdb717" stroke-miterlimit="10" stroke-width="3.96"/><path d="M534.57,453.08v38.33h43.76V453.08a18.17,18.17,0,0,0-1.52-7.27h0v0C571,435,556.45,427.27,556.45,427.27S541.93,435,536.1,445.79v0A18.17,18.17,0,0,0,534.57,453.08Z" fill="#fdb717"/><rect x="514.45" y="427.27" width="16.93" height="9.42" transform="translate(1045.82 863.97) rotate(180)" fill="none" stroke="#fdb717" stroke-miterlimit="10" stroke-width="3.96"/><rect x="581.54" y="427.27" width="16.93" height="9.42" transform="translate(1180 863.97) rotate(180)" fill="none" stroke="#fdb717" stroke-miterlimit="10" stroke-width="3.96"/><path d="M600.14,412.65h110L660.85,329a1.28,1.28,0,0,0-.34-.37v-8H649.76v8a1.27,1.27,0,0,0-.34.37Z" fill="#fff" stroke="#fdb717" stroke-miterlimit="10" stroke-width="3.96"/><rect x="649.76" y="315.42" width="10.75" height="5" fill="#fff" stroke="#fdb717" stroke-miterlimit="10" stroke-width="3.96"/><polygon points="647 320.42 663.26 320.42 655.13 304.51 647 320.42" fill="#fff" stroke="#fdb717" stroke-miterlimit="10" stroke-width="3.96"/><line x1="661.92" y1="330.78" x2="648.47" y2="330.78" fill="none" stroke="#fdb717" stroke-miterlimit="10" stroke-width="3.96"/><polyline points="666.6 338.73 643.66 338.73 643.3 338.73" fill="none" stroke="#fdb717" stroke-miterlimit="10" stroke-width="3.96"/><line x1="672.85" y1="349.34" x2="637.41" y2="349.34" fill="none" stroke="#fdb717" stroke-miterlimit="10" stroke-width="3.96"/><line x1="679.09" y1="359.95" x2="631.17" y2="359.95" fill="none" stroke="#fdb717" stroke-miterlimit="10" stroke-width="3.96"/><line x1="685.34" y1="370.56" x2="624.92" y2="370.56" fill="none" stroke="#fdb717" stroke-miterlimit="10" stroke-width="3.96"/><line x1="691.59" y1="381.17" x2="618.67" y2="381.17" fill="none" stroke="#fdb717" stroke-miterlimit="10" stroke-width="3.96"/><line x1="699.43" y1="391.82" x2="610.89" y2="391.74" fill="none" stroke="#fdb717" stroke-miterlimit="10" stroke-width="3.96"/><line x1="704.11" y1="402.44" x2="606.21" y2="402.35" fill="none" stroke="#fdb717" stroke-miterlimit="10" stroke-width="3.96"/><rect x="611.06" y="412.79" width="88.14" height="78.96" transform="translate(1310.26 904.54) rotate(180)" fill="#fff" stroke="#fdb717" stroke-miterlimit="10" stroke-width="3.96"/><path d="M667.4,447.58v23.49h11.15V447.58c0-6.75-2.5-12.23-5.58-12.23S667.4,440.83,667.4,447.58Z" fill="#fdb717"/><path d="M649.56,447.58v23.49h11.15V447.58c0-6.75-2.5-12.23-5.58-12.23S649.56,440.83,649.56,447.58Z" fill="#fdb717"/><path d="M631.71,447.58v23.49h11.15V447.58c0-6.75-2.5-12.23-5.58-12.23S631.71,440.83,631.71,447.58Z" fill="#fdb717"/><path d="M27.88,413.71h110L88.58,330a1.28,1.28,0,0,0-.34-.37v-8H77.49v8a1.27,1.27,0,0,0-.34.37Z" fill="#fff" stroke="#fdb717" stroke-miterlimit="10" stroke-width="3.96"/><rect x="77.49" y="316.48" width="10.75" height="5" fill="#fff" stroke="#fdb717" stroke-miterlimit="10" stroke-width="3.96"/><polygon points="74.74 321.48 91 321.48 82.87 305.57 74.74 321.48" fill="#fff" stroke="#fdb717" stroke-miterlimit="10" stroke-width="3.96"/><line x1="89.65" y1="331.83" x2="76.21" y2="331.83" fill="none" stroke="#fdb717" stroke-miterlimit="10" stroke-width="3.96"/><polyline points="94.34 339.79 71.4 339.79 71.03 339.79" fill="none" stroke="#fdb717" stroke-miterlimit="10" stroke-width="3.96"/><line x1="100.58" y1="350.4" x2="65.15" y2="350.4" fill="none" stroke="#fdb717" stroke-miterlimit="10" stroke-width="3.96"/><line x1="106.83" y1="361.01" x2="58.9" y2="361.01" fill="none" stroke="#fdb717" stroke-miterlimit="10" stroke-width="3.96"/><line x1="113.08" y1="371.62" x2="52.66" y2="371.62" fill="none" stroke="#fdb717" stroke-miterlimit="10" stroke-width="3.96"/><line x1="119.32" y1="382.23" x2="46.41" y2="382.23" fill="none" stroke="#fdb717" stroke-miterlimit="10" stroke-width="3.96"/><line x1="127.16" y1="392.88" x2="38.62" y2="392.8" fill="none" stroke="#fdb717" stroke-miterlimit="10" stroke-width="3.96"/><line x1="131.85" y1="403.49" x2="33.94" y2="403.41" fill="none" stroke="#fdb717" stroke-miterlimit="10" stroke-width="3.96"/></g></svg>