<svg xmlns="http://www.w3.org/2000/svg" viewBox="0 0 738 528.12"><title>roxbury</title><g id="roxbury"><path d="M372.51,30l30.24,127.8h-67.5L365.49,30C366.23,26.89,371.77,26.89,372.51,30Z" fill="#fff" stroke="#fdb718" stroke-miterlimit="10" stroke-width="4"/><line x1="322.19" y1="127.48" x2="322.19" y2="145.01" fill="none" stroke="#fdb718" stroke-miterlimit="10" stroke-width="4"/><line x1="415.31" y1="127.48" x2="415.31" y2="145.01" fill="none" stroke="#fdb718" stroke-miterlimit="10" stroke-width="4"/><line x1="320.11" y1="127.48" x2="417.36" y2="127.48" fill="none" stroke="#fdb718" stroke-miterlimit="10" stroke-width="4"/><rect x="329" y="157.79" width="80" height="333.35" fill="#fff" stroke="#fdb718" stroke-miterlimit="10" stroke-width="4"/><path d="M422.1,447.31v43.83H315.9V447.31h36.88l13.82-34.87c.5-1.27,4.3-1.27,4.8,0l13.82,34.87Z" fill="#fff" stroke="#fdb718" stroke-miterlimit="10" stroke-width="4"/><path d="M369,459.05a9,9,0,0,0-9,9v23.1h18V468A9,9,0,0,0,369,459.05Z" fill="none" stroke="#fdb718" stroke-miterlimit="10" stroke-width="4"/><rect x="366.81" y="224.68" width="4.38" height="25.59" fill="#fdb718"/><rect x="366.81" y="359.05" width="4.38" height="25.59" fill="#fdb718"/><line x1="359.98" y1="250.27" x2="378.02" y2="250.27" fill="none" stroke="#fdb718" stroke-miterlimit="10" stroke-width="4"/><rect x="343.34" y="291.87" width="4.38" height="25.59" fill="#fdb718"/><rect x="390.28" y="291.87" width="4.38" height="25.59" fill="#fdb718"/><line x1="383.45" y1="317.45" x2="401.49" y2="317.45" fill="none" stroke="#fdb718" stroke-miterlimit="10" stroke-width="4"/><line x1="336.51" y1="317.45" x2="354.55" y2="317.45" fill="none" stroke="#fdb718" stroke-miterlimit="10" stroke-width="4"/><line x1="359.98" y1="384.64" x2="378.02" y2="384.64" fill="none" stroke="#fdb718" stroke-miterlimit="10" stroke-width="4"/><path d="M415.21,145l.69,45.46-6.55,9h-80l-6.55-9L322.11,145h23.55l21.21-44.65c.52-1.08,4.44-1.08,5,0L392,145Z" fill="#fff" stroke="#fdb718" stroke-miterlimit="10" stroke-width="4"/><line x1="322.45" y1="173.79" x2="415.55" y2="173.79" fill="none" stroke="#fdb718" stroke-miterlimit="10" stroke-width="4"/><line x1="322.45" y1="157.26" x2="415.55" y2="157.26" fill="none" stroke="#fdb718" stroke-miterlimit="10" stroke-width="4"/><path d="M369,131.69c-5,0-9,5.28-9,11.8v30.3h18v-30.3C378,137,374,131.69,369,131.69Z" fill="#fdb718"/><line x1="369" y1="469.79" x2="369" y2="491.83" fill="none" stroke="#fdb718" stroke-miterlimit="10" stroke-width="4"/><line x1="369" y1="469.79" x2="369" y2="491.83" fill="none" stroke="#fdb718" stroke-miterlimit="10" stroke-width="4"/><line x1="245.26" y1="491.83" x2="492.74" y2="491.83" fill="none" stroke="#fdb718" stroke-miterlimit="10" stroke-width="4"/></g></svg>