<svg xmlns="http://www.w3.org/2000/svg" viewBox="0 0 738 528.12"><title>south end</title><g id="south_end" data-name="south end"><rect x="417.57" y="246.21" width="155.99" height="245.62" fill="#fff" stroke="#fdb718" stroke-miterlimit="10" stroke-width="4"/><rect x="429.57" y="321.2" width="16.5" height="33" fill="#fdb718"/><rect x="429.57" y="395.47" width="16.5" height="33" fill="#fdb718"/><rect x="467.24" y="395.47" width="16.5" height="33" fill="#fdb718"/><rect x="504.91" y="395.47" width="16.5" height="33" fill="#fdb718"/><path d="M489.29,475.82v16H464v-16c0-9.6,5.67-17.39,12.66-17.39S489.29,466.22,489.29,475.82Z" fill="#fdb718"/><path d="M530.33,475.82v16H505v-16c0-9.6,5.68-17.39,12.67-17.39S530.33,466.22,530.33,475.82Z" fill="#fdb718"/><path d="M487.64,311.24v61.32h-30V311.24c0-17.62,6.71-31.92,15-31.92S487.64,293.62,487.64,311.24Z" fill="#fff" stroke="#fdb718" stroke-miterlimit="10" stroke-width="4"/><path d="M529.82,311.24v61.32h-30V311.24c0-17.62,6.71-31.92,15-31.92S529.82,293.62,529.82,311.24Z" fill="#fff" stroke="#fdb718" stroke-miterlimit="10" stroke-width="4"/><rect x="464.41" y="322.25" width="16.5" height="33" fill="#fdb718"/><rect x="507.41" y="322.25" width="16.5" height="33" fill="#fdb718"/><line x1="457.67" y1="305.79" x2="487.64" y2="305.79" fill="none" stroke="#fdb718" stroke-miterlimit="10" stroke-width="4"/><line x1="499.62" y1="305.79" x2="529.59" y2="305.79" fill="none" stroke="#fdb718" stroke-miterlimit="10" stroke-width="4"/><rect x="164.43" y="246.21" width="155.99" height="245.62" fill="#fff" stroke="#fdb718" stroke-miterlimit="10" stroke-width="4"/><line x1="164.43" y1="267.25" x2="573.57" y2="267.25" fill="none" stroke="#fdb718" stroke-miterlimit="10" stroke-width="4"/><line x1="164.43" y1="446.24" x2="573.57" y2="446.24" fill="none" stroke="#fdb718" stroke-miterlimit="10" stroke-width="4"/><rect x="320.43" y="55.75" width="97.15" height="436.07" fill="#fff" stroke="#fdb718" stroke-miterlimit="10" stroke-width="4"/><polygon points="426.33 175.32 419.76 222.86 318.11 221.27 311.14 174.32 311.14 146.25 426.33 146.25 426.33 175.32" fill="#fff" stroke="#fdb718" stroke-miterlimit="10" stroke-width="4"/><line x1="320.43" y1="428.24" x2="417.57" y2="428.24" fill="none" stroke="#fdb718" stroke-miterlimit="10" stroke-width="4"/><rect x="361.21" y="444.24" width="16.5" height="33" fill="#fdb718"/><rect x="361.21" y="376.06" width="16.5" height="33" fill="#fdb718"/><rect x="361.21" y="307.88" width="16.5" height="33" fill="#fdb718"/><rect x="290.3" y="321.2" width="16.5" height="33" fill="#fdb718"/><rect x="176.43" y="321.2" width="16.5" height="33" fill="#fdb718"/><rect x="176.43" y="395.47" width="16.5" height="33" fill="#fdb718"/><rect x="542.41" y="321.2" width="16.5" height="33" fill="#fdb718"/><rect x="542.41" y="395.47" width="16.5" height="33" fill="#fdb718"/><rect x="214.1" y="395.47" width="16.5" height="33" fill="#fdb718"/><rect x="251.76" y="395.47" width="16.5" height="33" fill="#fdb718"/><rect x="289.43" y="395.47" width="16.5" height="33" fill="#fdb718"/><path d="M378.84,250.28V275H360.08V250.28c0-7.11,4.2-12.88,9.38-12.88S378.84,243.17,378.84,250.28Z" fill="#fdb718"/><path d="M236.15,475.82v16H210.82v-16c0-9.6,5.67-17.39,12.66-17.39S236.15,466.22,236.15,475.82Z" fill="#fdb718"/><path d="M277.19,475.82v16H251.86v-16c0-9.6,5.68-17.39,12.67-17.39S277.19,466.22,277.19,475.82Z" fill="#fdb718"/><path d="M378.84,84.33v30H360.08v-30c0-8.62,4.2-15.61,9.38-15.61S378.84,75.72,378.84,84.33Z" fill="#fdb718"/><rect x="320.43" y="24.65" width="23.19" height="31.1" fill="#fff" stroke="#fdb718" stroke-miterlimit="10" stroke-width="4"/><rect x="357.4" y="24.65" width="23.19" height="31.1" fill="#fff" stroke="#fdb718" stroke-miterlimit="10" stroke-width="4"/><rect x="394.38" y="24.65" width="23.19" height="31.1" fill="#fff" stroke="#fdb718" stroke-miterlimit="10" stroke-width="4"/><line x1="320.43" y1="84.26" x2="417.57" y2="84.26" fill="none" stroke="#fdb718" stroke-miterlimit="10" stroke-width="4"/><rect x="311" y="124.32" width="21.94" height="21.94" fill="#fff" stroke="#fdb718" stroke-miterlimit="10" stroke-width="4"/><rect x="342.2" y="124.32" width="21.94" height="21.94" fill="#fff" stroke="#fdb718" stroke-miterlimit="10" stroke-width="4"/><rect x="373.4" y="124.32" width="21.94" height="21.94" fill="#fff" stroke="#fdb718" stroke-miterlimit="10" stroke-width="4"/><rect x="404.61" y="124.32" width="21.94" height="21.94" fill="#fff" stroke="#fdb718" stroke-miterlimit="10" stroke-width="4"/><line x1="311" y1="174.32" x2="426.19" y2="174.32" fill="none" stroke="#fdb718" stroke-miterlimit="10" stroke-width="4"/><path d="M340.58,178.34v34h-12v-34c0-9.77,2.68-17.69,6-17.69S340.58,168.58,340.58,178.34Z" fill="#fff" stroke="#fdb718" stroke-miterlimit="10" stroke-width="4"/><path d="M363.34,178.34v34h-12v-34c0-9.77,2.68-17.69,6-17.69S363.34,168.58,363.34,178.34Z" fill="#fff" stroke="#fdb718" stroke-miterlimit="10" stroke-width="4"/><path d="M386.11,178.34v34h-12v-34c0-9.77,2.68-17.69,6-17.69S386.11,168.58,386.11,178.34Z" fill="#fff" stroke="#fdb718" stroke-miterlimit="10" stroke-width="4"/><path d="M408.87,178.34v34h-12v-34c0-9.77,2.68-17.69,6-17.69S408.87,168.58,408.87,178.34Z" fill="#fff" stroke="#fdb718" stroke-miterlimit="10" stroke-width="4"/><rect x="325" y="209.32" width="90.57" height="7.67" fill="#fff"/><line x1="320.43" y1="292.74" x2="417.57" y2="292.74" fill="none" stroke="#fdb718" stroke-miterlimit="10" stroke-width="4"/><line x1="320.43" y1="353.74" x2="417.57" y2="353.74" fill="none" stroke="#fdb718" stroke-miterlimit="10" stroke-width="4"/><path d="M234.5,311.24v61.32h-30V311.24c0-17.62,6.71-31.92,15-31.92S234.5,293.62,234.5,311.24Z" fill="#fff" stroke="#fdb718" stroke-miterlimit="10" stroke-width="4"/><path d="M276.67,311.24v61.32h-30V311.24c0-17.62,6.71-31.92,15-31.92S276.67,293.62,276.67,311.24Z" fill="#fff" stroke="#fdb718" stroke-miterlimit="10" stroke-width="4"/><rect x="211.26" y="322.25" width="16.5" height="33" fill="#fdb718"/><rect x="254.26" y="322.25" width="16.5" height="33" fill="#fdb718"/><line x1="204.53" y1="305.79" x2="234.5" y2="305.79" fill="none" stroke="#fdb718" stroke-miterlimit="10" stroke-width="4"/><line x1="246.48" y1="305.79" x2="276.44" y2="305.79" fill="none" stroke="#fdb718" stroke-miterlimit="10" stroke-width="4"/></g></svg>