<svg xmlns="http://www.w3.org/2000/svg" viewBox="0 0 738 528.12"><title>west end</title><g id="west_end" data-name="west end"><rect x="102.89" y="106.47" width="532.21" height="385.86" fill="#fff" stroke="#fdb717" stroke-miterlimit="10" stroke-width="4"/><rect x="171.33" y="268.3" width="361.79" height="62.72" fill="#fff" stroke="#fdb717" stroke-miterlimit="10" stroke-width="4"/><rect x="171.33" y="331.9" width="302.32" height="53.17" fill="#fff" stroke="#fdb717" stroke-miterlimit="10" stroke-width="4"/><rect x="171.33" y="385.96" width="255.29" height="40.5" fill="#fff" stroke="#fdb717" stroke-miterlimit="10" stroke-width="4"/><polyline points="533.12 331.01 574.29 331.01 574.29 492.33" fill="#fff" stroke="#fdb717" stroke-miterlimit="10" stroke-width="4"/><polyline points="171.33 426.46 118.38 426.46 118.38 492.33" fill="#fff" stroke="#fdb717" stroke-miterlimit="10" stroke-width="4"/><rect x="196.79" y="426.46" width="15.74" height="65.87" fill="#fff" stroke="#fdb717" stroke-miterlimit="10" stroke-width="4"/><rect x="260.66" y="427.35" width="15.74" height="65.87" fill="#fff" stroke="#fdb717" stroke-miterlimit="10" stroke-width="4"/><rect x="324.54" y="427.35" width="15.74" height="65.87" fill="#fff" stroke="#fdb717" stroke-miterlimit="10" stroke-width="4"/><rect x="171.33" y="399.48" width="255.29" height="12.19" fill="#fdb718"/><rect x="171.33" y="352.39" width="302.32" height="12.19" fill="#fdb718"/><rect x="171.33" y="293.3" width="361.79" height="12.19" fill="#fdb718"/><rect x="102.89" y="128.57" width="532.21" height="12.19" fill="#fdb718"/><rect x="102.89" y="175.83" width="532.21" height="12.19" fill="#fdb718"/><rect x="102.89" y="223.09" width="532.21" height="12.19" fill="#fdb718"/><rect x="102.89" y="269.99" width="68.43" height="12.19" fill="#fdb718"/><rect x="533.12" y="270.35" width="101.98" height="12.19" fill="#fdb718"/><rect x="102.89" y="318.82" width="68.43" height="12.19" fill="#fdb718"/><rect x="102.89" y="364.27" width="68.43" height="12.19" fill="#fdb718"/><rect x="102.89" y="414.98" width="68.43" height="12.19" fill="#fdb718"/><rect x="426.62" y="412.13" width="208.49" height="14.33" fill="#fdb718"/><rect x="473.65" y="364.87" width="161.46" height="12.19" fill="#fdb718"/><rect x="533.12" y="316.77" width="101.98" height="13.89" fill="#fdb718"/><rect x="388.41" y="452.34" width="185.88" height="40.88" fill="#fdb718"/><rect x="388.41" y="426.46" width="15.74" height="65.87" fill="#fff" stroke="#fdb717" stroke-miterlimit="10" stroke-width="4"/><rect x="444.18" y="385.07" width="15.74" height="107.26" fill="#fff" stroke="#fdb717" stroke-miterlimit="10" stroke-width="4"/><rect x="494.39" y="331.02" width="15.74" height="161.31" fill="#fff" stroke="#fdb717" stroke-miterlimit="10" stroke-width="4"/></g></svg>