<svg xmlns="http://www.w3.org/2000/svg" viewBox="0 0 738 528.12"><title>buildings</title><g id="west_roxbury" data-name="west roxbury"><polygon points="707.87 259.28 707.94 353.38 549.03 353.38 549.03 274.44 549.2 259.19 581.31 230.37 629.26 181.1 677.21 230.37 707.87 259.28" fill="#fff" stroke="#fdb718" stroke-miterlimit="10" stroke-width="3.97"/><rect x="106.07" y="263.31" width="526.88" height="227.25" fill="#fff" stroke="#fdb718" stroke-miterlimit="10" stroke-width="3.97"/><polygon points="479.77 257.44 479.77 261.1 259.46 261.1 259.25 256.28 304.21 209.01 370.68 139.15 437.17 209.01 478.75 256.28 479.77 257.44" fill="#fff" stroke="#fdb718" stroke-miterlimit="10" stroke-width="3.97"/><rect x="259.36" y="261.1" width="220.31" height="122.32" fill="#fff" stroke="#fdb718" stroke-miterlimit="10" stroke-width="3.97"/><rect x="259.36" y="261.1" width="220.31" height="229.46" fill="#fff" stroke="#fdb718" stroke-miterlimit="10" stroke-width="3.97"/><rect x="548.96" y="260.06" width="158.91" height="230.51" fill="#fff" stroke="#fdb718" stroke-miterlimit="10" stroke-width="3.97"/><polygon points="189.12 261.7 189.12 350.56 30.21 350.56 30.21 271.62 30.06 260.88 62.49 227.54 110.44 178.27 158.39 227.54 188.39 260.88 189.12 261.7" fill="#fff" stroke="#fdb718" stroke-miterlimit="10" stroke-width="3.97"/><rect x="30.21" y="263.31" width="158.91" height="227.25" fill="#fff" stroke="#fdb718" stroke-miterlimit="10" stroke-width="3.97"/><rect x="499.37" y="292.37" width="24.34" height="60.06" fill="#fdb718"/><rect x="376.91" y="292.42" width="24.34" height="45.73" fill="#fdb718"/><rect x="337.78" y="292.42" width="24.34" height="45.73" fill="#fdb718"/><rect x="378.73" y="353.54" width="24.34" height="45.73" fill="#fdb718"/><rect x="339.6" y="353.54" width="24.34" height="45.73" fill="#fdb718"/><rect x="499.37" y="400.66" width="24.34" height="60.06" fill="#fdb718"/><rect x="210.76" y="292.76" width="24.34" height="60.06" fill="#fdb718"/><rect x="210.76" y="401.06" width="24.34" height="60.06" fill="#fdb718"/><line x1="259.25" y1="273.75" x2="479.78" y2="273.75" fill="none" stroke="#fdb718" stroke-miterlimit="10" stroke-width="3.97"/><circle cx="369.51" cy="207.81" r="17.18" fill="none" stroke="#fdb718" stroke-miterlimit="10" stroke-width="3.97"/><circle cx="109.67" cy="231.15" r="11.93" fill="none" stroke="#fdb718" stroke-miterlimit="10" stroke-width="3.97"/><circle cx="628.49" cy="231.15" r="11.93" fill="none" stroke="#fdb718" stroke-miterlimit="10" stroke-width="3.97"/><line x1="464.95" y1="273.75" x2="464.95" y2="490.57" fill="none" stroke="#fdb718" stroke-miterlimit="10" stroke-width="3.97"/><line x1="275.91" y1="275.01" x2="275.91" y2="491.83" fill="none" stroke="#fdb718" stroke-miterlimit="10" stroke-width="3.97"/><rect x="428.17" y="292.42" width="24.34" height="45.73" fill="#fdb718"/><rect x="428.17" y="353.54" width="24.34" height="45.73" fill="#fdb718"/><rect x="428.17" y="415.06" width="24.34" height="45.73" fill="#fdb718"/><rect x="580.95" y="284.7" width="24.34" height="45.73" fill="#fdb718"/><rect x="616.24" y="284.7" width="24.34" height="45.73" fill="#fdb718"/><rect x="651.53" y="284.7" width="24.34" height="45.73" fill="#fdb718"/><rect x="580.95" y="351.89" width="24.34" height="45.73" fill="#fdb718"/><rect x="616.24" y="351.89" width="24.34" height="45.73" fill="#fdb718"/><rect x="651.53" y="351.89" width="24.34" height="45.73" fill="#fdb718"/><rect x="580.95" y="419.09" width="24.34" height="45.73" fill="#fdb718"/><rect x="616.24" y="419.09" width="24.34" height="45.73" fill="#fdb718"/><rect x="651.53" y="419.09" width="24.34" height="45.73" fill="#fdb718"/><rect x="62.21" y="286.88" width="24.34" height="45.73" fill="#fdb718"/><rect x="97.5" y="286.88" width="24.34" height="45.73" fill="#fdb718"/><rect x="132.78" y="286.88" width="24.34" height="45.73" fill="#fdb718"/><rect x="62.21" y="354.07" width="24.34" height="45.73" fill="#fdb718"/><rect x="97.5" y="354.07" width="24.34" height="45.73" fill="#fdb718"/><rect x="132.78" y="354.07" width="24.34" height="45.73" fill="#fdb718"/><rect x="62.21" y="421.27" width="24.34" height="45.73" fill="#fdb718"/><rect x="97.5" y="421.27" width="24.34" height="45.73" fill="#fdb718"/><rect x="132.78" y="421.27" width="24.34" height="45.73" fill="#fdb718"/><rect x="290.16" y="292.42" width="24.34" height="45.73" fill="#fdb718"/><rect x="290.16" y="353.54" width="24.34" height="45.73" fill="#fdb718"/><rect x="290.16" y="415.06" width="24.34" height="45.73" fill="#fdb718"/><line x1="274.99" y1="338.15" x2="464.03" y2="338.15" fill="none" stroke="#fdb718" stroke-miterlimit="10" stroke-width="3.97"/><line x1="274.99" y1="415.19" x2="464.03" y2="415.19" fill="none" stroke="#fdb718" stroke-miterlimit="10" stroke-width="3.97"/><polygon points="409.28 428.82 409.28 490.56 329.82 490.56 329.82 434 329.75 428.4 345.96 411 369.94 385.29 393.91 411 408.91 428.4 409.28 428.82" fill="#fff" stroke="#fdb718" stroke-miterlimit="10" stroke-width="3.97"/><line x1="329.75" y1="427.25" x2="409.28" y2="427.25" fill="none" stroke="#fdb718" stroke-miterlimit="10" stroke-width="3.97"/><rect x="357.34" y="449.56" width="24.34" height="41.01" fill="#fdb718"/><line x1="549.03" y1="419.09" x2="705.52" y2="419.09" fill="none" stroke="#fdb718" stroke-miterlimit="10" stroke-width="3.97"/><line x1="549.03" y1="322.79" x2="705.52" y2="322.79" fill="none" stroke="#fdb718" stroke-miterlimit="10" stroke-width="3.97"/><line x1="31.42" y1="322.79" x2="187.91" y2="322.79" fill="none" stroke="#fdb718" stroke-miterlimit="10" stroke-width="3.97"/><line x1="31.34" y1="419.09" x2="187.83" y2="419.09" fill="none" stroke="#fdb718" stroke-miterlimit="10" stroke-width="3.97"/><line x1="476.91" y1="400.66" x2="546.17" y2="400.66" fill="none" stroke="#fdb718" stroke-miterlimit="10" stroke-width="3.97"/><line x1="476.91" y1="352.43" x2="546.17" y2="352.43" fill="none" stroke="#fdb718" stroke-miterlimit="10" stroke-width="3.97"/><line x1="189.12" y1="399.93" x2="258.38" y2="399.93" fill="none" stroke="#fdb718" stroke-miterlimit="10" stroke-width="3.97"/><line x1="189.12" y1="353.54" x2="258.38" y2="353.54" fill="none" stroke="#fdb718" stroke-miterlimit="10" stroke-width="3.97"/></g></svg>