<svg xmlns="http://www.w3.org/2000/svg" viewBox="0 0 142.49 98.81"><title>App store on</title><g id="Layer_2" data-name="Layer 2"><g id="Layer_1-2" data-name="Layer 1"><polygon points="97.24 26.01 124.75 41.44 139.4 49.65 97.24 72.8 97.24 26.01" fill="#fff"/><path d="M95.74,75.33V23.45l46.75,26.21Zm3-46.76V70.26L136.3,49.63Z" fill="#091f2f"/><path d="M98.95,71.62a1.5,1.5,0,0,1-1.12-2.5l25.81-28.68a1.5,1.5,0,0,1,2.23,2L100.06,71.12A1.5,1.5,0,0,1,98.95,71.62Z" fill="#091f2f"/><path d="M124.76,57.28a1.5,1.5,0,0,1-1.09-.47L97.86,29.48A1.5,1.5,0,0,1,100,27.42l25.81,27.33a1.5,1.5,0,0,1-1.09,2.53Z" fill="#091f2f"/><path d="M15.51,72.57h-1a6.31,6.31,0,0,1-1.85-.6,9.33,9.33,0,0,1-2.76-2.22c-.83-1-1.59-2-2.36-3A24.52,24.52,0,0,1,5.14,63a32.35,32.35,0,0,1-2.93-8.14c-.22-1.08-.39-2.18-.56-3.27C1.57,51,1.55,50.5,1.5,50V47.62c0-.13,0-.25,0-.38a17.57,17.57,0,0,1,.75-4.19,14.73,14.73,0,0,1,1.47-3.38,13.09,13.09,0,0,1,3.3-3.78,12.07,12.07,0,0,1,5.28-2.4,10.18,10.18,0,0,1,2.94-.16,15,15,0,0,1,3.28.83l3.3,1.18a3.19,3.19,0,0,0,2.27,0c1.38-.5,2.75-1,4.14-1.46a11.8,11.8,0,0,1,4.33-.7,18.34,18.34,0,0,1,1.89.21,12.21,12.21,0,0,1,3.72,1.19,11,11,0,0,1,3.39,2.65c.3.35.58.72.87,1.1l-.42.29-.4.28a10.93,10.93,0,0,0-4.2,5.39,12,12,0,0,0-.58,4.5,11.15,11.15,0,0,0,1.18,4.66A11.29,11.29,0,0,0,40.94,57a10.42,10.42,0,0,0,2.88,1.78v.1a.89.89,0,0,0-.06.11c-.44,1.11-.85,2.24-1.34,3.32a29,29,0,0,1-3.22,5.33A17.6,17.6,0,0,1,36.09,71a6.14,6.14,0,0,1-4,1.46,9.58,9.58,0,0,1-3.25-.74,21.93,21.93,0,0,0-3.26-1.08,8.68,8.68,0,0,0-3.4-.09,15.84,15.84,0,0,0-3,.84,18.36,18.36,0,0,1-3,1Z" fill="#fff"/><path d="M15.64,74.07l-1.41,0A7.73,7.73,0,0,1,12,73.3a10.85,10.85,0,0,1-3.21-2.57c-.8-.92-1.53-1.88-2.25-2.82l-.17-.23a26.14,26.14,0,0,1-2.51-4A33.63,33.63,0,0,1,.75,55.14C.51,54,.33,52.82.17,51.8.11,51.4.08,51,0,50.58L0,50l0-2.8a18.92,18.92,0,0,1,.81-4.54,16.24,16.24,0,0,1,1.62-3.72A14.66,14.66,0,0,1,6.15,34.7,13.63,13.63,0,0,1,12.09,32a11.7,11.7,0,0,1,3.37-.17,16.53,16.53,0,0,1,3.61.91l.69.24,2.62.94a1.7,1.7,0,0,0,1.24,0c1.26-.46,2.72-1,4.19-1.47a13.17,13.17,0,0,1,4.88-.77,19.76,19.76,0,0,1,2.05.22,13.77,13.77,0,0,1,4.17,1.34,12.55,12.55,0,0,1,3.84,3c.22.26.42.52.63.79l1.27,1.6-2.12,1.46a9.43,9.43,0,0,0-3.66,4.66,10.54,10.54,0,0,0-.5,3.95,9.57,9.57,0,0,0,1,4,9.84,9.84,0,0,0,2.5,3.09,8.8,8.8,0,0,0,2.47,1.54l1,.37v1.54l-.2.35h0l-.37.94c-.3.77-.6,1.57-1,2.35a30.28,30.28,0,0,1-3.39,5.61A19.06,19.06,0,0,1,37,72.23,7.68,7.68,0,0,1,32.22,74h-.11a11,11,0,0,1-3.76-.83L27.89,73a17,17,0,0,0-2.57-.84,7.14,7.14,0,0,0-2.82-.09,14.28,14.28,0,0,0-2.71.76,19.62,19.62,0,0,1-3.25,1.07L16,74Zm-1-3,.87,0,.44-.08A17.09,17.09,0,0,0,18.68,70,17.23,17.23,0,0,1,22,69.12a10.16,10.16,0,0,1,4,.1,19.58,19.58,0,0,1,3,1l.45.17a8.26,8.26,0,0,0,2.74.64,4.64,4.64,0,0,0,3-1.14A16.25,16.25,0,0,0,38,66.73a27.32,27.32,0,0,0,3.06-5.05c.32-.69.59-1.4.88-2.15a14.12,14.12,0,0,1-2-1.38,12.82,12.82,0,0,1-3.26-4,12.66,12.66,0,0,1-1.35-5.28A13.42,13.42,0,0,1,36,43.78,12.12,12.12,0,0,1,40.31,38a9.48,9.48,0,0,0-2.78-2.11,10.76,10.76,0,0,0-3.27-1,16.65,16.65,0,0,0-1.74-.19,10.27,10.27,0,0,0-3.78.62c-1.43.47-2.87,1-4.1,1.44a4.7,4.7,0,0,1-3.3,0l-2.6-.93-.69-.24a13.33,13.33,0,0,0-3-.75,9,9,0,0,0-2.51.15A10.53,10.53,0,0,0,8,37.09a11.53,11.53,0,0,0-2.92,3.36,13.22,13.22,0,0,0-1.32,3A16,16,0,0,0,3,47.31a3.71,3.71,0,0,1,0,.42l0,2.62c0,.33,0,.66.1,1,.15,1,.33,2.12.55,3.2A30.64,30.64,0,0,0,6.48,62.3,23.16,23.16,0,0,0,8.7,65.86l.17.23c.69.9,1.39,1.83,2.13,2.67a7.77,7.77,0,0,0,2.32,1.87A4.71,4.71,0,0,0,14.62,71.07Z" fill="#091f2f"/><path d="M33,16.24c0,.82,0,1.64-.06,2.46A9.13,9.13,0,0,1,32,22a13,13,0,0,1-2.05,3,10.21,10.21,0,0,1-3.48,2.58,7.82,7.82,0,0,1-3.79.6,7.92,7.92,0,0,1,0-2.18,9.69,9.69,0,0,1,1.17-3.61,11.67,11.67,0,0,1,5.24-5,11.22,11.22,0,0,1,3.16-1.07l.42-.08Z" fill="#091f2f"/><path d="M70.68,98.81a1.5,1.5,0,0,1-1.5-1.5V1.5a1.5,1.5,0,0,1,3,0V97.31A1.5,1.5,0,0,1,70.68,98.81Z" fill="#091f2f"/></g></g></svg>