<svg xmlns="http://www.w3.org/2000/svg" viewBox="0 0 142.49 98.81"><title>App store off</title><g id="Layer_2" data-name="Layer 2"><g id="Layer_1-2" data-name="Layer 1"><path d="M95.74,75.33V23.45l46.75,26.21Zm3-46.76V70.26L136.3,49.63Z" fill="#091f2f"/><path d="M98.95,71.62a1.5,1.5,0,0,1-1.12-2.5l25.81-28.68a1.5,1.5,0,0,1,2.23,2L100.06,71.12A1.5,1.5,0,0,1,98.95,71.62Z" fill="#091f2f"/><path d="M124.75,57.28a1.5,1.5,0,0,1-1.09-.47L97.86,29.48A1.5,1.5,0,0,1,100,27.42l25.81,27.33a1.5,1.5,0,0,1-1.09,2.53Z" fill="#091f2f"/><path d="M15.64,74.07l-1.41,0a7.73,7.73,0,0,1-2.28-.75,10.86,10.86,0,0,1-3.21-2.57c-.8-.92-1.53-1.88-2.25-2.82l-.17-.23a26.14,26.14,0,0,1-2.51-4A33.64,33.64,0,0,1,.75,55.14C.51,54,.33,52.82.17,51.8.11,51.4.08,51,0,50.59L0,50l0-2.8a18.92,18.92,0,0,1,.81-4.54,16.3,16.3,0,0,1,1.62-3.72A14.65,14.65,0,0,1,6.15,34.7,13.64,13.64,0,0,1,12.09,32a11.77,11.77,0,0,1,3.37-.17,16.5,16.5,0,0,1,3.61.91l.7.25,2.61.94a1.7,1.7,0,0,0,1.24,0c1.55-.57,2.86-1,4.19-1.47a13.18,13.18,0,0,1,4.88-.77,19.76,19.76,0,0,1,2.05.22,13.77,13.77,0,0,1,4.17,1.34,12.55,12.55,0,0,1,3.84,3c.22.26.43.52.64.79l1.27,1.6-2.12,1.46a9.43,9.43,0,0,0-3.66,4.66,10.55,10.55,0,0,0-.5,3.95,9.58,9.58,0,0,0,1,4,9.84,9.84,0,0,0,2.5,3.08,8.94,8.94,0,0,0,2.47,1.54l1,.37v1.54l-.2.35-.37.94c-.3.77-.61,1.57-1,2.35a30.37,30.37,0,0,1-3.39,5.61A19,19,0,0,1,37,72.23,7.76,7.76,0,0,1,32.11,74a11,11,0,0,1-3.76-.83L27.88,73a17,17,0,0,0-2.57-.84,7.15,7.15,0,0,0-2.82-.09,14.29,14.29,0,0,0-2.71.76,19.62,19.62,0,0,1-3.25,1.07L16,74Zm-1-3,.86,0,.45-.08A17.09,17.09,0,0,0,18.68,70,17.23,17.23,0,0,1,22,69.12a10.12,10.12,0,0,1,4,.1,19.52,19.52,0,0,1,3,1l.45.17a8.26,8.26,0,0,0,2.74.64,4.44,4.44,0,0,0,3-1.14A16.27,16.27,0,0,0,38,66.73a27.45,27.45,0,0,0,3.06-5.05c.32-.69.59-1.4.88-2.15a14.12,14.12,0,0,1-2-1.38,12.44,12.44,0,0,1-4.61-9.3A13.46,13.46,0,0,1,36,43.78,12.13,12.13,0,0,1,40.31,38a9.48,9.48,0,0,0-2.78-2.11,10.76,10.76,0,0,0-3.27-1,16.65,16.65,0,0,0-1.74-.19,10.2,10.2,0,0,0-3.78.62c-1.29.43-2.57.88-4.1,1.44a4.7,4.7,0,0,1-3.3,0l-2.58-.93-.7-.25a13.27,13.27,0,0,0-3-.75,9,9,0,0,0-2.51.15A10.53,10.53,0,0,0,8,37.09a11.53,11.53,0,0,0-2.92,3.36,13.34,13.34,0,0,0-1.32,3A16,16,0,0,0,3,47.31a3.74,3.74,0,0,1,0,.41v2.19l0,.45c0,.33,0,.66.1,1,.15,1,.33,2.12.55,3.2A30.63,30.63,0,0,0,6.48,62.3,23,23,0,0,0,8.7,65.86l.17.23c.69.9,1.39,1.83,2.13,2.67a7.88,7.88,0,0,0,2.32,1.87A4.68,4.68,0,0,0,14.62,71.07ZM45.16,59.52v0Z" fill="#091f2f"/><path d="M33,16.24c0,.82,0,1.64-.06,2.46A9.13,9.13,0,0,1,32,22a13,13,0,0,1-2.05,3,10.21,10.21,0,0,1-3.48,2.58,7.82,7.82,0,0,1-3.79.6,7.92,7.92,0,0,1,0-2.18,9.69,9.69,0,0,1,1.17-3.61,11.67,11.67,0,0,1,5.24-5,11.22,11.22,0,0,1,3.16-1.07l.42-.08Z" fill="#091f2f"/><path d="M70.68,98.81a1.5,1.5,0,0,1-1.5-1.5V1.5a1.5,1.5,0,0,1,3,0V97.31A1.5,1.5,0,0,1,70.68,98.81Z" fill="#091f2f"/></g></g></svg>