<svg xmlns="http://www.w3.org/2000/svg" viewBox="0 0 101.96 89.18"><title>Computer on</title><g id="Layer_2" data-name="Layer 2"><g id="Layer_1-2" data-name="Layer 1"><rect x="1.5" y="1.5" width="98.96" height="65.93" fill="#fff"/><path d="M102,68.93H0V0H102Zm-99-3H99V3H3Z" fill="#0f1f2d"/><rect x="7.6" y="6.59" width="86.76" height="55.8" fill="#fff"/><path d="M95.86,63.88H6.1V5.09H95.86Zm-86.76-3H92.86V8.09H9.1Z" fill="#0f1f2d"/><rect x="38.1" y="67.43" width="25.76" height="15.73" fill="#fff"/><path d="M65.36,84.66H36.6V65.93H65.36Zm-25.76-3H62.36V68.93H39.6Z" fill="#0f1f2d"/><rect x="30.32" y="83.16" width="41.32" height="4.52" fill="#fff"/><path d="M73.14,89.18H28.82V81.66H73.14Zm-41.32-3H70.14V84.66H31.82Z" fill="#0f1f2d"/><line x1="55.06" y1="21.76" x2="83.29" y2="21.76" fill="#fff"/><rect x="55.06" y="20.27" width="28.23" height="3" fill="#0f1f2d"/><line x1="55.06" y1="33.77" x2="83.29" y2="33.77" fill="#fff"/><rect x="55.06" y="32.27" width="28.23" height="3" fill="#0f1f2d"/><line x1="55.06" y1="46.77" x2="83.29" y2="46.77" fill="#fff"/><rect x="55.06" y="45.27" width="28.23" height="3" fill="#0f1f2d"/><path d="M40.79,49H22.57V39L28,34.88h7.32l5.42,4.29ZM25.57,46H37.79V40.62l-3.46-2.74H29.05l-3.48,2.63Z" fill="#0c1f2e"/><path d="M31.55,34.92a5.54,5.54,0,1,1,5.54-5.54A5.55,5.55,0,0,1,31.55,34.92Zm0-8.08a2.54,2.54,0,1,0,2.54,2.54A2.54,2.54,0,0,0,31.55,26.84Z" fill="#0c1f2e"/><path d="M46.05,49.18H16.63V19.75H46.05Zm-26.43-3H43.05V22.75H19.63Z" fill="#0c1f2e"/></g></g></svg>