<svg xmlns="http://www.w3.org/2000/svg" viewBox="0 0 91.53 84.48"><title>Twitter on</title><g id="Layer_2" data-name="Layer 2"><g id="Layer_1-2" data-name="Layer 1"><path d="M88.94,27.58c-3.06-1.54-4.76-2.39-5.76-2.83a12.3,12.3,0,0,0-10-5.92c-4.73-.23-8.09,2.51-10.78,5.26l-.74.82L17.86,2V11.2L3.55,4.3,4.94,29.36l7.57,3.32V47.42l21.17,8.67L22,66.57l-18,3.33,22,13.3,34.18-5.64,16.36-19L83.7,32.44l6.16-4.89Z" fill="#fff"/><polyline points="13.08 32.46 13.08 46.22 37.98 57.94" fill="#fff"/><path d="M38,59.44a1.49,1.49,0,0,1-.64-.14L11.58,47.17V32.46a1.5,1.5,0,0,1,3,0V45.26l24,11.31A1.5,1.5,0,0,1,38,59.44Z" fill="#091f2f"/><polyline points="18.54 14.87 18.54 2.5 61.5 25.36" fill="#fff"/><path d="M61.5,26.86a1.49,1.49,0,0,1-.7-.18L20,5v9.88a1.5,1.5,0,1,1-3,0V0L62.2,24a1.5,1.5,0,0,1-.71,2.82Z" fill="#091f2f"/><path d="M33.68,56.09,22,66.57l-18,3.33,20.8,13L59.5,77,75.64,57.94l8.06-25.5,5.18-4.55s-6.31-3.23-6.32-3.22A11.08,11.08,0,0,0,73.4,19c-4.06-.2-7,2.1-9.8,5,0,0-7.31,8.21-9.68,10.84" fill="#fff"/><path d="M24.55,84.48,0,69.13l21.36-4L32.68,55a1.5,1.5,0,1,1,2,2.23L22.74,68,8.13,70.67l17,10.65L58.71,75.6,74.3,57.2l8.09-25.61,3.84-3.37-3.64-1.86L82,26.7l-.73-1.31a9.54,9.54,0,0,0-7.92-4.94c-3.62-.18-6.3,2.06-8.65,4.51,0,0-7.28,8.17-9.64,10.81a1.5,1.5,0,0,1-2.23-2c2.37-2.64,9.67-10.84,9.67-10.84,2.75-2.86,6.16-5.71,11-5.47a12.52,12.52,0,0,1,10.21,6.15c1,.46,2.76,1.35,5.88,2.94l2,1L85,33.29,77,58.68,60.29,78.38Z" fill="#091f2f"/><path d="M54.13,46.39l2-6.21-5-12.25L4.06,4.84,5.31,29,31.59,40.71" fill="#fff"/><path d="M54.13,47.89a1.5,1.5,0,0,1-1.43-2l1.81-5.69L50,29,5.69,7.31,6.76,28,32.2,39.34A1.5,1.5,0,0,1,31,42.08L3.86,30,2.44,2.37,52.3,26.83l5.39,13.29-2.14,6.72A1.5,1.5,0,0,1,54.13,47.89Z" fill="#091f2f"/><circle cx="73.66" cy="26.79" r="2.57" fill="#091f2f"/></g></g></svg>