<svg xmlns="http://www.w3.org/2000/svg" viewBox="0 0 91.53 84.48"><title>Twitter off</title><g id="Layer_2" data-name="Layer 2"><g id="Layer_1-2" data-name="Layer 1"><path d="M93.33,0" transform="translate(-21.95 -5.37)" fill="#fff" stroke="#091f2f" stroke-linecap="round" stroke-miterlimit="10" stroke-width="3"/><path d="M59.93,64.81a1.49,1.49,0,0,1-.64-.14L33.53,52.54V37.83a1.5,1.5,0,0,1,3,0V50.64L60.57,62a1.5,1.5,0,0,1-.64,2.86Z" transform="translate(-21.95 -5.37)" fill="#091f2f"/><path d="M83.45,32.23a1.49,1.49,0,0,1-.7-.18L42,10.37v6.95a1.5,1.5,0,0,1-3,0V5.37l45.16,24a1.5,1.5,0,0,1-.71,2.82Z" transform="translate(-21.95 -5.37)" fill="#091f2f"/><path d="M46.51,89.85,22,74.51l21.36-4,11.32-10.2a1.5,1.5,0,1,1,2,2.23L44.69,73.34,30.08,76l17,10.65L80.66,81l15.6-18.41L104.35,37l3.84-3.37-3.64-1.86-.62.34-.73-1.31a9.54,9.54,0,0,0-7.92-4.94c-3.63-.17-6.3,2.06-8.65,4.51,0,0-7.28,8.17-9.64,10.81a1.5,1.5,0,0,1-2.23-2c2.37-2.64,9.67-10.84,9.67-10.84,2.75-2.86,6.17-5.71,11-5.47A12.52,12.52,0,0,1,105.64,29c1,.46,2.76,1.35,5.88,2.94l2,1L107,38.66l-8,25.39-16.7,19.7Z" transform="translate(-21.95 -5.37)" fill="#091f2f"/><path d="M76.08,53.26a1.5,1.5,0,0,1-1.43-2l1.81-5.69L71.9,34.39,27.65,12.68l1.07,20.69L54.15,44.72a1.5,1.5,0,0,1-1.22,2.74L25.81,35.36,24.39,7.74,74.25,32.21l5.39,13.29-2.14,6.72A1.5,1.5,0,0,1,76.08,53.26Z" transform="translate(-21.95 -5.37)" fill="#091f2f"/><circle cx="73.66" cy="26.79" r="2.57" fill="#091f2f"/><path d="M0,0" transform="translate(-21.95 -5.37)" fill="#fff" stroke="#091f2f" stroke-linecap="round" stroke-miterlimit="10" stroke-width="3"/></g></g></svg>