<svg id="Layer_1" data-name="Layer 1" xmlns="http://www.w3.org/2000/svg" viewBox="0 0 144 100.8"><title>311 icons</title><rect x="53.61" y="59.99" width="10.81" height="5.32" transform="translate(-3.63 121.66) rotate(-90)" fill="#fff" stroke="#fdb717" stroke-linecap="round" stroke-miterlimit="10" stroke-width="3"/><line x1="51.87" y1="67.51" x2="66.96" y2="67.51" fill="#fff" stroke="#fdb717" stroke-linecap="round" stroke-miterlimit="10" stroke-width="3"/><line x1="56.39" y1="67.51" x2="55.25" y2="76.57" fill="#fff" stroke="#fdb717" stroke-linecap="round" stroke-miterlimit="10" stroke-width="3"/><line x1="61.77" y1="67.51" x2="62.84" y2="76.57" fill="#fff" stroke="#fdb717" stroke-linecap="round" stroke-miterlimit="10" stroke-width="3"/><line x1="66.96" y1="67.51" x2="69.22" y2="76.57" fill="#fff" stroke="#fdb717" stroke-linecap="round" stroke-miterlimit="10" stroke-width="3"/><line x1="51.87" y1="67.51" x2="49.6" y2="76.57" fill="#fff" stroke="#fdb717" stroke-linecap="round" stroke-miterlimit="10" stroke-width="3"/><circle cx="113.5" cy="66.75" r="11.44" fill="#fff" stroke="#fdb717" stroke-linecap="round" stroke-miterlimit="10" stroke-width="3"/><circle cx="113.35" cy="66.6" r="5.19" fill="#fff" stroke="#fdb717" stroke-linecap="round" stroke-miterlimit="10" stroke-width="3"/><circle cx="32.22" cy="66.08" r="11.44" fill="#fff" stroke="#fdb717" stroke-linecap="round" stroke-miterlimit="10" stroke-width="3"/><circle cx="32.07" cy="65.93" r="5.19" fill="#fff" stroke="#fdb717" stroke-linecap="round" stroke-miterlimit="10" stroke-width="3"/><polygon points="60.74 22.61 38.86 22.61 30.46 41.29 30.54 61.62 60.74 61.62 60.74 22.61" fill="#fff" stroke="#fdb717" stroke-linecap="round" stroke-miterlimit="10" stroke-width="3"/><polygon points="54.23 44.19 37.71 44.19 37.71 39.63 42.38 29.61 54.23 29.61 54.23 44.19" fill="#fff" stroke="#fdb717" stroke-linecap="round" stroke-miterlimit="10" stroke-width="3"/><rect x="81.5" y="59.99" width="10.81" height="5.32" transform="translate(24.26 149.55) rotate(-90)" fill="#fff" stroke="#fdb717" stroke-linecap="round" stroke-miterlimit="10" stroke-width="3"/><line x1="79.76" y1="67.51" x2="94.85" y2="67.51" fill="#fff" stroke="#fdb717" stroke-linecap="round" stroke-miterlimit="10" stroke-width="3"/><line x1="79.76" y1="67.51" x2="77.5" y2="76.57" fill="#fff" stroke="#fdb717" stroke-linecap="round" stroke-miterlimit="10" stroke-width="3"/><line x1="84.28" y1="67.51" x2="83.15" y2="76.57" fill="#fff" stroke="#fdb717" stroke-linecap="round" stroke-miterlimit="10" stroke-width="3"/><line x1="89.66" y1="67.51" x2="90.73" y2="76.57" fill="#fff" stroke="#fdb717" stroke-linecap="round" stroke-miterlimit="10" stroke-width="3"/><line x1="94.85" y1="67.51" x2="97.12" y2="76.57" fill="#fff" stroke="#fdb717" stroke-linecap="round" stroke-miterlimit="10" stroke-width="3"/><polygon points="126.67 61.52 60.47 61.52 60.47 22.61 111.07 22.61 126.67 22.61 126.67 61.52" fill="#fff" stroke="#fdb717" stroke-linecap="round" stroke-miterlimit="10" stroke-width="3"/><polygon points="30.46 38.08 17.33 42.12 17.33 61.58 30.54 61.58 30.46 38.08" fill="#fff" stroke="#fdb717" stroke-linecap="round" stroke-miterlimit="10" stroke-width="3"/><line x1="74.2" y1="30.68" x2="74.2" y2="53.44" fill="#fff" stroke="#fdb717" stroke-linecap="round" stroke-miterlimit="10" stroke-width="3"/><line x1="87.24" y1="30.68" x2="87.24" y2="53.44" fill="#fff" stroke="#fdb717" stroke-linecap="round" stroke-miterlimit="10" stroke-width="3"/><line x1="100.27" y1="30.68" x2="100.27" y2="53.44" fill="#fff" stroke="#fdb717" stroke-linecap="round" stroke-miterlimit="10" stroke-width="3"/><line x1="113.64" y1="30.61" x2="113.64" y2="53.44" fill="#fff" stroke="#fdb717" stroke-linecap="round" stroke-miterlimit="10" stroke-width="3"/></svg>