<svg id="Layer_1" data-name="Layer 1" xmlns="http://www.w3.org/2000/svg" xmlns:xlink="http://www.w3.org/1999/xlink" viewBox="0 0 144 100.8"><defs><clipPath id="clip-path"><circle cx="70.54" cy="572.59" r="40.05" fill="none"/></clipPath><clipPath id="clip-path-2"><circle cx="70.54" cy="572.59" r="34.49" fill="none"/></clipPath></defs><title>311 icons</title><rect x="66.99" y="12.86" width="10.01" height="9.38" fill="#fff" stroke="#fdb717" stroke-linecap="round" stroke-miterlimit="10" stroke-width="3"/><rect x="51.98" y="20.37" width="40.04" height="25.03" fill="#fff" stroke="#fdb717" stroke-linecap="round" stroke-miterlimit="10" stroke-width="3"/><rect x="74.4" y="26.63" width="11.89" height="18.77" fill="#fff" stroke="#fdb717" stroke-linecap="round" stroke-miterlimit="10" stroke-width="3"/><rect x="57.71" y="26.63" width="11.89" height="18.77" fill="#fff" stroke="#fdb717" stroke-linecap="round" stroke-miterlimit="10" stroke-width="3"/><path d="M41.66,62.12c0-6.2-5.63-18.6-5.63-18.6H108s-4.38,12.54-4.38,18.5c0,6.56,4.38,19,4.38,19H36S41.66,68.43,41.66,62.12Z" fill="#fff" stroke="#fdb717" stroke-linecap="round" stroke-miterlimit="10" stroke-width="3" fill-rule="evenodd"/><rect x="50.42" y="58.53" width="43.17" height="1.88" fill="#fdb717"/><rect x="50.42" y="63.12" width="43.17" height="1.88" fill="#fdb717"/><path d="M72,67A7.51,7.51,0,0,0,57.3,69.17a7.51,7.51,0,0,0-7.4,6.26h-.1A4.38,4.38,0,1,0,53,82.81a7.51,7.51,0,0,0,8.39.17,7.53,7.53,0,0,0,6.44.81A10.95,10.95,0,0,0,85,83.74a6.27,6.27,0,0,0,6.12-.83,4.38,4.38,0,1,0,2-7.34A6.27,6.27,0,0,0,86,71.81,11,11,0,0,0,72,67Z" fill="#fff" stroke="#fdb717" stroke-linecap="round" stroke-miterlimit="10" stroke-width="3" fill-rule="evenodd"/></svg>