<svg id="Layer_1" data-name="Layer 1" xmlns="http://www.w3.org/2000/svg" viewBox="0 0 144 100.8"><title>311 icons</title><path d="M57.66,89a8.8,8.8,0,1,1,8.8-8.8A8.81,8.81,0,0,1,57.66,89Zm0-11.85a3,3,0,1,0,3,3A3,3,0,0,0,57.66,77.19Z" fill="#fff" stroke="#fdb717" stroke-linecap="round" stroke-miterlimit="10" stroke-width="3"/><path d="M99.46,20.92s-42.87-.14-45.35,0H44.54v4.58l9.82,0,3.4,41.94c7.14,0,12.93,4.32,12.93,11.46a12.89,12.89,0,0,1-1,5h18l6.08-5.7Z" fill="#fff" stroke="#fdb717" stroke-linecap="round" stroke-miterlimit="10" stroke-width="3"/><polygon points="93.47 11.76 60.39 11.76 55.75 16.21 98.1 16.21 93.47 11.76" fill="#fff" stroke="#fdb717" stroke-linecap="round" stroke-miterlimit="10" stroke-width="3"/><path d="M73.64,51.91l-.12,3.22-7.57,0L63.81,53a.26.26,0,0,1,.13-.44l3.31-.69Z" fill="#fdb717"/><path d="M71,48.21l-2.26-.84-2.89,7.45a.08.08,0,0,1-.13,0l-2.38-2.26,2.36-6.35-2.25-.84,6.2-5.13Z" fill="#fdb717"/><path d="M84.87,45.75l3.05-1,2.63,7.1-1.22,2.75a.26.26,0,0,1-.46,0l-1.81-2.86Z" fill="#fdb717"/><path d="M82.35,49.56V52l8,.09a.08.08,0,0,1,.07.11l-1.28,3-6.78,0v2.4l-7-4Z" fill="#fdb717"/><path d="M73.19,39.88,70.57,38l4.19-6.31,2.94-.64a.26.26,0,0,1,.3.35l-1.25,3.14Z" fill="#fdb717"/><path d="M77.75,39.67l1.94-1.42-4.63-6.51a.08.08,0,0,1,0-.13l3.2-.74,4,5.47,1.94-1.42.87,8Z" fill="#fdb717"/></svg>