<svg id="Layer_1" data-name="Layer 1" xmlns="http://www.w3.org/2000/svg" viewBox="0 0 144 100.8"><title>311 icons</title><line x1="41.89" y1="30.6" x2="37.21" y2="85.19" fill="none" stroke="#fdb717" stroke-miterlimit="10" stroke-width="3"/><line x1="103.28" y1="30.6" x2="107.96" y2="85.19" fill="none" stroke="#fdb717" stroke-miterlimit="10" stroke-width="3"/><rect x="26.11" y="15.61" width="91.79" height="13.22" fill="#fff" stroke="#fdb717" stroke-miterlimit="10" stroke-width="3"/><rect x="26.11" y="40.7" width="91.79" height="13.22" fill="#fff" stroke="#fdb717" stroke-miterlimit="10" stroke-width="3"/><line x1="38.6" y1="69" x2="106.63" y2="69" fill="none" stroke="#fdb717" stroke-miterlimit="10" stroke-width="3"/><line x1="41.02" y1="16.44" x2="32.54" y2="28.02" fill="none" stroke="#fdb717" stroke-miterlimit="10" stroke-width="3"/><line x1="54.99" y1="16.44" x2="46.51" y2="28.02" fill="none" stroke="#fdb717" stroke-miterlimit="10" stroke-width="3"/><line x1="68.96" y1="16.44" x2="60.48" y2="28.02" fill="none" stroke="#fdb717" stroke-miterlimit="10" stroke-width="3"/><line x1="82.93" y1="16.44" x2="74.45" y2="28.02" fill="none" stroke="#fdb717" stroke-miterlimit="10" stroke-width="3"/><line x1="96.9" y1="16.44" x2="88.42" y2="28.02" fill="none" stroke="#fdb717" stroke-miterlimit="10" stroke-width="3"/><line x1="110.87" y1="16.44" x2="102.39" y2="28.02" fill="none" stroke="#fdb717" stroke-miterlimit="10" stroke-width="3"/><line x1="41.02" y1="41.52" x2="32.54" y2="53.1" fill="none" stroke="#fdb717" stroke-miterlimit="10" stroke-width="3"/><line x1="54.99" y1="41.52" x2="46.51" y2="53.1" fill="none" stroke="#fdb717" stroke-miterlimit="10" stroke-width="3"/><line x1="68.96" y1="41.52" x2="60.48" y2="53.1" fill="none" stroke="#fdb717" stroke-miterlimit="10" stroke-width="3"/><line x1="82.93" y1="41.52" x2="74.45" y2="53.1" fill="none" stroke="#fdb717" stroke-miterlimit="10" stroke-width="3"/><line x1="96.9" y1="41.52" x2="88.42" y2="53.1" fill="none" stroke="#fdb717" stroke-miterlimit="10" stroke-width="3"/><line x1="110.87" y1="41.52" x2="102.39" y2="53.1" fill="none" stroke="#fdb717" stroke-miterlimit="10" stroke-width="3"/></svg>