<svg id="Layer_1" data-name="Layer 1" xmlns="http://www.w3.org/2000/svg" viewBox="0 0 144 100.8"><title>311 icons</title><rect x="65.28" y="41.65" width="49.06" height="4.52" transform="translate(15.77 111.09) rotate(-68.27)" fill="#fff" stroke="#fdb717" stroke-linecap="round" stroke-miterlimit="10" stroke-width="3"/><polygon points="61.69 75.44 71.66 89.46 88.54 86.14 98.31 61.61 71.46 50.91 61.69 75.44" fill="#fff" stroke="#fdb717" stroke-linecap="round" stroke-miterlimit="10" stroke-width="3"/><line x1="81.59" y1="63.07" x2="73.3" y2="83.86" fill="#fff" stroke="#fdb717" stroke-linecap="round" stroke-miterlimit="10" stroke-width="3"/><rect x="90.2" y="12.74" width="21.24" height="8.82" transform="translate(13.51 -36.1) rotate(21.73)" fill="#fff" stroke="#fdb717" stroke-linecap="round" stroke-miterlimit="10" stroke-width="3"/><circle cx="53.44" cy="30.18" r="12.26" fill="#fff" stroke="#fdb717" stroke-linecap="round" stroke-miterlimit="10" stroke-width="3"/><path d="M54.84,34.66a1.46,1.46,0,1,1-1.47-1.45A1.4,1.4,0,0,1,54.84,34.66Z" fill="#fdb717"/><polygon points="54.34 31.8 52.52 31.8 51.99 26.93 51.99 23.82 54.86 23.82 54.86 26.93 54.34 31.8" fill="#fdb717"/><path d="M106.18,85.54a11.13,11.13,0,0,0-11-11.14,10.92,10.92,0,0,0-6.76,2.27,4.9,4.9,0,0,0-6.17,2.11,7.6,7.6,0,0,0-8.15-2.09A13.92,13.92,0,0,0,46.7,81.75a11.9,11.9,0,0,0-4.27-.59c-9.39,0-11.37,7.07-10.6,10.51H106C106.11,90,106.18,86.21,106.18,85.54Z" fill="#fff" stroke="#fdb717" stroke-linecap="round" stroke-miterlimit="10" stroke-width="3"/></svg>