<svg id="Layer_1" data-name="Layer 1" xmlns="http://www.w3.org/2000/svg" xmlns:xlink="http://www.w3.org/1999/xlink" viewBox="0 0 144 100.8"><defs><clipPath id="clip-path"><circle cx="70.54" cy="178.58" r="40.05" fill="none"/></clipPath><clipPath id="clip-path-2"><circle cx="70.54" cy="178.58" r="34.49" fill="none"/></clipPath></defs><title>311 icons</title><rect x="87.74" y="51.78" width="6.32" height="15.21" transform="translate(181.81 118.77) rotate(180)" fill="#fff" stroke="#fdb717" stroke-linecap="round" stroke-miterlimit="10" stroke-width="3"/><rect x="94.07" y="49.63" width="3.16" height="19.52" transform="translate(191.3 118.77) rotate(180)" fill="#fff"/><rect x="93.93" y="48.49" width="5.43" height="21.79" fill="#fff" stroke="#fdb717" stroke-linecap="round" stroke-miterlimit="10" stroke-width="3"/><rect x="44.64" y="48.49" width="5.43" height="21.79" fill="#fff" stroke="#fdb717" stroke-linecap="round" stroke-miterlimit="10" stroke-width="3"/><rect x="50.07" y="51.78" width="6.32" height="15.21" fill="#fff" stroke="#fdb717" stroke-linecap="round" stroke-miterlimit="10" stroke-width="3"/><rect x="55.94" y="36.01" width="32.13" height="46.75" fill="#fff" stroke="#fdb717" stroke-linecap="round" stroke-miterlimit="10" stroke-width="3"/><polygon points="77.19 50.4 66.81 50.4 61.63 59.39 66.81 68.37 77.19 68.37 82.37 59.39 77.19 50.4" fill="#fff" stroke="#fdb717" stroke-linecap="round" stroke-miterlimit="10" stroke-width="3"/><rect x="69.17" y="13" width="5.67" height="5.67" fill="#fff" stroke="#fdb717" stroke-linecap="round" stroke-miterlimit="10" stroke-width="3"/><rect x="53.67" y="33.06" width="36.66" height="4.7" fill="#fff" stroke="#fdb717" stroke-linecap="round" stroke-miterlimit="10" stroke-width="3"/><rect x="50.82" y="82.51" width="42.36" height="5.29" fill="#fff" stroke="#fdb717" stroke-linecap="round" stroke-miterlimit="10" stroke-width="3"/><path d="M72,18A14.91,14.91,0,0,0,57.09,32.9H86.91A14.91,14.91,0,0,0,72,18Z" fill="#fff" stroke="#fdb717" stroke-linecap="round" stroke-miterlimit="10" stroke-width="3"/><polygon points="74.33 55.34 69.67 55.34 67.33 59.39 69.67 63.43 74.33 63.43 76.67 59.39 74.33 55.34" fill="#fff" stroke="#fdb717" stroke-linecap="round" stroke-miterlimit="10" stroke-width="3"/></svg>