<svg id="Layer_1" data-name="Layer 1" xmlns="http://www.w3.org/2000/svg" viewBox="0 0 144 100.8"><title>311 icons</title><path d="M57.17,91.77a9.1,9.1,0,1,1,9.1-9.1A9.11,9.11,0,0,1,57.17,91.77Zm0-12.25a3.15,3.15,0,1,0,3.15,3.15A3.15,3.15,0,0,0,57.17,79.51Z" fill="#fff" stroke="#fdb717" stroke-linecap="round" stroke-miterlimit="10" stroke-width="3"/><path d="M100.4,21.31s-44.34-.14-46.91,0H43.6V26l10.16,0L57.27,69.4c7.39,0,13.38,4.47,13.38,11.86a13.33,13.33,0,0,1-1,5.14H88.2l6.29-5.89Z" fill="#fff" stroke="#fdb717" stroke-linecap="round" stroke-miterlimit="10" stroke-width="3"/><polygon points="94.21 11.84 59.99 11.84 55.2 16.44 99 16.44 94.21 11.84" fill="#fff" stroke="#fdb717" stroke-linecap="round" stroke-miterlimit="10" stroke-width="3"/><path d="M87.88,49.18A11.38,11.38,0,1,1,76.5,37.8,11.38,11.38,0,0,1,87.88,49.18" fill="#fff" stroke="#fdb717" stroke-linecap="round" stroke-miterlimit="10" stroke-width="3" fill-rule="evenodd"/><path d="M77.8,53.35A1.36,1.36,0,1,1,76.44,52,1.3,1.3,0,0,1,77.8,53.35Z" fill="#fdb717"/><polygon points="77.33 50.69 75.64 50.69 75.15 46.17 75.15 43.28 77.82 43.28 77.82 46.17 77.33 50.69" fill="#fdb717"/></svg>