<svg id="Layer_1" data-name="Layer 1" xmlns="http://www.w3.org/2000/svg" xmlns:xlink="http://www.w3.org/1999/xlink" viewBox="0 0 144 100.8"><defs><clipPath id="clip-path"><circle cx="70.54" cy="49.9" r="40.05" fill="none"/></clipPath><clipPath id="clip-path-2"><rect x="-67.83" y="-533.73" width="888.92" height="816.76" fill="none"/></clipPath><clipPath id="clip-path-3"><circle cx="70.54" cy="49.9" r="34.49" fill="none"/></clipPath></defs><title>311 icons</title><circle cx="70.54" cy="49.9" r="38.5" transform="translate(-14.62 64.5) rotate(-45)" fill="#fff"/><g clip-path="url(#clip-path)"><g clip-path="url(#clip-path-2)"><circle cx="70.54" cy="49.9" r="40.05" fill="none" stroke="#fdb717" stroke-linecap="round" stroke-miterlimit="10" stroke-width="4.76"/></g></g><g clip-path="url(#clip-path-3)"><g clip-path="url(#clip-path-2)"><circle cx="70.54" cy="49.9" r="34.49" fill="none" stroke="#fdb717" stroke-linecap="round" stroke-miterlimit="10" stroke-width="4.76"/></g></g><circle cx="98.97" cy="73.03" r="14.53" transform="translate(10.59 158.58) rotate(-80.49)" fill="#fff" stroke="#fdb717" stroke-linecap="round" stroke-miterlimit="10" stroke-width="2.38"/><polygon points="96.57 64.78 101.37 64.78 100.57 75.74 97.64 75.74 96.57 64.78" fill="#fdb717"/><circle cx="98.97" cy="79.4" r="1.88" fill="#fdb717"/><path d="M95.21,48.94l-6.65-.22,3.34-2.8a1.57,1.57,0,0,0-2-2.41l-6,5.06h0l-6.8-.23L75.39,45.4l3.3-5.48L86.91,38a1.57,1.57,0,1,0-.7-3.07L81,36.17l3.59-5.95a1.83,1.83,0,0,0-3.13-1.88l-3.59,5.94-1.38-5.22a1.57,1.57,0,0,0-3,.8L75.57,38l-3.3,5.48h0l-3.37-.11L65.82,38l1.44-8.56a1.57,1.57,0,1,0-3.1-.52l-.8,4.76-3.47-6.09a1.87,1.87,0,0,0-2.46-.73,1.74,1.74,0,0,0-.68,2.41l3.91,6.85L55,35.1a1.57,1.57,0,0,0-.59,3.09l8.24,1.57,3,5.32h0L64,47.91l-6.25-.21-6.35-5.49a1.57,1.57,0,1,0-2.06,2.37l3.41,3-6.89-.23A1.74,1.74,0,0,0,44.08,49,1.81,1.81,0,0,0,45,50.6a1.79,1.79,0,0,0,.91.26l8.39.28-4,4.47a1.57,1.57,0,1,0,2.36,2.09l5.67-6.42,5.67.19,1.68,2.94-3.63,6-8.22,1.9a1.57,1.57,0,1,0,.7,3.06l5.27-1.21-3.26,5.41a1.83,1.83,0,0,0,3.13,1.88l3.26-5.4,1.38,5.21a1.58,1.58,0,0,0,1.52,1.18,1.37,1.37,0,0,0,.41-.06,1.58,1.58,0,0,0,1.12-1.92L65.19,62.3l3.63-6,3.38.12,3,5.25-1.6,8a1.57,1.57,0,0,0,1.23,1.85,1.34,1.34,0,0,0,.31,0,1.59,1.59,0,0,0,1.55-1.26l.89-4.46,3.62,6.35a1.89,1.89,0,0,0,.66.67,1.85,1.85,0,0,0,1.81.06,1.74,1.74,0,0,0,.68-2.41l-4.21-7.37L86,64.41a1.57,1.57,0,1,0,.67-3.07L78,59.44l-2.69-4.72L77,51.89l5.8.2,6,6.88a1.57,1.57,0,0,0,2.37-2.07l-4.08-4.67,8,.27A1.74,1.74,0,0,0,97,50.78,1.85,1.85,0,0,0,95.21,48.94ZM74.7,51.82l-.53.87-1.06,1.75L71,54.36l-1,0-2.1-.07-1-1.81-.52-.91-1-1.81L66.37,48l.53-.87,1-1.74,2.1.07,1,0,2.09.07,1,1.81.51.91,1,1.81Z" fill="#fdb717"/><polygon points="75.76 50.07 74.7 51.82 74.17 52.69 73.12 54.44 71.04 54.36 70 54.33 67.91 54.26 66.88 52.45 66.36 51.54 65.32 49.73 66.37 47.98 66.9 47.11 67.95 45.37 70.05 45.44 71.08 45.48 73.17 45.54 74.21 47.35 74.72 48.26 75.76 50.07" fill="#fff" stroke="#fdb717" stroke-miterlimit="10" stroke-width="1.56"/></svg>