<svg id="Layer_1" data-name="Layer 1" xmlns="http://www.w3.org/2000/svg" viewBox="0 0 144 100.8"><title>311 icons</title><path d="M91.54,32v0L86,70.4H58L52.46,32v0c0-.46,0-.92.06-1.38a19.54,19.54,0,0,1,39,0C91.53,31,91.54,31.5,91.54,32Z" fill="#fff" stroke="#fdb717" stroke-linecap="round" stroke-miterlimit="10" stroke-width="3"/><path d="M72,20.69A11.11,11.11,0,0,0,60.89,31.8H83.11A11.11,11.11,0,0,0,72,20.69Z" fill="#fff" stroke="#fdb717" stroke-linecap="round" stroke-miterlimit="10" stroke-width="3"/><rect x="66.64" y="44.44" width="10.72" height="15.2" fill="#fff" stroke="#fdb717" stroke-linecap="round" stroke-miterlimit="10" stroke-width="3"/><line x1="72.1" y1="48.72" x2="72.1" y2="55.37" fill="#fff" stroke="#fdb717" stroke-linecap="round" stroke-miterlimit="10" stroke-width="3"/><rect x="68.95" y="72.42" width="6.1" height="15.95" fill="#fff" stroke="#fdb717" stroke-linecap="round" stroke-miterlimit="10" stroke-width="3"/><line x1="63.5" y1="18.75" x2="71.31" y2="31.8" fill="#fff" stroke="#fdb717" stroke-linecap="round" stroke-miterlimit="10" stroke-width="3"/><line x1="52.46" y1="32.26" x2="91.54" y2="32.26" fill="none" stroke="#fdb717" stroke-linecap="round" stroke-miterlimit="10" stroke-width="3"/></svg>