<svg id="Layer_1" data-name="Layer 1" xmlns="http://www.w3.org/2000/svg" viewBox="0 0 144 100.8"><title>311 icons</title><rect x="60.03" y="10.95" width="23.72" height="18.77" fill="#fff" stroke="#fdb717" stroke-linecap="round" stroke-miterlimit="10" stroke-width="3"/><rect x="53.72" y="27.27" width="36.34" height="28.76" fill="#fff" stroke="#fdb717" stroke-linecap="round" stroke-miterlimit="10" stroke-width="3"/><rect x="70.22" y="40.07" width="3.34" height="9.39" fill="#fdb717"/><polygon points="71.89 33.84 67.94 40.68 75.84 40.68 71.89 33.84 67.94 40.68 75.84 40.68 71.89 33.84" fill="#fdb717"/><text transform="translate(84.17 87.48)" font-size="9.46" fill="#fff" stroke="#fdb717" stroke-linecap="round" stroke-miterlimit="10" stroke-width="3" font-family="Montserrat-Bold, Montserrat" font-weight="700">1</text><line x1="97.8" y1="46.52" x2="113.33" y2="30.99" fill="#fff" stroke="#fdb717" stroke-linecap="round" stroke-miterlimit="10" stroke-width="3"/><line x1="90.06" y1="27.33" x2="101.41" y2="15.98" fill="#fff" stroke="#fdb717" stroke-linecap="round" stroke-miterlimit="10" stroke-width="3"/><line x1="46.2" y1="46.52" x2="30.67" y2="30.99" fill="#fff" stroke="#fdb717" stroke-linecap="round" stroke-miterlimit="10" stroke-width="3"/><line x1="53.72" y1="27.77" x2="42.37" y2="16.42" fill="#fff" stroke="#fdb717" stroke-linecap="round" stroke-miterlimit="10" stroke-width="3"/><rect x="45.98" y="46.43" width="51.83" height="41.02" fill="#fff" stroke="#fdb717" stroke-linecap="round" stroke-miterlimit="10" stroke-width="3"/><rect x="69.11" y="65.42" width="5.56" height="14.14" fill="#fdb717"/><polygon points="71.89 56.03 65.32 66.34 78.46 66.34 71.89 56.03 65.32 66.34 78.46 66.34 71.89 56.03" fill="#fdb717"/></svg>