<svg id="Layer_1" data-name="Layer 1" xmlns="http://www.w3.org/2000/svg" xmlns:xlink="http://www.w3.org/1999/xlink" viewBox="0 0 144 100.8"><defs><clipPath id="clip-path"><circle cx="70.54" cy="307.61" r="40.05" fill="none"/></clipPath><clipPath id="clip-path-2"><circle cx="70.54" cy="307.61" r="34.49" fill="none"/></clipPath></defs><title>311 icons</title><path d="M130.84,63.76V53.21H53.25l0-23.35H35.45L29.63,42a136.86,136.86,0,0,0-16.48,4.38V63.76Z" fill="#fff"/><path d="M132.23,65.15H11.77V45.34l.95-.32a142.9,142.9,0,0,1,16-4.29l5.89-12.26h20l0,23.35h77.59ZM14.54,62.38H129.46V54.59H51.87l0-23.35H36.32l-5.74,12-.69.13a136.42,136.42,0,0,0-15.34,4Z" fill="#fdb717"/><polygon points="48.49 46.81 35.39 46.81 35.39 43.19 39.09 35.24 48.49 35.24 48.49 46.81" fill="#fff"/><path d="M49.87,48.19H34V42.88l4.21-9H49.87Zm-13.1-2.77H47.1v-8.8H40l-3.2,6.87Z" fill="#fdb717"/><path d="M29.7,65.07a1.38,1.38,0,0,1-1.38-1.38V42.13a1.38,1.38,0,0,1,2.77,0V63.69A1.38,1.38,0,0,1,29.7,65.07Z" fill="#fdb717"/><path d="M53.28,65.07a1.38,1.38,0,0,1-1.38-1.38V52a1.38,1.38,0,0,1,2.77,0V63.69A1.38,1.38,0,0,1,53.28,65.07Z" fill="#fdb717"/><circle cx="32.86" cy="67.79" r="10.12" fill="#fff"/><path d="M32.86,79.29A11.5,11.5,0,1,1,44.36,67.79,11.52,11.52,0,0,1,32.86,79.29Zm0-20.24a8.74,8.74,0,1,0,8.74,8.74A8.75,8.75,0,0,0,32.86,59.05Z" fill="#fdb717"/><circle cx="115.52" cy="67.79" r="10.12" fill="#fff"/><path d="M115.52,79.29A11.5,11.5,0,1,1,127,67.79,11.52,11.52,0,0,1,115.52,79.29Zm0-20.24a8.74,8.74,0,1,0,8.74,8.74A8.75,8.75,0,0,0,115.52,59.05Z" fill="#fdb717"/><circle cx="32.72" cy="67.65" r="4.59" fill="#fff"/><path d="M32.72,73.63a6,6,0,1,1,6-6A6,6,0,0,1,32.72,73.63Zm0-9.19a3.21,3.21,0,1,0,3.21,3.21A3.21,3.21,0,0,0,32.72,64.44Z" fill="#fdb717"/><circle cx="115.38" cy="67.65" r="4.59" fill="#fff"/><path d="M115.38,73.63a6,6,0,1,1,6-6A6,6,0,0,1,115.38,73.63Zm0-9.19a3.21,3.21,0,1,0,3.21,3.21A3.21,3.21,0,0,0,115.38,64.44Z" fill="#fdb717"/><rect x="53.28" y="29.85" width="77.57" height="23.35" fill="#fff"/><path d="M132.23,54.59H51.89V28.47h80.34ZM54.66,51.82h74.8V31.24H54.66Z" fill="#fdb717"/><path d="M126.63,36.67H59.26a1.38,1.38,0,0,1,0-2.77h67.37a1.38,1.38,0,1,1,0,2.77Z" fill="#fdb717"/><path d="M130.32,25.59H53.72a1.38,1.38,0,0,1,0-2.77h76.6a1.38,1.38,0,0,1,0,2.77Z" fill="#fdb717"/><path d="M126.63,47.74H59.26a1.38,1.38,0,0,1,0-2.77h67.37a1.38,1.38,0,1,1,0,2.77Z" fill="#fdb717"/><path d="M65.26,47.28a1.38,1.38,0,0,1-1.38-1.38V35.75a1.38,1.38,0,0,1,2.77,0V45.9A1.38,1.38,0,0,1,65.26,47.28Z" fill="#fdb717"/><path d="M73.56,47.28a1.38,1.38,0,0,1-1.38-1.38V35.75a1.38,1.38,0,1,1,2.77,0V45.9A1.38,1.38,0,0,1,73.56,47.28Z" fill="#fdb717"/><path d="M80.95,47.28a1.38,1.38,0,0,1-1.38-1.38V35.75a1.38,1.38,0,1,1,2.77,0V45.9A1.38,1.38,0,0,1,80.95,47.28Z" fill="#fdb717"/><path d="M89.25,47.28a1.38,1.38,0,0,1-1.38-1.38V35.75a1.38,1.38,0,0,1,2.77,0V45.9A1.38,1.38,0,0,1,89.25,47.28Z" fill="#fdb717"/><path d="M97.56,47.28a1.38,1.38,0,0,1-1.38-1.38V35.75a1.38,1.38,0,1,1,2.77,0V45.9A1.38,1.38,0,0,1,97.56,47.28Z" fill="#fdb717"/><path d="M105.87,47.28a1.38,1.38,0,0,1-1.38-1.38V35.75a1.38,1.38,0,0,1,2.77,0V45.9A1.38,1.38,0,0,1,105.87,47.28Z" fill="#fdb717"/><path d="M113.25,47.28a1.38,1.38,0,0,1-1.38-1.38V35.75a1.38,1.38,0,0,1,2.77,0V45.9A1.38,1.38,0,0,1,113.25,47.28Z" fill="#fdb717"/><path d="M121.55,47.28a1.38,1.38,0,0,1-1.38-1.38V35.75a1.38,1.38,0,0,1,2.77,0V45.9A1.38,1.38,0,0,1,121.55,47.28Z" fill="#fdb717"/><path d="M46.58,21.51H40.85l-2.4,9.73H48.89Zm-4.6,7,1-4.19H44.4l1,4.19Z" fill="#fdb717"/><polygon points="45.38 28.47 41.99 28.47 43.02 24.28 44.4 24.28 45.38 28.47" fill="#fff"/></svg>