<svg id="Layer_1" data-name="Layer 1" xmlns="http://www.w3.org/2000/svg" viewBox="0 0 144 144"><defs><style>.cls-1{fill:#fff;stroke:#111f2d;stroke-miterlimit:10;stroke-width:3px;}.cls-2{fill:#0c1f2e;}</style></defs><title>all icons2</title><rect class="cls-1" x="21.39" y="46.3" width="101.24" height="73.63"/><polygon class="cls-1" points="21.56 46.3 122.46 46.3 113.31 75.55 30.71 75.55 21.56 46.3"/><polygon class="cls-1" points="95.86 29.88 95.86 46.3 86.59 46.3 86.59 38.09 57.43 38.09 57.43 46.3 48.16 46.3 48.16 29.88 95.86 29.88"/><circle class="cls-1" cx="72.09" cy="76.3" r="17.83"/><path class="cls-2" d="M83.7,78.42V74.17H79.91a7.64,7.64,0,0,0-.68-1.7l2.34-2.35-3-3-2.26,2.25a8.13,8.13,0,0,0-2-.87V64.89H70v3.56a8,8,0,0,0-2.2,1l-2.28-2.28-3,3,2.37,2.39a8.57,8.57,0,0,0-.66,1.66H60.47v4.25h3.79a8,8,0,0,0,.9,2.1l-2.61,2.62,3,3,2.7-2.71a7.85,7.85,0,0,0,1.78.7V87.7h4.25V84.1a8,8,0,0,0,1.6-.64l2.69,2.69,3-3L79,80.55a7.83,7.83,0,0,0,.93-2.13ZM72.08,81A4.72,4.72,0,1,1,76.8,76.3,4.71,4.71,0,0,1,72.08,81Z"/></svg>