<svg id="Layer_1" data-name="Layer 1" xmlns="http://www.w3.org/2000/svg" viewBox="0 0 144 144"><title>pie chart</title><path d="M57.56,74.56v-47a44.39,44.39,0,0,0-37.9,21.26l37.9,26Z" fill="#fff" stroke="#0d202e" stroke-linecap="round" stroke-miterlimit="10" stroke-width="3"/><path d="M90.21,41.9A44.3,44.3,0,0,0,57.56,27.59v47Z" fill="#fff" stroke="#0d202e" stroke-linecap="round" stroke-miterlimit="10" stroke-width="3"/><path d="M75.29,73.23l35.26,24.16a44.38,44.38,0,0,0-2.61-57.08L75.29,73Z" fill="#fff" stroke="#0d202e" stroke-linecap="round" stroke-miterlimit="10" stroke-width="3"/><path d="M57.56,116.41V74.82l-37.9-26a44.41,44.41,0,0,0,37.9,67.56Z" fill="#fff" stroke="#0d202e" stroke-linecap="round" stroke-miterlimit="10" stroke-width="3"/><path d="M57.56,74.82v41.59A44.15,44.15,0,0,0,78.83,111L57.67,74.89Z" fill="#fff" stroke="#0d202e" stroke-linecap="round" stroke-miterlimit="10" stroke-width="3"/><path d="M92.83,99,57.67,74.89,78.83,111A44.65,44.65,0,0,0,92.83,99Z" fill="#fff" stroke="#0d202e" stroke-linecap="round" stroke-miterlimit="10" stroke-width="3"/></svg>