<svg id="Layer_1" data-name="Layer 1" xmlns="http://www.w3.org/2000/svg" viewBox="0 0 144 144"><defs><style>.cls-1,.cls-2,.cls-4,.cls-5{fill:#fff;}.cls-1,.cls-6{stroke:#0f1f2d;stroke-linecap:round;}.cls-1,.cls-2,.cls-3,.cls-4,.cls-5,.cls-6{stroke-miterlimit:10;}.cls-1,.cls-4,.cls-6{stroke-width:3px;}.cls-2,.cls-3,.cls-4,.cls-5{stroke:#121f2c;}.cls-2,.cls-3{stroke-width:0.98px;}.cls-3{fill:#111f2d;}.cls-5{stroke-width:3.33px;}.cls-6{fill:none;}</style></defs><title>all icons2</title><rect class="cls-1" x="20.22" y="17.55" width="67.16" height="44.04"/><polygon class="cls-2" points="122.94 60.7 122.94 56.7 122.94 49.03 114.39 42.28 102.3 42.28 93.69 48.78 93.69 56.7 93.69 60.7 122.94 60.7"/><path class="cls-3" d="M94.5,60.7V49.18l8.06-6.1h11.56l8,6.33V60.7Zm29.24,0V48.64l-9.06-7.17H102l-9.14,6.91V60.7Z"/><circle class="cls-2" cx="108.31" cy="29.04" r="7.76"/><path class="cls-3" d="M108.31,37.61A8.57,8.57,0,1,1,116.88,29,8.57,8.57,0,0,1,108.31,37.61Zm0-15.52a7,7,0,1,0,7,7A7,7,0,0,0,108.31,22.09Z"/><line class="cls-4" x1="123.93" y1="70.01" x2="92.7" y2="70.01"/><polyline class="cls-4" points="123.93 65.11 123.93 108.35 92.7 108.35 92.7 65.11"/><rect class="cls-5" x="83.21" y="56.13" width="50.21" height="12.47"/><polygon class="cls-1" points="44.74 99.62 30.43 99.62 20.26 107.31 20.26 133.73 54.84 133.73 54.84 107.61 44.74 99.62"/><circle class="cls-1" cx="37.24" cy="83.98" r="9.18"/><polygon class="cls-1" points="79.48 99.62 65.16 99.62 54.99 107.31 54.99 133.73 89.57 133.73 89.57 107.61 79.48 99.62"/><circle class="cls-1" cx="71.98" cy="83.98" r="9.18"/><polygon class="cls-1" points="113.67 99.62 99.36 99.62 89.19 107.31 89.19 133.73 123.77 133.73 123.77 107.61 113.67 99.62"/><circle class="cls-1" cx="106.17" cy="83.98" r="9.18"/><line class="cls-6" x1="60.74" y1="34.73" x2="87.16" y2="54.32"/></svg>