<svg id="Layer_1" data-name="Layer 1" xmlns="http://www.w3.org/2000/svg" viewBox="0 0 144 144"><title>car</title><polygon points="99.48 56.05 92.46 41.77 67.54 41.77 67.54 56.05 99.48 56.05" fill="none" stroke="#0f1f2d" stroke-linecap="round" stroke-miterlimit="10" stroke-width="3"/><polygon points="30.54 56.04 37.3 41.77 62.22 41.77 62.22 56.04 30.54 56.04" fill="none" stroke="#0f1f2d" stroke-linecap="round" stroke-miterlimit="10" stroke-width="3"/><path d="M99.48,56.05l-7-14.28H67.54V56.05ZM30.54,56,37.3,41.77H62.22V56Zm-9.45,4.9,13-24.66H95.37l14.08,25.57Z" fill="none" stroke="#0f1f2d" stroke-miterlimit="10" stroke-width="3" fill-rule="evenodd"/><polygon points="8.25 60.56 125.26 60.56 135.75 71.56 135.75 92.66 8.25 92.66 8.25 60.56" fill="#fff" stroke="#0f1f2d" stroke-miterlimit="10" stroke-width="3" fill-rule="evenodd"/><circle cx="38.52" cy="93.05" r="14.68" fill="#fff" stroke="#0f1f2d" stroke-miterlimit="10" stroke-width="3"/><circle cx="38.52" cy="93.05" r="8.26" fill="#fff" stroke="#0f1f2d" stroke-miterlimit="10" stroke-width="3"/><circle cx="99.27" cy="93.05" r="14.68" fill="#fff" stroke="#0f1f2d" stroke-miterlimit="10" stroke-width="3"/><circle cx="99.27" cy="93.05" r="8.26" fill="#fff" stroke="#0f1f2d" stroke-miterlimit="10" stroke-width="3"/><line x1="66.4" y1="62.68" x2="66.4" y2="91.01" fill="none" stroke="#0f1f2d" stroke-linecap="round" stroke-miterlimit="10" stroke-width="3"/><line x1="29.99" y1="68.05" x2="38.42" y2="68.05" fill="none" stroke="#0f1f2d" stroke-linecap="round" stroke-miterlimit="10" stroke-width="3"/><line x1="74.02" y1="68.05" x2="82.45" y2="68.05" fill="none" stroke="#0f1f2d" stroke-linecap="round" stroke-miterlimit="10" stroke-width="3"/></svg>