<svg id="Layer_1" data-name="Layer 1" xmlns="http://www.w3.org/2000/svg" viewBox="0 0 144 144"><title>online purcahse </title><rect x="22.52" y="28.91" width="98.96" height="65.93" fill="#fff" stroke="#111f2d" stroke-miterlimit="10" stroke-width="3"/><rect x="28.62" y="34" width="86.76" height="55.8" fill="#fff" stroke="#111f2d" stroke-miterlimit="10" stroke-width="3"/><rect x="59.12" y="94.84" width="25.76" height="15.73" fill="#fff" stroke="#111f2d" stroke-miterlimit="10" stroke-width="3"/><rect x="51.34" y="110.57" width="41.32" height="4.52" fill="#fff" stroke="#111f2d" stroke-miterlimit="10" stroke-width="3"/><path d="M52.17,70.71v3.22H49.29V70.79a13.64,13.64,0,0,1-7.18-2.3L43.7,65a11.57,11.57,0,0,0,5.59,2V62.21c-3.2-.78-6.77-1.85-6.77-6,0-3.05,2.22-5.67,6.77-6.19v-3.2h2.88V50A13.13,13.13,0,0,1,58,51.75l-1.44,3.54a12,12,0,0,0-4.41-1.5v4.9c3.2.75,6.71,1.82,6.71,5.88C58.88,67.57,56.69,70.16,52.17,70.71ZM49.29,58V53.88c-1.53.35-2.13,1.18-2.13,2.13S48,57.57,49.29,58Zm5,7c0-1-.83-1.56-2.07-2v4C53.61,66.59,54.24,65.84,54.24,64.92Z" fill="#0f1f2d"/><line x1="69.31" y1="46.18" x2="103.31" y2="46.18" fill="#fff" stroke="#111f2d" stroke-miterlimit="10" stroke-width="3"/><line x1="69.31" y1="56.18" x2="103.31" y2="56.18" fill="#fff" stroke="#111f2d" stroke-miterlimit="10" stroke-width="3"/><line x1="69.31" y1="66.18" x2="103.31" y2="66.18" fill="#fff" stroke="#111f2d" stroke-miterlimit="10" stroke-width="3"/><line x1="69.31" y1="76.18" x2="103.31" y2="76.18" fill="#fff" stroke="#111f2d" stroke-miterlimit="10" stroke-width="3"/></svg>