<svg id="Layer_1" data-name="Layer 1" xmlns="http://www.w3.org/2000/svg" viewBox="0 0 144 144"><title>school</title><rect x="15.79" y="67.77" width="112.42" height="42.25" fill="#fff" stroke="#0d202e" stroke-linecap="round" stroke-miterlimit="10" stroke-width="3"/><rect x="55.48" y="49.8" width="33.03" height="60.23" fill="#fff" stroke="#0d202e" stroke-linecap="round" stroke-miterlimit="10" stroke-width="3"/><rect x="65.98" y="91.59" width="12.04" height="18.44" fill="#fff" stroke="#0d202e" stroke-linecap="round" stroke-miterlimit="10" stroke-width="3"/><rect x="69.57" y="33.97" width="13.58" height="6.91" fill="#fff" stroke="#0d202e" stroke-linecap="round" stroke-miterlimit="10" stroke-width="3"/><line x1="69.57" y1="49.8" x2="69.57" y2="39.09" fill="none" stroke="#0d202e" stroke-linecap="round" stroke-miterlimit="10" stroke-width="3"/><rect x="22.96" y="75.95" width="7.44" height="7.44" fill="none" stroke="#0d202e" stroke-linecap="round" stroke-miterlimit="10" stroke-width="3"/><rect x="39.22" y="75.95" width="7.44" height="7.44" fill="none" stroke="#0d202e" stroke-linecap="round" stroke-miterlimit="10" stroke-width="3"/><rect x="22.96" y="92.76" width="7.44" height="7.44" fill="none" stroke="#0d202e" stroke-linecap="round" stroke-miterlimit="10" stroke-width="3"/><rect x="39.22" y="92.76" width="7.44" height="7.44" fill="none" stroke="#0d202e" stroke-linecap="round" stroke-miterlimit="10" stroke-width="3"/><rect x="96.09" y="75.95" width="7.44" height="7.44" fill="none" stroke="#0d202e" stroke-linecap="round" stroke-miterlimit="10" stroke-width="3"/><rect x="67.66" y="75.66" width="7.44" height="7.44" fill="none" stroke="#0d202e" stroke-linecap="round" stroke-miterlimit="10" stroke-width="3"/><rect x="67.66" y="59.01" width="7.44" height="7.44" fill="none" stroke="#0d202e" stroke-linecap="round" stroke-miterlimit="10" stroke-width="3"/><rect x="112.35" y="75.95" width="7.44" height="7.44" fill="none" stroke="#0d202e" stroke-linecap="round" stroke-miterlimit="10" stroke-width="3"/><rect x="96.09" y="92.76" width="7.44" height="7.44" fill="none" stroke="#0d202e" stroke-linecap="round" stroke-miterlimit="10" stroke-width="3"/><rect x="112.35" y="92.76" width="7.44" height="7.44" fill="none" stroke="#0d202e" stroke-linecap="round" stroke-miterlimit="10" stroke-width="3"/></svg>