<svg xmlns="http://www.w3.org/2000/svg" viewBox="0 0 552 394"><defs><style>path{fill:#fff;stroke:#828282;stroke-width:3;stroke-miterlimit:10;}.r{stroke-linejoin:round;}</style><clipPath id="a"><path d="M21.95 32.42h505.64v58.02H21.95z"/></clipPath><clipPath id="b"><path d="M20.13 30.57H529.5v322.87H20.13z"/></clipPath><clipPath id="c"><path  d="M311.06 132.49h121.4v123.99h-121.4z"/></clipPath><clipPath id="d"><path d="M331.08 183.62h30.04v56.24h-30.04z"/></clipPath><clipPath id="e"><path d="M381.15 183.62h30.04v56.24h-30.04z"/></clipPath><clipPath id="f"><path d="M39.47 48.13h15.02V73.7H39.47z"/></clipPath><clipPath id="g"><path d="M457.49 48.13h16.27V73.7h-16.27z"/></clipPath><clipPath id="h"><path d="M492.54 48.13h16.27V73.7h-16.27z"/></clipPath><clipPath id="i"><path d="M422.45 48.13h16.27V73.7h-16.27z"/></clipPath><clipPath id="j"><path d="M387.41 48.13h16.27V73.7h-16.27z"/></clipPath><clipPath id="k"><path d="M353.61 48.13h15.02V73.7h-15.02z"/></clipPath><clipPath id="l"><path d="M318.57 48.13h15.02V73.7h-15.02z"/></clipPath><clipPath id="m"><path d="M283.52 48.13h15.02V73.7h-15.02z"/></clipPath><clipPath id="n"><path d="M248.48 48.13h16.27V73.7h-16.27z"/></clipPath><clipPath id="o"><path d="M213.44 48.13h16.27V73.7h-16.27z"/></clipPath><clipPath id="p"><path d="M178.39 48.13h16.27V73.7h-16.27z"/></clipPath><clipPath id="q"><path d="M143.35 48.13h16.27V73.7h-16.27z"/></clipPath><clipPath id="r"><path d="M109.56 48.13h15.02V73.7h-15.02z"/></clipPath><clipPath id="s"><path d="M74.51 48.13h15.02V73.7H74.51z"/></clipPath><clipPath id="t"><path d="M457.49 106.93h16.27v25.57h-16.27z"/></clipPath><clipPath id="u"><path d="M422.45 106.93h16.27v25.57h-16.27z"/></clipPath><clipPath id="v"><path d="M387.41 106.93h16.27v25.57h-16.27z"/></clipPath><clipPath id="w"><path  d="M353.61 106.93h15.02v25.57h-15.02z"/></clipPath><clipPath id="x"><path d="M318.57 106.93h15.02v25.57h-15.02z"/></clipPath><clipPath id="y"><path d="M283.52 106.93h15.02v25.57h-15.02z"/></clipPath><clipPath id="z"><path d="M248.48 106.93h16.27v25.57h-16.27z"/></clipPath><clipPath id="A"><path d="M213.44 106.93h16.27v25.57h-16.27z"/></clipPath><clipPath id="B"><path  d="M178.39 106.93h16.27v25.57h-16.27z"/></clipPath><clipPath id="C"><path d="M143.35 106.93h16.27v25.57h-16.27z"/></clipPath><clipPath id="D"><path d="M109.56 106.93h15.02v25.57h-15.02z"/></clipPath><clipPath id="E"><path d="M74.51 106.93h15.02v25.57H74.51z"/></clipPath></defs><path d="M62.97 79.02h423.58v55.28H62.97zM390.13 134.3h92.71v189.22h-92.71zM134.75 178.65h94.13v56.6h-94.13zM243 178.65h65.89v92.65H243z"/><path d="M194.25 189.13h81.21v112.1h-81.21zM63.56 301.23h212.38v22.34H63.56z"/><path d="M62.97 79.02h51.28v244.5H62.97z"/><path d="M98.27 134.3h368.12v54.83H98.27z"/><path class="r" d="M500.05 350.92V90.31H49.48v260.61h226.54"/><path d="M21.95 32.42h505.64v58.02H21.95z"/><g clip-path="url(#a)"><path d="M20.13 30.57H529.5v322.87H20.13z"/><g clip-path="url(#b)"><path d="M15.98 26.33h517.56v70.2H15.98z"/></g><path d="M20.13 30.57H529.5v322.87H20.13z"/></g><path d="M21.95 32.42h505.64v58.02H21.95z"/><path  class="r" d="M21.95 32.42h505.64v58.02H21.95z"/><path  class="r" d="M49.48 90.31h450.57v58.8H49.48zM87.03 149.11h374.22v58.8H87.03z"/><path d="M311.06 132.49h121.4v123.99h-121.4z"/><g clip-path="url(#c)"><path d="M20.13 30.57H529.5v322.87H20.13z"/><g clip-path="url(#b)"><path d="M305.1 126.4h133.33v136.18H305.1z"/></g><path d="M20.13 30.57H529.5v322.87H20.13z"/></g><path d="M311.06 132.49h121.4v123.99h-121.4z"/><path class="r" d="M311.06 132.49h121.4v123.99h-121.4z"/><path d="M331.08 183.62h30.04v56.24h-30.04z"/><g clip-path="url(#d)"><path d="M20.13 30.57H529.5v322.87H20.13z"/><g clip-path="url(#b)"><path d="M325.12 177.53h41.97v68.43h-41.97z"/></g><path d="M20.13 30.57H529.5v322.87H20.13z"/></g><path d="M331.08 183.62h30.04v56.24h-30.04z"/><path class="r" d="M331.08 183.62h30.04v56.24h-30.04z"/><path d="M381.15 183.62h30.04v56.24h-30.04z"/><g clip-path="url(#e)"><path d="M20.13 30.57H529.5v322.87H20.13z"/><g clip-path="url(#b)"><path d="M375.18 177.53h41.97v68.43h-41.97z"/></g><path d="M20.13 30.57H529.5v322.87H20.13z"/></g><path d="M381.15 183.62h30.04v56.24h-30.04z"/><path class="r" d="M381.15 183.62h30.04v56.24h-30.04z"/><path class="r" d="M430.58 162.98H311.91"/><path class="r" d="M125.83 196.28h100.13v60.2H125.83z"/><path d="M202.17 255.9v-46.07m-27.53 44.73v-46m-26.29 47.34v-46.07" class="r"/><path  class="r" d="M240.97 196.28h70.09v98.55h-70.09z"/><path d="M276 350.92v-55.45m-.51 31.2H50.11m36.89-.52v-117.6m16.27 117.6v-117.6m86.36 117.6v-66.47m271.59 90.76V191.93M241.59 236h70.1m-46.82-38.42v38.81m22.41-39.74v37.54m-60.71-26.32H124m274.72 48.64v94.37" class="r"/><path d="M39.47 48.13h15.02V73.7H39.47z"/><g clip-path="url(#f)"><path d="M20.13 30.57H529.5v322.87H20.13z"/><g clip-path="url(#b)"><path d="M33.5 42.03h26.95v37.75H33.5z"/></g><path d="M20.13 30.57H529.5v322.87H20.13z"/></g><path d="M39.47 48.13h15.02V73.7H39.47z"/><path class="r" d="M39.47 48.13h15.02V73.7H39.47z"/><path d="M457.49 48.13h16.27V73.7h-16.27z"/><g clip-path="url(#g)"><path d="M20.13 30.57H529.5v322.87H20.13z"/><g clip-path="url(#b)"><path d="M451.53 42.03h28.2v37.75h-28.2z"/></g><path d="M20.13 30.57H529.5v322.87H20.13z"/></g><path d="M457.49 48.13h16.27V73.7h-16.27z"/><path class="r" d="M457.49 48.13h16.27V73.7h-16.27z"/><path d="M492.54 48.13h16.27V73.7h-16.27z"/><g clip-path="url(#h)"><path d="M20.13 30.57H529.5v322.87H20.13z"/><g clip-path="url(#b)"><path d="M486.57 42.03h28.2v37.75h-28.2z"/></g><path d="M20.13 30.57H529.5v322.87H20.13z"/></g><path d="M492.54 48.13h16.27V73.7h-16.27z"/><path class="r" d="M492.54 48.13h16.27V73.7h-16.27z"/><path d="M422.45 48.13h16.27V73.7h-16.27z"/><g clip-path="url(#i)"><path d="M20.13 30.57H529.5v322.87H20.13z"/><g clip-path="url(#b)"><path d="M416.48 42.03h28.2v37.75h-28.2z"/></g><path d="M20.13 30.57H529.5v322.87H20.13z"/></g><path d="M422.45 48.13h16.27V73.7h-16.27z"/><path class="r" d="M422.45 48.13h16.27V73.7h-16.27z"/><path d="M387.41 48.13h16.27V73.7h-16.27z"/><g clip-path="url(#j)"><path d="M20.13 30.57H529.5v322.87H20.13z"/><g clip-path="url(#b)"><path d="M381.44 42.03h28.2v37.75h-28.2z"/></g><path d="M20.13 30.57H529.5v322.87H20.13z"/></g><path d="M387.41 48.13h16.27V73.7h-16.27z"/><path class="r" d="M387.41 48.13h16.27V73.7h-16.27z"/><path d="M353.61 48.13h15.02V73.7h-15.02z"/><g clip-path="url(#k)"><path d="M20.13 30.57H529.5v322.87H20.13z"/><g clip-path="url(#b)"><path d="M347.65 42.03h26.95v37.75h-26.95z"/></g><path d="M20.13 30.57H529.5v322.87H20.13z"/></g><path d="M353.61 48.13h15.02V73.7h-15.02z"/><path class="r" d="M353.61 48.13h15.02V73.7h-15.02z"/><path d="M318.57 48.13h15.02V73.7h-15.02z"/><g clip-path="url(#l)"><path d="M20.13 30.57H529.5v322.87H20.13z"/><g clip-path="url(#b)"><path d="M312.6 42.03h26.95v37.75H312.6z"/></g><path d="M20.13 30.57H529.5v322.87H20.13z"/></g><path d="M318.57 48.13h15.02V73.7h-15.02z"/><path class="r" d="M318.57 48.13h15.02V73.7h-15.02z"/><path d="M283.52 48.13h15.02V73.7h-15.02z"/><g clip-path="url(#m)"><path d="M20.13 30.57H529.5v322.87H20.13z"/><g clip-path="url(#b)"><path d="M277.56 42.03h26.95v37.75h-26.95z"/></g><path d="M20.13 30.57H529.5v322.87H20.13z"/></g><path d="M283.52 48.13h15.02V73.7h-15.02z"/><path class="r" d="M283.52 48.13h15.02V73.7h-15.02z"/><path d="M248.48 48.13h16.27V73.7h-16.27z"/><g clip-path="url(#n)"><path d="M20.13 30.57H529.5v322.87H20.13z"/><g clip-path="url(#b)"><path d="M242.52 42.03h28.2v37.75h-28.2z"/></g><path d="M20.13 30.57H529.5v322.87H20.13z"/></g><path d="M248.48 48.13h16.27V73.7h-16.27z"/><path class="r" d="M248.48 48.13h16.27V73.7h-16.27z"/><path d="M213.44 48.13h16.27V73.7h-16.27z"/><g clip-path="url(#o)"><path d="M20.13 30.57H529.5v322.87H20.13z"/><g clip-path="url(#b)"><path d="M207.47 42.03h28.2v37.75h-28.2z"/></g><path d="M20.13 30.57H529.5v322.87H20.13z"/></g><path d="M213.44 48.13h16.27V73.7h-16.27z"/><path class="r" d="M213.44 48.13h16.27V73.7h-16.27z"/><path d="M178.39 48.13h16.27V73.7h-16.27z"/><g clip-path="url(#p)"><path d="M20.13 30.57H529.5v322.87H20.13z"/><g clip-path="url(#b)"><path d="M172.43 42.03h28.2v37.75h-28.2z"/></g><path d="M20.13 30.57H529.5v322.87H20.13z"/></g><path d="M178.39 48.13h16.27V73.7h-16.27z"/><path class="r" d="M178.39 48.13h16.27V73.7h-16.27z"/><path d="M143.35 48.13h16.27V73.7h-16.27z"/><g clip-path="url(#q)"><path d="M20.13 30.57H529.5v322.87H20.13z"/><g clip-path="url(#b)"><path d="M137.38 42.03h28.2v37.75h-28.2z"/></g><path d="M20.13 30.57H529.5v322.87H20.13z"/></g><path d="M143.35 48.13h16.27V73.7h-16.27z"/><path class="r" d="M143.35 48.13h16.27V73.7h-16.27z"/><path d="M109.56 48.13h15.02V73.7h-15.02z"/><g clip-path="url(#r)"><path d="M20.13 30.57H529.5v322.87H20.13z"/><g clip-path="url(#b)"><path d="M103.59 42.03h26.95v37.75h-26.95z"/></g><path d="M20.13 30.57H529.5v322.87H20.13z"/></g><path d="M109.56 48.13h15.02V73.7h-15.02z"/><path class="r" d="M109.56 48.13h15.02V73.7h-15.02z"/><path d="M74.51 48.13h15.02V73.7H74.51z"/><g clip-path="url(#s)"><path d="M20.13 30.57H529.5v322.87H20.13z"/><g clip-path="url(#b)"><path d="M68.55 42.03H95.5v37.75H68.55z"/></g><path d="M20.13 30.57H529.5v322.87H20.13z"/></g><path d="M74.51 48.13h15.02V73.7H74.51z"/><path  class="r" d="M74.51 48.13h15.02V73.7H74.51z"/><path d="M457.49 106.93h16.27v25.57h-16.27z"/><g clip-path="url(#t)"><path d="M20.13 30.57H529.5v322.87H20.13z"/><g clip-path="url(#b)"><path d="M451.53 100.84h28.2v37.75h-28.2z"/></g><path d="M20.13 30.57H529.5v322.87H20.13z"/></g><path d="M457.49 106.93h16.27v25.57h-16.27z"/><path  class="r" d="M457.49 106.93h16.27v25.57h-16.27z"/><path d="M422.45 106.93h16.27v25.57h-16.27z"/><g clip-path="url(#u)"><path d="M20.13 30.57H529.5v322.87H20.13z"/><g clip-path="url(#b)"><path d="M416.48 100.84h28.2v37.75h-28.2z"/></g><path d="M20.13 30.57H529.5v322.87H20.13z"/></g><path d="M422.45 106.93h16.27v25.57h-16.27z"/><path class="r" d="M422.45 106.93h16.27v25.57h-16.27z"/><path d="M387.41 106.93h16.27v25.57h-16.27z"/><g clip-path="url(#v)"><path d="M20.13 30.57H529.5v322.87H20.13z"/><g clip-path="url(#b)"><path d="M381.44 100.84h28.2v37.75h-28.2z"/></g><path d="M20.13 30.57H529.5v322.87H20.13z"/></g><path d="M387.41 106.93h16.27v25.57h-16.27z"/><path class="r" d="M387.41 106.93h16.27v25.57h-16.27z"/><path d="M353.61 106.93h15.02v25.57h-15.02z"/><g clip-path="url(#w)"><path d="M20.13 30.57H529.5v322.87H20.13z"/><g clip-path="url(#b)"><path d="M347.65 100.84h26.95v37.75h-26.95z"/></g><path d="M20.13 30.57H529.5v322.87H20.13z"/></g><path d="M353.61 106.93h15.02v25.57h-15.02z"/><path class="r" d="M353.61 106.93h15.02v25.57h-15.02z"/><path d="M318.57 106.93h15.02v25.57h-15.02z"/><g clip-path="url(#x)"><path d="M20.13 30.57H529.5v322.87H20.13z"/><g clip-path="url(#b)"><path d="M312.6 100.84h26.95v37.75H312.6z"/></g><path d="M20.13 30.57H529.5v322.87H20.13z"/></g><path d="M318.57 106.93h15.02v25.57h-15.02z"/><path class="r" d="M318.57 106.93h15.02v25.57h-15.02z"/><path d="M283.52 106.93h15.02v25.57h-15.02z"/><g clip-path="url(#y)"><path d="M20.13 30.57H529.5v322.87H20.13z"/><g clip-path="url(#b)"><path d="M277.56 100.84h26.95v37.75h-26.95z"/></g><path d="M20.13 30.57H529.5v322.87H20.13z"/></g><path d="M283.52 106.93h15.02v25.57h-15.02z"/><path class="r" d="M283.52 106.93h15.02v25.57h-15.02z"/><path d="M248.48 106.93h16.27v25.57h-16.27z"/><g clip-path="url(#z)"><path d="M20.13 30.57H529.5v322.87H20.13z"/><g clip-path="url(#b)"><path d="M242.52 100.84h28.2v37.75h-28.2z"/></g><path d="M20.13 30.57H529.5v322.87H20.13z"/></g><path d="M248.48 106.93h16.27v25.57h-16.27z"/><path class="r" d="M248.48 106.93h16.27v25.57h-16.27z"/><path d="M213.44 106.93h16.27v25.57h-16.27z"/><g clip-path="url(#A)"><path d="M20.13 30.57H529.5v322.87H20.13z"/><g clip-path="url(#b)"><path d="M207.47 100.84h28.2v37.75h-28.2z"/></g><path d="M20.13 30.57H529.5v322.87H20.13z"/></g><path d="M213.44 106.93h16.27v25.57h-16.27z"/><path class="r" d="M213.44 106.93h16.27v25.57h-16.27z"/><path d="M178.39 106.93h16.27v25.57h-16.27z"/><g clip-path="url(#B)"><path d="M20.13 30.57H529.5v322.87H20.13z"/><g clip-path="url(#b)"><path d="M172.43 100.84h28.2v37.75h-28.2z"/></g><path d="M20.13 30.57H529.5v322.87H20.13z"/></g><path d="M178.39 106.93h16.27v25.57h-16.27z"/><path class="r" d="M178.39 106.93h16.27v25.57h-16.27z"/><path d="M143.35 106.93h16.27v25.57h-16.27z"/><g clip-path="url(#C)"><path d="M20.13 30.57H529.5v322.87H20.13z"/><g clip-path="url(#b)"><path d="M137.38 100.84h28.2v37.75h-28.2z"/></g><path d="M20.13 30.57H529.5v322.87H20.13z"/></g><path d="M143.35 106.93h16.27v25.57h-16.27z"/><path class="r" d="M143.35 106.93h16.27v25.57h-16.27z"/><path d="M109.56 106.93h15.02v25.57h-15.02z"/><g clip-path="url(#D)"><path d="M20.13 30.57H529.5v322.87H20.13z"/><g clip-path="url(#b)"><path d="M103.59 100.84h26.95v37.75h-26.95z"/></g><path d="M20.13 30.57H529.5v322.87H20.13z"/></g><path d="M109.56 106.93h15.02v25.57h-15.02z"/><path class="r" d="M109.56 106.93h15.02v25.57h-15.02z"/><path d="M74.51 106.93h15.02v25.57H74.51z"/><g clip-path="url(#E)"><path d="M20.13 30.57H529.5v322.87H20.13z"/><g clip-path="url(#b)"><path d="M68.55 100.84H95.5v37.75H68.55z"/></g><path d="M20.13 30.57H529.5v322.87H20.13z"/></g><path d="M74.51 106.93h15.02v25.57H74.51z"/><path class="r" d="M74.51 106.93h15.02v25.57H74.51zM283.52 160.48h15.02v25.57h-15.02zM248.48 160.48h16.27v25.57h-16.27zM213.44 160.48h16.27v25.57h-16.27zM178.39 160.48h16.27v25.57h-16.27zM143.35 160.48h16.27v25.57h-16.27zM109.56 160.48h15.02v25.57h-15.02z"/><path class="r" d="M276.02 350.92h224.03"/></svg>
