<svg id="Layer_1" data-name="Layer 1" xmlns="http://www.w3.org/2000/svg" xmlns:xlink="http://www.w3.org/1999/xlink" viewBox="0 0 144 100.8"><defs><clipPath id="clip-path"><circle cx="70.54" cy="445.61" r="40.05" fill="none"/></clipPath><clipPath id="clip-path-2"><circle cx="70.54" cy="445.61" r="34.49" fill="none"/></clipPath></defs><title>311 icons</title><path d="M129,67.46V56.36H57.14l0-24.55H38.42L32.31,44.53A143.88,143.88,0,0,0,15,49.14V67.46Z" fill="#fff"/><path d="M130.47,68.91H13.53V48.09l1-.33a150.24,150.24,0,0,1,16.79-4.51l6.2-12.89H58.56l0,24.55h71.87ZM16.44,66H127.56V57.82H55.69l0-24.55H39.34l-6,12.57-.73.13a143.43,143.43,0,0,0-16.13,4.23Z" fill="#fdb717"/><polygon points="52.13 49.63 38.36 49.63 38.36 45.83 42.25 37.47 52.13 37.47 52.13 49.63" fill="#fff"/><path d="M53.59,51.09H36.9V45.5L41.33,36H53.59ZM39.81,48.18H50.67V38.93H43.18l-3.37,7.22Z" fill="#fdb717"/><path d="M32.38,68.83a1.46,1.46,0,0,1-1.46-1.46V44.71a1.46,1.46,0,0,1,2.91,0V67.38A1.46,1.46,0,0,1,32.38,68.83Z" fill="#fdb717"/><path d="M57.17,68.83a1.46,1.46,0,0,1-1.46-1.46V55.1a1.46,1.46,0,1,1,2.91,0V67.38A1.46,1.46,0,0,1,57.17,68.83Z" fill="#fdb717"/><circle cx="35.7" cy="71.69" r="10.64" fill="#fff"/><path d="M35.7,83.79a12.1,12.1,0,1,1,12.1-12.1A12.11,12.11,0,0,1,35.7,83.79Zm0-21.28a9.18,9.18,0,1,0,9.19,9.18A9.19,9.19,0,0,0,35.7,62.51Z" fill="#fdb717"/><circle cx="112.9" cy="71.69" r="10.64" fill="#fff"/><path d="M112.9,83.79A12.1,12.1,0,1,1,125,71.69,12.11,12.11,0,0,1,112.9,83.79Zm0-21.28a9.18,9.18,0,1,0,9.19,9.18A9.2,9.2,0,0,0,112.9,62.51Z" fill="#fdb717"/><circle cx="35.56" cy="71.55" r="4.83" fill="#fff"/><path d="M35.56,77.83a6.29,6.29,0,1,1,6.29-6.29A6.29,6.29,0,0,1,35.56,77.83Zm0-9.66a3.38,3.38,0,1,0,3.38,3.38A3.38,3.38,0,0,0,35.56,68.17Z" fill="#fdb717"/><polygon points="57.13 45.8 57.13 50.67 123.51 24.23 124.83 18.83 57.13 45.8" fill="#fff" stroke="#fdb717" stroke-linecap="round" stroke-miterlimit="10" stroke-width="3"/><circle cx="112.75" cy="71.55" r="4.83" fill="#fff"/><path d="M112.75,77.83A6.29,6.29,0,1,1,119,71.55,6.29,6.29,0,0,1,112.75,77.83Zm0-9.66a3.38,3.38,0,1,0,3.38,3.38A3.38,3.38,0,0,0,112.75,68.17Z" fill="#fdb717"/><path d="M50.13,23h-6L41.58,33.26h11Zm-4.84,7.32L46.38,26h1.45l1,4.4Z" fill="#fdb717"/><polygon points="48.87 30.35 45.29 30.35 46.38 25.95 47.83 25.95 48.87 30.35" fill="#fff"/><rect x="57.17" y="45.77" width="14.83" height="10.6" fill="#fff" stroke="#fdb717" stroke-linecap="round" stroke-miterlimit="10" stroke-width="3"/><circle cx="124.64" cy="36.4" r="3.66" fill="#fff" stroke="#fdb717" stroke-linecap="round" stroke-miterlimit="10" stroke-width="3"/><path d="M125.07,41.88v1.88a4.06,4.06,0,0,1,2.22,3.18,3.17,3.17,0,0,1-3.17,3.44A3.11,3.11,0,0,1,121.2,47" fill="none" stroke="#fdb717" stroke-linecap="round" stroke-miterlimit="10" stroke-width="3"/><line x1="124.64" y1="32.74" x2="124.64" y2="19.16" fill="none" stroke="#fdb717" stroke-linecap="round" stroke-miterlimit="10" stroke-width="3"/></svg>