<svg width="115" height="114" viewBox="0 0 115 114" xmlns="http://www.w3.org/2000/svg" xmlns:xlink="http://www.w3.org/1999/xlink"><title>311 white on grey logo</title><defs><path id="a" d="M10.667.045H.007v13.537h10.66V.045z"/></defs><g fill="none" fill-rule="evenodd"><path fill="#D2D2D2" d="M0 0h115v114H0z"/><g transform="translate(20.237 27.044)"><mask id="b" fill="#fff"><use xlink:href="#a"/></mask><path d="M2.998 11.06h2.684c.23 0 .463-.027.7-.078.236-.05.45-.14.642-.268.192-.127.348-.293.47-.497.12-.203.182-.452.182-.745 0-.32-.08-.577-.24-.775-.16-.197-.36-.347-.603-.45-.243-.1-.506-.17-.787-.21-.28-.038-.543-.057-.786-.057H2.998v3.08zm0-5.604h2.166c.23 0 .457-.025.68-.076.225-.05.426-.134.605-.25.178-.114.322-.266.43-.458.11-.19.163-.42.163-.688 0-.28-.06-.513-.182-.698-.12-.184-.277-.328-.468-.43-.192-.102-.41-.175-.652-.22-.243-.044-.48-.067-.71-.067H2.998v2.886zM.006.046h5.062c.588 0 1.18.04 1.774.124.595.082 1.128.248 1.6.497.474.248.858.596 1.152 1.042.294.445.44 1.038.44 1.777 0 .765-.214 1.4-.642 1.902-.428.503-.994.863-1.697 1.08v.038c.448.064.854.188 1.218.373.364.186.677.42.94.708.26.287.463.622.604 1.004.14.382.21.79.21 1.224 0 .714-.153 1.31-.46 1.788-.307.477-.703.863-1.19 1.156-.484.294-1.03.504-1.638.63-.608.13-1.212.192-1.813.192H.007V.045z" fill="#FFF" mask="url(#b)"/></g><path d="M55.86 30.568c-.222-.28-.522-.485-.9-.62-.38-.132-.737-.2-1.075-.2-.2 0-.402.024-.612.07-.21.047-.408.12-.594.218-.188.1-.34.23-.455.392-.117.163-.175.36-.175.593 0 .373.14.657.42.854.28.198.63.366 1.056.506.426.14.883.28 1.372.418.49.14.947.337 1.372.593.425.256.778.6 1.057 1.03.28.43.42 1.004.42 1.724 0 .685-.13 1.284-.385 1.795-.256.51-.603.934-1.04 1.27-.436.338-.943.587-1.52.75-.576.163-1.185.244-1.826.244-.804 0-1.55-.122-2.237-.366-.688-.244-1.33-.64-1.923-1.185l1.94-2.126c.28.372.63.66 1.057.863.425.203.865.305 1.32.305.22 0 .445-.027.672-.08.227-.05.43-.13.612-.234.18-.104.326-.237.437-.4.11-.162.166-.354.166-.575 0-.372-.142-.665-.428-.88-.285-.215-.643-.398-1.074-.55-.43-.15-.898-.3-1.398-.452-.5-.15-.967-.354-1.398-.61-.43-.255-.79-.592-1.075-1.01-.286-.42-.428-.97-.428-1.656 0-.662.13-1.243.392-1.742.262-.5.612-.918 1.05-1.255.435-.337.94-.59 1.51-.758.57-.168 1.16-.253 1.765-.253.7 0 1.375.098 2.027.295.653.198 1.24.53 1.765.994l-1.87 2.038zM43.635 33.867c0-2.073-1.687-3.774-3.766-3.774-2.1 0-3.786 1.7-3.786 3.774 0 2.073 1.687 3.755 3.785 3.755 2.078 0 3.765-1.682 3.765-3.755m2.942 0c0 3.697-3 6.69-6.708 6.69-3.727 0-6.728-2.993-6.728-6.69 0-3.696 3-6.708 6.727-6.708 3.706 0 6.707 3.01 6.707 6.707M62.88 40.233c-1.158 0-2.1-.938-2.1-2.092 0-1.153.942-2.073 2.1-2.073 1.156 0 2.098.92 2.098 2.074 0 1.155-.942 2.093-2.1 2.093m0-8.352c-1.156 0-2.097-.938-2.097-2.092 0-1.154.942-2.073 2.1-2.073 1.156 0 2.098.92 2.098 2.073 0 1.154-.942 2.093-2.1 2.093M47.56 71.758c0 6.86-6.333 12.197-14.196 12.197-7.81 0-14.197-5.336-14.197-12.197h7.753c0 3.158 2.894 5.064 6.444 5.064s6.443-1.906 6.443-5.064c0-5.772-3.222-6.643-6.443-6.643h-8.027v-6.207l10.047-8.004H20.04v-6.806h26.046v6.806l-9.992 8.004c6.935 0 11.467 5.336 11.467 12.85M70.327 44.098v38.44h-9.173V57.71h-8.737v-6.153s8.245-.98 8.737-7.46h9.173zM95.193 44.098v38.44H86.02V57.71h-8.737v-6.153s8.245-.98 8.736-7.46h9.173z" fill="#FFF"/></g></svg>