<svg width="115" height="114" viewBox="0 0 115 114" xmlns="http://www.w3.org/2000/svg" xmlns:xlink="http://www.w3.org/1999/xlink"><title>311 gray on white</title><defs><path id="a" d="M10.798.046H.006v13.672h10.792V.046z"/></defs><g fill="none" fill-rule="evenodd"><path d="M0 0h115v114H0z" fill="#FFF"/><g transform="translate(20.083 24.044)"><mask id="b" fill="#fff"><use xlink:href="#a"/></mask><path d="M3.034 11.17h2.718c.233 0 .47-.027.708-.078.24-.05.456-.142.65-.27.195-.13.353-.296.476-.503.123-.206.184-.457.184-.754 0-.32-.08-.582-.242-.782-.162-.2-.366-.35-.612-.454-.246-.103-.51-.173-.796-.212-.284-.04-.55-.058-.795-.058h-2.29v3.11zm0-5.66h2.194c.232 0 .462-.025.69-.076.225-.052.43-.136.61-.25.18-.117.327-.272.437-.465.11-.194.165-.426.165-.696 0-.283-.062-.518-.185-.705-.123-.187-.28-.332-.475-.436-.194-.102-.414-.176-.66-.222-.246-.045-.485-.067-.718-.067H3.034V5.51zM.006.047H5.13c.596 0 1.194.042 1.796.125.602.085 1.142.252 1.62.503.48.25.867.602 1.165 1.053.3.45.448 1.05.448 1.796 0 .772-.217 1.413-.65 1.92-.434.51-1.007.873-1.718 1.092v.04c.453.063.864.19 1.232.376.37.186.686.424.95.714.266.29.47.628.613 1.014.142.386.213.798.213 1.236 0 .72-.155 1.323-.466 1.805-.31.482-.71.872-1.203 1.168-.493.296-1.046.508-1.66.637-.615.13-1.227.193-1.835.193H.005V.046z" fill="#D2D2D2" mask="url(#b)"/></g><path d="M56.142 27.603c-.224-.28-.527-.49-.91-.625-.384-.134-.747-.202-1.088-.202-.2 0-.407.024-.62.07-.212.047-.412.12-.6.22-.19.1-.343.232-.46.396-.12.165-.178.364-.178.6 0 .374.142.662.425.86.284.2.64.37 1.07.512.43.14.894.28 1.39.422.495.14.958.34 1.388.598.43.26.787.605 1.07 1.04.283.433.425 1.014.425 1.74 0 .693-.13 1.298-.39 1.814s-.61.945-1.052 1.285c-.44.34-.954.592-1.538.757-.583.164-1.2.246-1.848.246-.814 0-1.57-.123-2.265-.37-.697-.246-1.345-.645-1.946-1.197l1.963-2.148c.283.376.64.666 1.07.872.43.205.876.307 1.336.307.224 0 .45-.025.68-.078.23-.052.437-.132.62-.237.183-.106.33-.24.442-.405.112-.164.168-.358.168-.58 0-.376-.144-.672-.433-.89-.29-.217-.652-.4-1.088-.554-.436-.152-.908-.305-1.415-.458-.507-.152-.98-.357-1.415-.616-.437-.258-.8-.598-1.088-1.02-.29-.423-.434-.98-.434-1.672 0-.67.133-1.256.398-1.76.266-.505.62-.927 1.062-1.268.442-.34.952-.595 1.53-.765.578-.17 1.173-.255 1.787-.255.707 0 1.39.1 2.052.3.66.198 1.254.533 1.785 1.002l-1.893 2.06zM43.768 30.936c0-2.094-1.707-3.812-3.812-3.812-2.124 0-3.83 1.718-3.83 3.812s1.706 3.793 3.83 3.793c2.105 0 3.812-1.7 3.812-3.794m2.978 0c0 3.733-3.037 6.755-6.79 6.755-3.772 0-6.81-3.02-6.81-6.754 0-3.733 3.038-6.775 6.81-6.775 3.753 0 6.79 3.043 6.79 6.776M63.248 37.366c-1.17 0-2.124-.95-2.124-2.114 0-1.166.953-2.094 2.124-2.094 1.172 0 2.125.928 2.125 2.094 0 1.165-.953 2.114-2.125 2.114m0-8.436c-1.17 0-2.124-.95-2.124-2.114 0-1.165.953-2.094 2.124-2.094 1.172 0 2.125.93 2.125 2.094 0 1.165-.953 2.114-2.125 2.114M47.742 69.205c0 6.93-6.412 12.32-14.37 12.32-7.905 0-14.372-5.39-14.372-12.32h7.85c0 3.19 2.928 5.115 6.52 5.115 3.594 0 6.523-1.925 6.523-5.115 0-5.83-3.26-6.71-6.522-6.71h-8.124v-6.268l10.17-8.084H19.884V41.27H46.25v6.873l-10.115 8.084c7.02 0 11.607 5.39 11.607 12.978M70.788 41.27v38.824h-9.286V55.017h-8.844v-6.214s8.346-.99 8.844-7.534h9.286zM95.958 41.27v38.824h-9.286V55.017h-8.844v-6.214s8.346-.99 8.844-7.534h9.286z" fill="#D2D2D2"/></g></svg>