<svg xmlns="http://www.w3.org/2000/svg" viewBox="0 0 101.96 89.18"><defs><style>.cls-1{fill:#0f1f2d;}.cls-2{fill:#fff;}.cls-3{fill:#0c1f2e;}</style></defs><title>Computer off</title><g id="Layer_2" data-name="Layer 2"><g id="Layer_1-2" data-name="Layer 1"><path class="cls-1" d="M102,68.93H0V0H102Zm-99-3H99V3H3Z"/><path class="cls-1" d="M95.86,63.88H6.1V5.09H95.86Zm-86.76-3H92.86V8.09H9.1Z"/><path class="cls-1" d="M65.36,84.66H36.6V65.93H65.36Zm-25.76-3H62.36V68.93H39.6Z"/><path class="cls-1" d="M73.14,89.18H28.82V81.66H73.14Zm-41.32-3H70.14V84.66H31.82Z"/><line class="cls-2" x1="55.06" y1="21.76" x2="83.29" y2="21.76"/><rect class="cls-1" x="55.06" y="20.27" width="28.23" height="3"/><line class="cls-2" x1="55.06" y1="33.77" x2="83.29" y2="33.77"/><rect class="cls-1" x="55.06" y="32.27" width="28.23" height="3"/><line class="cls-2" x1="55.06" y1="46.77" x2="83.29" y2="46.77"/><rect class="cls-1" x="55.06" y="45.27" width="28.23" height="3"/><path class="cls-3" d="M40.79,49H22.57V39L28,34.88h7.32l5.42,4.29ZM25.57,46H37.79V40.62l-3.46-2.74H29l-3.48,2.63Z"/><path class="cls-3" d="M31.54,34.92a5.54,5.54,0,1,1,5.54-5.54A5.55,5.55,0,0,1,31.54,34.92Zm0-8.08a2.54,2.54,0,1,0,2.54,2.54A2.54,2.54,0,0,0,31.54,26.84Z"/><path class="cls-3" d="M46.05,49.18H16.63V19.75H46.05Zm-26.43-3H43.05V22.75H19.63Z"/></g></g></svg>