<svg xmlns="http://www.w3.org/2000/svg" viewBox="0 0 98.66 91.09"><title>Phone off</title><g id="Layer_2" data-name="Layer 2"><g id="Layer_1-2" data-name="Layer 1"><path d="M96.78,32.26h-25l-6.88-15H33.11l-6.72,15H1.88V11L26.82,0H71.29L96.78,14.25Zm-23-3h20V16L70.51,3H27.45L4.88,13V29.26H24.45l6.72-15h35.7Z" fill="#0c1f2e"/><path d="M98.66,91.09H0V68.51L22.11,34.95H34.92V26.5h8.75v8.45h9.75V26.5h8.75v8.45H76.72l21.94,34.2ZM3,88.09H95.66V70L75.08,37.95H59.17V29.5H56.42v8.45H40.67V29.5H37.92v8.45H23.72L3,69.41Z" fill="#0c1f2e"/><path d="M42,54h-9.7v-9.7H42Zm-6.7-3H39v-3.7h-3.7Z" fill="#0c1f2e"/><path d="M54.51,54H44.8v-9.7h9.7Zm-6.7-3h3.7v-3.7H47.8Z" fill="#0c1f2e"/><path d="M66.4,54H56.7v-9.7h9.7Zm-6.7-3h3.7v-3.7H59.7Z" fill="#0c1f2e"/><path d="M42,67.85h-9.7v-9.7H42Zm-6.7-3H39v-3.7h-3.7Z" fill="#0c1f2e"/><path d="M54.51,67.85H44.8v-9.7h9.7Zm-6.7-3h3.7v-3.7H47.8Z" fill="#0c1f2e"/><path d="M66.4,67.85H56.7v-9.7h9.7Zm-6.7-3h3.7v-3.7H59.7Z" fill="#0c1f2e"/><path d="M42,81.75h-9.7V72H42Zm-6.7-3H39V75h-3.7Z" fill="#0c1f2e"/><path d="M54.51,81.75H44.8V72h9.7Zm-6.7-3h3.7V75H47.8Z" fill="#0c1f2e"/><path d="M66.4,81.75H56.7V72h9.7Zm-6.7-3h3.7V75H59.7Z" fill="#0c1f2e"/></g></g></svg>