<?xml version="1.0" encoding="utf-8"?><svg xmlns="http://www.w3.org/2000/svg" xmlns:xlink="http://www.w3.org/1999/xlink"><symbol viewBox="0 0 142.49 98.81" id="App_store_off"><title>App store off</title><g data-name="Layer 1" fill="#091f2f"><path d="M95.74 75.33V23.45l46.75 26.21zm3-46.76v41.69l37.56-20.63z"/><path d="M98.95 71.62a1.5 1.5 0 0 1-1.12-2.5l25.81-28.68a1.5 1.5 0 0 1 2.23 2l-25.81 28.68a1.5 1.5 0 0 1-1.11.5z"/><path d="M124.75 57.28a1.5 1.5 0 0 1-1.09-.47l-25.8-27.33a1.5 1.5 0 0 1 2.14-2.06l25.81 27.33a1.5 1.5 0 0 1-1.09 2.53zM15.64 74.07h-1.41a7.73 7.73 0 0 1-2.28-.75 10.86 10.86 0 0 1-3.21-2.57c-.8-.92-1.53-1.88-2.25-2.82l-.17-.23a26.14 26.14 0 0 1-2.51-4 33.64 33.64 0 0 1-3.06-8.56C.51 54 .33 52.82.17 51.8.11 51.4.08 51 0 50.59V47.2a18.92 18.92 0 0 1 .81-4.54 16.3 16.3 0 0 1 1.62-3.72 14.65 14.65 0 0 1 3.72-4.24 13.64 13.64 0 0 1 5.94-2.7 11.77 11.77 0 0 1 3.37-.17 16.5 16.5 0 0 1 3.61.91l.7.25 2.61.94a1.7 1.7 0 0 0 1.24 0c1.55-.57 2.86-1 4.19-1.47a13.18 13.18 0 0 1 4.88-.77 19.76 19.76 0 0 1 2.05.22 13.77 13.77 0 0 1 4.17 1.34 12.55 12.55 0 0 1 3.84 3c.22.26.43.52.64.79l1.27 1.6-2.12 1.46a9.43 9.43 0 0 0-3.66 4.66 10.55 10.55 0 0 0-.5 3.95 9.58 9.58 0 0 0 1 4 9.84 9.84 0 0 0 2.5 3.08 8.94 8.94 0 0 0 2.47 1.54l1 .37v1.54l-.2.35-.37.94c-.3.77-.61 1.57-1 2.35a30.37 30.37 0 0 1-3.39 5.61A19 19 0 0 1 37 72.23 7.76 7.76 0 0 1 32.11 74a11 11 0 0 1-3.76-.83l-.47-.17a17 17 0 0 0-2.57-.84 7.15 7.15 0 0 0-2.82-.09 14.29 14.29 0 0 0-2.71.76 19.62 19.62 0 0 1-3.25 1.07L16 74zm-1-3h.86l.45-.08a17.09 17.09 0 0 0 2.73-.99 17.23 17.23 0 0 1 3.32-.88 10.12 10.12 0 0 1 4 .1 19.52 19.52 0 0 1 3 1l.45.17a8.26 8.26 0 0 0 2.74.64 4.44 4.44 0 0 0 3-1.14A16.27 16.27 0 0 0 38 66.73a27.45 27.45 0 0 0 3.06-5.05c.32-.69.59-1.4.88-2.15a14.12 14.12 0 0 1-2-1.38 12.44 12.44 0 0 1-4.61-9.3 13.46 13.46 0 0 1 .67-5.07A12.13 12.13 0 0 1 40.31 38a9.48 9.48 0 0 0-2.78-2.11 10.76 10.76 0 0 0-3.27-1 16.65 16.65 0 0 0-1.74-.19 10.2 10.2 0 0 0-3.78.62c-1.29.43-2.57.88-4.1 1.44a4.7 4.7 0 0 1-3.3 0l-2.58-.93-.7-.25a13.27 13.27 0 0 0-3-.75 9 9 0 0 0-2.51.15A10.53 10.53 0 0 0 8 37.09a11.53 11.53 0 0 0-2.92 3.36 13.34 13.34 0 0 0-1.32 3A16 16 0 0 0 3 47.31a3.74 3.74 0 0 1 0 .41v2.64c0 .33 0 .66.1 1 .15 1 .33 2.12.55 3.2a30.63 30.63 0 0 0 2.83 7.74 23 23 0 0 0 2.22 3.56l.17.23c.69.9 1.39 1.83 2.13 2.67a7.88 7.88 0 0 0 2.32 1.87 4.68 4.68 0 0 0 1.3.44zm30.52-11.55zM33 16.24c0 .82 0 1.64-.06 2.46A9.13 9.13 0 0 1 32 22a13 13 0 0 1-2.05 3 10.21 10.21 0 0 1-3.48 2.58 7.82 7.82 0 0 1-3.79.6 7.92 7.92 0 0 1 0-2.18 9.69 9.69 0 0 1 1.17-3.61 11.67 11.67 0 0 1 5.24-5 11.22 11.22 0 0 1 3.16-1.07l.42-.08zM70.68 98.81a1.5 1.5 0 0 1-1.5-1.5V1.5a1.5 1.5 0 0 1 3 0v95.81a1.5 1.5 0 0 1-1.5 1.5z"/></g></symbol><symbol viewBox="0 0 142.49 98.81" id="App_store_on"><title>App store on</title><g data-name="Layer 1"><path fill="#fff" d="M97.24 26.01l27.51 15.43 14.65 8.21L97.24 72.8V26.01z"/><path d="M95.74 75.33V23.45l46.75 26.21zm3-46.76v41.69l37.56-20.63z" fill="#091f2f"/><path d="M98.95 71.62a1.5 1.5 0 0 1-1.12-2.5l25.81-28.68a1.5 1.5 0 0 1 2.23 2l-25.81 28.68a1.5 1.5 0 0 1-1.11.5z" fill="#091f2f"/><path d="M124.76 57.28a1.5 1.5 0 0 1-1.09-.47L97.86 29.48a1.5 1.5 0 0 1 2.14-2.06l25.81 27.33a1.5 1.5 0 0 1-1.09 2.53z" fill="#091f2f"/><path d="M15.51 72.57h-1a6.31 6.31 0 0 1-1.85-.6 9.33 9.33 0 0 1-2.76-2.22c-.83-1-1.59-2-2.36-3A24.52 24.52 0 0 1 5.14 63a32.35 32.35 0 0 1-2.93-8.14c-.22-1.08-.39-2.18-.56-3.27-.08-.59-.1-1.09-.15-1.59v-2.38-.38a17.57 17.57 0 0 1 .75-4.19 14.73 14.73 0 0 1 1.47-3.38 13.09 13.09 0 0 1 3.3-3.78 12.07 12.07 0 0 1 5.28-2.4 10.18 10.18 0 0 1 2.94-.16 15 15 0 0 1 3.28.83l3.3 1.18a3.19 3.19 0 0 0 2.27 0c1.38-.5 2.75-1 4.14-1.46a11.8 11.8 0 0 1 4.33-.7 18.34 18.34 0 0 1 1.89.21 12.21 12.21 0 0 1 3.72 1.19 11 11 0 0 1 3.39 2.65c.3.35.58.72.87 1.1l-.42.29-.4.28a10.93 10.93 0 0 0-4.2 5.39 12 12 0 0 0-.58 4.5 11.15 11.15 0 0 0 1.18 4.66A11.29 11.29 0 0 0 40.94 57a10.42 10.42 0 0 0 2.88 1.78v.1a.89.89 0 0 0-.06.11c-.44 1.11-.85 2.24-1.34 3.32a29 29 0 0 1-3.22 5.33A17.6 17.6 0 0 1 36.09 71a6.14 6.14 0 0 1-4 1.46 9.58 9.58 0 0 1-3.25-.74 21.93 21.93 0 0 0-3.26-1.08 8.68 8.68 0 0 0-3.4-.09 15.84 15.84 0 0 0-3 .84 18.36 18.36 0 0 1-3 1z" fill="#fff"/><path d="M15.64 74.07h-1.41A7.73 7.73 0 0 1 12 73.3a10.85 10.85 0 0 1-3.21-2.57c-.8-.92-1.53-1.88-2.25-2.82l-.17-.23a26.14 26.14 0 0 1-2.51-4 33.63 33.63 0 0 1-3.11-8.54C.51 54 .33 52.82.17 51.8.11 51.4.08 51 0 50.58V47.2a18.92 18.92 0 0 1 .81-4.54 16.24 16.24 0 0 1 1.62-3.72 14.66 14.66 0 0 1 3.72-4.24 13.63 13.63 0 0 1 5.94-2.7 11.7 11.7 0 0 1 3.37-.17 16.53 16.53 0 0 1 3.61.91l.69.24 2.62.94a1.7 1.7 0 0 0 1.24 0c1.26-.46 2.72-1 4.19-1.47a13.17 13.17 0 0 1 4.88-.77 19.76 19.76 0 0 1 2.05.22 13.77 13.77 0 0 1 4.17 1.34 12.55 12.55 0 0 1 3.84 3c.22.26.42.52.63.79l1.27 1.6-2.12 1.46a9.43 9.43 0 0 0-3.66 4.66 10.54 10.54 0 0 0-.5 3.95 9.57 9.57 0 0 0 1 4 9.84 9.84 0 0 0 2.5 3.09 8.8 8.8 0 0 0 2.47 1.54l1 .37v1.54l-.2.35-.37.94c-.3.77-.6 1.57-1 2.35a30.28 30.28 0 0 1-3.39 5.61A19.06 19.06 0 0 1 37 72.23 7.68 7.68 0 0 1 32.22 74h-.11a11 11 0 0 1-3.76-.83l-.46-.17a17 17 0 0 0-2.57-.84 7.14 7.14 0 0 0-2.82-.09 14.28 14.28 0 0 0-2.71.76 19.62 19.62 0 0 1-3.25 1.07L16 74zm-1-3h.87l.44-.08a17.09 17.09 0 0 0 2.73-.99 17.23 17.23 0 0 1 3.32-.88 10.16 10.16 0 0 1 4 .1 19.58 19.58 0 0 1 3 1l.45.17a8.26 8.26 0 0 0 2.74.64 4.64 4.64 0 0 0 3-1.14A16.25 16.25 0 0 0 38 66.73a27.32 27.32 0 0 0 3.06-5.05c.32-.69.59-1.4.88-2.15a14.12 14.12 0 0 1-2-1.38 12.82 12.82 0 0 1-3.26-4 12.66 12.66 0 0 1-1.35-5.28 13.42 13.42 0 0 1 .67-5.09A12.12 12.12 0 0 1 40.31 38a9.48 9.48 0 0 0-2.78-2.11 10.76 10.76 0 0 0-3.27-1 16.65 16.65 0 0 0-1.74-.19 10.27 10.27 0 0 0-3.78.62c-1.43.47-2.87 1-4.1 1.44a4.7 4.7 0 0 1-3.3 0l-2.6-.93-.69-.24a13.33 13.33 0 0 0-3-.75 9 9 0 0 0-2.51.15A10.53 10.53 0 0 0 8 37.09a11.53 11.53 0 0 0-2.92 3.36 13.22 13.22 0 0 0-1.32 3A16 16 0 0 0 3 47.31a3.71 3.71 0 0 1 0 .42v2.62c0 .33 0 .66.1 1 .15 1 .33 2.12.55 3.2a30.64 30.64 0 0 0 2.83 7.75 23.16 23.16 0 0 0 2.22 3.56l.17.23c.69.9 1.39 1.83 2.13 2.67a7.77 7.77 0 0 0 2.32 1.87 4.71 4.71 0 0 0 1.3.44zM33 16.24c0 .82 0 1.64-.06 2.46A9.13 9.13 0 0 1 32 22a13 13 0 0 1-2.05 3 10.21 10.21 0 0 1-3.48 2.58 7.82 7.82 0 0 1-3.79.6 7.92 7.92 0 0 1 0-2.18 9.69 9.69 0 0 1 1.17-3.61 11.67 11.67 0 0 1 5.24-5 11.22 11.22 0 0 1 3.16-1.07l.42-.08zM70.68 98.81a1.5 1.5 0 0 1-1.5-1.5V1.5a1.5 1.5 0 0 1 3 0v95.81a1.5 1.5 0 0 1-1.5 1.5z" fill="#091f2f"/></g></symbol><symbol viewBox="0 0 101.96 89.18" id="Computer_off"><title>Computer off</title><g data-name="Layer 1"><path d="M102 68.93H0V0h102zm-99-3h96V3H3z" fill="#0f1f2d"/><path d="M95.86 63.88H6.1V5.09h89.76zm-86.76-3h83.76V8.09H9.1zM65.36 84.66H36.6V65.93h28.76zm-25.76-3h22.76V68.93H39.6z" fill="#0f1f2d"/><path d="M73.14 89.18H28.82v-7.52h44.32zm-41.32-3h38.32v-1.52H31.82z" fill="#0f1f2d"/><path fill="#fff" d="M55.06 21.76h28.23"/><path fill="#0f1f2d" d="M55.06 20.27h28.23v3H55.06z"/><path fill="#fff" d="M55.06 33.77h28.23"/><path fill="#0f1f2d" d="M55.06 32.27h28.23v3H55.06z"/><path fill="#fff" d="M55.06 46.77h28.23"/><path fill="#0f1f2d" d="M55.06 45.27h28.23v3H55.06z"/><path d="M40.79 49H22.57V39L28 34.88h7.32l5.42 4.29zm-15.22-3h12.22v-5.38l-3.46-2.74H29l-3.48 2.63z" fill="#0c1f2e"/><path d="M31.54 34.92a5.54 5.54 0 1 1 5.54-5.54 5.55 5.55 0 0 1-5.54 5.54zm0-8.08a2.54 2.54 0 1 0 2.54 2.54 2.54 2.54 0 0 0-2.54-2.54z" fill="#0c1f2e"/><path d="M46.05 49.18H16.63V19.75h29.42zm-26.43-3h23.43V22.75H19.63z" fill="#0c1f2e"/></g></symbol><symbol viewBox="0 0 101.96 89.18" id="Computer_on"><title>Computer on</title><g data-name="Layer 1"><path fill="#fff" d="M1.5 1.5h98.96v65.93H1.5z"/><path d="M102 68.93H0V0h102zm-99-3h96V3H3z" fill="#0f1f2d"/><path fill="#fff" d="M7.6 6.59h86.76v55.8H7.6z"/><path d="M95.86 63.88H6.1V5.09h89.76zm-86.76-3h83.76V8.09H9.1z" fill="#0f1f2d"/><path fill="#fff" d="M38.1 67.43h25.76v15.73H38.1z"/><path d="M65.36 84.66H36.6V65.93h28.76zm-25.76-3h22.76V68.93H39.6z" fill="#0f1f2d"/><path fill="#fff" d="M30.32 83.16h41.32v4.52H30.32z"/><path d="M73.14 89.18H28.82v-7.52h44.32zm-41.32-3h38.32v-1.52H31.82z" fill="#0f1f2d"/><path fill="#fff" d="M55.06 21.76h28.23"/><path fill="#0f1f2d" d="M55.06 20.27h28.23v3H55.06z"/><path fill="#fff" d="M55.06 33.77h28.23"/><path fill="#0f1f2d" d="M55.06 32.27h28.23v3H55.06z"/><path fill="#fff" d="M55.06 46.77h28.23"/><path fill="#0f1f2d" d="M55.06 45.27h28.23v3H55.06z"/><path d="M40.79 49H22.57V39L28 34.88h7.32l5.42 4.29zm-15.22-3h12.22v-5.38l-3.46-2.74h-5.28l-3.48 2.63z" fill="#0c1f2e"/><path d="M31.55 34.92a5.54 5.54 0 1 1 5.54-5.54 5.55 5.55 0 0 1-5.54 5.54zm0-8.08a2.54 2.54 0 1 0 2.54 2.54 2.54 2.54 0 0 0-2.54-2.54z" fill="#0c1f2e"/><path d="M46.05 49.18H16.63V19.75h29.42zm-26.43-3h23.43V22.75H19.63z" fill="#0c1f2e"/></g></symbol><symbol viewBox="0 0 98.66 91.09" id="Phone_off"><title>Phone off</title><g data-name="Layer 1" fill="#0c1f2e"><path d="M96.78 32.26h-25l-6.88-15H33.11l-6.72 15H1.88V11L26.82 0h44.47l25.49 14.25zm-23-3h20V16L70.51 3H27.45L4.88 13v16.26h19.57l6.72-15h35.7z"/><path d="M98.66 91.09H0V68.51l22.11-33.56h12.81V26.5h8.75v8.45h9.75V26.5h8.75v8.45h14.55l21.94 34.2zM3 88.09h92.66V70L75.08 37.95H59.17V29.5h-2.75v8.45H40.67V29.5h-2.75v8.45h-14.2L3 69.41z"/><path d="M42 54h-9.7v-9.7H42zm-6.7-3H39v-3.7h-3.7zM54.51 54H44.8v-9.7h9.7zm-6.7-3h3.7v-3.7H47.8zM66.4 54h-9.7v-9.7h9.7zm-6.7-3h3.7v-3.7h-3.7zM42 67.85h-9.7v-9.7H42zm-6.7-3H39v-3.7h-3.7zM54.51 67.85H44.8v-9.7h9.7zm-6.7-3h3.7v-3.7H47.8zM66.4 67.85h-9.7v-9.7h9.7zm-6.7-3h3.7v-3.7h-3.7zM42 81.75h-9.7V72H42zm-6.7-3H39V75h-3.7zM54.51 81.75H44.8V72h9.7zm-6.7-3h3.7V75H47.8zM66.4 81.75h-9.7V72h9.7zm-6.7-3h3.7V75h-3.7z"/></g></symbol><symbol viewBox="0 0 98.66 91.09" id="Phone_on"><title>Phone on</title><g data-name="Layer 1"><path fill="#fff" d="M95.28 30.76h-22.5L65.9 15.75H32.14l-6.72 15.01H3.38V12L27.14 1.5H70.9l24.38 13.63v15.63z"/><path d="M96.78 32.26h-25l-6.88-15H33.11l-6.72 15H1.88V11L26.82 0h44.47l25.49 14.25zm-23-3h20V16L70.51 3H27.45L4.88 13v16.26h19.56l6.72-15h35.7z" fill="#0c1f2e"/><path fill="#fff" d="M75.9 36.45H60.67V28h-5.75v8.45H42.17V28h-5.75v8.45h-13.5L1.5 68.96v20.63h95.66V69.58L75.9 36.45z"/><path d="M98.66 91.09H0V68.51l22.11-33.56h12.81V26.5h8.75v8.45h9.75V26.5h8.75v8.45h14.55l21.94 34.2zM3 88.09h92.66V70L75.08 37.95H59.17V29.5h-2.75v8.45H40.67V29.5h-2.75v8.45h-14.2L3 69.41z" fill="#0c1f2e"/><path d="M42 54h-9.7v-9.7H42zm-6.7-3H39v-3.7h-3.7zM54.5 54h-9.7v-9.7h9.7zm-6.7-3h3.7v-3.7h-3.7zM66.4 54h-9.7v-9.7h9.7zm-6.7-3h3.7v-3.7h-3.7zM42 67.85h-9.7v-9.7H42zm-6.7-3H39v-3.7h-3.7zM54.5 67.85h-9.7v-9.7h9.7zm-6.7-3h3.7v-3.7h-3.7zM66.4 67.85h-9.7v-9.7h9.7zm-6.7-3h3.7v-3.7h-3.7zM42 81.75h-9.7V72H42zm-6.7-3H39V75h-3.7zM54.5 81.75h-9.7V72h9.7zm-6.7-3h3.7V75h-3.7zM66.4 81.75h-9.7V72h9.7zm-6.7-3h3.7V75h-3.7z" fill="#0c1f2e"/></g></symbol><symbol viewBox="0 0 91.53 84.48" id="Twitter_off"><title>Twitter off</title><g data-name="Layer 1" fill="#091f2f"><path d="M37.98 59.44a1.49 1.49 0 0 1-.64-.14L11.58 47.17V32.46a1.5 1.5 0 0 1 3 0v12.81l24.04 11.36a1.5 1.5 0 0 1-.64 2.86zM61.5 26.86a1.49 1.49 0 0 1-.7-.18L20.05 5v6.95a1.5 1.5 0 0 1-3 0V0l45.16 24a1.5 1.5 0 0 1-.71 2.82z"/><path d="M24.56 84.48L.05 69.14l21.36-4 11.32-10.2a1.5 1.5 0 1 1 2 2.23l-11.99 10.8-14.61 2.66 17 10.65 33.58-5.65 15.6-18.41 8.09-25.59 3.84-3.37-3.64-1.86-.62.34-.73-1.31a9.54 9.54 0 0 0-7.92-4.94c-3.63-.17-6.3 2.06-8.65 4.51 0 0-7.28 8.17-9.64 10.81a1.5 1.5 0 0 1-2.23-2c2.37-2.64 9.67-10.84 9.67-10.84 2.75-2.86 6.17-5.71 11-5.47a12.52 12.52 0 0 1 10.21 6.13c1 .46 2.76 1.35 5.88 2.94l2 1-6.52 5.72-8 25.39-16.7 19.7z"/><path d="M54.13 47.89a1.5 1.5 0 0 1-1.43-2l1.81-5.69-4.56-11.18L5.7 7.31 6.77 28 32.2 39.35a1.5 1.5 0 0 1-1.22 2.74L3.86 29.99 2.44 2.37 52.3 26.84l5.39 13.29-2.14 6.72a1.5 1.5 0 0 1-1.42 1.04z"/><circle cx="73.66" cy="26.79" r="2.57"/></g></symbol><symbol viewBox="0 0 91.53 84.48" id="Twitter_on"><title>Twitter on</title><g data-name="Layer 1"><path d="M88.94 27.58c-3.06-1.54-4.76-2.39-5.76-2.83a12.3 12.3 0 0 0-10-5.92c-4.73-.23-8.09 2.51-10.78 5.26l-.74.82L17.86 2v9.2L3.55 4.3l1.39 25.06 7.57 3.32v14.74l21.17 8.67L22 66.57 4 69.9l22 13.3 34.18-5.64 16.36-19 7.16-26.12 6.16-4.89z" fill="#fff"/><path fill="#fff" d="M13.08 32.46v13.76l24.9 11.72"/><path d="M38 59.44a1.49 1.49 0 0 1-.64-.14L11.58 47.17V32.46a1.5 1.5 0 0 1 3 0v12.8l24 11.31a1.5 1.5 0 0 1-.58 2.87z" fill="#091f2f"/><path fill="#fff" d="M18.54 14.87V2.5L61.5 25.36"/><path d="M61.5 26.86a1.49 1.49 0 0 1-.7-.18L20 5v9.88a1.5 1.5 0 1 1-3 0V0l45.2 24a1.5 1.5 0 0 1-.71 2.82z" fill="#091f2f"/><path d="M33.68 56.09L22 66.57 4 69.9l20.8 13L59.5 77l16.14-19.06 8.06-25.5 5.18-4.55s-6.31-3.23-6.32-3.22A11.08 11.08 0 0 0 73.4 19c-4.06-.2-7 2.1-9.8 5 0 0-7.31 8.21-9.68 10.84" fill="#fff"/><path d="M24.55 84.48L0 69.13l21.36-4L32.68 55a1.5 1.5 0 1 1 2 2.23L22.74 68 8.13 70.67l17 10.65 33.58-5.72L74.3 57.2l8.09-25.61 3.84-3.37-3.64-1.86-.59.34-.73-1.31a9.54 9.54 0 0 0-7.92-4.94c-3.62-.18-6.3 2.06-8.65 4.51 0 0-7.28 8.17-9.64 10.81a1.5 1.5 0 0 1-2.23-2c2.37-2.64 9.67-10.84 9.67-10.84 2.75-2.86 6.16-5.71 11-5.47a12.52 12.52 0 0 1 10.21 6.15c1 .46 2.76 1.35 5.88 2.94l2 1L85 33.29l-8 25.39-16.71 19.7z" fill="#091f2f"/><path d="M54.13 46.39l2-6.21-5-12.25L4.06 4.84 5.31 29l26.28 11.71" fill="#fff"/><path d="M54.13 47.89a1.5 1.5 0 0 1-1.43-2l1.81-5.69L50 29 5.69 7.31 6.76 28 32.2 39.34a1.5 1.5 0 0 1-1.2 2.74L3.86 30 2.44 2.37 52.3 26.83l5.39 13.29-2.14 6.72a1.5 1.5 0 0 1-1.42 1.05z" fill="#091f2f"/><circle cx="73.66" cy="26.79" r="2.57" fill="#091f2f"/></g></symbol></svg>