<?xml version="1.0" encoding="utf-8"?><svg xmlns="http://www.w3.org/2000/svg" xmlns:xlink="http://www.w3.org/1999/xlink"><symbol viewBox="0 0 738 528.12" id="allston"><title>allston</title><path d="M25.29 491.7h686.87v.13l-.22-261.14-98.43-6.54a3726.27 3726.27 0 0 0-489.37-.06l-99.65 6.59M25.3 491.7l-.81-261.01" fill="#fff" stroke="#fdb718" stroke-miterlimit="10" stroke-width="4"/><path d="M25.42 268.4l99.65-6.59a3726.27 3726.27 0 0 1 489.37.06l98.43 6.54" fill="#fff" stroke="#fdb718" stroke-miterlimit="10" stroke-width="4"/><path d="M24.49 251.23l99.65-6.59a3726.27 3726.27 0 0 1 489.37.06l98.43 6.54M25.42 315l99.65-6.59a3726.27 3726.27 0 0 1 489.37.06l98.43 6.53" fill="#fff" stroke="#fdb718" stroke-miterlimit="10" stroke-width="4"/><path d="M25.42 324.63l99.65-6.63a3726.27 3726.27 0 0 1 489.37.06l98.43 6.54M26.05 469.57l99.66-6.57a3726.27 3726.27 0 0 1 489.37.06l98.43 6.54M712.87 398.31l-29.29-1.95-21.1-1.4-48-3.19-4.48-.27q-13.88-.91-27.8-1.7-23.77-1.38-47.64-2.42-13.89-.63-27.81-1.14-23.79-.88-47.64-1.45-13.89-.34-27.8-.57-22.67-.38-45.37-.47-16.78-.09-33.58 0-22.08.1-44.14.46-13.91.23-27.81.56-23.48.55-46.91 1.41-13.92.49-27.8 1.11-23.87 1-47.64 2.4-13.93.79-27.81 1.7l-5.16.33-47.3 3.12-21.1 1.4-31.25 2.06" fill="#fff" stroke="#fdb718" stroke-miterlimit="10" stroke-width="4"/><path d="M25.42 407.91l99.65-6.59a3726.23 3726.23 0 0 1 489.37.06l98.43 6.54M135.27 261.81v45.91M286.09 255.96v45.38M447.47 255.96v45.27M602.44 261.81v45.9" fill="#fff" stroke="#fdb718" stroke-miterlimit="10" stroke-width="4"/><path d="M393.16 436.6v55.1h-47.85v-55.1c0-15.83 10.72-28.68 23.93-28.68s23.92 12.85 23.92 28.68zM467.69 491.7v-46.84c0-13.94-9.09-25.22-20.3-25.22s-20.3 11.29-20.3 25.22v46.84zM545.82 448.39v43.31h-40.61v-43.31c0-13.12 9.09-23.75 20.3-23.75s20.31 10.63 20.31 23.75zM583.36 491.7v-33.62c0-10.85 9.09-19.65 20.3-19.65s20.3 8.8 20.3 19.65v33.62zM697.41 491.7v-28.31c0-9.63-7-17.44-15.59-17.44s-15.59 7.81-15.59 17.44v28.31zM385.54 345.13v38.62q-17.32-.09-34.65 0v-38.62c0-11.32 7.75-20.5 17.33-20.5s17.32 9.18 17.32 20.5zM461.06 351.72v33.06q-14.34-.34-28.69-.57v-32.49c0-9.78 6.43-17.73 14.35-17.73s14.34 7.95 14.34 17.73zM538.92 359.78v27.59q-14.34-.63-28.7-1.14v-26.45a14.35 14.35 0 0 1 28.7 0zM616.78 391.5v-25.27c0-6.43-6.42-11.64-14.35-11.64s-14.35 5.21-14.35 11.64v23.56zM692.7 374.46v21.91L670.92 395v-20.54a10.89 10.89 0 1 1 21.77 0zM223.56 357.42v28.76q-14.36.49-28.69 1.11v-29.87a14.35 14.35 0 1 1 28.69 0zM147.89 389.69v-25.81c0-6.43-6.43-11.64-14.35-11.64s-14.35 5.21-14.35 11.64v27.51zM361.42 267.35h14.85v19.04h-14.85zM520.35 273.41h12.6v19.04h-12.6zM676.32 282.93h10.97v16.02h-10.97zM223.6 292.44H211V273.4h12.6zM62.14 300.45H51.17v-16.02h10.97zM301.58 351.14v33.07q-14.35.23-28.7.56v-33.63c0-9.78 6.43-17.72 14.35-17.72s14.35 7.93 14.35 17.72zM67.54 374.46v20.39l-21.77 1.4v-21.79a10.89 10.89 0 1 1 21.77 0zM311.39 447.36v44.34h-40.61v-44.34c0-13.94 9.09-25.22 20.3-25.22s20.31 11.28 20.31 25.22zM192.64 491.7v-40.8c0-13.12 9.09-23.75 20.3-23.75s20.3 10.63 20.3 23.75v40.8zM114.5 491.7v-31.1c0-10.85 9.08-19.66 20.3-19.66s20.29 8.81 20.29 19.66v31.1zM72.25 491.7v-28.31c0-9.63-7-17.44-15.59-17.44s-15.61 7.81-15.61 17.44v28.31z" fill="#fdb718"/></symbol><symbol viewBox="0 0 738 528.12" id="back_bay"><title>back bay</title><g data-name="back bay"><path fill="#fff" stroke="#fdb718" stroke-miterlimit="10" stroke-width="4" d="M442.73 139.81v82.46H294.66l-.29-82.46 37.79-55.1 37.81-55.09 37.81 55.09 34.95 55.1z"/><path fill="#fff" stroke="#fdb718" stroke-miterlimit="10" stroke-width="4" d="M279.2 141.39v.98h35.52L296.6 89.9l-17.4 51.49zM457.9 141.39v.98h-36.65l18.7-52.47 17.95 51.49z"/><path fill="#fff" stroke="#fdb718" stroke-miterlimit="10" stroke-width="4" d="M279.2 142.32h36.66v68.7H279.2zM421.25 142.32h36.66v68.7h-36.66z"/><path fill="none" stroke="#fdb718" stroke-miterlimit="10" stroke-width="4" d="M279.2 174.09h178.7"/><path fill="#fff" stroke="#fdb718" stroke-miterlimit="10" stroke-width="4" d="M394.07 142.32v68.7h-51.04v-68.7l26.03-59.9 25.01 59.9z"/><path fill="none" stroke="#fdb718" stroke-miterlimit="10" stroke-width="4" d="M421.25 142.32H315.86"/><path d="M368.55 151.15c-6.86 0-12.45 6.4-12.45 14.3v36.75H381v-36.75c0-7.9-5.59-14.3-12.45-14.3z" fill="#fdb718"/><path fill="#fff" stroke="#fdb718" stroke-miterlimit="10" stroke-width="4" d="M171.66 211.02h393.78v280.43H171.66z"/><path d="M279.6 257.84c-6.93 0-12.59 15.21-12.59 34V379h25.18v-87.2c0-18.8-5.66-33.96-12.59-33.96zM372.47 257.84c-6.93 0-12.59 15.21-12.59 34V379h25.18v-87.2c0-18.8-5.66-33.96-12.59-33.96zM326 257.84c-6.93 0-12.59 15.21-12.59 34V379h25.18v-87.2c.04-18.8-5.59-33.96-12.59-33.96zM418.91 257.84c-6.93 0-12.59 15.21-12.59 34V379h25.18v-87.2c0-18.8-5.66-33.96-12.59-33.96zM457.5 257.84c-6.93 0-12.59 15.21-12.59 34V379h25.19v-87.2c0-18.8-5.66-33.96-12.6-33.96z" fill="#fdb718"/><path fill="#fff" stroke="#fdb718" stroke-miterlimit="10" stroke-width="4" d="M429.29 369.51v121.94H307.81V369.51l61.54-49.47 59.94 49.47z"/><path d="M368.55 368.73c-21.19 0-38.47 15.4-38.47 34.39v88.33H407v-88.33c0-18.99-17.26-34.39-38.45-34.39zM232.62 401.84A25.17 25.17 0 0 0 207.44 427v64.5h50.37V427a25.17 25.17 0 0 0-25.19-25.16z" fill="#fdb718"/><path fill="#fff" stroke="#fdb718" stroke-miterlimit="10" stroke-width="4" d="M254.3 392.14h17.53v96.83H254.3z"/><path fill="#fff" stroke="#fdb718" stroke-miterlimit="10" stroke-width="4" d="M254.3 467.57h24.26v23.14H254.3zM254.3 390.43h24.26V402H254.3zM153.52 393.25h17.53v97.92h-17.53z"/><path fill="#fff" stroke="#fdb718" stroke-miterlimit="10" stroke-width="4" d="M148.68 468.43h24.26v23.4h-24.26zM148.68 390.43h24.26v11.7h-24.26z"/><path fill="#fff" stroke="#fdb718" stroke-linecap="square" stroke-miterlimit="10" stroke-width="4" d="M255.25 391.6v99.48H172V391.6l42.17-40.36 41.08 40.36z"/><path d="M213.63 395.77c-13.87 0-25.18 12-25.18 26.71v68.6h50.37v-68.6c-.01-14.75-11.33-26.71-25.19-26.71zM543.37 401.47a25.17 25.17 0 0 0-25.18 25.11v64.5h50.37v-64.5a25.17 25.17 0 0 0-25.19-25.11z" fill="#fdb718"/><path fill="#fff" stroke="#fdb718" stroke-miterlimit="10" stroke-width="4" d="M565.05 391.79h17.53v98.28h-17.53z"/><path fill="#fff" stroke="#fdb718" stroke-miterlimit="10" stroke-width="4" d="M565.05 468.34h24.26v23.48h-24.26zM565.05 390.06h24.26v11.74h-24.26zM464.27 392.87h17.53v97.92h-17.53z"/><path fill="#fff" stroke="#fdb718" stroke-miterlimit="10" stroke-width="4" d="M459.43 468.06h24.26v23.4h-24.26zM459.43 390.06h24.26v11.7h-24.26z"/><path fill="#fff" stroke="#fdb718" stroke-linecap="square" stroke-miterlimit="10" stroke-width="4" d="M566 391.23v99.47h-83.25v-99.47l42.17-40.37L566 391.23z"/><path d="M524.38 395.4c-13.87 0-25.18 12-25.18 26.71v68.6h50.37V422.1c-.01-14.75-11.33-26.7-25.19-26.7z" fill="#fdb718"/><path fill="none" stroke="#fdb718" stroke-miterlimit="10" stroke-width="4" d="M307.81 414.56h121.48M307.81 397.42h121.48"/><path fill="#fff" stroke="#fdb718" stroke-miterlimit="10" stroke-width="4" d="M171.29 229.92h394.52"/><path d="M197.76 256.61c-4.91 0-8.92 7.6-8.92 17v43.59h17.84v-43.61c0-9.38-4.01-16.98-8.92-16.98zM228.61 256.61c-4.91 0-8.92 7.6-8.92 17v43.59h17.84v-43.61c0-9.38-4-16.98-8.92-16.98z" fill="#fdb718"/><path fill="none" stroke="#fdb718" stroke-miterlimit="10" stroke-width="4" d="M180.86 317.2h64.65v17.41h-64.65zM278.9 397.78h179.3"/><path fill="#fff" stroke="#fdb718" stroke-miterlimit="10" stroke-width="4" d="M481.61 232.86v167.5M254.95 231.5V399"/><path d="M509.49 256.61c-4.91 0-8.92 7.6-8.92 17v43.59h17.84v-43.61c0-9.38-4.01-16.98-8.92-16.98zM540.35 256.61c-4.91 0-8.92 7.6-8.92 17v43.59h17.84v-43.61c0-9.38-4.01-16.98-8.92-16.98z" fill="#fdb718"/><path fill="none" stroke="#fdb718" stroke-miterlimit="10" stroke-width="4" d="M492.6 317.52h64.65v17.41H492.6z"/><path fill="#fff" stroke="#fdb718" stroke-miterlimit="10" stroke-width="4" d="M209.23 198.17h-37.11l18.56-55.1 18.55-55.09 18.55 55.09 18.55 55.1h-37.1z"/><path fill="#fff" stroke="#fdb718" stroke-miterlimit="10" stroke-width="4" d="M194.08 164.99v46.47h-22.72v-46.47l11.59-20.64 11.13 20.64zM247.09 164.99v46.47h-23.66v-46.47l12.07-20.64 11.59 20.64zM223.13 173.25v38.21h-28.28v-38.21l14.43-33.31 13.85 33.31z"/><path d="M209.12 171c-3.8 0-6.9 4.33-6.9 9.68v24.85H216v-24.9c0-5.34-3.08-9.63-6.88-9.63z" fill="#fdb718"/><path fill="#fff" stroke="#fdb718" stroke-miterlimit="10" stroke-width="4" d="M527.26 197.17h-37.1l18.55-55.1 18.55-55.1 18.55 55.1 18.56 55.1h-37.11z"/><path fill="#fff" stroke="#fdb718" stroke-miterlimit="10" stroke-width="4" d="M512.12 163.99v46.47H489.4v-46.47l11.58-20.65 11.14 20.65zM565.13 163.99v46.47h-23.67v-46.47l12.07-20.65 11.6 20.65zM541.16 172.25v38.2h-28.27v-38.2l14.42-33.32 13.85 33.32z"/><path d="M527.16 170c-3.8 0-6.9 4.33-6.9 9.68v24.85h13.79v-24.9c0-5.34-3.05-9.63-6.89-9.63z" fill="#fdb718"/><path fill="none" stroke="#fdb718" stroke-miterlimit="10" stroke-width="4" d="M171.29 246.08h393.08"/></g></symbol><symbol viewBox="0 0 738 528.12" id="bay_village"><title>bay village</title><g data-name="bay village"><path d="M462.36 163.21v328.62H294V163.21h2v-9.49h19.05v9.49h17.7v-9.49h19.06v9.49h17.7v-9.49h19.06v9.49h17.7v-9.49h19.05v9.49h17.7V146.6a10.42 10.42 0 0 1 4.48-6.71 9.18 9.18 0 0 1 10.08 0 10.48 10.48 0 0 1 4.51 7v16.37z" fill="#fff" stroke="#fdb718" stroke-miterlimit="10" stroke-width="4"/><path fill="#fff" stroke="#fdb718" stroke-miterlimit="10" stroke-width="4" d="M296.65 229.66h50.77v262.16h-50.77z"/><path fill="#fff" stroke="#fdb718" stroke-miterlimit="10" stroke-width="4" d="M189.86 47.09h106.8v444.73h-106.8zM453.12 323.17h87.07v168.66h-87.07z"/><path d="M218.82 277.17h.07a9.37 9.37 0 0 0-.07 1.22zM243.29 277.17v1.22a9.37 9.37 0 0 0-.07-1.22z" fill="#fdb718"/><path fill="none" stroke="#fdb718" stroke-miterlimit="10" stroke-width="4" d="M189.35 375.44h107.81M189.35 391.61h107.81M347.83 391.57h105.29M455.08 342.01h85.11M296.24 375.44h51.19M296.24 385.62h51.19M270.48 277.17a28.73 28.73 0 0 0 .16-3 27.25 27.25 0 1 0-54.5 0 28.73 28.73 0 0 0 .16 3M213.23 277.16h60.05"/><path d="M243.23 193.95h.06a7.83 7.83 0 0 0-.06 1z" fill="#fdb718"/><path d="M243.29 193.95v1a7.83 7.83 0 0 0-.06-1z" fill="#fdb718"/><path d="M251.56 195v31.32H235V195a7.83 7.83 0 0 1 .06-1 8.29 8.29 0 0 1 16.48 0 7.83 7.83 0 0 1 .02 1zM445.5 192.32v31.32h-16.6v-31.32a7.83 7.83 0 0 1 .06-1 8.29 8.29 0 0 1 16.48 0 7.83 7.83 0 0 1 .06 1zM416.11 192.32v31.32H399.5v-31.32a7.83 7.83 0 0 1 .06-1 8.29 8.29 0 0 1 16.48 0 7.83 7.83 0 0 1 .07 1zM386.71 192.32v31.32h-16.6v-31.32a7.83 7.83 0 0 1 .06-1 8.29 8.29 0 0 1 16.48 0 7.83 7.83 0 0 1 .06 1zM357.32 192.32v31.32h-16.61v-31.32a7.83 7.83 0 0 1 .06-1 8.29 8.29 0 0 1 16.48 0 7.83 7.83 0 0 1 .07 1z" fill="#fdb718"/><path d="M263.52 198.64a20.9 20.9 0 0 0 .12-2.23 20.39 20.39 0 1 0-40.78 0 20.9 20.9 0 0 0 .12 2.23M220.87 198.64h44.78M188.87 163.21h108.77M189.04 134.37h108.43M188.85 84.1h108.81M189.01 56.92h107.35M189.58 93.86h107.35" fill="none" stroke="#fdb718" stroke-miterlimit="10" stroke-width="4"/><path fill="#fdb718" d="M226.68 142.65h12.28v12.28h-12.28zM247.55 142.65h12.28v12.28h-12.28zM221.37 93.86h4.75v22.3h-4.75zM234.38 93.86h4.75v22.3h-4.75zM247.38 93.86h4.75v22.3h-4.75zM260.39 93.86h4.75v22.3h-4.75zM231.01 333.17h24.49v42.27h-24.49zM255.46 269.4v40.93h-24.37V269.4a9.13 9.13 0 0 1 .09-1.34c.73-5.47 5.86-9.71 12.1-9.71s11.37 4.24 12.1 9.71a9.13 9.13 0 0 1 .08 1.34z"/><path fill="none" stroke="#fdb718" stroke-miterlimit="10" stroke-width="4" d="M233.27 305.38v48.93M253.26 308.71v48.93"/><path fill="#fdb718" d="M233.32 409.77h19.86v31.54h-19.86z"/><path fill="none" stroke="#fdb718" stroke-miterlimit="10" stroke-width="4" d="M274.94 375.44v16.17M211.57 375.44v16.17"/><path fill="#fff" stroke="#fdb718" stroke-miterlimit="10" stroke-width="4" d="M277.21 27h19.44v19.44h-19.44zM189.86 27h19.44v19.44h-19.44zM218.19 35.67h21.41v11.42h-21.41zM247.55 35.67h21.41v11.42h-21.41z"/><path fill="#fdb718" d="M306.41 245.11h4.42v25.81h-4.42zM326.67 272.08h4.42v25.81h-4.42zM306.41 304.35h4.42v25.81h-4.42zM326.67 331.33h4.42v25.81h-4.42zM307.66 386.6h4.42v25.81h-4.42zM327.93 413.58h4.42v25.81h-4.42z"/><path fill="none" stroke="#fdb718" stroke-miterlimit="10" stroke-width="4" d="M436.82 276.64h-2.36"/><path d="M433.16 269.6v34.33h-20.44V269.6a7.66 7.66 0 0 1 .08-1.12c.61-4.59 4.92-8.15 10.15-8.15s9.53 3.56 10.15 8.15a7.66 7.66 0 0 1 .06 1.12z" fill="#fdb718"/><path d="M445.05 274.11c0 .85-.05 1.69-.14 2.53h-82.58a22.64 22.64 0 0 1-.14-2.53A23 23 0 0 1 385 250.92a22.71 22.71 0 0 1 18.58 9.69 22.71 22.71 0 0 1 18.58-9.69 23 23 0 0 1 22.89 23.19z" fill="none" stroke="#fdb718" stroke-miterlimit="10" stroke-width="4"/><path d="M396 269.6v34.33h-20.43V269.6a7.66 7.66 0 0 1 .08-1.12c.61-4.59 4.92-8.15 10.15-8.15s9.53 3.56 10.15 8.15a7.66 7.66 0 0 1 .05 1.12z" fill="#fdb718"/><path fill="none" stroke="#fdb718" stroke-miterlimit="10" stroke-width="4" d="M403.62 260.61v17.17M340.52 224.86H445.5M339.69 375.44h113.43"/><path fill="#fdb718" d="M375.57 330.64h20.44v43.4h-20.44zM412.72 330.64h20.44v43.4h-20.44z"/><path fill="none" stroke="#fdb718" stroke-miterlimit="10" stroke-width="4" d="M377.56 303.94v40.29M394 303.02v40.3M414.75 301.71v40.3M431.17 301.71v40.3"/><path fill="#fdb718" d="M376.78 409.02h19.86v31.54h-19.86zM469.71 360.47h13.68v24.04h-13.68zM507.24 360.47h13.68v24.04h-13.68zM413.01 409.02h19.86v31.54h-19.86z"/><path fill="#fff" stroke="#fdb718" stroke-miterlimit="10" stroke-width="4" d="M496.65 323.54h-52.49l26.25-39.2 26.24-39.21 26.25 39.21 26.25 39.2h-52.5z"/><path d="M322.29 168.5l-27.11 59.14h54.21zm0 10.12l20.27 44.22H302z" fill="#fdb718"/><path fill="#fff" d="M342.56 222.84h-40.54l20.27-44.22 20.27 44.22z"/><path fill="none" stroke="#fdb718" stroke-miterlimit="10" stroke-width="4" d="M329.93 191.93h-16.1M335.24 203.09h-27.79M340.73 214.23h-36.2"/></g></symbol><symbol viewBox="0 0 738 528.12" id="beacon_hill"><title>beacon hill</title><g data-name="beacon hill"><path fill="#fff" stroke="#fdb718" stroke-miterlimit="10" stroke-width="4" d="M369 42.27v49.35"/><path d="M388.66 76.71h-39.32c0-12.08 8.79-21.85 19.66-21.85s19.66 9.77 19.66 21.85z" fill="#fdb718"/><path fill="#fff" stroke="#fdb718" stroke-miterlimit="10" stroke-width="4" d="M353.07 76.71h31.86v41.64h-31.86zM341.45 76.71h55.1"/><circle cx="369" cy="189.79" r="75.56" fill="#fff" stroke="#fdb718" stroke-miterlimit="10" stroke-width="4"/><path fill="#fff" stroke="#fdb718" stroke-miterlimit="10" stroke-width="4" d="M251.8 224.16h234.39v48.83H251.8z"/><path fill="#fff" stroke="#fdb718" stroke-miterlimit="10" stroke-width="4" d="M369.25 159.99l-124 64.17h247.5l-123.5-64.17z"/><path fill="#fdb718" d="M270.45 240.09h22.85v32.9h-22.85zM315.03 240.09h22.85v32.9h-22.85zM357.58 240.09h22.85v32.9h-22.85zM404.18 240.09h22.85v32.9h-22.85zM448.76 240.09h22.85v32.9h-22.85z"/><path fill="#fff" stroke="#fdb718" stroke-miterlimit="10" stroke-width="4" d="M25.89 284.3h686.22v206.64H25.89zM25.89 311.11h686.22M25.89 470.16h686.22M25.89 411.34h686.22"/><path fill="#fff" stroke="#fdb718" stroke-miterlimit="10" stroke-width="4" d="M166.22 261.17h405.56v229.77H166.22zM166.22 387.62h405.56M166.22 300.31h405.56"/><path d="M227.42 438.9v52.93h-36.9V438.9c0-15.21 8.26-27.55 18.45-27.55s18.45 12.34 18.45 27.55zM547.14 438v52.93h-36.9V438c0-15.21 8.26-27.55 18.45-27.55s18.45 12.35 18.45 27.55zM467.21 438v52.93h-36.9V438c0-15.21 8.26-27.55 18.45-27.55s18.45 12.35 18.45 27.55zM307.35 438v52.93h-36.9V438c0-15.21 8.26-27.55 18.45-27.55s18.45 12.35 18.45 27.55z" fill="#fdb718"/><path fill="#fff" stroke="#fdb718" stroke-miterlimit="10" stroke-width="4" d="M243.87 300.31h16.61v87.31h-16.61zM166.08 301.08h16.61v86.28h-16.61z"/><path fill="#fff" stroke="#fdb718" stroke-miterlimit="10" stroke-width="3.98" d="M555.03 301.08h16.61v86.53h-16.61z"/><path fill="#fff" stroke="#fdb718" stroke-miterlimit="10" stroke-width="4" d="M477.24 300.31h16.61v87.31h-16.61zM321.66 300.31h16.61v87.31h-16.61zM399.45 300.31h16.61v87.31h-16.61z"/><path d="M387.45 438v52.93h-36.9V438c0-15.21 8.26-27.55 18.45-27.55s18.45 12.35 18.45 27.55z" fill="#fdb718"/><path fill="#fff" stroke="#fdb718" stroke-miterlimit="10" stroke-width="4" d="M166.22 432.93h405.56M135.53 450.04h30.55v40.24h-30.55zM571.64 450.04h30.55v40.24h-30.55z"/><path fill="#fdb718" d="M40.95 424.62h15.42v32.9H40.95zM78.34 424.62h15.42v32.9H78.34zM115.74 424.62h15.42v32.9h-15.42zM602.19 424.62h15.42v32.9h-15.42zM639.58 424.62H655v32.9h-15.42zM676.97 424.62h15.42v32.9h-15.42zM275.32 317.66h29.57v54.15h-29.57zM354.22 317.66h29.57v54.15h-29.57zM433.35 317.66h29.57v54.15h-29.57zM512.37 316.89h29.57v54.15h-29.57zM196.31 316.89h29.57v54.15h-29.57zM680.06 332c-5.73 0-11.13 4.64-11.13 10.37V390h22.26v-47.67c0-5.73-5.4-10.33-11.13-10.33zM601.13 332c-5.73 0-11.13 4.6-11.13 10.33V390h22.26v-47.67c0-5.73-5.4-10.33-11.13-10.33zM640.59 332c-5.73 0-11.13 4.64-11.13 10.37V390h22.26v-47.67c0-5.73-5.4-10.33-11.13-10.33zM133.23 332c-5.73 0-11.13 4.64-11.13 10.37V390h22.26v-47.67c0-5.73-5.36-10.33-11.13-10.33zM54.3 332c-5.73 0-11.13 4.64-11.13 10.37V390h22.26v-47.67C65.43 336.6 60 332 54.3 332zM93.76 332c-5.73 0-11.13 4.64-11.13 10.37V390h22.26v-47.67c0-5.73-5.4-10.33-11.13-10.33z"/><circle cx="248.93" cy="411.41" r="8.22" fill="#fff" stroke="#fdb718" stroke-miterlimit="10" stroke-width="4"/><circle cx="329.96" cy="411.41" r="8.22" fill="#fff" stroke="#fdb718" stroke-miterlimit="10" stroke-width="4"/><circle cx="408.88" cy="411.41" r="8.22" fill="#fff" stroke="#fdb718" stroke-miterlimit="10" stroke-width="4"/><circle cx="488.73" cy="411.41" r="8.22" fill="#fff" stroke="#fdb718" stroke-miterlimit="10" stroke-width="4"/><path fill="#fff" stroke="#fdb718" stroke-miterlimit="10" stroke-width="4" d="M341.45 102.93h55.1v13.88h-55.1z"/></g></symbol><symbol viewBox="0 0 738 528.12" id="brighton"><title>brighton</title><path fill="#fff" stroke="#fdb718" stroke-miterlimit="10" stroke-width="4" d="M242.22 176.99h256.37v314.84H242.22zM255.08 348.83H482.7"/><path fill="#fff" stroke="#fdb718" stroke-miterlimit="10" stroke-width="4" d="M409.99 125.86h-79.3l-119.05 56.39h318.09l-119.74-56.39z"/><path fill="#fff" stroke="#fdb718" stroke-miterlimit="10" stroke-width="4" d="M482.7 141.82h74.93v350.01H482.7z"/><path fill="#fff" stroke="#fdb718" stroke-miterlimit="10" stroke-width="4" d="M520.17 147.14h-44.33l22.17-56.74 22.16-56.74 22.17 56.74 22.16 56.74h-44.33zM534.51 70.47h-28.67M256.86 225.86h226.06M251.84 171.64h231.08M255.08 284.38h227.84M482.92 209.91h74.5M482.92 158.84h74.5M482.92 272.67h74.5M314.12 284.38H423.9v207.45H314.12zM314.12 316.82h109.77M314.38 306.45h109.78M255.3 414.17h227.62M255.08 448.21h227.84M481.14 401.4h78.06M481.14 327.99h78.06M481.14 435.44h78.06"/><path fill="#fff" stroke="#fdb718" stroke-miterlimit="10" stroke-width="4" d="M314.74 458.85h18.99v32.98h-18.99zM403.4 458.85h18.99v32.98H403.4z"/><path d="M520.17 362.77a10.85 10.85 0 0 0-10.86 10.82v27.8H531V373.6a10.85 10.85 0 0 0-10.83-10.83zM452.52 377.67c-4.82 0-8.76 4.85-8.76 10.82v27.8h17.52v-27.8c0-5.98-3.94-10.82-8.76-10.82zM452.52 311.71c-4.82 0-8.76 4.85-8.76 10.82v27.8h17.52v-27.8c0-5.98-3.94-10.82-8.76-10.82zM452.52 246.22c-4.82 0-8.76 4.85-8.76 10.82v27.8h17.52V257c0-5.93-3.94-10.78-8.76-10.78zM285.23 246.22c-4.82 0-8.76 4.85-8.76 10.82v27.8H294V257c0-5.93-3.95-10.78-8.77-10.78zM285.23 376.44c-4.82 0-8.76 4.85-8.76 10.82v27.8H294v-27.8c0-5.97-3.95-10.82-8.77-10.82zM285.23 310.48c-4.82 0-8.76 4.85-8.76 10.82v27.8H294v-27.8c0-5.97-3.95-10.82-8.77-10.82zM369 246.22c-4.82 0-8.76 4.85-8.76 10.82v27.8h17.52V257c0-5.93-3.93-10.78-8.76-10.78zM520.17 289.53a10.85 10.85 0 0 0-10.86 10.82v27.8H531v-27.8a10.85 10.85 0 0 0-10.83-10.82zM520.17 233.64a10.85 10.85 0 0 0-10.86 10.82v27.8H531v-27.8a10.85 10.85 0 0 0-10.83-10.82zM368.77 391.47a21.7 21.7 0 0 0-21.71 21.65v55.6h43.42v-55.6a21.7 21.7 0 0 0-21.71-21.65z" fill="#fdb718"/><path fill="#fff" stroke="#fdb718" stroke-miterlimit="10" stroke-width="4" d="M333.11 468.72h71.8M333.11 480.12h71.8"/><path fill="#fdb718" d="M328.96 327.99h14.67v26.77h-14.67zM361.67 327.99h14.67v26.77h-14.67zM394.38 327.99h14.67v26.77h-14.67zM445.86 457.67h15.96v24.47h-15.96zM382.74 260.44h15.96v24.47h-15.96zM339.32 259.11h15.96v24.47h-15.96zM509.24 436.02h21.86v33.51h-21.86zM274.04 193.15h21.86v33.51h-21.86zM442.65 193.15h21.86v33.51h-21.86zM358.34 193.15h21.86v33.51h-21.86zM400.49 193.15h21.86v33.51h-21.86zM316.19 193.15h21.86v33.51h-21.86zM509.24 176.99h21.86v33.51h-21.86z"/><path fill="#fff" stroke="#fdb718" stroke-miterlimit="10" stroke-width="3.98" d="M180.36 144.61h74.93v347.21h-74.93z"/><path fill="#fff" stroke="#fdb718" stroke-miterlimit="10" stroke-width="4" d="M217.83 149.93H173.5l22.16-56.74 22.17-56.74 22.16 56.74 22.17 56.74h-44.33zM232.16 73.26h-28.67M180.58 212.7h74.5M180.58 161.63h74.5M180.58 275.46h74.5M178.8 404.19h78.06M178.8 330.79h78.06M178.8 438.23h78.06"/><path d="M217.83 365.57A10.85 10.85 0 0 0 207 376.39v27.8h21.71v-27.8a10.85 10.85 0 0 0-10.88-10.82zM217.83 292.32A10.85 10.85 0 0 0 207 303.15v27.8h21.71v-27.8a10.85 10.85 0 0 0-10.88-10.83zM217.83 236.43A10.85 10.85 0 0 0 207 247.26v27.8h21.71v-27.8a10.85 10.85 0 0 0-10.88-10.83zM206.9 438.81h21.86v33.51H206.9zM206.9 179.78h21.86v33.51H206.9zM277.25 457.67h15.96v24.47h-15.96z" fill="#fdb718"/><circle cx="390.62" cy="242.06" r="6.29" fill="#fff" stroke="#fdb718" stroke-miterlimit="10" stroke-width="4"/><circle cx="347.3" cy="242.06" r="6.29" fill="#fff" stroke="#fdb718" stroke-miterlimit="10" stroke-width="4"/><path fill="#fff" stroke="#fdb718" stroke-miterlimit="10" stroke-width="4" d="M333.34 377.67h10.53v10.53h-10.53zM393.67 377.67h10.53v10.53h-10.53zM387.65 104.38v53.56h-37.3v-53.56L369 87.04l18.65 17.34zM369 41.88v46.06"/><path d="M369 109.32c-4.82 0-8.76 4.85-8.76 10.82v27.8h17.52v-27.8c0-5.98-3.94-10.82-8.76-10.82z" fill="#fdb718"/><path fill="#fff" stroke="#fdb718" stroke-miterlimit="10" stroke-width="4" d="M355.68 64.91h26.17"/></symbol><symbol viewBox="0 0 738 528.12" id="charlestown"><title>charlestown</title><path fill="#fff" stroke="#fdb718" stroke-miterlimit="10" stroke-width="4" d="M182.41 123.5v368.33h-75.52V123.5l18.87-46.32 18.87-46.32 18.9 46.32 18.88 46.32z"/><path fill="#fdb718" d="M135.04 92.08h19.21v19.21h-19.21z"/><path fill="#fff" stroke="#fdb718" stroke-miterlimit="10" stroke-width="4" d="M206.46 317.86h423.85v173.96H206.46z"/><path fill="none" stroke="#fdb718" stroke-miterlimit="10" stroke-width="4" d="M394.46 362.08h54.18"/><path fill="#fdb718" d="M394.46 375.87h48.89v80.74h-48.89z"/><path fill="#fff" stroke="#fdb718" stroke-miterlimit="10" stroke-width="4" d="M514.91 307.83v1.4H323.65l-.19-1.84 39.03-17.98 57.71-26.58 57.72 26.58 36.1 17.98.89.44zM323.46 456.6h191.45v11.53H323.46zM312.73 468.14h212.91v11.53H312.73z"/><path fill="#fff" stroke="#fdb718" stroke-miterlimit="10" stroke-width="4" d="M296.68 479.65h245v11.53h-245z"/><path fill="#fff" stroke="#fdb718" stroke-miterlimit="10" stroke-width="3.98" d="M513.41 337.17H323.46l.19-27.94h191.26v27.94h-1.5z"/><path fill="#fff" stroke="#fdb718" stroke-miterlimit="10" stroke-width="4" d="M327.23 350.59h10.57V456.1h-10.57z"/><path fill="#fff" stroke="#fdb718" stroke-miterlimit="10" stroke-width="4" d="M323.46 442.93h18.11v13.42h-18.11zM323.46 337.17h18.11v13.42h-18.11zM386.14 350.84h10.57v105.51h-10.57z"/><path fill="#fff" stroke="#fdb718" stroke-miterlimit="10" stroke-width="4" d="M382.37 443.18h18.11v13.42h-18.11zM382.37 337.42h18.11v13.42h-18.11zM443.35 350.84h10.57v105.51h-10.57z"/><path fill="#fff" stroke="#fdb718" stroke-miterlimit="10" stroke-width="4" d="M439.58 443.18h18.11v13.42h-18.11zM439.58 337.42h18.11v13.42h-18.11zM500.56 350.59h10.57V456.1h-10.57z"/><path fill="#fff" stroke="#fdb718" stroke-miterlimit="10" stroke-width="4" d="M496.8 442.93h18.11v13.42H496.8zM496.8 337.17h18.11v13.42H496.8z"/><path fill="none" stroke="#fdb718" stroke-miterlimit="10" stroke-width="4" d="M631.11 344.13h-116.2M631.11 329.68h-116.2M325.15 344.13H207.26M325.15 329.68H207.26"/><path fill="#fdb718" d="M560.8 376.19h21.98v40.37H560.8zM254 376.19h21.98v40.37H254z"/><path fill="none" stroke="#fdb718" stroke-miterlimit="10" stroke-width="4" d="M207.26 456.11h423.85M247.59 367.68h35.14v57.39h-35.14zM554.22 367.68h35.14v57.39h-35.14zM144.65 168.95h20.17M124.47 247.95h20.18M145.69 337.42h20.17M124.47 429.95h20.18"/></symbol><symbol viewBox="0 0 738 528.12" id="chinatown"><title>chinatown</title><g stroke="#fdb718" stroke-miterlimit="10" stroke-width="4"><path fill="#fff" d="M273.26 161.87v76.35l-65.46-2.97-80-15.36-6.11-14.29 3.52-11.6 38.75 6.72 9.26 1.63v-13.59L217 161.38l56.26.49zM178.12 86.64l5.52 9.77 89.79 18.41V42.38L230.9 70.92l-1.24 12.42-48.01-8.32-3.53 11.62zM463.06 42.9v59.15l-.01 13.29 91.63-14.66 3.68-13.53-3.53-11.62-38.8 6.1-2.53-22.38-8.94 1.43 1.03 10.76-42.53-28.54zM464.74 160.48v76.35l65.46-2.97 80-15.35 6.12-14.3-3.53-11.6-38.75 6.72-9.26 1.63v-13.59L521 159.99l-56.26.49z"/><path fill="none" d="M616.32 204.24l-88.68 15.94h-6.63l-57.09.85M565.4 199.81l-24.15-13.5-20.24-12.57-56.26.05"/><path fill="#fff" d="M565.8 172.68v27.1l15.08-1.62v-25.48H565.8zM171.41 173.93v27.1l-15.08-1.62v-25.48h15.08zM273.12 115.72h190.77v123.94H273.12z"/><path fill="none" d="M121.68 205.63l88.68 15.94h6.63l57.09.85M172.6 201.2l24.15-13.5 20.24-12.57 56.26.05"/><rect x="203.14" y="234.32" width="24.51" height="257.31" rx=".94" ry=".94" fill="#fff"/><path d="M534.52 237.11v251.72c0 1.54-1.56 2.79-3.46 2.79h-17.6c-1.9 0-3.46-1.26-3.46-2.79V237.11c0-1.54 1.56-2.79 3.46-2.79h17.59c1.95 0 3.47 1.26 3.47 2.79z" fill="#fff"/><path fill="none" d="M269.94 56.24l-40.28 27.1"/><path fill="#fff" d="M216.89 80.83l12.57 1.92 2.34-22.41-12.57-1.92-2.34 22.41zM228.45 280.12v47h1.24c20 0 36.23-21 36.71-47zM272.88 36.83h189.83v95.76H272.88zM220.74 234.32h298.21v45.8H220.74zM510 280.12v47h-1.24c-20 0-36.23-21-36.71-47zM292.33 152.41h153.43v57.16H292.33z"/><path fill="#fff" d="M436.85 29.83h26.2v25.65h-26.2zM273.23 29.83h26.21v25.65h-26.21z"/><path fill="none" d="M506.82 83.86l-23.53-14.63-20.23-12.58"/><path fill="#fff" d="M521.34 80.91l-13.5 2.05-2.29-22.41 13.5-2.05 2.29 22.41z"/><path fill="none" d="M463.05 56.66v58.68H273.27V56.66h26.17V36.29h137.41v20.37h26.2z"/><path fill="none" d="M558.36 87.15l-88.67 15.95H272.11"/><path fill="#fff" d="M299.43 47.07h137.42"/><path fill="none" d="M269.16 56.65h195.58M261.7 102.5V61.77M259.77 221.3v-45.82M239.44 221.91v-45.93M216.89 221.57v-45.59M194.15 218.96v-29.8M477.19 173.78v45.85M497.52 175.48v42.98M520.07 175.48v42.98M542.81 188.66v29.81M474.4 102.66V63.71M491.03 99.26V74.04M246.25 99.09V71.35M284.33 56.65v46.45M305.2 55.9v46.44M326.06 55.9v46.44M346.93 54.69v46.45M367.79 55.9v46.44M388.66 56.65v46.45M409.52 57.79v46.44M430.38 55.9v46.44M451.25 55.38v46.45M178.12 86.64l88.68 15.94 10.18.52M303.88 180.99h129.25M156.67 491.83h424.66"/></g></symbol><symbol viewBox="0 0 738 528.12" id="dorchester"><title>dorchester</title><path fill="#fff" stroke="#fdb717" stroke-miterlimit="10" stroke-width="4" d="M242.3 165.47h257.31v326.35H242.3z"/><path fill="#fdb718" d="M423.84 196.82h40.8v41.07h-40.8zM423.84 292.69h40.8v41.07h-40.8zM423.84 392.46h40.8v41.07h-40.8z"/><path fill="#fff" stroke="#fdb717" stroke-miterlimit="10" stroke-width="4" d="M295.88 327.36h82.93v59.03h-82.93zM295.88 225.33h82.93v59.03h-82.93zM295.88 431.31h82.93v59.03h-82.93zM313.2 430.68v38.5M332.45 430.68v38.5M351.7 430.68v38.5M295.88 367.15h92.4M295.88 267.05h92.4M313.2 226.62v38.5M332.45 226.62v38.5M351.7 226.62v38.5M313.2 326.72v38.51M332.45 326.72v38.51M351.7 326.72v38.51"/><path fill="#fff" stroke="#fdb717" stroke-miterlimit="10" stroke-width="4" d="M242.3 471.1h257.31v20.72H242.3zM505.65 164.78h-273.3l-4.02-21.06h281.34l-4.02 21.06zM274.27 165.17h114.95v19.82H274.27z"/><path fill="#fff" stroke="#fdb717" stroke-miterlimit="10" stroke-width="4" d="M274.98 470.72h114.95v19.82H274.98z"/><path fill="#fff" stroke="#fdb717" stroke-miterlimit="10" stroke-width="4" d="M274.27 166.36h21.6v322.89h-21.6zM368.39 166.36h20.83v322.89h-20.83z"/></symbol><symbol viewBox="0 0 738 528.12" id="downtown"><title>downtown</title><path fill="#fff" stroke="#fdb718" stroke-miterlimit="10" stroke-width="4" d="M522.4 216.07v5.53h-1.53v-2.38h-302.3v2.38h-2.97v-4.67l154.42-85.37 152.38 84.51z"/><path fill="#fff" stroke="#fdb718" stroke-miterlimit="10" stroke-width="4" d="M215.6 219.22h306.8v2.38H215.6zM342.78 146.62l26.32-13.9 27.05 13.24-.27-31.57h7.38V98.22h-8.52v-1.13H342.6v1.13h-7.86v16.17h7.88l.16 32.23zM393.67 48.19v7.29h-2.75v41.61h-43.84V55.48h-2.75v-7.29h49.34z"/><path fill="#fdb718" d="M364.49 56.8h8.87v34.95h-8.87zM377.96 56.8h8.67v34.95h-8.67zM351.38 56.8h8.39v34.95h-8.39z"/><path d="M369 25.72c-11.45 0-20.73 9.56-20.73 22.47h41.46c0-12.92-9.28-22.47-20.73-22.47zM215.6 219.22h306.8v91.34H215.6zM215.6 310.56h306.8v88.96H215.6zM215.61 399.52h306.78v91.21H215.61z" fill="#fff" stroke="#fdb718" stroke-miterlimit="10" stroke-width="4"/><path d="M497.91 255v31.18h-26.12V255a13.06 13.06 0 1 1 26.13 0zM440 255v31.18h-26.14V255a13.06 13.06 0 1 1 26.14 0zM382.06 255v31.18h-26.12V255a13.06 13.06 0 1 1 26.13 0zM324.14 255v31.18H298V255a13.06 13.06 0 1 1 26.13 0zM266.21 255v31.18h-26.12V255a13.06 13.06 0 1 1 26.13 0zM497.91 348.91v31.19h-26.12v-31.19a13.06 13.06 0 1 1 26.13 0zM440 348.91v31.19h-26.14v-31.19a13.06 13.06 0 1 1 26.13 0zM382.06 348.91v31.19h-26.12v-31.19a13.06 13.06 0 1 1 26.13 0zM324.14 348.91v31.19H298v-31.19a13.06 13.06 0 1 1 26.13 0zM266.21 348.91v31.19h-26.12v-31.19a13.06 13.06 0 1 1 26.13 0zM497.91 442.8V474h-26.12v-31.2a13.06 13.06 0 1 1 26.13 0zM440 442.8V474h-26.14v-31.2a13.06 13.06 0 1 1 26.13 0zM382.06 442.8V474h-26.12v-31.2a13.06 13.06 0 1 1 26.13 0zM324.14 442.8V474H298v-31.2a13.06 13.06 0 1 1 26.13 0zM266.21 442.8V474h-26.12v-31.2a13.06 13.06 0 1 1 26.13 0z" fill="#fdb718"/><path d="M301.5 218.6a70 70 0 0 1 135 0M339.5 217.94a30.6 30.6 0 0 1 59 0" fill="none" stroke="#fdb718" stroke-miterlimit="10" stroke-width="4"/><circle cx="275.67" cy="202.33" r="7.7" fill="none" stroke="#fdb718" stroke-miterlimit="10" stroke-width="4"/><circle cx="461.82" cy="202.33" r="7.7" fill="none" stroke="#fdb718" stroke-miterlimit="10" stroke-width="4"/><path fill="none" stroke="#fdb718" stroke-miterlimit="10" stroke-width="4" d="M522.4 297.97H215.6M215.61 412.11h306.78M522.21 230.7H215.79M283.38 399.52v-88.96M283.38 490.73v-78.62M283.38 297.97V230.7M340.29 399.52v-88.96M340.29 412.11v79.72M340.29 297.97v-66.18M397.2 399.52v-88.96M397.2 412.11v79.72M397.2 297.97v-66.18M454.12 399.52v-88.96M454.12 412.11v79.72M454.12 297.97v-66.18"/></symbol><symbol viewBox="0 0 738 528.12" id="east_boston"><title>east boston</title><g data-name="east boston"><path fill="#fff" stroke="#fdb718" stroke-miterlimit="10" stroke-width="4" d="M249.79 310.23l23.17 33.5h191.36l23.16-33.5M481.07 123.42v39.62H256.2v-39.62l41.97-47.94h140.94l40.36 46.1 1.6 1.84z"/><path d="M257.26 162.67v.33H292v21.59h-19.73v-21.21h-15v140.34h15v-23.09H292v23.09h22.18v-23.09h22.19v23.09h22.23v-23.09h22.18v23.09H403v-23.09h22.18v23.09h22.19v-23.09h16.57v23.09h18.22v-141zm167.89.36v21.59H403V163zm38.76 61.29h-16.58v-23.1h16.57zm-149.68-23.1h22.19v23.1h-22.19zm44.38 0h22.18v23.1H358.6zm44.37 0h22.18v23.1H403zM380.78 163v21.59H358.6V163zm-66.55 0h22.19v21.59h-22.19zm-42 38.2H292v23.1h-19.73zm0 62.79v-23.06H292V264zm42 0v-23.06h22.19V264zm44.38 0v-23.06h22.18V264zM403 264v-23.07h22.18V264zm44.37 0v-23.07h16.57V264zm33.19-100.64h-16.65v21.25h-16.58V163h33.19z" fill="#fff" stroke="#fdb718" stroke-miterlimit="10" stroke-width="4"/><path fill="#fdb718" d="M272.27 280.63h19.78v23.09h-19.78zM314.23 280.63h22.19v23.09h-22.19zM358.6 280.63h22.18v23.09H358.6zM402.97 280.63h22.18v23.09h-22.18zM447.33 280.63h16.57v23.09h-16.57zM447.33 240.93h16.57v23.09h-16.57zM402.97 240.93h22.18v23.09h-22.18zM358.6 240.93h22.18v23.09H358.6zM314.23 240.93h22.19v23.09h-22.19zM272.27 240.93h19.78v23.09h-19.78zM272.27 201.23h19.78v23.1h-19.78zM314.23 201.23h22.19v23.1h-22.19zM358.6 201.23h22.18v23.1H358.6zM402.97 201.23h22.18v23.1h-22.18zM447.33 201.23h16.57v23.1h-16.57zM480.52 163.04v.34h-16.61v21.25h-16.58v-21.59h33.19z"/><path fill="#fff" stroke="#fdb718" stroke-miterlimit="10" stroke-width="4" d="M255.65 163.38h16.61v151.4h-16.61zM463.91 163.38h16.61v60.95h-16.61zM463.91 240.93h16.61v23.09h-16.61zM463.91 280.63h16.61v23.09h-16.61z"/><path fill="#fff" stroke="#fdb718" stroke-miterlimit="10" stroke-width="4" d="M185.23 120.6h72.25v371.23h-72.25zM480.52 120.6h72.25v371.23h-72.25z"/><path fill="#fff" stroke="#fdb718" stroke-miterlimit="10" stroke-width="4" d="M228.53 184.63h282.33v16.6H228.53zM228.53 224.33h282.33v16.6H228.53zM228.53 264.02h282.33v16.61H228.53z"/><path fill="none" stroke="#fdb718" stroke-miterlimit="10" stroke-width="4" d="M292.05 162.54v.5M314.23 162.54v.5M336.42 162.54v.5M358.6 162.54v.5M380.78 162.54v.5M402.97 162.54v.5M425.15 162.54v.5M447.33 162.54v.5"/><path fill="#fdb718" d="M292.05 163.04v21.59h-19.79v-21.25h-15v-.34h34.79zM314.23 163.04h22.19v21.59h-22.19zM358.6 163.04h22.18v21.59H358.6zM402.97 163.04h22.18v21.59h-22.18z"/><path fill="none" stroke="#fdb718" stroke-miterlimit="10" stroke-width="4" d="M255.46 151.87H480.96"/><path fill="#fff" stroke="#fdb718" stroke-miterlimit="10" stroke-width="4" d="M422.62 51.16l-.19.54-8.37 23.13h-88.58l-8.52-23.13-.2-.54.2-.54 8.37-23.13h88.57l8.52 23.13.2.54z"/><path fill="none" stroke="#fdb718" stroke-miterlimit="10" stroke-width="4" d="M316.96 50.62h105.47M369.69 27.49v47.33M396.75 27.49l4.57 23.13M396.75 74.8l4.57-23.13M342.63 27.5l-4.56 23.13M342.63 74.81l-4.56-23.12"/><path fill="#fff" stroke="#fdb718" stroke-miterlimit="10" stroke-width="4" d="M228.53 303.72h282.33v16.61H228.53z"/><path fill="#fdb718" d="M525.31 131.98h6.06v24.24h-6.06zM537.43 131.98h6.06v24.24h-6.06zM197.09 131.98h6.06v24.24h-6.06zM209.21 131.98h6.06v24.24h-6.06z"/><path fill="none" stroke="#fdb718" stroke-miterlimit="10" stroke-width="4" d="M482.13 173.83h70.64M481.32 213.68h70.65M481.32 253.52h70.65M481.32 293.36h70.65M482.13 333.2h70.64M481.32 373.04h70.65M482.13 412.89h70.64M481.32 452.73h70.65M186.44 173.83h70.64M185.63 213.68h70.65M185.63 253.52h70.65M185.63 293.36h70.65M186.44 333.2h70.64M185.63 373.04h70.65M186.44 412.89h70.64M185.63 452.73h70.65"/></g></symbol><symbol viewBox="0 0 738 528.12" id="fenway-kenmore"><title>fenway-kenmore</title><g data-name="fenway/kenmore"><path fill="#fff" stroke="#fdb718" stroke-miterlimit="10" stroke-width="4" d="M229.35 171.84h279.3v319.99h-279.3z"/><rect x="320.6" y="29.33" width="96.8" height="96.8" rx="2.89" ry="2.89" fill="#fff" stroke="#fdb718" stroke-miterlimit="10" stroke-width="4"/><path d="M334.6 101.26l31.68-54.87a3.14 3.14 0 0 1 5.44 0l31.68 54.87a3.14 3.14 0 0 1-2.72 4.71h-63.36a3.14 3.14 0 0 1-2.72-4.71z" fill="#fff" stroke="#fdb718" stroke-miterlimit="10" stroke-width="4"/><path fill="none" stroke="#fdb718" stroke-miterlimit="10" stroke-width="4" d="M334.84 126.13v45.18M404.49 126.13v45.18M334.18 148.72h69.64M369.66 126.13v45.18M334.18 126.13l69.64 45.18M403.82 126.13l-69.64 45.18"/><path fill="#fdb718" d="M458.44 199.42h29.95v45.16h-29.95z"/><path fill="#fff" stroke="#fdb718" stroke-miterlimit="10" stroke-width="4" d="M455.53 190.32h35.77v9.1h-35.77zM455.53 245.34h35.77v9.1h-35.77z"/><path fill="#fdb718" d="M245.58 199.42h29.95v45.16h-29.95z"/><path fill="#fff" stroke="#fdb718" stroke-miterlimit="10" stroke-width="4" d="M242.67 190.32h35.77v9.1h-35.77zM242.67 245.34h35.77v9.1h-35.77zM312.62 190.72h108.72v9.06H312.62zM312.62 244.98h108.72v9.06H312.62z"/><path fill="#fdb718" d="M317.77 200.57h29.95v45.16h-29.95zM351.98 200.57h29.95v45.16h-29.95zM386.2 200.57h29.95v45.16H386.2zM457.85 285.81h29.95v45.16h-29.95z"/><path fill="#fff" stroke="#fdb718" stroke-miterlimit="10" stroke-width="4" d="M454.94 276.72h35.77v9.1h-35.77zM454.94 331.73h35.77v9.1h-35.77z"/><path fill="#fdb718" d="M244.99 285.81h29.95v45.16h-29.95z"/><path fill="#fff" stroke="#fdb718" stroke-miterlimit="10" stroke-width="4" d="M242.08 276.72h35.77v9.1h-35.77zM242.08 331.73h35.77v9.1h-35.77zM312.03 277.11h108.72v9.06H312.03zM312.03 331.37h108.72v9.06H312.03z"/><path fill="#fdb718" d="M317.18 286.97h29.95v45.16h-29.95zM351.39 286.97h29.95v45.16h-29.95zM385.61 286.97h29.95v45.16h-29.95zM459.86 367.74h29.95v45.16h-29.95z"/><path fill="#fff" stroke="#fdb718" stroke-miterlimit="10" stroke-width="4" d="M456.95 358.65h35.77v9.1h-35.77zM456.95 413.66h35.77v9.1h-35.77z"/><path fill="#fdb718" d="M247 367.74h29.95v45.16H247z"/><path fill="#fff" stroke="#fdb718" stroke-miterlimit="10" stroke-width="4" d="M244.09 358.65h35.77v9.1h-35.77zM244.09 413.66h35.77v9.1h-35.77zM314.05 359.04h108.72v9.06H314.05zM314.05 413.3h108.72v9.06H314.05z"/><path fill="#fdb718" d="M319.19 368.9h29.95v45.16h-29.95zM353.41 368.9h29.95v45.16h-29.95zM387.63 368.9h29.95v45.16h-29.95z"/><path fill="#fff" stroke="#fdb718" stroke-miterlimit="10" stroke-width="4" d="M245.58 440.58h37.3v50.97h-37.3zM454.17 440.58h37.3v50.97h-37.3zM316.19 440.58h107.17v50.97H316.19z"/></g></symbol><symbol viewBox="0 0 738 528.12" id="hyde_park"><title>hyde park</title><g data-name="hyde park"><path fill="#fff" stroke="#fdb718" stroke-miterlimit="10" stroke-width="4" d="M552.11 116.11v375.72H185.89V116.12l29.43-53.93h307.37l29.42 53.92z"/><path fill="#fff" stroke="#fdb718" stroke-miterlimit="10" stroke-width="4" d="M215.32 267.36l-59.21 44.79h425.78l-59.21-44.79H215.32z"/><path fill="#fdb718" d="M225.68 192.01h32.94v58.13h-32.94zM321.14 192.01h32.94v58.13h-32.94zM383.93 192.01h32.94v58.13h-32.94zM478.31 192.01h32.94v58.13h-32.94zM225.68 310.22h32.94v58.13h-32.94zM321.14 310.85h41.72v112.67h-41.72zM375.15 310.85h41.72v112.67h-41.72zM478.31 310.22h32.94v58.13h-32.94z"/><path fill="none" stroke="#fdb718" stroke-miterlimit="10" stroke-width="4" d="M369 409v82.83M305.55 423.53h126.92v13.48H305.55zM305.55 437.23h126.92v13.48H305.55zM305.55 450.94h126.92v13.48H305.55zM305.55 464.64h126.92v13.48H305.55zM305.55 478.34h126.92v13.48H305.55zM432.62 423.53h118.95v68.29H432.62z"/><path fill="none" stroke="#fdb718" stroke-miterlimit="10" stroke-width="4" d="M186.84 423.53h118.95v68.29H186.84zM432.62 423.53v-43.57h118.96M445.22 379.96v43.57M460.72 379.96v43.57M476.22 379.96v43.57M491.72 379.96v43.57M507.22 379.96v43.57M522.73 379.96v43.57M538.23 379.96v43.57M305.5 423.53v-43.57H186.55M292.91 379.96v43.57M277.41 379.96v43.57M261.91 379.96v43.57M246.4 379.96v43.57M230.9 379.96v43.57M215.4 379.96v43.57M199.9 379.96v43.57M538.23 310.22v74.59M199.9 312.15v74.6"/><path fill="#fff" stroke="#fdb718" stroke-miterlimit="10" stroke-width="4" d="M581.89 170.7H156.11l29.78-54.58 29.43-53.93h307.37l29.42 53.92 29.78 54.59z"/><path fill="#fff" stroke="#fdb718" stroke-miterlimit="10" stroke-width="4" d="M240.7 28.5h24.61v68.56H240.7zM472.69 27.91h24.61v68.56h-24.61z"/></g></symbol><symbol viewBox="0 0 738 528.12" id="jamaica_plain"><title>jamaica plain</title><g data-name="jamaica plain"><path fill="#fff" stroke="#fdb718" stroke-miterlimit="10" stroke-width="4" d="M115.01 267h507.98v181.16H115.01z"/><path fill="none" stroke="#fdb718" stroke-miterlimit="10" stroke-width="4" d="M113.39 317.51h509.6"/><path fill="#fff" stroke="#fdb718" stroke-miterlimit="10" stroke-width="4" d="M96.44 280.92h545.11v10.41H96.44zM531.74 352.74h66.11v96.09h-66.11zM142.06 352.74h66.11v96.09h-66.11z"/><path fill="#fff" stroke="#fdb718" stroke-miterlimit="10" stroke-width="4" d="M229.04 113.01h279.23v335.82H229.04z"/><path fill="#fff" stroke="#fdb718" stroke-miterlimit="10" stroke-width="4" d="M335.6 368.02h66.11v80.81H335.6z"/><path fill="none" stroke="#fdb718" stroke-miterlimit="10" stroke-width="4" d="M229.04 149.99h279.22M229.04 168.71h279.22M265.37 448.83V169.15M470.77 448.83V169.15"/><path fill="#fff" stroke="#fdb718" stroke-miterlimit="10" stroke-width="4" d="M526.49 109.95v2.44H211.12l-.31-3.22 64.37-31.52 95.15-46.6 95.17 46.6 59.52 31.52 1.47.78z"/><path fill="none" stroke="#fdb718" stroke-miterlimit="10" stroke-width="4" d="M233.73 113.01l134.92-64.34M502.68 112.39L367.76 48.06M229.04 129.57h279.22"/><path fill="#fff" stroke="#fdb718" stroke-miterlimit="10" stroke-width="4" d="M433.67 179.89h28.17v255.05h-28.17z"/><path fill="#fff" stroke="#fdb718" stroke-miterlimit="10" stroke-width="4" d="M423.8 168.71h47.9v24.28h-47.9zM426.32 423.87h42.87v24.28h-42.87zM275.24 180.44h28.17v255.05h-28.17z"/><path fill="#fff" stroke="#fdb718" stroke-miterlimit="10" stroke-width="4" d="M265.37 169.27h47.9v24.28h-47.9zM267.89 424.43h42.87v24.28h-42.87zM401.74 368h-66.18c2.93-17.4 16.63-30.56 33.08-30.56s30.17 13.18 33.1 30.56z"/><path fill="#fdb718" d="M343.91 377.98h49.47v70.84h-49.47z"/><path d="M391.14 368h-45c2-12 11.31-21 22.48-21s20.53 9.07 22.52 21zM331.65 192.99h74.01V267h-74.01z" fill="#fff" stroke="#fdb718" stroke-miterlimit="10" stroke-width="4"/><circle cx="368.65" cy="230.9" r="27.4" fill="#fff" stroke="#fdb718" stroke-miterlimit="10" stroke-width="4"/><path fill="none" stroke="#fdb718" stroke-miterlimit="10" stroke-width="4" d="M311.85 291.33h113.6M311.85 317.51h113.6M311.85 304.42h113.6"/><path fill="#fdb718" d="M540.06 376.48h49.47v70.84h-49.47zM150.38 376.48h49.47v70.84h-49.47z"/><path fill="#fff" stroke="#fdb718" stroke-miterlimit="10" stroke-width="4" d="M115.01 448.83h507.98v13.88H115.01zM97.51 463.39h542.98v13.88H97.51zM83.13 477.94h571.74v13.88H83.13z"/><path fill="none" stroke="#fdb718" stroke-miterlimit="10" stroke-width="4" d="M323.3 424.43v67.4M413.27 422.07v67.4"/></g></symbol><symbol viewBox="0 0 738 528.12" id="mattapan"><title>mattapan</title><path fill="#fff" stroke="#fdb718" stroke-miterlimit="10" stroke-width="4" d="M153.42 59.17h431.16v432.65H153.42z"/><path fill="#fdb718" d="M328.11 248.4h81.77v159.05h-81.77z"/><path fill="#fff" stroke="#fdb718" stroke-miterlimit="10" stroke-width="4" d="M451.1 85.34h149.37V59.17H137.53v26.17h150.36"/><path fill="#fff" stroke="#fdb718" stroke-miterlimit="10" stroke-width="4" d="M255.35 31.32h227.3v27.86h-227.3z"/><path fill="#fff" stroke="#fdb718" stroke-miterlimit="10" stroke-width="4" d="M269.52 59.17h17.24v348.27h-17.24zM451.46 59.17h17.74v348.27h-17.74z"/><path fill="none" stroke="#fdb718" stroke-miterlimit="10" stroke-width="4" d="M286.9 148.56h164.2M306.41 148.56v59.59M327.28 148.56v59.59M348.14 148.56v59.59M369 148.56v59.59M389.86 148.56v59.59M410.72 148.56v59.59M431.59 148.56v59.59"/><path fill="#fff" stroke="#fdb718" stroke-miterlimit="10" stroke-width="4" d="M255.35 208.15h227.3v21.42h-227.3z"/><path fill="none" stroke="#fdb718" stroke-miterlimit="10" stroke-width="4" d="M153.16 407.45h431.16M286.76 355.68h32.06v51.76h-32.06zM418.83 355.68h32.06v51.76h-32.06z"/><path fill="#fff" stroke="#fdb718" stroke-miterlimit="10" stroke-width="4" d="M318.81 355.68h20.86v136.14h-20.86zM400.59 355.68h20.86v136.14h-20.86z"/><path fill="none" stroke="#fdb718" stroke-miterlimit="10" stroke-width="4" d="M339.68 423.75h60.91M339.68 441.31h60.91M339.68 458.86h60.91M339.68 476.41h60.91"/><path fill="#fdb718" d="M180.36 269.26h60.49v105.8h-60.49zM495.59 260.32h60.49v105.8h-60.49zM495.59 118.32h60.49v60.49h-60.49zM179.74 118.32h60.49v60.49h-60.49zM314.8 85.34h107.89v42.91H314.8z"/><path fill="none" stroke="#fff" stroke-miterlimit="10" stroke-width="4" d="M179.74 327.92h60.49M495.59 327.92h60.49"/><path fill="#fdb718" d="M183.59 430.19h54.03v28.67h-54.03zM498.82 430.19h54.03v28.67h-54.03z"/></symbol><symbol viewBox="0 0 738 528.12" id="mission_hill"><title>mission hill</title><g data-name="mission hill"><path fill="#fff" stroke="#fdb718" stroke-miterlimit="10" stroke-width="3.98" d="M236.2 225.96h264.64v262.42H236.2z"/><path d="M287.6 387.63h-38.66c1.71-10 9.72-17.65 19.32-17.65s17.63 7.6 19.34 17.65zM398.25 387.2h-56.88c2.52-14.62 14.3-25.69 28.43-25.69s25.93 11.07 28.45 25.69z" fill="#fff" stroke="#fdb718" stroke-miterlimit="10" stroke-width="4"/><path d="M289.86 396.14v73.77h-43.18v-73.77a67.16 67.16 0 0 1 .37-7.13h42.43a67.16 67.16 0 0 1 .38 7.13z" fill="#fdb718"/><path fill="#fff" stroke="#fdb718" stroke-miterlimit="10" stroke-width="4" d="M378.4 133.1v3.52h-8.85v14.78h-3.54v-14.78h-8.86v-3.52h8.86v-7.55h3.54v7.55h8.85zM239.65 335.42h259.84"/><path fill="#fff" stroke="#fdb718" stroke-miterlimit="10" stroke-width="4" d="M368.78 150.96l-131.96 75h264.35l-132.39-75z"/><ellipse cx="283.5" cy="250.87" rx="5.51" ry="5.48" fill="#fff" stroke="#fdb718" stroke-miterlimit="10" stroke-width="4"/><ellipse cx="459.66" cy="250.87" rx="5.51" ry="5.48" fill="#fff" stroke="#fdb718" stroke-miterlimit="10" stroke-width="4"/><path fill="#fff" stroke="#fdb718" stroke-miterlimit="10" stroke-width="4" d="M238.51 236.71h260.98"/><path fill="none" stroke="#fdb718" stroke-miterlimit="10" stroke-width="4" d="M479.5 225.26l-110.72-61.45-108.96 61.45"/><path d="M353.82 206.21v17.63h-12.65v-17.63c0-7 2.83-12.68 6.32-12.68s6.33 5.68 6.33 12.68zM375.1 195.94v27.9h-12.65v-27.9c0-7 2.83-12.68 6.32-12.68s6.33 5.68 6.33 12.68zM396.39 206.21v17.63h-12.65v-17.63c0-7 2.83-12.68 6.32-12.68s6.33 5.68 6.33 12.68z" fill="#fdb718"/><path fill="#fff" stroke="#fdb718" stroke-miterlimit="10" stroke-width="4" d="M236.82 470.59h259.43M236.82 479.68h264.35M236.82 488.76h264.35"/><path fill="none" stroke="#fdb718" stroke-miterlimit="10" stroke-width="4" d="M238.51 361.51h104.67-1.3l29.16-17.32 29.15 17.32h-1.37 99.46"/><path fill="#fdb718" d="M333.59 388.66h71v81.44h-71z"/><path fill="#fff" stroke="#fdb718" stroke-miterlimit="10" stroke-width="4" d="M314.81 461.84v28.99M424.16 461.14v28.98M237.16 266.84h263.68M237.16 283.09h263.68M300.39 284.09v53.33M281.6 284.09v53.33M454.02 284.99v52.43M435.06 284.99v52.43"/><ellipse cx="369.47" cy="286.74" rx="43.42" ry="42.84" fill="#fff" stroke="#fdb718" stroke-miterlimit="10" stroke-width="4"/><ellipse cx="369.47" cy="286.74" rx="37.26" ry="36.76" fill="#fff" stroke="#fdb718" stroke-miterlimit="10" stroke-width="4"/><ellipse cx="369.65" cy="313.39" rx="5.55" ry="5.48" fill="#fff" stroke="#fdb718" stroke-miterlimit="10" stroke-width="4"/><ellipse cx="396.15" cy="286.5" rx="5.55" ry="5.48" fill="#fff" stroke="#fdb718" stroke-miterlimit="10" stroke-width="4"/><ellipse cx="342.79" cy="286.5" rx="5.55" ry="5.48" fill="#fff" stroke="#fdb718" stroke-miterlimit="10" stroke-width="4"/><ellipse cx="350.21" cy="268.87" rx="5.55" ry="5.48" fill="#fff" stroke="#fdb718" stroke-miterlimit="10" stroke-width="4"/><ellipse cx="389.09" cy="268.87" rx="5.55" ry="5.48" fill="#fff" stroke="#fdb718" stroke-miterlimit="10" stroke-width="4"/><ellipse cx="389.09" cy="305.09" rx="5.55" ry="5.48" fill="#fff" stroke="#fdb718" stroke-miterlimit="10" stroke-width="4"/><ellipse cx="350.21" cy="305.09" rx="5.55" ry="5.48" fill="#fff" stroke="#fdb718" stroke-miterlimit="10" stroke-width="4"/><ellipse cx="369.65" cy="260.1" rx="5.55" ry="5.48" fill="#fff" stroke="#fdb718" stroke-miterlimit="10" stroke-width="4"/><ellipse cx="369.64" cy="286.5" rx="15.87" ry="15.66" fill="#fff" stroke="#fdb718" stroke-miterlimit="10" stroke-width="4"/><rect x="364.42" y="271.32" width="10.43" height="30.36" rx="4.24" ry="4.24" fill="#fff" stroke="#fdb718" stroke-miterlimit="10" stroke-width="4"/><rect x="364.49" y="271.11" width="10.29" height="30.77" rx="4.24" ry="4.24" transform="rotate(90 369.635 286.495)" fill="#fff" stroke="#fdb718" stroke-miterlimit="10" stroke-width="4"/><path d="M378.57 286.5a4.37 4.37 0 0 1-4.4 4.34H374a4.4 4.4 0 0 1-8.8 0h-.13a4.34 4.34 0 1 1 0-8.68h.13a4.4 4.4 0 0 1 8.8 0h.13a4.37 4.37 0 0 1 4.44 4.34zM239.22 401.02h12.69v68.01h-12.69zM236.2 388.82h18.71v12.2H236.2z" fill="#fff" stroke="#fdb718" stroke-miterlimit="10" stroke-width="4"/><path fill="#fff" stroke="#fdb718" stroke-miterlimit="10" stroke-width="4" d="M236.2 456.04h18.71v12.2H236.2zM284.64 401.56h12.69v68.01h-12.69zM281.63 389.35h18.71v12.2h-18.71z"/><path fill="#fff" stroke="#fdb718" stroke-miterlimit="10" stroke-width="4" d="M281.63 456.57h18.71v12.2h-18.71zM488.43 387.2h-38.66c1.71-10 9.72-17.65 19.32-17.65s17.63 7.6 19.34 17.65z"/><path d="M490.69 395.71v73.77h-43.18v-73.77a67.16 67.16 0 0 1 .37-7.13h42.43a67.16 67.16 0 0 1 .38 7.13z" fill="#fdb718"/><path fill="#fff" stroke="#fdb718" stroke-miterlimit="10" stroke-width="4" d="M440.04 400.59h12.69v68.01h-12.69zM437.03 388.39h18.71v12.2h-18.71z"/><path fill="#fff" stroke="#fdb718" stroke-miterlimit="10" stroke-width="4" d="M437.03 455.61h18.71v12.2h-18.71zM485.47 401.13h12.69v68.01h-12.69zM482.45 388.93h18.71v12.2h-18.71z"/><path fill="#fff" stroke="#fdb718" stroke-miterlimit="10" stroke-width="4" d="M482.45 456.14h18.71v12.2h-18.71zM327.25 401.47h12.69v68.01h-12.69zM324.24 389.27h18.71v12.2h-18.71z"/><path fill="#fff" stroke="#fdb718" stroke-miterlimit="10" stroke-width="4" d="M324.24 456.49h18.71v12.2h-18.71zM398.25 401.47h12.69v68.01h-12.69zM395.24 389.27h18.71v12.2h-18.71z"/><path fill="#fff" stroke="#fdb718" stroke-miterlimit="10" stroke-width="4" d="M395.24 456.49h18.71v12.2h-18.71zM435.47 388.66H289.49M137.27 134.49h99.55v354.5h-99.55zM187.04 32.82l-30.22 101.12h60.45L187.04 32.82z"/><path fill="#fff" stroke="#fdb718" stroke-miterlimit="10" stroke-width="4" d="M187.04 83.38l-9.51 23.48h19.03l-9.52-23.48z"/><path fill="#fff" stroke="#fdb718" stroke-miterlimit="10" stroke-width="4" d="M173.55 106.85h26.99v27.09h-26.99zM154.46 166.77h65.17M154.46 133.94h65.17M158.65 175.94h56.79v77.29h-56.79z"/><path d="M182.08 190.29v54H169v-54a6.53 6.53 0 1 1 13 0zM205.05 190.29v54H192v-54a6.53 6.53 0 1 1 13 0z" fill="#fdb718"/><path fill="#fff" stroke="#fdb718" stroke-miterlimit="10" stroke-width="4" d="M158.6 251.83h56.89v26.29H158.6zM145.59 278.66h82.91M137.6 278.66h19.71v209.72H137.6zM217.33 278.66h19.71v209.72h-19.71zM157.25 365.93l59.59.38M157.25 405.64h59.59M157.25 468.19h59.58M202.76 426.09V451h-31.43v-24.9c0-7.16 7-13 15.72-13s15.71 5.83 15.71 12.99z"/><path d="M176.15 151.77V167h-9.21v-15.23c0-6.06 2.06-11 4.61-11s4.6 4.94 4.6 11zM191.65 151.77V167h-9.21v-15.23c0-6.06 2.06-11 4.61-11s4.6 4.94 4.6 11zM207.15 151.77V167h-9.21v-15.23c0-6.06 2.06-11 4.61-11s4.6 4.94 4.6 11z" fill="#fdb718"/><path d="M204.66 317.14V366h-35.23v-48.86c0-14 7.89-25.42 17.61-25.42s17.62 11.39 17.62 25.42z" fill="#fff" stroke="#fdb718" stroke-miterlimit="10" stroke-width="4"/><path d="M185 322.44V358h-9.93v-35.56c0-6.53 2.22-11.83 5-11.83s4.93 5.3 4.93 11.83zM199 322.44V358h-9.9v-35.56c0-6.53 2.22-11.83 5-11.83s4.9 5.3 4.9 11.83z" fill="#fdb718"/><ellipse cx="187.04" cy="302.62" rx="5.46" ry="5.43" fill="#fdb718"/><path d="M196.43 435.77v24.73h-18.77v-24.73c0-7.11 4.2-12.88 9.38-12.88s9.39 5.77 9.39 12.88z" fill="#fdb718"/><ellipse cx="187.04" cy="264.94" rx="5.51" ry="5.48" fill="#fff" stroke="#fdb718" stroke-miterlimit="10" stroke-width="4"/><path fill="#fff" stroke="#fdb718" stroke-miterlimit="10" stroke-width="4" d="M157.31 120.02v46.75h-20.04v-46.75l10.01-20.77 10.03 20.77z"/><path fill="none" stroke="#fdb718" stroke-miterlimit="10" stroke-width="4" d="M137.27 120.02h20.03"/><path fill="#fff" stroke="#fdb718" stroke-miterlimit="10" stroke-width="4" d="M237.16 120.02v46.75h-20.04v-46.75l10.01-20.77 10.03 20.77z"/><path fill="none" stroke="#fdb718" stroke-miterlimit="10" stroke-width="4" d="M217.12 120.02h20.04"/><path fill="#fff" stroke="#fdb718" stroke-miterlimit="10" stroke-width="4" d="M500.84 134.49h99.55v354.5h-99.55zM550.62 32.82l-30.23 101.12h60.45L550.62 32.82z"/><path fill="#fff" stroke="#fdb718" stroke-miterlimit="10" stroke-width="4" d="M550.62 83.38l-9.52 23.48h19.03l-9.51-23.48z"/><path fill="#fff" stroke="#fdb718" stroke-miterlimit="10" stroke-width="4" d="M537.12 106.85h26.99v27.09h-26.99zM518.03 166.77h65.17M518.03 133.94h65.17M522.22 175.94h56.79v77.29h-56.79z"/><path d="M545.65 190.29v54h-13v-54a6.53 6.53 0 1 1 13 0zM568.63 190.29v54h-13v-54a6.53 6.53 0 1 1 13 0z" fill="#fdb718"/><path fill="#fff" stroke="#fdb718" stroke-miterlimit="10" stroke-width="4" d="M522.17 251.83h56.89v26.29h-56.89zM509.16 278.66h82.91M501.17 278.66h19.71v209.72h-19.71zM580.91 278.66h19.71v209.72h-19.71zM520.82 365.93l59.59.38M520.82 405.64h59.59M520.82 468.19h59.59M566.33 426.09V451H534.9v-24.9c0-7.16 7-13 15.72-13s15.71 5.83 15.71 12.99z"/><path d="M539.72 151.77V167h-9.21v-15.23c0-6.06 2.06-11 4.61-11s4.6 4.94 4.6 11zM555.22 151.77V167H546v-15.23c0-6.06 2.06-11 4.61-11s4.61 4.94 4.61 11zM570.72 151.77V167h-9.21v-15.23c0-6.06 2.06-11 4.61-11s4.6 4.94 4.6 11z" fill="#fdb718"/><path d="M568.23 317.14V366H533v-48.86c0-14 7.89-25.42 17.61-25.42s17.62 11.39 17.62 25.42z" fill="#fff" stroke="#fdb718" stroke-miterlimit="10" stroke-width="4"/><path d="M548.56 322.44V358h-9.93v-35.56c0-6.53 2.22-11.83 5-11.83s4.93 5.3 4.93 11.83zM562.6 322.44V358h-9.93v-35.56c0-6.53 2.22-11.83 5-11.83s4.93 5.3 4.93 11.83z" fill="#fdb718"/><ellipse cx="550.62" cy="302.62" rx="5.46" ry="5.43" fill="#fdb718"/><path d="M560 435.77v24.73h-18.77v-24.73c0-7.11 4.2-12.88 9.38-12.88s9.39 5.77 9.39 12.88z" fill="#fdb718"/><ellipse cx="550.62" cy="264.94" rx="5.51" ry="5.48" fill="#fff" stroke="#fdb718" stroke-miterlimit="10" stroke-width="4"/><path fill="#fff" stroke="#fdb718" stroke-miterlimit="10" stroke-width="4" d="M520.88 120.02v46.75h-20.04v-46.75l10.01-20.77 10.03 20.77z"/><path fill="none" stroke="#fdb718" stroke-miterlimit="10" stroke-width="4" d="M500.84 120.02h20.04"/><path fill="#fff" stroke="#fdb718" stroke-miterlimit="10" stroke-width="4" d="M600.73 120.02v46.75H580.7v-46.75l10.01-20.77 10.02 20.77z"/><path fill="none" stroke="#fdb718" stroke-miterlimit="10" stroke-width="4" d="M580.7 120.02h20.03"/><path d="M389.14 387.2h-38.66c1.71-10 9.72-17.65 19.32-17.65s17.63 7.6 19.34 17.65z" fill="#fff" stroke="#fdb718" stroke-miterlimit="10" stroke-width="4"/></g></symbol><symbol viewBox="0 0 738 528.12" id="north_end"><title>north end</title><g data-name="north end"><path fill="#fff" stroke="#fdb718" stroke-miterlimit="10" stroke-width="4" d="M181.64 30.9h374.73v460.93H181.64z"/><path fill="#fff" stroke="#fdb718" stroke-miterlimit="10" stroke-width="4" d="M165.88 30.9h406.23v17.5H165.88z"/><rect x="215.95" y="30.9" width="59" height="358.5" rx="5.82" ry="5.82" fill="#fff" stroke="#fdb718" stroke-miterlimit="10" stroke-width="4"/><rect x="340.35" y="30.9" width="59" height="358.5" rx="5.82" ry="5.82" fill="#fff" stroke="#fdb718" stroke-miterlimit="10" stroke-width="4"/><rect x="465.35" y="30.9" width="59" height="358.5" rx="5.82" ry="5.82" fill="#fff" stroke="#fdb718" stroke-miterlimit="10" stroke-width="4"/><path fill="none" stroke="#fdb718" stroke-miterlimit="10" stroke-width="4" d="M216.2 48.4h309"/><path fill="#fdb718" d="M234.95 100.39h21v46.58h-21zM297.35 100.39h21v46.58h-21zM421.52 100.39h21v46.58h-21zM359.35 100.39h21v46.58h-21zM484.35 100.39h21v46.58h-21z"/><path fill="#fff" stroke="#fdb718" stroke-miterlimit="10" stroke-width="4" d="M215.95 99.4h59M215.95 198.4h59M340.35 198.4h59M465.35 198.4h59M340.35 99.4h59M465.35 99.4h59M215.95 62.4h59M340.35 62.4h59M465.35 62.4h59M215.95 73.4h59M340.35 73.4h59M465.35 73.4h59M215.95 174.4h59M340.35 174.4h59M465.35 174.4h59M215.95 275.4h59M340.35 275.4h59M465.35 275.4h59M215.95 161.4h59M340.35 161.4h59M465.35 161.4h59M215.95 259.4h59M340.35 259.4h59M465.35 259.4h59"/><path fill="#fdb718" d="M234.95 198.79h21v46.58h-21zM297.15 198.79h21v46.58h-21zM421.52 198.79h21v46.58h-21zM359.35 198.79h21v46.58h-21zM484.35 198.79h21v46.58h-21z"/><path fill="#fff" stroke="#fdb718" stroke-miterlimit="10" stroke-width="4" d="M215.95 292.4h59M340.35 292.4h59M465.35 292.4h59"/><path fill="#fdb718" d="M234.95 294.19h21v46.58h-21zM297.15 294.19h21v46.58h-21zM421.52 294.19h21v46.58h-21zM359.35 294.19h21v46.58h-21zM484.35 294.19h21v46.58h-21z"/><path fill="#fff" stroke="#fdb718" stroke-miterlimit="10" stroke-width="4" d="M181.64 389.4h374.72"/><path fill="none" stroke="#fdb718" stroke-miterlimit="10" stroke-width="4" d="M399.35 245.37h-59M465.36 245.37h59.85M274.95 245.37h-58.99M399.35 340.37h-59M465.36 340.37h59.85M274.95 340.37h-58.99M399.35 146.37h-59M465.36 146.37h59.85M274.95 146.37h-58.99M216 51.4c7.37 0 7.37 10 14.75 10s7.37-10 14.74-10 7.38 10 14.75 10 7.38-10 14.75-10M341.2 51.4c7.37 0 7.37 10 14.75 10s7.37-10 14.74-10 7.38 10 14.75 10 7.38-10 14.75-10M465.78 51.43c7.37 0 7.37 10 14.75 10s7.37-10 14.74-10 7.38 10 14.75 10 7.38-10 14.75-10M216 149.4c7.37 0 7.37 10 14.75 10s7.37-10 14.74-10 7.38 10 14.75 10 7.38-10 14.75-10M341.2 149.4c7.37 0 7.37 10 14.75 10s7.37-10 14.74-10 7.38 10 14.75 10 7.38-10 14.75-10M465.78 149.43c7.37 0 7.37 10 14.75 10s7.37-10 14.74-10 7.38 10 14.75 10 7.38-10 14.75-10M216 247.4c7.37 0 7.37 10 14.75 10s7.37-10 14.74-10 7.38 10 14.75 10 7.38-10 14.75-10M341.2 247.4c7.37 0 7.37 10 14.75 10s7.37-10 14.74-10 7.38 10 14.75 10 7.38-10 14.75-10M465.78 247.43c7.37 0 7.37 10 14.75 10s7.37-10 14.74-10 7.38 10 14.75 10 7.38-10 14.75-10"/><path fill="#fff" stroke="#fdb718" stroke-miterlimit="10" stroke-width="4" d="M215.95 370.4h59M340.35 370.4h59M465.35 370.4h59M215.95 354.4h59M340.35 354.4h59M465.35 354.4h59"/><path d="M216 342.4c7.37 0 7.37 10 14.75 10s7.37-10 14.74-10 7.38 10 14.75 10 7.38-10 14.75-10M341.2 342.4c7.37 0 7.37 10 14.75 10s7.37-10 14.74-10 7.38 10 14.75 10 7.38-10 14.75-10M465.78 342.43c7.37 0 7.37 10 14.75 10s7.37-10 14.74-10 7.38 10 14.75 10 7.38-10 14.75-10M287.01 99.4h41.68M287.01 146.4h41.68M287.01 200.4h41.68M287.01 247.4h41.68M287.01 293.4h41.68M287.01 340.4h41.68M411.18 293.4h41.68M411.18 340.4h41.68M411.18 199.4h41.68M411.18 246.4h41.68M411.18 98.4h41.68M411.18 145.4h41.68" fill="none" stroke="#fdb718" stroke-miterlimit="10" stroke-width="4"/><path fill="#fdb718" d="M287.01 402.4h41.68v89.43h-41.68zM411.18 402.4h41.68v89.43h-41.68zM201.2 402.4h66v48h-66zM472.35 402.4h66v48h-66z"/></g></symbol><symbol viewBox="0 0 738 528.12" id="roslindale"><title>roslindale</title><path fill="#fff" stroke="#fdb717" stroke-miterlimit="10" stroke-width="3.96" d="M348.71 294.81h47.45v13.34h-47.45z"/><path fill="#fff" stroke="#fdb717" stroke-miterlimit="10" stroke-width="3.96" d="M283.1 304.99h176.56v186.76H283.1z"/><path fill="none" stroke="#fdb717" stroke-miterlimit="10" stroke-width="3.96" d="M283.57 318.41h176.09"/><path d="M341.94 292L370 228.11c1.07-2.44 3.75-2.44 4.82 0L402.93 292c1.07 2.44-.27 5.48-2.41 5.48h-56.17c-2.15-.04-3.49-3.09-2.41-5.48z" fill="#fff" stroke="#fdb717" stroke-miterlimit="10" stroke-width="3.96"/><path d="M364 257.82l7.74-17.6a.69.69 0 0 1 1.33 0l7.74 17.6c.3.67-.07 1.51-.66 1.51h-15.46c-.59 0-.96-.84-.69-1.51z" fill="#fff" stroke="#fdb717" stroke-miterlimit="10" stroke-width="3.96"/><path d="M417.14 412.5v79.32h-90.58V412.5a37.61 37.61 0 0 1 3.14-15c12.07-22.28 42.13-38.34 42.13-38.34s30.06 16.06 42.13 38.34v.05a37.61 37.61 0 0 1 3.18 14.95z" fill="#fdb717"/><path fill="none" stroke="#fdb717" stroke-miterlimit="10" stroke-width="3.96" d="M283.1 351.8h177.29"/><ellipse cx="304.73" cy="373.24" rx="9.07" ry="9.1" fill="none" stroke="#fdb717" stroke-miterlimit="10" stroke-width="3.96"/><ellipse cx="372.43" cy="278.42" rx="11.77" ry="11.81" fill="#fff" stroke="#fdb717" stroke-miterlimit="10" stroke-width="3.96"/><ellipse cx="438.63" cy="373.24" rx="9.07" ry="9.1" fill="none" stroke="#fdb717" stroke-miterlimit="10" stroke-width="3.96"/><path fill="none" stroke="#fdb717" stroke-miterlimit="10" stroke-width="3.96" d="M295.66 318.41v33.39M310.77 318.41v33.39M325.89 318.41v33.39M341 318.41v33.39M356.11 318.41v33.39M401.45 318.41v33.39M371.22 318.41v33.39M416.56 318.41v33.39M386.33 318.41v33.39M431.67 318.41v33.39M446.78 318.41v33.39M283.1 335.11h175.96"/><path fill="#fdb717" d="M108.12 365.87h135.63v7.37H108.12z"/><path fill="#fff" stroke="#fdb717" stroke-miterlimit="10" stroke-width="3.96" d="M112.79 373.24h129.79v118.51H112.79z"/><path d="M115.87 412.79l-3.08-7.07a43.63 43.63 0 0 1 3.08 7.07z" fill="#fdb717"/><path d="M261 161.58l-18.22 96.48h40.66l-18.22-96.48a2.15 2.15 0 0 0-4.22 0zM242.79 319.56h40.66v172.21h-40.66z" fill="#fff" stroke="#fdb717" stroke-miterlimit="10" stroke-width="3.96"/><path fill="#fff" stroke="#fdb717" stroke-miterlimit="10" stroke-width="3.96" d="M247.72 258.05h30.79v61.5h-30.79z"/><path fill="#fff" stroke="#fdb717" stroke-miterlimit="10" stroke-width="3.96" d="M238.43 258.05h49.38v14.55h-49.38zM242.79 305h40.66v14.55h-40.66z"/><ellipse cx="262.98" cy="153.9" rx="10.38" ry="3.62" fill="#fff" stroke="#fdb717" stroke-miterlimit="10" stroke-width="3.96"/><ellipse cx="262.98" cy="145.91" rx="4.36" ry="4.37" fill="#fff" stroke="#fdb717" stroke-miterlimit="10" stroke-width="3.96"/><ellipse cx="262.98" cy="161.89" rx="4.36" ry="4.37" fill="#fff" stroke="#fdb717" stroke-miterlimit="10" stroke-width="3.96"/><path fill="#fff" stroke="#fdb717" stroke-miterlimit="10" stroke-width="3.96" d="M236.85 406.11h52.54v14.55h-52.54z"/><path fill="none" stroke="#fdb717" stroke-miterlimit="10" stroke-width="3.96" d="M243.75 359.08h40.06M250.5 319.56v39.52M263.2 319.56v39.52M275.89 319.56v39.52M242.42 338.74h40.78M236.84 410.96l8.76 4.85 8.75-4.85 8.76 4.85 8.76-4.85 8.76 4.85 8.76-4.85M253.75 431.84v50.94M272.49 431.84v50.94M241.18 413.39H121.91M242.94 382.33H117.5M242.94 392.69H123.13M242.94 403.04H128.78"/><path d="M203.43 453.08v38.33h-43.77v-38.33a18.17 18.17 0 0 1 1.52-7.27c5.83-10.76 20.36-18.52 20.36-18.52s14.52 7.76 20.36 18.52a18.17 18.17 0 0 1 1.53 7.27z" fill="#fdb717"/><path fill="none" stroke="#fdb717" stroke-miterlimit="10" stroke-width="3.96" d="M206.63 427.27h16.93v9.42h-16.93zM139.54 427.27h16.93v9.42h-16.93z"/><path fill="#fff" stroke="#fdb717" stroke-miterlimit="10" stroke-width="3.96" d="M38.8 412.79h88.14v78.96H38.8z"/><path d="M70.6 447.58v23.49H59.44v-23.49c0-6.75 2.5-12.23 5.58-12.23s5.58 5.48 5.58 12.23zM88.44 447.58v23.49H77.29v-23.49c0-6.75 2.5-12.23 5.58-12.23s5.57 5.48 5.57 12.23zM106.29 447.58v23.49H95.14v-23.49c0-6.75 2.5-12.23 5.58-12.23s5.57 5.48 5.57 12.23zM629.87 373.24H494.24v-7.37h135.63z" fill="#fdb717"/><path fill="#fff" stroke="#fdb717" stroke-miterlimit="10" stroke-width="3.96" d="M625.22 491.75H495.43V373.24h129.79z"/><path d="M622.13 412.79l3.08-7.07a43.63 43.63 0 0 0-3.08 7.07z" fill="#fdb717"/><path d="M477 161.58l18.22 96.48h-40.67l18.22-96.48a2.15 2.15 0 0 1 4.23 0zM454.56 319.56h40.66v172.21h-40.66z" fill="#fff" stroke="#fdb717" stroke-miterlimit="10" stroke-width="3.96"/><path fill="#fff" stroke="#fdb717" stroke-miterlimit="10" stroke-width="3.96" d="M459.49 258.05h30.79v61.5h-30.79z"/><path fill="#fff" stroke="#fdb717" stroke-miterlimit="10" stroke-width="3.96" d="M499.58 272.61H450.2v-14.55h49.38zM454.56 305h40.66v14.55h-40.66z"/><ellipse cx="475.02" cy="153.9" rx="10.38" ry="3.62" fill="#fff" stroke="#fdb717" stroke-miterlimit="10" stroke-width="3.96"/><ellipse cx="475.02" cy="145.91" rx="4.36" ry="4.37" fill="#fff" stroke="#fdb717" stroke-miterlimit="10" stroke-width="3.96"/><ellipse cx="475.02" cy="161.89" rx="4.36" ry="4.37" fill="#fff" stroke="#fdb717" stroke-miterlimit="10" stroke-width="3.96"/><path fill="#fff" stroke="#fdb717" stroke-miterlimit="10" stroke-width="3.96" d="M448.61 406.11h52.54v14.55h-52.54z"/><path fill="none" stroke="#fdb717" stroke-miterlimit="10" stroke-width="3.96" d="M494.25 359.08h-40.06M487.5 319.56v39.52M474.8 319.56v39.52M462.11 319.56v39.52M495.58 338.74H454.8M501.15 415.81l-8.75-4.85-8.75 4.85-8.76-4.85-8.76 4.85-8.76-4.85-8.76 4.85M484.25 431.84v50.94M465.51 431.84v50.94M496.82 413.39l119.27-.01M620.5 382.33H495.06M614.87 392.69H495.06M609.23 403.04H495.06"/><path d="M534.57 453.08v38.33h43.76v-38.33a18.17 18.17 0 0 0-1.52-7.27c-5.81-10.81-20.36-18.54-20.36-18.54s-14.52 7.73-20.35 18.52a18.17 18.17 0 0 0-1.53 7.29z" fill="#fdb717"/><path fill="none" stroke="#fdb717" stroke-miterlimit="10" stroke-width="3.96" d="M531.37 436.7h-16.93v-9.42h16.93zM598.46 436.7h-16.93v-9.42h16.93z"/><path d="M600.14 412.65h110L660.85 329a1.28 1.28 0 0 0-.34-.37v-8h-10.75v8a1.27 1.27 0 0 0-.34.37zM649.76 315.42h10.75v5h-10.75z" fill="#fff" stroke="#fdb717" stroke-miterlimit="10" stroke-width="3.96"/><path fill="#fff" stroke="#fdb717" stroke-miterlimit="10" stroke-width="3.96" d="M647 320.42h16.26l-8.13-15.91-8.13 15.91z"/><path fill="none" stroke="#fdb717" stroke-miterlimit="10" stroke-width="3.96" d="M661.92 330.78h-13.45M666.6 338.73h-23.3M672.85 349.34h-35.44M679.09 359.95h-47.92M685.34 370.56h-60.42M691.59 381.17h-72.92M699.43 391.82l-88.54-.08M704.11 402.44l-97.9-.09"/><path fill="#fff" stroke="#fdb717" stroke-miterlimit="10" stroke-width="3.96" d="M699.2 491.75h-88.14v-78.96h88.14z"/><path d="M667.4 447.58v23.49h11.15v-23.49c0-6.75-2.5-12.23-5.58-12.23s-5.57 5.48-5.57 12.23zM649.56 447.58v23.49h11.15v-23.49c0-6.75-2.5-12.23-5.58-12.23s-5.57 5.48-5.57 12.23zM631.71 447.58v23.49h11.15v-23.49c0-6.75-2.5-12.23-5.58-12.23s-5.57 5.48-5.57 12.23z" fill="#fdb717"/><path d="M27.88 413.71h110L88.58 330a1.28 1.28 0 0 0-.34-.37v-8H77.49v8a1.27 1.27 0 0 0-.34.37zM77.49 316.48h10.75v5H77.49z" fill="#fff" stroke="#fdb717" stroke-miterlimit="10" stroke-width="3.96"/><path fill="#fff" stroke="#fdb717" stroke-miterlimit="10" stroke-width="3.96" d="M74.74 321.48H91l-8.13-15.91-8.13 15.91z"/><path fill="none" stroke="#fdb717" stroke-miterlimit="10" stroke-width="3.96" d="M89.65 331.83H76.21M94.34 339.79H71.03M100.58 350.4H65.15M106.83 361.01H58.9M113.08 371.62H52.66M119.32 382.23H46.41M127.16 392.88l-88.54-.08M131.85 403.49l-97.91-.08"/></symbol><symbol viewBox="0 0 738 528.12" id="roxbury"><title>roxbury</title><path d="M372.51 30l30.24 127.8h-67.5L365.49 30c.74-3.11 6.28-3.11 7.02 0z" fill="#fff" stroke="#fdb718" stroke-miterlimit="10" stroke-width="4"/><path fill="none" stroke="#fdb718" stroke-miterlimit="10" stroke-width="4" d="M322.19 127.48v17.53M415.31 127.48v17.53M320.11 127.48h97.25"/><path fill="#fff" stroke="#fdb718" stroke-miterlimit="10" stroke-width="4" d="M329 157.79h80v333.35h-80z"/><path d="M422.1 447.31v43.83H315.9v-43.83h36.88l13.82-34.87c.5-1.27 4.3-1.27 4.8 0l13.82 34.87z" fill="#fff" stroke="#fdb718" stroke-miterlimit="10" stroke-width="4"/><path d="M369 459.05a9 9 0 0 0-9 9v23.1h18V468a9 9 0 0 0-9-8.95z" fill="none" stroke="#fdb718" stroke-miterlimit="10" stroke-width="4"/><path fill="#fdb718" d="M366.81 224.68h4.38v25.59h-4.38zM366.81 359.05h4.38v25.59h-4.38z"/><path fill="none" stroke="#fdb718" stroke-miterlimit="10" stroke-width="4" d="M359.98 250.27h18.04"/><path fill="#fdb718" d="M343.34 291.87h4.38v25.59h-4.38zM390.28 291.87h4.38v25.59h-4.38z"/><path fill="none" stroke="#fdb718" stroke-miterlimit="10" stroke-width="4" d="M383.45 317.45h18.04M336.51 317.45h18.04M359.98 384.64h18.04"/><path d="M415.21 145l.69 45.46-6.55 9h-80l-6.55-9-.69-45.46h23.55l21.21-44.65c.52-1.08 4.44-1.08 5 0L392 145z" fill="#fff" stroke="#fdb718" stroke-miterlimit="10" stroke-width="4"/><path fill="none" stroke="#fdb718" stroke-miterlimit="10" stroke-width="4" d="M322.45 173.79h93.1M322.45 157.26h93.1"/><path d="M369 131.69c-5 0-9 5.28-9 11.8v30.3h18v-30.3c0-6.49-4-11.8-9-11.8z" fill="#fdb718"/><path fill="none" stroke="#fdb718" stroke-miterlimit="10" stroke-width="4" d="M369 469.79v22.04M369 469.79v22.04M245.26 491.83h247.48"/></symbol><symbol viewBox="0 0 738 528.12" id="south_boston"><title>south boston</title><g data-name="south boston"><path fill="#fff" stroke="#fdb718" stroke-miterlimit="10" stroke-width="4" d="M30.55 203.36h677.78v287.13H30.55z"/><path fill="none" stroke="#fdb718" stroke-miterlimit="10" stroke-width="4" d="M234.86 367.02h268.17"/><path d="M371.22 241.7c-25.88 0-47 15.72-47 35.12V367h94v-90.2c-.01-19.38-21.12-35.1-47-35.1z" fill="#fff" stroke="#fdb718" stroke-miterlimit="10" stroke-width="4"/><path d="M371.22 259.78c-18.51 0-33.62 13.45-33.62 30.05V367h67.24v-77.17c0-16.6-15.11-30.05-33.62-30.05z" fill="#fdb718"/><path d="M567.32 242c-25.88 0-47 15.72-47 35.12v90.2h94v-90.2c-.01-19.35-21.12-35.12-47-35.12z" fill="#fff" stroke="#fdb718" stroke-miterlimit="10" stroke-width="4"/><path d="M567.32 260.12c-18.51 0-33.62 13.45-33.62 30.05v77.19h67.24v-77.19c0-16.59-15.11-30.05-33.62-30.05z" fill="#fdb718"/><path d="M175.12 242c-25.88 0-47 15.72-47 35.12v90.2h94v-90.2c-.01-19.35-21.12-35.12-47-35.12z" fill="#fff" stroke="#fdb718" stroke-miterlimit="10" stroke-width="4"/><path d="M175.12 260.12c-18.51 0-33.62 13.45-33.62 30.05v77.19h67.24v-77.19c0-16.59-15.11-30.05-33.62-30.05zM262.38 308.64h28.87v58.38h-28.87zM449.44 308.64h28.87v58.38h-28.87z" fill="#fdb718"/><path fill="#fff" stroke="#fdb718" stroke-miterlimit="10" stroke-width="4" d="M483.65 221.83h14.55v145.19h-14.55z"/><path fill="#fff" stroke="#fdb718" stroke-miterlimit="10" stroke-width="4" d="M478.46 348.9h24.92v18.47h-24.92zM478.46 203.36h24.92v18.47h-24.92zM428.99 222.27h14.55v145.19h-14.55z"/><path fill="#fff" stroke="#fdb718" stroke-miterlimit="10" stroke-width="4" d="M423.81 349.33h24.92v18.47h-24.92zM423.81 203.8h24.92v18.47h-24.92zM296.86 221.83h14.55v145.19h-14.55z"/><path fill="#fff" stroke="#fdb718" stroke-miterlimit="10" stroke-width="4" d="M291.68 348.9h24.92v18.47h-24.92zM291.68 203.36h24.92v18.47h-24.92zM242.21 222.27h14.55v145.19h-14.55z"/><path fill="#fff" stroke="#fdb718" stroke-miterlimit="10" stroke-width="4" d="M237.03 349.33h24.92v18.47h-24.92zM237.03 203.8h24.92v18.47h-24.92z"/><path fill="none" stroke="#fdb718" stroke-miterlimit="10" stroke-width="4" d="M29.67 222.27h677.78"/><path fill="#fff" stroke="#fdb718" stroke-miterlimit="10" stroke-width="4" d="M443.54 298.8h40.1v9.84h-40.1zM256.76 298.8h40.1v9.84h-40.1zM452.68 239.76h22.39v44.62h-22.39zM265.62 239.76h22.39v44.62h-22.39zM236.37 180.7h268.3v22.66h-268.3z"/><path fill="none" stroke="#fdb718" stroke-miterlimit="10" stroke-width="4" d="M29.67 367.02h677.78M483.65 301.75h154.99M100.72 301.53h154.99"/><path fill="#fdb718" d="M646.22 249.22h15.75v42.34h-15.75zM679.69 249.22h15.75v42.34h-15.75zM679.69 310.72h15.75v42.34h-15.75zM646.22 310.72h15.75v42.34h-15.75zM43.96 249.22h15.75v42.34H43.96zM77.42 249.22h15.75v42.34H77.42zM77.42 310.72h15.75v42.34H77.42zM43.96 310.72h15.75v42.34H43.96z"/><path fill="none" stroke="#fdb718" stroke-miterlimit="10" stroke-width="4" d="M29.67 387.34h677.78M105 406.21c-24.12 0-43.81 10.55-43.81 23.57v60.54h87.61v-60.54c0-13.02-19.69-23.57-43.8-23.57zM77.27 411.54v78.78M130.66 408.87v82.96M95.06 406.21v84.11M112.86 406.21v85.62M61.18 429.78h87.62M61.18 453.17h87.62"/><path d="M281.29 403.9c-24.12 0-43.81 11-43.81 24.64v63.28h87.62v-63.28c0-13.61-19.69-24.64-43.81-24.64zM457.59 405.2c-24.12 0-43.81 10.87-43.81 24.28v62.35h87.62v-62.35c0-13.41-19.69-24.28-43.81-24.28z" fill="#fdb718"/><path d="M633.89 409.53c-24.12 0-43.81 10.14-43.81 22.66v58.19h87.62v-58.2c0-12.51-19.7-22.65-43.81-22.65zM606.17 414.65v75.73M659.56 412.09v79.74M623.97 409.53v80.85M641.76 409.53v82.3M590.08 432.18h87.62M590.08 454.67h87.62" fill="none" stroke="#fdb718" stroke-miterlimit="10" stroke-width="4"/></g></symbol><symbol viewBox="0 0 738 528.12" id="south_end"><title>south end</title><g data-name="south end"><path fill="#fff" stroke="#fdb718" stroke-miterlimit="10" stroke-width="4" d="M417.57 246.21h155.99v245.62H417.57z"/><path fill="#fdb718" d="M429.57 321.2h16.5v33h-16.5zM429.57 395.47h16.5v33h-16.5zM467.24 395.47h16.5v33h-16.5zM504.91 395.47h16.5v33h-16.5zM489.29 475.82v16H464v-16c0-9.6 5.67-17.39 12.66-17.39s12.63 7.79 12.63 17.39zM530.33 475.82v16H505v-16c0-9.6 5.68-17.39 12.67-17.39s12.66 7.79 12.66 17.39z"/><path d="M487.64 311.24v61.32h-30v-61.32c0-17.62 6.71-31.92 15-31.92s15 14.3 15 31.92zM529.82 311.24v61.32h-30v-61.32c0-17.62 6.71-31.92 15-31.92s15 14.3 15 31.92z" fill="#fff" stroke="#fdb718" stroke-miterlimit="10" stroke-width="4"/><path fill="#fdb718" d="M464.41 322.25h16.5v33h-16.5zM507.41 322.25h16.5v33h-16.5z"/><path fill="none" stroke="#fdb718" stroke-miterlimit="10" stroke-width="4" d="M457.67 305.79h29.97M499.62 305.79h29.97"/><path fill="#fff" stroke="#fdb718" stroke-miterlimit="10" stroke-width="4" d="M164.43 246.21h155.99v245.62H164.43z"/><path fill="none" stroke="#fdb718" stroke-miterlimit="10" stroke-width="4" d="M164.43 267.25h409.14M164.43 446.24h409.14"/><path fill="#fff" stroke="#fdb718" stroke-miterlimit="10" stroke-width="4" d="M320.43 55.75h97.15v436.07h-97.15z"/><path fill="#fff" stroke="#fdb718" stroke-miterlimit="10" stroke-width="4" d="M426.33 175.32l-6.57 47.54-101.65-1.59-6.97-46.95v-28.07h115.19v29.07z"/><path fill="none" stroke="#fdb718" stroke-miterlimit="10" stroke-width="4" d="M320.43 428.24h97.14"/><path fill="#fdb718" d="M361.21 444.24h16.5v33h-16.5zM361.21 376.06h16.5v33h-16.5zM361.21 307.88h16.5v33h-16.5zM290.3 321.2h16.5v33h-16.5zM176.43 321.2h16.5v33h-16.5zM176.43 395.47h16.5v33h-16.5zM542.41 321.2h16.5v33h-16.5zM542.41 395.47h16.5v33h-16.5zM214.1 395.47h16.5v33h-16.5zM251.76 395.47h16.5v33h-16.5zM289.43 395.47h16.5v33h-16.5zM378.84 250.28V275h-18.76v-24.72c0-7.11 4.2-12.88 9.38-12.88s9.38 5.77 9.38 12.88zM236.15 475.82v16h-25.33v-16c0-9.6 5.67-17.39 12.66-17.39s12.67 7.79 12.67 17.39zM277.19 475.82v16h-25.33v-16c0-9.6 5.68-17.39 12.67-17.39s12.66 7.79 12.66 17.39zM378.84 84.33v30h-18.76v-30c0-8.62 4.2-15.61 9.38-15.61s9.38 7 9.38 15.61z"/><path fill="#fff" stroke="#fdb718" stroke-miterlimit="10" stroke-width="4" d="M320.43 24.65h23.19v31.1h-23.19zM357.4 24.65h23.19v31.1H357.4zM394.38 24.65h23.19v31.1h-23.19z"/><path fill="none" stroke="#fdb718" stroke-miterlimit="10" stroke-width="4" d="M320.43 84.26h97.14"/><path fill="#fff" stroke="#fdb718" stroke-miterlimit="10" stroke-width="4" d="M311 124.32h21.94v21.94H311zM342.2 124.32h21.94v21.94H342.2zM373.4 124.32h21.94v21.94H373.4zM404.61 124.32h21.94v21.94h-21.94z"/><path fill="none" stroke="#fdb718" stroke-miterlimit="10" stroke-width="4" d="M311 174.32h115.19"/><path d="M340.58 178.34v34h-12v-34c0-9.77 2.68-17.69 6-17.69s6 7.93 6 17.69zM363.34 178.34v34h-12v-34c0-9.77 2.68-17.69 6-17.69s6 7.93 6 17.69zM386.11 178.34v34h-12v-34c0-9.77 2.68-17.69 6-17.69s6 7.93 6 17.69zM408.87 178.34v34h-12v-34c0-9.77 2.68-17.69 6-17.69s6 7.93 6 17.69z" fill="#fff" stroke="#fdb718" stroke-miterlimit="10" stroke-width="4"/><path fill="#fff" d="M325 209.32h90.57v7.67H325z"/><path fill="none" stroke="#fdb718" stroke-miterlimit="10" stroke-width="4" d="M320.43 292.74h97.14M320.43 353.74h97.14"/><path d="M234.5 311.24v61.32h-30v-61.32c0-17.62 6.71-31.92 15-31.92s15 14.3 15 31.92zM276.67 311.24v61.32h-30v-61.32c0-17.62 6.71-31.92 15-31.92s15 14.3 15 31.92z" fill="#fff" stroke="#fdb718" stroke-miterlimit="10" stroke-width="4"/><path fill="#fdb718" d="M211.26 322.25h16.5v33h-16.5zM254.26 322.25h16.5v33h-16.5z"/><path fill="none" stroke="#fdb718" stroke-miterlimit="10" stroke-width="4" d="M204.53 305.79h29.97M246.48 305.79h29.96"/></g></symbol><symbol viewBox="0 0 738 528.12" id="west_end"><title>west end</title><g data-name="west end"><path fill="#fff" stroke="#fdb717" stroke-miterlimit="10" stroke-width="4" d="M102.89 106.47H635.1v385.86H102.89z"/><path fill="#fff" stroke="#fdb717" stroke-miterlimit="10" stroke-width="4" d="M171.33 268.3h361.79v62.72H171.33zM171.33 331.9h302.32v53.17H171.33zM171.33 385.96h255.29v40.5H171.33zM533.12 331.01h41.17v161.32M171.33 426.46h-52.95v65.87M196.79 426.46h15.74v65.87h-15.74zM260.66 427.35h15.74v65.87h-15.74zM324.54 427.35h15.74v65.87h-15.74z"/><path fill="#fdb718" d="M171.33 399.48h255.29v12.19H171.33zM171.33 352.39h302.32v12.19H171.33zM171.33 293.3h361.79v12.19H171.33zM102.89 128.57H635.1v12.19H102.89zM102.89 175.83H635.1v12.19H102.89zM102.89 223.09H635.1v12.19H102.89zM102.89 269.99h68.43v12.19h-68.43zM533.12 270.35H635.1v12.19H533.12zM102.89 318.82h68.43v12.19h-68.43zM102.89 364.27h68.43v12.19h-68.43zM102.89 414.98h68.43v12.19h-68.43zM426.62 412.13h208.49v14.33H426.62zM473.65 364.87h161.46v12.19H473.65zM533.12 316.77H635.1v13.89H533.12zM388.41 452.34h185.88v40.88H388.41z"/><path fill="#fff" stroke="#fdb717" stroke-miterlimit="10" stroke-width="4" d="M388.41 426.46h15.74v65.87h-15.74zM444.18 385.07h15.74v107.26h-15.74zM494.39 331.02h15.74v161.31h-15.74z"/></g></symbol><symbol viewBox="0 0 738 528.12" id="west_roxbury"><title>buildings</title><g data-name="west roxbury"><path fill="#fff" stroke="#fdb718" stroke-miterlimit="10" stroke-width="3.97" d="M707.87 259.28l.07 94.1H549.03v-78.94l.17-15.25 32.11-28.82 47.95-49.27 47.95 49.27 30.66 28.91z"/><path fill="#fff" stroke="#fdb718" stroke-miterlimit="10" stroke-width="3.97" d="M106.07 263.31h526.88v227.25H106.07zM479.77 257.44v3.66H259.46l-.21-4.82 44.96-47.27 66.47-69.86 66.49 69.86 41.58 47.27 1.02 1.16z"/><path fill="#fff" stroke="#fdb718" stroke-miterlimit="10" stroke-width="3.97" d="M259.36 261.1h220.31v122.32H259.36z"/><path fill="#fff" stroke="#fdb718" stroke-miterlimit="10" stroke-width="3.97" d="M259.36 261.1h220.31v229.46H259.36zM548.96 260.06h158.91v230.51H548.96zM189.12 261.7v88.86H30.21v-78.94l-.15-10.74 32.43-33.34 47.95-49.27 47.95 49.27 30 33.34.73.82z"/><path fill="#fff" stroke="#fdb718" stroke-miterlimit="10" stroke-width="3.97" d="M30.21 263.31h158.91v227.25H30.21z"/><path fill="#fdb718" d="M499.37 292.37h24.34v60.06h-24.34zM376.91 292.42h24.34v45.73h-24.34zM337.78 292.42h24.34v45.73h-24.34zM378.73 353.54h24.34v45.73h-24.34zM339.6 353.54h24.34v45.73H339.6zM499.37 400.66h24.34v60.06h-24.34zM210.76 292.76h24.34v60.06h-24.34zM210.76 401.06h24.34v60.06h-24.34z"/><path fill="none" stroke="#fdb718" stroke-miterlimit="10" stroke-width="3.97" d="M259.25 273.75h220.53"/><circle cx="369.51" cy="207.81" r="17.18" fill="none" stroke="#fdb718" stroke-miterlimit="10" stroke-width="3.97"/><circle cx="109.67" cy="231.15" r="11.93" fill="none" stroke="#fdb718" stroke-miterlimit="10" stroke-width="3.97"/><circle cx="628.49" cy="231.15" r="11.93" fill="none" stroke="#fdb718" stroke-miterlimit="10" stroke-width="3.97"/><path fill="none" stroke="#fdb718" stroke-miterlimit="10" stroke-width="3.97" d="M464.95 273.75v216.82M275.91 275.01v216.82"/><path fill="#fdb718" d="M428.17 292.42h24.34v45.73h-24.34zM428.17 353.54h24.34v45.73h-24.34zM428.17 415.06h24.34v45.73h-24.34zM580.95 284.7h24.34v45.73h-24.34zM616.24 284.7h24.34v45.73h-24.34zM651.53 284.7h24.34v45.73h-24.34zM580.95 351.89h24.34v45.73h-24.34zM616.24 351.89h24.34v45.73h-24.34zM651.53 351.89h24.34v45.73h-24.34zM580.95 419.09h24.34v45.73h-24.34zM616.24 419.09h24.34v45.73h-24.34zM651.53 419.09h24.34v45.73h-24.34zM62.21 286.88h24.34v45.73H62.21zM97.5 286.88h24.34v45.73H97.5zM132.78 286.88h24.34v45.73h-24.34zM62.21 354.07h24.34v45.73H62.21zM97.5 354.07h24.34v45.73H97.5zM132.78 354.07h24.34v45.73h-24.34zM62.21 421.27h24.34V467H62.21zM97.5 421.27h24.34V467H97.5zM132.78 421.27h24.34V467h-24.34zM290.16 292.42h24.34v45.73h-24.34zM290.16 353.54h24.34v45.73h-24.34zM290.16 415.06h24.34v45.73h-24.34z"/><path fill="none" stroke="#fdb718" stroke-miterlimit="10" stroke-width="3.97" d="M274.99 338.15h189.04M274.99 415.19h189.04"/><path fill="#fff" stroke="#fdb718" stroke-miterlimit="10" stroke-width="3.97" d="M409.28 428.82v61.74h-79.46V434l-.07-5.6 16.21-17.4 23.98-25.71L393.91 411l15 17.4.37.42z"/><path fill="none" stroke="#fdb718" stroke-miterlimit="10" stroke-width="3.97" d="M329.75 427.25h79.53"/><path fill="#fdb718" d="M357.34 449.56h24.34v41.01h-24.34z"/><path fill="none" stroke="#fdb718" stroke-miterlimit="10" stroke-width="3.97" d="M549.03 419.09h156.49M549.03 322.79h156.49M31.42 322.79h156.49M31.34 419.09h156.49M476.91 400.66h69.26M476.91 352.43h69.26M189.12 399.93h69.26M189.12 353.54h69.26"/></g></symbol></svg>