<?xml version="1.0" encoding="utf-8"?><svg xmlns="http://www.w3.org/2000/svg" xmlns:xlink="http://www.w3.org/1999/xlink"><symbol viewBox="0 0 144 100.8" id="311_icons_Artboard_15"><title>311 icons</title><path fill="#fff" stroke="#fdb717" stroke-linecap="round" stroke-miterlimit="10" stroke-width="3" d="M101.17 83.59H45.04l16.6-74.24h19.13l20.4 74.24z"/><path fill="#fff" stroke="#fdb717" stroke-miterlimit="10" stroke-width="3" d="M36.19 83.59h71.62v7.85H36.19z"/><path fill="#fdb718" d="M49.66 62.91l35.6-33.86-3.73-16.94-25.83 23.8-6.04 27zM64.76 82.11a64.53 64.53 0 0 1 11.75 1.25L96 65.29l-3.75-16.94-37.74 34.19c3.42-.17 6.84-.44 10.25-.43z"/></symbol><symbol viewBox="0 0 144 100.8" id="311_icons_Artboard_16"><title>311 icons</title><path fill="none" stroke="#fdb717" stroke-miterlimit="10" stroke-width="3" d="M41.89 30.6l-4.68 54.59M103.28 30.6l4.68 54.59"/><path fill="#fff" stroke="#fdb717" stroke-miterlimit="10" stroke-width="3" d="M26.11 15.61h91.79v13.22H26.11zM26.11 40.7h91.79v13.22H26.11z"/><path fill="none" stroke="#fdb717" stroke-miterlimit="10" stroke-width="3" d="M38.6 69h68.03M41.02 16.44l-8.48 11.58M54.99 16.44l-8.48 11.58M68.96 16.44l-8.48 11.58M82.93 16.44l-8.48 11.58M96.9 16.44l-8.48 11.58M110.87 16.44l-8.48 11.58M41.02 41.52L32.54 53.1M54.99 41.52L46.51 53.1M68.96 41.52L60.48 53.1M82.93 41.52L74.45 53.1M96.9 41.52L88.42 53.1M110.87 41.52l-8.48 11.58"/></symbol><symbol viewBox="0 0 144 100.8" id="311_icons_Artboard_17"><title>311 icons</title><path fill="#fff" stroke="#fdb717" stroke-linecap="round" stroke-miterlimit="10" stroke-width="3" d="M66.99 12.86H77v9.38H66.99z"/><path fill="#fff" stroke="#fdb717" stroke-linecap="round" stroke-miterlimit="10" stroke-width="3" d="M51.98 20.37h40.04V45.4H51.98z"/><path fill="#fff" stroke="#fdb717" stroke-linecap="round" stroke-miterlimit="10" stroke-width="3" d="M74.4 26.63h11.89V45.4H74.4zM57.71 26.63H69.6V45.4H57.71z"/><path d="M41.66 62.12c0-6.2-5.63-18.6-5.63-18.6H108s-4.38 12.54-4.38 18.5c0 6.56 4.38 19 4.38 19H36s5.66-12.59 5.66-18.9z" fill="#fff" stroke="#fdb717" stroke-linecap="round" stroke-miterlimit="10" stroke-width="3" fill-rule="evenodd"/><path fill="#fdb717" d="M50.42 58.53h43.17v1.88H50.42zM50.42 63.12h43.17V65H50.42z"/><path d="M72 67a7.51 7.51 0 0 0-14.7 2.17 7.51 7.51 0 0 0-7.4 6.26h-.1a4.38 4.38 0 1 0 3.2 7.38 7.51 7.51 0 0 0 8.39.17 7.53 7.53 0 0 0 6.44.81A10.95 10.95 0 0 0 85 83.74a6.27 6.27 0 0 0 6.12-.83 4.38 4.38 0 1 0 2-7.34A6.27 6.27 0 0 0 86 71.81 11 11 0 0 0 72 67z" fill="#fff" stroke="#fdb717" stroke-linecap="round" stroke-miterlimit="10" stroke-width="3" fill-rule="evenodd"/></symbol><symbol viewBox="0 0 144 100.8" id="311_icons_Artboard_18"><title>311 icons</title><path d="M129 67.46v-11.1H57.14V31.81H38.42l-6.11 12.72A143.88 143.88 0 0 0 15 49.14v18.32z" fill="#fff"/><path d="M130.47 68.91H13.53V48.09l1-.33a150.24 150.24 0 0 1 16.79-4.51l6.2-12.89h21.04v24.55h71.87zM16.44 66h111.12v-8.18H55.69V33.27H39.34l-6 12.57-.73.13a143.43 143.43 0 0 0-16.13 4.23z" fill="#fdb717"/><path fill="#fff" d="M52.13 49.63H38.36v-3.8l3.89-8.36h9.88v12.16z"/><path d="M53.59 51.09H36.9V45.5l4.43-9.5h12.26zm-13.78-2.91h10.86v-9.25h-7.49l-3.37 7.22zM32.38 68.83a1.46 1.46 0 0 1-1.46-1.46V44.71a1.46 1.46 0 0 1 2.91 0v22.67a1.46 1.46 0 0 1-1.45 1.45zM57.17 68.83a1.46 1.46 0 0 1-1.46-1.46V55.1a1.46 1.46 0 1 1 2.91 0v12.28a1.46 1.46 0 0 1-1.45 1.45z" fill="#fdb717"/><circle cx="35.7" cy="71.69" r="10.64" fill="#fff"/><path d="M35.7 83.79a12.1 12.1 0 1 1 12.1-12.1 12.11 12.11 0 0 1-12.1 12.1zm0-21.28a9.18 9.18 0 1 0 9.19 9.18 9.19 9.19 0 0 0-9.19-9.18z" fill="#fdb717"/><circle cx="112.9" cy="71.69" r="10.64" fill="#fff"/><path d="M112.9 83.79a12.1 12.1 0 1 1 12.1-12.1 12.11 12.11 0 0 1-12.1 12.1zm0-21.28a9.18 9.18 0 1 0 9.19 9.18 9.2 9.2 0 0 0-9.19-9.18z" fill="#fdb717"/><circle cx="35.56" cy="71.55" r="4.83" fill="#fff"/><path d="M35.56 77.83a6.29 6.29 0 1 1 6.29-6.29 6.29 6.29 0 0 1-6.29 6.29zm0-9.66a3.38 3.38 0 1 0 3.38 3.38 3.38 3.38 0 0 0-3.38-3.38z" fill="#fdb717"/><path fill="#fff" stroke="#fdb717" stroke-linecap="round" stroke-miterlimit="10" stroke-width="3" d="M57.13 45.8v4.87l66.38-26.44 1.32-5.4-67.7 26.97z"/><circle cx="112.75" cy="71.55" r="4.83" fill="#fff"/><path d="M112.75 77.83a6.29 6.29 0 1 1 6.25-6.28 6.29 6.29 0 0 1-6.25 6.28zm0-9.66a3.38 3.38 0 1 0 3.38 3.38 3.38 3.38 0 0 0-3.38-3.38zM50.13 23h-6l-2.55 10.26h11zm-4.84 7.32L46.38 26h1.45l1 4.4z" fill="#fdb717"/><path fill="#fff" d="M48.87 30.35h-3.58l1.09-4.4h1.45l1.04 4.4z"/><path fill="#fff" stroke="#fdb717" stroke-linecap="round" stroke-miterlimit="10" stroke-width="3" d="M57.17 45.77H72v10.6H57.17z"/><circle cx="124.64" cy="36.4" r="3.66" fill="#fff" stroke="#fdb717" stroke-linecap="round" stroke-miterlimit="10" stroke-width="3"/><path d="M125.07 41.88v1.88a4.06 4.06 0 0 1 2.22 3.18 3.17 3.17 0 0 1-3.17 3.44A3.11 3.11 0 0 1 121.2 47M124.64 32.74V19.16" fill="none" stroke="#fdb717" stroke-linecap="round" stroke-miterlimit="10" stroke-width="3"/></symbol><symbol viewBox="0 0 144 100.8" id="311_icons_Artboard_19"><title>311 icons</title><path d="M130.84 63.76V53.21H53.25V29.86h-17.8L29.63 42a136.86 136.86 0 0 0-16.48 4.38v17.38z" fill="#fff"/><path d="M132.23 65.15H11.77V45.34l.95-.32a142.9 142.9 0 0 1 16-4.29l5.89-12.26h20v23.35h77.59zM14.54 62.38h114.92v-7.79H51.87V31.24H36.32l-5.74 12-.69.13a136.42 136.42 0 0 0-15.34 4z" fill="#fdb717"/><path fill="#fff" d="M48.49 46.81h-13.1v-3.62l3.7-7.95h9.4v11.57z"/><path d="M49.87 48.19H34v-5.31l4.21-9h11.66zm-13.1-2.77H47.1v-8.8H40l-3.2 6.87zM29.7 65.07a1.38 1.38 0 0 1-1.38-1.38V42.13a1.38 1.38 0 0 1 2.77 0v21.56a1.38 1.38 0 0 1-1.39 1.38zM53.28 65.07a1.38 1.38 0 0 1-1.38-1.38V52a1.38 1.38 0 0 1 2.77 0v11.69a1.38 1.38 0 0 1-1.39 1.38z" fill="#fdb717"/><circle cx="32.86" cy="67.79" r="10.12" fill="#fff"/><path d="M32.86 79.29a11.5 11.5 0 1 1 11.5-11.5 11.52 11.52 0 0 1-11.5 11.5zm0-20.24a8.74 8.74 0 1 0 8.74 8.74 8.75 8.75 0 0 0-8.74-8.74z" fill="#fdb717"/><circle cx="115.52" cy="67.79" r="10.12" fill="#fff"/><path d="M115.52 79.29A11.5 11.5 0 1 1 127 67.79a11.52 11.52 0 0 1-11.48 11.5zm0-20.24a8.74 8.74 0 1 0 8.74 8.74 8.75 8.75 0 0 0-8.74-8.74z" fill="#fdb717"/><circle cx="32.72" cy="67.65" r="4.59" fill="#fff"/><path d="M32.72 73.63a6 6 0 1 1 6-6 6 6 0 0 1-6 6zm0-9.19a3.21 3.21 0 1 0 3.21 3.21 3.21 3.21 0 0 0-3.21-3.21z" fill="#fdb717"/><circle cx="115.38" cy="67.65" r="4.59" fill="#fff"/><path d="M115.38 73.63a6 6 0 1 1 6-6 6 6 0 0 1-6 6zm0-9.19a3.21 3.21 0 1 0 3.21 3.21 3.21 3.21 0 0 0-3.21-3.21z" fill="#fdb717"/><path fill="#fff" d="M53.28 29.85h77.57V53.2H53.28z"/><path d="M132.23 54.59H51.89V28.47h80.34zm-77.57-2.77h74.8V31.24h-74.8z" fill="#fdb717"/><path d="M126.63 36.67H59.26a1.38 1.38 0 0 1 0-2.77h67.37a1.38 1.38 0 1 1 0 2.77zM130.32 25.59h-76.6a1.38 1.38 0 0 1 0-2.77h76.6a1.38 1.38 0 0 1 0 2.77zM126.63 47.74H59.26a1.38 1.38 0 0 1 0-2.77h67.37a1.38 1.38 0 1 1 0 2.77z" fill="#fdb717"/><path d="M65.26 47.28a1.38 1.38 0 0 1-1.38-1.38V35.75a1.38 1.38 0 0 1 2.77 0V45.9a1.38 1.38 0 0 1-1.39 1.38zM73.56 47.28a1.38 1.38 0 0 1-1.38-1.38V35.75a1.38 1.38 0 1 1 2.77 0V45.9a1.38 1.38 0 0 1-1.39 1.38zM80.95 47.28a1.38 1.38 0 0 1-1.38-1.38V35.75a1.38 1.38 0 1 1 2.77 0V45.9a1.38 1.38 0 0 1-1.39 1.38zM89.25 47.28a1.38 1.38 0 0 1-1.38-1.38V35.75a1.38 1.38 0 0 1 2.77 0V45.9a1.38 1.38 0 0 1-1.39 1.38zM97.56 47.28a1.38 1.38 0 0 1-1.38-1.38V35.75a1.38 1.38 0 1 1 2.77 0V45.9a1.38 1.38 0 0 1-1.39 1.38zM105.87 47.28a1.38 1.38 0 0 1-1.38-1.38V35.75a1.38 1.38 0 0 1 2.77 0V45.9a1.38 1.38 0 0 1-1.39 1.38zM113.25 47.28a1.38 1.38 0 0 1-1.38-1.38V35.75a1.38 1.38 0 0 1 2.77 0V45.9a1.38 1.38 0 0 1-1.39 1.38zM121.55 47.28a1.38 1.38 0 0 1-1.38-1.38V35.75a1.38 1.38 0 0 1 2.77 0V45.9a1.38 1.38 0 0 1-1.39 1.38zM46.58 21.51h-5.73l-2.4 9.73h10.44zm-4.6 7l1-4.19h1.42l1 4.19z" fill="#fdb717"/><path fill="#fff" d="M45.38 28.47h-3.39l1.03-4.19h1.38l.98 4.19z"/></symbol><symbol viewBox="0 0 144 100.8" id="311_icons_Artboard_21"><defs><clipPath id="fa"><circle cx="70.54" cy="49.9" r="40.05" fill="none"/></clipPath><clipPath id="fb"><path fill="none" d="M-67.83-533.73h888.92v816.76H-67.83z"/></clipPath><clipPath id="fc"><circle cx="70.54" cy="49.9" r="34.49" fill="none"/></clipPath></defs><title>311 icons</title><circle cx="70.54" cy="49.9" r="38.5" transform="rotate(-45 70.548 49.898)" fill="#fff"/><g clip-path="url(#fb)"><circle cx="70.54" cy="49.9" r="40.05" fill="none" stroke="#fdb717" stroke-linecap="round" stroke-miterlimit="10" stroke-width="4.76"/></g><g clip-path="url(#fb)"><circle cx="70.54" cy="49.9" r="34.49" fill="none" stroke="#fdb717" stroke-linecap="round" stroke-miterlimit="10" stroke-width="4.76"/></g><circle cx="98.97" cy="73.03" r="14.53" transform="rotate(-80.49 98.973 73.034)" fill="#fff" stroke="#fdb717" stroke-linecap="round" stroke-miterlimit="10" stroke-width="2.38"/><path fill="#fdb717" d="M96.57 64.78h4.8l-.8 10.96h-2.93l-1.07-10.96z"/><circle cx="98.97" cy="79.4" r="1.88" fill="#fdb717"/><path d="M95.21 48.94l-6.65-.22 3.34-2.8a1.57 1.57 0 0 0-2-2.41l-6 5.06-6.8-.23-1.71-2.94 3.3-5.48L86.91 38a1.57 1.57 0 1 0-.7-3.07L81 36.17l3.59-5.95a1.83 1.83 0 0 0-3.13-1.88l-3.59 5.94-1.38-5.22a1.57 1.57 0 0 0-3 .8L75.57 38l-3.3 5.48-3.37-.11L65.82 38l1.44-8.56a1.57 1.57 0 1 0-3.1-.52l-.8 4.76-3.47-6.09a1.87 1.87 0 0 0-2.46-.73 1.74 1.74 0 0 0-.68 2.41l3.91 6.85L55 35.1a1.57 1.57 0 0 0-.59 3.09l8.24 1.57 3 5.32L64 47.91l-6.25-.21-6.35-5.49a1.57 1.57 0 1 0-2.06 2.37l3.41 3-6.89-.23A1.74 1.74 0 0 0 44.08 49a1.81 1.81 0 0 0 .92 1.6 1.79 1.79 0 0 0 .91.26l8.39.28-4 4.47a1.57 1.57 0 1 0 2.36 2.09l5.67-6.42 5.67.19 1.68 2.94-3.63 6-8.22 1.9a1.57 1.57 0 1 0 .7 3.06l5.27-1.21-3.26 5.41a1.83 1.83 0 0 0 3.13 1.88l3.26-5.4 1.38 5.21a1.58 1.58 0 0 0 1.52 1.18 1.37 1.37 0 0 0 .41-.06 1.58 1.58 0 0 0 1.12-1.92l-2.17-8.16 3.63-6 3.38.12 3 5.25-1.6 8a1.57 1.57 0 0 0 1.23 1.85 1.34 1.34 0 0 0 .31 0 1.59 1.59 0 0 0 1.55-1.26l.89-4.46 3.62 6.35a1.89 1.89 0 0 0 .66.67 1.85 1.85 0 0 0 1.81.06 1.74 1.74 0 0 0 .68-2.41l-4.21-7.37L86 64.41a1.57 1.57 0 1 0 .67-3.07L78 59.44l-2.69-4.72L77 51.89l5.8.2 6 6.88a1.57 1.57 0 0 0 2.37-2.07l-4.08-4.67 8 .27A1.74 1.74 0 0 0 97 50.78a1.85 1.85 0 0 0-1.79-1.84zM74.7 51.82l-.53.87-1.06 1.75-2.11-.08h-1l-2.1-.07-1-1.81-.52-.91-1-1.81.99-1.76.53-.87 1-1.74 2.1.07h1l2.09.07 1 1.81.51.91 1 1.81z" fill="#fdb717"/><path fill="#fff" stroke="#fdb717" stroke-miterlimit="10" stroke-width="1.56" d="M75.76 50.07l-1.06 1.75-.53.87-1.05 1.75-2.08-.08-1.04-.03-2.09-.07-1.03-1.81-.52-.91-1.04-1.81 1.05-1.75.53-.87 1.05-1.74 2.1.07 1.03.04 2.09.06 1.04 1.81.51.91 1.04 1.81z"/></symbol><symbol viewBox="0 0 144 100.8" id="311_icons_general_lighting_request"><title>311 icons</title><path fill="#fff" stroke="#fdb717" stroke-linecap="round" stroke-miterlimit="10" stroke-width="3" d="M41.91 17.63h60.18v73.22H41.91z"/><path fill="#fff" stroke="#fdb717" stroke-linecap="round" stroke-miterlimit="10" stroke-width="3" d="M96.62 86.07h-48.7V22.4h48.7v63.67zM77.69 14.61a5.2 5.2 0 0 0-10.35 0H61v7.61h22.87v-7.61z"/><circle cx="72.52" cy="14.99" r="1.52" fill="#fdb717"/><path fill="#fff" stroke="#fdb717" stroke-linecap="round" stroke-miterlimit="10" stroke-width="3" d="M70.33 31.36h7.65l-5.31 12.18h8.71L73.52 58h7.86L68.8 74.85l2.8-12.28h-7.52l7.31-14.47h-9.21l8.15-16.74z"/></symbol><symbol viewBox="0 0 144 100.8" id="311_icons_general_request"><title>311 icons</title><circle cx="72" cy="50.4" r="41.87" fill="#fff" stroke="#fdb717" stroke-linecap="round" stroke-miterlimit="10" stroke-width="3"/><circle cx="72" cy="50.4" r="33.82" fill="#fff" stroke="#fdb717" stroke-linecap="round" stroke-miterlimit="10" stroke-width="3"/><path fill="#fff" stroke="#fdb717" stroke-linecap="round" stroke-miterlimit="10" stroke-width="3" d="M65.51 28.62h12.98l-2.16 29.66H68.4l-2.89-29.66z"/><circle cx="72.46" cy="67.08" r="5.1" fill="#fff" stroke="#fdb717" stroke-linecap="round" stroke-miterlimit="10" stroke-width="3"/></symbol><symbol viewBox="0 0 144 100.8" id="311_icons_graffiti_removal"><title>311 icons</title><path fill="#fff" stroke="#fdb717" stroke-linecap="round" stroke-miterlimit="10" stroke-width="3" d="M105.06 87.3H53.87l-4.49-73.8h60.18l-4.5 73.8z"/><path fill="#fff" stroke="#fdb717" stroke-linecap="round" stroke-miterlimit="10" stroke-width="3" d="M46.68 13.5h65.62v6.24H46.68zM48.34 37.66H54v17.12h-5.66z"/><path fill="#fff" stroke="#fdb717" stroke-linecap="round" stroke-miterlimit="10" stroke-width="3" d="M45.81 46.23h11.32v17.12H45.81z"/><path fill="#fff" stroke="#fdb717" stroke-linecap="round" stroke-miterlimit="10" stroke-width="3" d="M60.5 87.3H33.32V61.33l8.05-10.19 19.13.27V87.3zM36.7 30.15h20.43v7.51H36.7z"/><path fill="#fdb717" d="M44.2 38.27l-5.69 6.1v-6l5.69-.1zM31.7 30.83h5v5.75h-5z"/><circle cx="79.83" cy="33.34" r="4.02" fill="#fff" stroke="#fdb717" stroke-linecap="round" stroke-miterlimit="10" stroke-width="3"/><path fill="#fff" stroke="#fdb717" stroke-linecap="round" stroke-miterlimit="10" stroke-width="3" d="M109.56 62.71L79.83 33.34"/></symbol><symbol viewBox="0 0 144 100.8" id="311_icons_improper_storage_of_trash_barrels_"><title>311 icons</title><path d="M57.17 91.77a9.1 9.1 0 1 1 9.1-9.1 9.11 9.11 0 0 1-9.1 9.1zm0-12.25a3.15 3.15 0 1 0 3.15 3.15 3.15 3.15 0 0 0-3.15-3.16z" fill="#fff" stroke="#fdb717" stroke-linecap="round" stroke-miterlimit="10" stroke-width="3"/><path d="M100.4 21.31s-44.34-.14-46.91 0H43.6V26h10.16l3.51 43.4c7.39 0 13.38 4.47 13.38 11.86a13.33 13.33 0 0 1-1 5.14H88.2l6.29-5.89zM94.21 11.84H59.99l-4.79 4.6H99l-4.79-4.6z" fill="#fff" stroke="#fdb717" stroke-linecap="round" stroke-miterlimit="10" stroke-width="3"/><path d="M87.88 49.18A11.38 11.38 0 1 1 76.5 37.8a11.38 11.38 0 0 1 11.38 11.38" fill="#fff" stroke="#fdb717" stroke-linecap="round" stroke-miterlimit="10" stroke-width="3" fill-rule="evenodd"/><path d="M77.8 53.35A1.36 1.36 0 1 1 76.44 52a1.3 1.3 0 0 1 1.36 1.35zM77.33 50.69h-1.69l-.49-4.52v-2.89h2.67v2.89l-.49 4.52z" fill="#fdb717"/></symbol><symbol viewBox="0 0 144 100.8" id="311_icons_missed_trash-recycling-yard_waste-bulk_item"><title>311 icons</title><path d="M57.66 89a8.8 8.8 0 1 1 8.8-8.8 8.81 8.81 0 0 1-8.8 8.8zm0-11.85a3 3 0 1 0 3 3 3 3 0 0 0-3-2.96z" fill="#fff" stroke="#fdb717" stroke-linecap="round" stroke-miterlimit="10" stroke-width="3"/><path d="M99.46 20.92s-42.87-.14-45.35 0h-9.57v4.58h9.82l3.4 41.94c7.14 0 12.93 4.32 12.93 11.46a12.89 12.89 0 0 1-1 5h18l6.08-5.7zM93.47 11.76H60.39l-4.64 4.45H98.1l-4.63-4.45z" fill="#fff" stroke="#fdb717" stroke-linecap="round" stroke-miterlimit="10" stroke-width="3"/><path d="M73.64 51.91l-.12 3.22h-7.57L63.81 53a.26.26 0 0 1 .13-.44l3.31-.69z" fill="#fdb717"/><path d="M71 48.21l-2.26-.84-2.89 7.45a.08.08 0 0 1-.13 0l-2.38-2.26 2.36-6.35-2.25-.84 6.2-5.13zM84.87 45.75l3.05-1 2.63 7.1-1.22 2.75a.26.26 0 0 1-.46 0l-1.81-2.86z" fill="#fdb717"/><path d="M82.35 49.56V52l8 .09a.08.08 0 0 1 .07.11l-1.28 3h-6.78v2.4l-7-4zM73.19 39.88L70.57 38l4.19-6.31 2.94-.64a.26.26 0 0 1 .3.35l-1.25 3.14z" fill="#fdb717"/><path d="M77.75 39.67l1.94-1.42-4.63-6.51a.08.08 0 0 1 0-.13l3.2-.74 4 5.47 1.94-1.42.87 8z" fill="#fdb717"/></symbol><symbol viewBox="0 0 144 100.8" id="311_icons_parking_enforcement_"><title>311 icons</title><path d="M91.54 32L86 70.4H58L52.46 32c0-.46 0-.92.06-1.38a19.54 19.54 0 0 1 39 0c.01.38.02.88.02 1.38z" fill="#fff" stroke="#fdb717" stroke-linecap="round" stroke-miterlimit="10" stroke-width="3"/><path d="M72 20.69A11.11 11.11 0 0 0 60.89 31.8h22.22A11.11 11.11 0 0 0 72 20.69zM66.64 44.44h10.72v15.2H66.64zM72.1 48.72v6.65M68.95 72.42h6.1v15.95h-6.1zM63.5 18.75l7.81 13.05" fill="#fff" stroke="#fdb717" stroke-linecap="round" stroke-miterlimit="10" stroke-width="3"/><path fill="none" stroke="#fdb717" stroke-linecap="round" stroke-miterlimit="10" stroke-width="3" d="M52.46 32.26h39.08"/></symbol><symbol viewBox="0 0 144 100.8" id="311_icons_pothole_repair"><title>311 icons</title><path fill="#fff" stroke="#fdb717" stroke-linecap="round" stroke-miterlimit="10" stroke-width="3" d="M78.63 65.87l18.163-45.575 4.199 1.674-18.164 45.574z"/><path fill="#fff" stroke="#fdb717" stroke-linecap="round" stroke-miterlimit="10" stroke-width="3" d="M61.69 75.44l9.97 14.02 16.88-3.32 9.77-24.53-26.85-10.7-9.77 24.53zM81.59 63.07L73.3 83.86M92.584 9.13l19.73 7.863-3.265 8.194-19.73-7.864z"/><circle cx="53.44" cy="30.18" r="12.26" fill="#fff" stroke="#fdb717" stroke-linecap="round" stroke-miterlimit="10" stroke-width="3"/><path d="M54.84 34.66a1.46 1.46 0 1 1-1.47-1.45 1.4 1.4 0 0 1 1.47 1.45zM54.34 31.8h-1.82l-.53-4.87v-3.11h2.87v3.11l-.52 4.87z" fill="#fdb717"/><path d="M106.18 85.54a11.13 11.13 0 0 0-11-11.14 10.92 10.92 0 0 0-6.76 2.27 4.9 4.9 0 0 0-6.17 2.11 7.6 7.6 0 0 0-8.15-2.09 13.92 13.92 0 0 0-27.4 5.06 11.9 11.9 0 0 0-4.27-.59c-9.39 0-11.37 7.07-10.6 10.51H106c.11-1.67.18-5.46.18-6.13z" fill="#fff" stroke="#fdb717" stroke-linecap="round" stroke-miterlimit="10" stroke-width="3"/></symbol><symbol viewBox="0 0 144 100.8" id="311_icons_schedule_bulk_item_pickup"><title>311 icons</title><path fill="#fff" stroke="#fdb717" stroke-linecap="round" stroke-miterlimit="10" stroke-width="3" d="M60.03 10.95h23.72v18.77H60.03z"/><path fill="#fff" stroke="#fdb717" stroke-linecap="round" stroke-miterlimit="10" stroke-width="3" d="M53.72 27.27h36.34v28.76H53.72z"/><path fill="#fdb717" d="M70.22 40.07h3.34v9.39h-3.34z"/><path fill="#fdb717" d="M71.89 33.84l-3.95 6.84h7.9l-3.95-6.84-3.95 6.84h7.9l-3.95-6.84z"/><text transform="translate(84.17 87.48)" font-size="9.46" fill="#fff" stroke="#fdb717" stroke-linecap="round" stroke-miterlimit="10" stroke-width="3" font-family="Montserrat-Bold, Montserrat" font-weight="700">1</text><path fill="#fff" stroke="#fdb717" stroke-linecap="round" stroke-miterlimit="10" stroke-width="3" d="M97.8 46.52l15.53-15.53M90.06 27.33l11.35-11.35M46.2 46.52L30.67 30.99M53.72 27.77L42.37 16.42M45.98 46.43h51.83v41.02H45.98z"/><path fill="#fdb717" d="M69.11 65.42h5.56v14.14h-5.56z"/><path fill="#fdb717" d="M71.89 56.03l-6.57 10.31h13.14l-6.57-10.31-6.57 10.31h13.14l-6.57-10.31z"/></symbol><symbol viewBox="0 0 144 100.8" id="311_icons_schedule_bulk_item_pickup_copy"><title>311 icons</title><path fill="#fff" stroke="#fdb717" stroke-linecap="round" stroke-miterlimit="10" stroke-width="3" d="M94.07 66.99h-6.32V51.78h6.32z"/><path fill="#fff" d="M97.23 69.14h-3.16V49.62h3.16z"/><path fill="#fff" stroke="#fdb717" stroke-linecap="round" stroke-miterlimit="10" stroke-width="3" d="M93.93 48.49h5.43v21.79h-5.43zM44.64 48.49h5.43v21.79h-5.43zM50.07 51.78h6.32v15.21h-6.32z"/><path fill="#fff" stroke="#fdb717" stroke-linecap="round" stroke-miterlimit="10" stroke-width="3" d="M55.94 36.01h32.13v46.75H55.94z"/><path fill="#fff" stroke="#fdb717" stroke-linecap="round" stroke-miterlimit="10" stroke-width="3" d="M77.19 50.4H66.81l-5.18 8.99 5.18 8.98h10.38l5.18-8.98-5.18-8.99zM69.17 13h5.67v5.67h-5.67zM53.67 33.06h36.66v4.7H53.67zM50.82 82.51h42.36v5.29H50.82z"/><path d="M72 18a14.91 14.91 0 0 0-14.91 14.9h29.82A14.91 14.91 0 0 0 72 18zM74.33 55.34h-4.66l-2.34 4.05 2.34 4.04h4.66l2.34-4.04-2.34-4.05z" fill="#fff" stroke="#fdb717" stroke-linecap="round" stroke-miterlimit="10" stroke-width="3"/></symbol><symbol viewBox="0 0 144 100.8" id="311_icons_sign_repair"><title>311 icons</title><path fill="#fff" stroke="#fdb717" stroke-miterlimit="10" stroke-width="3" d="M110.17 57.89H77.01v-15.3h33.16l7.65 7.65-7.65 7.65z"/><path fill="#fff" stroke="#fdb717" stroke-miterlimit="10" stroke-width="3" d="M71.86 20.32h8.72v69.62h-8.72z"/><path fill="#fff" stroke="#fdb717" stroke-miterlimit="10" stroke-width="3" d="M74.65 43.7H32.88l-6.7-7.65 6.7-8.08h41.77V43.7zM74.67 70.36H46.2l-4.79-5.73 4.79-5.61h28.47v11.34z"/><circle cx="76.22" cy="16.62" r="5.76" fill="#fff" stroke="#fdb717" stroke-miterlimit="10" stroke-width="3"/></symbol><symbol viewBox="0 0 144 100.8" id="311_icons_street_cleaning"><title>311 icons</title><path fill="#fff" stroke="#fdb717" stroke-linecap="round" stroke-miterlimit="10" stroke-width="3" d="M56.36 68.05V57.24h5.32v10.81zM51.87 67.51h15.09M56.39 67.51l-1.14 9.06M61.77 67.51l1.07 9.06M66.96 67.51l2.26 9.06M51.87 67.51l-2.27 9.06"/><circle cx="113.5" cy="66.75" r="11.44" fill="#fff" stroke="#fdb717" stroke-linecap="round" stroke-miterlimit="10" stroke-width="3"/><circle cx="113.35" cy="66.6" r="5.19" fill="#fff" stroke="#fdb717" stroke-linecap="round" stroke-miterlimit="10" stroke-width="3"/><circle cx="32.22" cy="66.08" r="11.44" fill="#fff" stroke="#fdb717" stroke-linecap="round" stroke-miterlimit="10" stroke-width="3"/><circle cx="32.07" cy="65.93" r="5.19" fill="#fff" stroke="#fdb717" stroke-linecap="round" stroke-miterlimit="10" stroke-width="3"/><path fill="#fff" stroke="#fdb717" stroke-linecap="round" stroke-miterlimit="10" stroke-width="3" d="M60.74 22.61H38.86l-8.4 18.68.08 20.33h30.2V22.61z"/><path fill="#fff" stroke="#fdb717" stroke-linecap="round" stroke-miterlimit="10" stroke-width="3" d="M54.23 44.19H37.71v-4.56l4.67-10.02h11.85v14.58zM84.25 68.05V57.24h5.32v10.81zM79.76 67.51h15.09M79.76 67.51l-2.26 9.06M84.28 67.51l-1.13 9.06M89.66 67.51l1.07 9.06M94.85 67.51l2.27 9.06"/><path fill="#fff" stroke="#fdb717" stroke-linecap="round" stroke-miterlimit="10" stroke-width="3" d="M126.67 61.52h-66.2V22.61h66.2v38.91zM30.46 38.08l-13.13 4.04v19.46h13.21l-.08-23.5zM74.2 30.68v22.76M87.24 30.68v22.76M100.27 30.68v22.76M113.64 30.61v22.83"/></symbol></svg>