<?xml version="1.0" encoding="utf-8"?><svg xmlns="http://www.w3.org/2000/svg" xmlns:xlink="http://www.w3.org/1999/xlink"><symbol viewBox="0 0 29.1 48.6" id="current-location"><path fill="#FFF" stroke="#F5A623" stroke-width="2" stroke-miterlimit="10" d="M28.1 14.6c0 7.5-13.6 32-13.6 32S1 22.1 1 14.6 7.1 1 14.6 1s13.5 6.1 13.5 13.6z"/><circle fill="#F5A623" cx="14.6" cy="13.2" r="5.9"/></symbol><symbol viewBox="0 0 29.1 48.6" id="gray-filled"><path fill="#7F7F7F" stroke="#FFF" stroke-width="2" stroke-miterlimit="10" d="M28.1 14.6c0 7.5-13.6 32-13.6 32S1 22.1 1 14.6 7.1 1 14.6 1s13.5 6.1 13.5 13.6z"/></symbol><symbol viewBox="0 0 29.1 48.6" id="green-empty"><path fill="#FFF" stroke="#62A744" stroke-width="2" stroke-miterlimit="10" d="M28.1 14.6c0 7.5-13.6 32-13.6 32S1 22.1 1 14.6 7.1 1 14.6 1s13.5 6.1 13.5 13.6z"/></symbol><symbol viewBox="0 0 29.1 48.6" id="green-filled"><path fill="#62A744" stroke="#FFF" stroke-width="2" stroke-miterlimit="10" d="M28.1 14.6c0 7.5-13.6 32-13.6 32S1 22.1 1 14.6 7.1 1 14.6 1s13.5 6.1 13.5 13.6z"/></symbol><symbol viewBox="0 0 29.1 48.6" id="orange-empty"><path fill="#FFF" stroke="#F5A623" stroke-width="2" stroke-miterlimit="10" d="M28.1 14.6c0 7.5-13.6 32-13.6 32S1 22.1 1 14.6 7.1 1 14.6 1s13.5 6.1 13.5 13.6z"/></symbol><symbol viewBox="0 0 29.1 48.6" id="orange-filled"><path fill="#F5A623" stroke="#FFF" stroke-width="2" stroke-miterlimit="10" d="M28.1 14.6c0 7.5-13.6 32-13.6 32S1 22.1 1 14.6 7.1 1 14.6 1s13.5 6.1 13.5 13.6z"/></symbol></svg>