<svg width="479" height="324" viewBox="0 0 479 324" xmlns="http://www.w3.org/2000/svg" xmlns:xlink="http://www.w3.org/1999/xlink"><title>BOS: 311 watermark</title><defs><path id="a" d="M30.333.13H.018v38.473h30.315V.13z"/></defs><g fill="none" fill-rule="evenodd"><path fill="#F3F3F3" d="M0 0h479v324H0z"/><g transform="translate(134.043 77.124)"><mask id="b" fill="#fff"><use xlink:href="#a"/></mask><path d="M8.524 31.43h7.633c.654 0 1.317-.073 1.99-.218.672-.144 1.28-.398 1.827-.76.545-.362.99-.833 1.335-1.413.344-.58.517-1.287.517-2.12 0-.906-.227-1.64-.68-2.202-.456-.56-1.03-.987-1.72-1.277-.69-.288-1.435-.488-2.234-.597-.8-.108-1.546-.162-2.236-.162H8.524v8.75zm0-15.923h6.16c.655 0 1.3-.072 1.936-.217.636-.145 1.208-.38 1.718-.706.508-.327.917-.76 1.227-1.305.308-.544.463-1.196.463-1.957 0-.796-.173-1.458-.518-1.983-.346-.525-.79-.933-1.336-1.223-.545-.29-1.163-.498-1.854-.625-.69-.127-1.363-.19-2.017-.19h-5.78v8.205zM.018.13h14.394c1.672 0 3.353.117 5.044.352 1.69.236 3.207.706 4.552 1.413 1.345.706 2.435 1.694 3.27 2.96.837 1.27 1.255 2.954 1.255 5.055 0 2.174-.61 3.976-1.826 5.407-1.218 1.432-2.827 2.455-4.825 3.07v.11c1.272.18 2.426.534 3.462 1.06 1.036.525 1.926 1.194 2.67 2.01.746.814 1.32 1.766 1.72 2.852.4 1.086.6 2.246.6 3.477 0 2.03-.437 3.723-1.31 5.08-.872 1.36-2 2.456-3.38 3.29-1.382.833-2.936 1.43-4.662 1.792-1.727.362-3.444.543-5.152.543H.018V.13z" fill="#FFF" mask="url(#b)"/></g><path d="M235.335 87.14c-.63-.793-1.483-1.38-2.56-1.76-1.076-.378-2.094-.568-3.055-.568-.564 0-1.143.066-1.74.198-.595.132-1.16.34-1.69.62-.53.28-.96.65-1.29 1.113-.332.463-.497 1.024-.497 1.684 0 1.057.397 1.866 1.192 2.427.795.56 1.797 1.04 3.006 1.436 1.21.396 2.51.792 3.902 1.19 1.39.395 2.69.957 3.9 1.682 1.21.727 2.212 1.7 3.007 2.923.794 1.22 1.192 2.856 1.192 4.903 0 1.948-.365 3.648-1.093 5.1-.73 1.454-1.716 2.66-2.958 3.616-1.242.958-2.684 1.668-4.323 2.13-1.64.462-3.372.693-5.194.693-2.286 0-4.406-.347-6.36-1.04-1.955-.693-3.777-1.815-5.466-3.368l5.515-6.043c.795 1.057 1.797 1.875 3.007 2.452 1.208.577 2.46.865 3.75.865.63 0 1.268-.074 1.914-.223.646-.148 1.226-.37 1.74-.668.513-.297.926-.677 1.242-1.14.314-.46.472-1.006.472-1.633 0-1.056-.406-1.89-1.218-2.5-.812-.61-1.83-1.13-3.056-1.56-1.225-.43-2.55-.86-3.975-1.288-1.423-.43-2.75-1.007-3.974-1.734-1.226-.726-2.245-1.684-3.056-2.872-.812-1.19-1.217-2.757-1.217-4.705 0-1.88.372-3.532 1.118-4.952.746-1.42 1.74-2.608 2.982-3.566 1.242-.957 2.675-1.675 4.298-2.154 1.623-.478 3.296-.718 5.02-.718 1.987 0 3.907.28 5.763.842 1.855.562 3.528 1.503 5.02 2.823l-5.318 5.794zM200.575 96.518c0-5.892-4.796-10.728-10.707-10.728-5.968 0-10.764 4.836-10.764 10.728 0 5.89 4.796 10.672 10.764 10.672 5.91 0 10.707-4.78 10.707-10.672m8.366 0c0 10.505-8.532 19.01-19.072 19.01-10.597 0-19.13-8.505-19.13-19.01 0-10.506 8.533-19.066 19.13-19.066 10.54 0 19.073 8.56 19.073 19.066M255.296 114.61c-3.29 0-5.968-2.667-5.968-5.947 0-3.28 2.677-5.892 5.968-5.892 3.29 0 5.967 2.613 5.967 5.893s-2.677 5.947-5.967 5.947m0-23.738c-3.29 0-5.968-2.668-5.968-5.948 0-3.28 2.677-5.892 5.968-5.892 3.29 0 5.967 2.613 5.967 5.892 0 3.28-2.677 5.948-5.967 5.948M211.738 204.207c0 19.5-18.01 34.664-40.37 34.664-22.203 0-40.368-15.164-40.368-34.663h22.047c0 8.976 8.23 14.392 18.322 14.392 10.09 0 18.32-5.417 18.32-14.393 0-16.404-9.16-18.88-18.32-18.88h-22.825v-17.64l28.57-22.75h-43.63v-19.343h74.06v19.343l-28.412 22.75c19.718 0 32.605 15.164 32.605 36.52M276.474 125.594v109.254H250.39V164.28h-24.843v-17.485s23.445-2.786 24.842-21.2h26.084zM347.18 125.594v109.254h-26.086V164.28h-24.842v-17.485s23.445-2.786 24.842-21.2h26.085z" fill="#FFF"/></g></svg>