<svg xmlns="http://www.w3.org/2000/svg" viewBox="0 0 738 528.12"><title>chinatown</title><g id="chinatown"><polygon points="273.26 161.87 273.26 238.22 207.8 235.25 127.8 219.89 121.69 205.6 125.21 194 163.96 200.72 173.22 202.35 173.22 188.76 217 161.38 273.26 161.87" fill="#fff" stroke="#fdb718" stroke-miterlimit="10" stroke-width="4"/><polygon points="178.12 86.64 183.64 96.41 273.43 114.82 273.43 42.38 230.9 70.92 229.66 83.34 181.65 75.02 178.12 86.64" fill="#fff" stroke="#fdb718" stroke-miterlimit="10" stroke-width="4"/><polygon points="463.06 42.9 463.06 102.05 463.05 115.34 554.68 100.68 558.36 87.15 554.83 75.53 516.03 81.63 513.5 59.25 504.56 60.68 505.59 71.44 463.06 42.9" fill="#fff" stroke="#fdb718" stroke-miterlimit="10" stroke-width="4"/><polygon points="464.74 160.48 464.74 236.83 530.2 233.86 610.2 218.51 616.32 204.21 612.79 192.61 574.04 199.33 564.78 200.96 564.78 187.37 521 159.99 464.74 160.48" fill="#fff" stroke="#fdb718" stroke-miterlimit="10" stroke-width="4"/><polyline points="616.32 204.24 527.64 220.18 521.01 220.18 463.92 221.03" fill="none" stroke="#fdb718" stroke-miterlimit="10" stroke-width="4"/><polyline points="565.4 199.81 541.25 186.31 521.01 173.74 464.75 173.79" fill="none" stroke="#fdb718" stroke-miterlimit="10" stroke-width="4"/><polygon points="565.8 172.68 565.8 199.78 580.88 198.16 580.88 172.68 565.8 172.68" fill="#fff" stroke="#fdb718" stroke-miterlimit="10" stroke-width="4"/><polygon points="171.41 173.93 171.41 201.03 156.33 199.41 156.33 173.93 171.41 173.93" fill="#fff" stroke="#fdb718" stroke-miterlimit="10" stroke-width="4"/><rect x="273.12" y="115.72" width="190.77" height="123.94" fill="#fff" stroke="#fdb718" stroke-miterlimit="10" stroke-width="4"/><polyline points="121.68 205.63 210.36 221.57 216.99 221.57 274.08 222.42" fill="none" stroke="#fdb718" stroke-miterlimit="10" stroke-width="4"/><polyline points="172.6 201.2 196.75 187.7 216.99 175.13 273.25 175.18" fill="none" stroke="#fdb718" stroke-miterlimit="10" stroke-width="4"/><rect x="203.14" y="234.32" width="24.51" height="257.31" rx="0.94" ry="0.94" fill="#fff" stroke="#fdb718" stroke-miterlimit="10" stroke-width="4"/><path d="M534.52,237.11V488.83c0,1.54-1.56,2.79-3.46,2.79H513.46c-1.9,0-3.46-1.26-3.46-2.79V237.11c0-1.54,1.56-2.79,3.46-2.79h17.59C533,234.32,534.52,235.58,534.52,237.11Z" fill="#fff" stroke="#fdb718" stroke-miterlimit="10" stroke-width="4"/><line x1="269.94" y1="56.24" x2="229.66" y2="83.34" fill="none" stroke="#fdb718" stroke-miterlimit="10" stroke-width="4"/><polygon points="216.89 80.83 229.46 82.75 231.8 60.34 219.23 58.42 216.89 80.83" fill="#fff" stroke="#fdb718" stroke-miterlimit="10" stroke-width="4"/><path d="M228.45,280.12v47c.41,0,.82,0,1.24,0,20,0,36.23-21,36.71-47Z" fill="#fff" stroke="#fdb718" stroke-miterlimit="10" stroke-width="4"/><rect x="272.88" y="36.83" width="189.83" height="95.76" fill="#fff" stroke="#fdb718" stroke-miterlimit="10" stroke-width="4"/><rect x="220.74" y="234.32" width="298.21" height="45.8" fill="#fff" stroke="#fdb718" stroke-miterlimit="10" stroke-width="4"/><path d="M510,280.12v47c-.41,0-.82,0-1.24,0-20,0-36.23-21-36.71-47Z" fill="#fff" stroke="#fdb718" stroke-miterlimit="10" stroke-width="4"/><rect x="292.33" y="152.41" width="153.43" height="57.16" fill="#fff" stroke="#fdb718" stroke-miterlimit="10" stroke-width="4"/><rect x="436.85" y="29.83" width="26.2" height="25.65" fill="#fff" stroke="#fdb718" stroke-miterlimit="10" stroke-width="4"/><rect x="273.23" y="29.83" width="26.21" height="25.65" fill="#fff" stroke="#fdb718" stroke-miterlimit="10" stroke-width="4"/><polyline points="506.82 83.86 483.29 69.23 463.06 56.65" fill="none" stroke="#fdb718" stroke-miterlimit="10" stroke-width="4"/><polygon points="521.34 80.91 507.84 82.96 505.55 60.55 519.05 58.5 521.34 80.91" fill="#fff" stroke="#fdb718" stroke-miterlimit="10" stroke-width="4"/><polygon points="463.05 56.66 463.05 115.34 273.27 115.34 273.27 56.66 299.44 56.66 299.44 36.29 436.85 36.29 436.85 56.66 463.05 56.66" fill="none" stroke="#fdb718" stroke-miterlimit="10" stroke-width="4"/><polyline points="558.36 87.15 469.69 103.1 272.11 103.1" fill="none" stroke="#fdb718" stroke-miterlimit="10" stroke-width="4"/><line x1="299.43" y1="47.07" x2="436.85" y2="47.07" fill="#fff" stroke="#fdb718" stroke-miterlimit="10" stroke-width="4"/><line x1="269.16" y1="56.65" x2="464.74" y2="56.65" fill="none" stroke="#fdb718" stroke-miterlimit="10" stroke-width="4"/><line x1="261.7" y1="102.5" x2="261.7" y2="61.77" fill="none" stroke="#fdb718" stroke-miterlimit="10" stroke-width="4"/><line x1="259.77" y1="221.3" x2="259.77" y2="175.48" fill="none" stroke="#fdb718" stroke-miterlimit="10" stroke-width="4"/><line x1="239.44" y1="221.91" x2="239.44" y2="175.98" fill="none" stroke="#fdb718" stroke-miterlimit="10" stroke-width="4"/><line x1="216.89" y1="221.57" x2="216.89" y2="175.98" fill="none" stroke="#fdb718" stroke-miterlimit="10" stroke-width="4"/><line x1="194.15" y1="218.96" x2="194.15" y2="189.16" fill="none" stroke="#fdb718" stroke-miterlimit="10" stroke-width="4"/><line x1="477.19" y1="173.78" x2="477.19" y2="219.63" fill="none" stroke="#fdb718" stroke-miterlimit="10" stroke-width="4"/><line x1="497.52" y1="175.48" x2="497.52" y2="218.46" fill="none" stroke="#fdb718" stroke-miterlimit="10" stroke-width="4"/><line x1="520.07" y1="175.48" x2="520.07" y2="218.46" fill="none" stroke="#fdb718" stroke-miterlimit="10" stroke-width="4"/><line x1="542.81" y1="188.66" x2="542.81" y2="218.47" fill="none" stroke="#fdb718" stroke-miterlimit="10" stroke-width="4"/><line x1="474.4" y1="102.66" x2="474.4" y2="63.71" fill="none" stroke="#fdb718" stroke-miterlimit="10" stroke-width="4"/><line x1="491.03" y1="99.26" x2="491.03" y2="74.04" fill="none" stroke="#fdb718" stroke-miterlimit="10" stroke-width="4"/><line x1="246.25" y1="99.09" x2="246.25" y2="71.35" fill="none" stroke="#fdb718" stroke-miterlimit="10" stroke-width="4"/><line x1="284.33" y1="56.65" x2="284.33" y2="103.1" fill="none" stroke="#fdb718" stroke-miterlimit="10" stroke-width="4"/><line x1="305.2" y1="55.9" x2="305.2" y2="102.34" fill="none" stroke="#fdb718" stroke-miterlimit="10" stroke-width="4"/><line x1="326.06" y1="55.9" x2="326.06" y2="102.34" fill="none" stroke="#fdb718" stroke-miterlimit="10" stroke-width="4"/><line x1="346.93" y1="54.69" x2="346.93" y2="101.14" fill="none" stroke="#fdb718" stroke-miterlimit="10" stroke-width="4"/><line x1="367.79" y1="55.9" x2="367.79" y2="102.34" fill="none" stroke="#fdb718" stroke-miterlimit="10" stroke-width="4"/><line x1="388.66" y1="56.65" x2="388.66" y2="103.1" fill="none" stroke="#fdb718" stroke-miterlimit="10" stroke-width="4"/><line x1="409.52" y1="57.79" x2="409.52" y2="104.23" fill="none" stroke="#fdb718" stroke-miterlimit="10" stroke-width="4"/><line x1="430.38" y1="55.9" x2="430.38" y2="102.34" fill="none" stroke="#fdb718" stroke-miterlimit="10" stroke-width="4"/><line x1="451.25" y1="55.38" x2="451.25" y2="101.83" fill="none" stroke="#fdb718" stroke-miterlimit="10" stroke-width="4"/><polyline points="178.12 86.64 266.8 102.58 276.98 103.1" fill="none" stroke="#fdb718" stroke-miterlimit="10" stroke-width="4"/><line x1="303.88" y1="180.99" x2="433.13" y2="180.99" fill="none" stroke="#fdb718" stroke-miterlimit="10" stroke-width="4"/><line x1="156.67" y1="491.83" x2="581.33" y2="491.83" fill="none" stroke="#fdb718" stroke-miterlimit="10" stroke-width="4"/></g></svg>