<svg xmlns="http://www.w3.org/2000/svg" viewBox="0 0 738 528.12"><title>north end</title><g id="north_end" data-name="north end"><rect x="181.64" y="30.9" width="374.73" height="460.93" fill="#fff" stroke="#fdb718" stroke-miterlimit="10" stroke-width="4"/><rect x="165.88" y="30.9" width="406.23" height="17.5" fill="#fff" stroke="#fdb718" stroke-miterlimit="10" stroke-width="4"/><rect x="215.95" y="30.9" width="59" height="358.5" rx="5.82" ry="5.82" fill="#fff" stroke="#fdb718" stroke-miterlimit="10" stroke-width="4"/><rect x="340.35" y="30.9" width="59" height="358.5" rx="5.82" ry="5.82" fill="#fff" stroke="#fdb718" stroke-miterlimit="10" stroke-width="4"/><rect x="465.35" y="30.9" width="59" height="358.5" rx="5.82" ry="5.82" fill="#fff" stroke="#fdb718" stroke-miterlimit="10" stroke-width="4"/><line x1="216.2" y1="48.4" x2="525.2" y2="48.4" fill="none" stroke="#fdb718" stroke-miterlimit="10" stroke-width="4"/><rect x="234.95" y="100.39" width="21" height="46.58" fill="#fdb718"/><rect x="297.35" y="100.39" width="21" height="46.58" fill="#fdb718"/><rect x="421.52" y="100.39" width="21" height="46.58" fill="#fdb718"/><rect x="359.35" y="100.39" width="21" height="46.58" fill="#fdb718"/><rect x="484.35" y="100.39" width="21" height="46.58" fill="#fdb718"/><line x1="215.95" y1="99.4" x2="274.95" y2="99.4" fill="#fff" stroke="#fdb718" stroke-miterlimit="10" stroke-width="4"/><line x1="215.95" y1="198.4" x2="274.95" y2="198.4" fill="#fff" stroke="#fdb718" stroke-miterlimit="10" stroke-width="4"/><line x1="340.35" y1="198.4" x2="399.35" y2="198.4" fill="#fff" stroke="#fdb718" stroke-miterlimit="10" stroke-width="4"/><line x1="465.35" y1="198.4" x2="524.35" y2="198.4" fill="#fff" stroke="#fdb718" stroke-miterlimit="10" stroke-width="4"/><line x1="340.35" y1="99.4" x2="399.35" y2="99.4" fill="#fff" stroke="#fdb718" stroke-miterlimit="10" stroke-width="4"/><line x1="465.35" y1="99.4" x2="524.35" y2="99.4" fill="#fff" stroke="#fdb718" stroke-miterlimit="10" stroke-width="4"/><line x1="215.95" y1="62.4" x2="274.95" y2="62.4" fill="#fff" stroke="#fdb718" stroke-miterlimit="10" stroke-width="4"/><line x1="340.35" y1="62.4" x2="399.35" y2="62.4" fill="#fff" stroke="#fdb718" stroke-miterlimit="10" stroke-width="4"/><line x1="465.35" y1="62.4" x2="524.35" y2="62.4" fill="#fff" stroke="#fdb718" stroke-miterlimit="10" stroke-width="4"/><line x1="215.95" y1="73.4" x2="274.95" y2="73.4" fill="#fff" stroke="#fdb718" stroke-miterlimit="10" stroke-width="4"/><line x1="340.35" y1="73.4" x2="399.35" y2="73.4" fill="#fff" stroke="#fdb718" stroke-miterlimit="10" stroke-width="4"/><line x1="465.35" y1="73.4" x2="524.35" y2="73.4" fill="#fff" stroke="#fdb718" stroke-miterlimit="10" stroke-width="4"/><line x1="215.95" y1="174.4" x2="274.95" y2="174.4" fill="#fff" stroke="#fdb718" stroke-miterlimit="10" stroke-width="4"/><line x1="340.35" y1="174.4" x2="399.35" y2="174.4" fill="#fff" stroke="#fdb718" stroke-miterlimit="10" stroke-width="4"/><line x1="465.35" y1="174.4" x2="524.35" y2="174.4" fill="#fff" stroke="#fdb718" stroke-miterlimit="10" stroke-width="4"/><line x1="215.95" y1="275.4" x2="274.95" y2="275.4" fill="#fff" stroke="#fdb718" stroke-miterlimit="10" stroke-width="4"/><line x1="340.35" y1="275.4" x2="399.35" y2="275.4" fill="#fff" stroke="#fdb718" stroke-miterlimit="10" stroke-width="4"/><line x1="465.35" y1="275.4" x2="524.35" y2="275.4" fill="#fff" stroke="#fdb718" stroke-miterlimit="10" stroke-width="4"/><line x1="215.95" y1="161.4" x2="274.95" y2="161.4" fill="#fff" stroke="#fdb718" stroke-miterlimit="10" stroke-width="4"/><line x1="340.35" y1="161.4" x2="399.35" y2="161.4" fill="#fff" stroke="#fdb718" stroke-miterlimit="10" stroke-width="4"/><line x1="465.35" y1="161.4" x2="524.35" y2="161.4" fill="#fff" stroke="#fdb718" stroke-miterlimit="10" stroke-width="4"/><line x1="215.95" y1="259.4" x2="274.95" y2="259.4" fill="#fff" stroke="#fdb718" stroke-miterlimit="10" stroke-width="4"/><line x1="340.35" y1="259.4" x2="399.35" y2="259.4" fill="#fff" stroke="#fdb718" stroke-miterlimit="10" stroke-width="4"/><line x1="465.35" y1="259.4" x2="524.35" y2="259.4" fill="#fff" stroke="#fdb718" stroke-miterlimit="10" stroke-width="4"/><rect x="234.95" y="198.79" width="21" height="46.58" fill="#fdb718"/><rect x="297.15" y="198.79" width="21" height="46.58" fill="#fdb718"/><rect x="421.52" y="198.79" width="21" height="46.58" fill="#fdb718"/><rect x="359.35" y="198.79" width="21" height="46.58" fill="#fdb718"/><rect x="484.35" y="198.79" width="21" height="46.58" fill="#fdb718"/><line x1="215.95" y1="292.4" x2="274.95" y2="292.4" fill="#fff" stroke="#fdb718" stroke-miterlimit="10" stroke-width="4"/><line x1="340.35" y1="292.4" x2="399.35" y2="292.4" fill="#fff" stroke="#fdb718" stroke-miterlimit="10" stroke-width="4"/><line x1="465.35" y1="292.4" x2="524.35" y2="292.4" fill="#fff" stroke="#fdb718" stroke-miterlimit="10" stroke-width="4"/><rect x="234.95" y="294.19" width="21" height="46.58" fill="#fdb718"/><rect x="297.15" y="294.19" width="21" height="46.58" fill="#fdb718"/><rect x="421.52" y="294.19" width="21" height="46.58" fill="#fdb718"/><rect x="359.35" y="294.19" width="21" height="46.58" fill="#fdb718"/><rect x="484.35" y="294.19" width="21" height="46.58" fill="#fdb718"/><line x1="181.64" y1="389.4" x2="556.36" y2="389.4" fill="#fff" stroke="#fdb718" stroke-miterlimit="10" stroke-width="4"/><line x1="399.35" y1="245.37" x2="340.35" y2="245.37" fill="none" stroke="#fdb718" stroke-miterlimit="10" stroke-width="4"/><polyline points="465.36 245.37 524.36 245.37 525.21 245.37" fill="none" stroke="#fdb718" stroke-miterlimit="10" stroke-width="4"/><polyline points="274.95 245.37 219.48 245.37 215.96 245.37" fill="none" stroke="#fdb718" stroke-miterlimit="10" stroke-width="4"/><line x1="399.35" y1="340.37" x2="340.35" y2="340.37" fill="none" stroke="#fdb718" stroke-miterlimit="10" stroke-width="4"/><polyline points="465.36 340.37 524.36 340.37 525.21 340.37" fill="none" stroke="#fdb718" stroke-miterlimit="10" stroke-width="4"/><polyline points="274.95 340.37 219.48 340.37 215.96 340.37" fill="none" stroke="#fdb718" stroke-miterlimit="10" stroke-width="4"/><line x1="399.35" y1="146.37" x2="340.35" y2="146.37" fill="none" stroke="#fdb718" stroke-miterlimit="10" stroke-width="4"/><polyline points="465.36 146.37 524.36 146.37 525.21 146.37" fill="none" stroke="#fdb718" stroke-miterlimit="10" stroke-width="4"/><polyline points="274.95 146.37 219.48 146.37 215.96 146.37" fill="none" stroke="#fdb718" stroke-miterlimit="10" stroke-width="4"/><path d="M216,51.4c7.37,0,7.37,10,14.75,10s7.37-10,14.74-10,7.38,10,14.75,10,7.38-10,14.75-10" fill="none" stroke="#fdb718" stroke-miterlimit="10" stroke-width="4"/><path d="M341.2,51.4c7.37,0,7.37,10,14.75,10s7.37-10,14.74-10,7.38,10,14.75,10,7.38-10,14.75-10" fill="none" stroke="#fdb718" stroke-miterlimit="10" stroke-width="4"/><path d="M465.78,51.43c7.37,0,7.37,10,14.75,10s7.37-10,14.74-10,7.38,10,14.75,10,7.38-10,14.75-10" fill="none" stroke="#fdb718" stroke-miterlimit="10" stroke-width="4"/><path d="M216,149.4c7.37,0,7.37,10,14.75,10s7.37-10,14.74-10,7.38,10,14.75,10,7.38-10,14.75-10" fill="none" stroke="#fdb718" stroke-miterlimit="10" stroke-width="4"/><path d="M341.2,149.4c7.37,0,7.37,10,14.75,10s7.37-10,14.74-10,7.38,10,14.75,10,7.38-10,14.75-10" fill="none" stroke="#fdb718" stroke-miterlimit="10" stroke-width="4"/><path d="M465.78,149.43c7.37,0,7.37,10,14.75,10s7.37-10,14.74-10,7.38,10,14.75,10,7.38-10,14.75-10" fill="none" stroke="#fdb718" stroke-miterlimit="10" stroke-width="4"/><path d="M216,247.4c7.37,0,7.37,10,14.75,10s7.37-10,14.74-10,7.38,10,14.75,10,7.38-10,14.75-10" fill="none" stroke="#fdb718" stroke-miterlimit="10" stroke-width="4"/><path d="M341.2,247.4c7.37,0,7.37,10,14.75,10s7.37-10,14.74-10,7.38,10,14.75,10,7.38-10,14.75-10" fill="none" stroke="#fdb718" stroke-miterlimit="10" stroke-width="4"/><path d="M465.78,247.43c7.37,0,7.37,10,14.75,10s7.37-10,14.74-10,7.38,10,14.75,10,7.38-10,14.75-10" fill="none" stroke="#fdb718" stroke-miterlimit="10" stroke-width="4"/><line x1="215.95" y1="370.4" x2="274.95" y2="370.4" fill="#fff" stroke="#fdb718" stroke-miterlimit="10" stroke-width="4"/><line x1="340.35" y1="370.4" x2="399.35" y2="370.4" fill="#fff" stroke="#fdb718" stroke-miterlimit="10" stroke-width="4"/><line x1="465.35" y1="370.4" x2="524.35" y2="370.4" fill="#fff" stroke="#fdb718" stroke-miterlimit="10" stroke-width="4"/><line x1="215.95" y1="354.4" x2="274.95" y2="354.4" fill="#fff" stroke="#fdb718" stroke-miterlimit="10" stroke-width="4"/><line x1="340.35" y1="354.4" x2="399.35" y2="354.4" fill="#fff" stroke="#fdb718" stroke-miterlimit="10" stroke-width="4"/><line x1="465.35" y1="354.4" x2="524.35" y2="354.4" fill="#fff" stroke="#fdb718" stroke-miterlimit="10" stroke-width="4"/><path d="M216,342.4c7.37,0,7.37,10,14.75,10s7.37-10,14.74-10,7.38,10,14.75,10,7.38-10,14.75-10" fill="none" stroke="#fdb718" stroke-miterlimit="10" stroke-width="4"/><path d="M341.2,342.4c7.37,0,7.37,10,14.75,10s7.37-10,14.74-10,7.38,10,14.75,10,7.38-10,14.75-10" fill="none" stroke="#fdb718" stroke-miterlimit="10" stroke-width="4"/><path d="M465.78,342.43c7.37,0,7.37,10,14.75,10s7.37-10,14.74-10,7.38,10,14.75,10,7.38-10,14.75-10" fill="none" stroke="#fdb718" stroke-miterlimit="10" stroke-width="4"/><line x1="287.01" y1="99.4" x2="328.69" y2="99.4" fill="none" stroke="#fdb718" stroke-miterlimit="10" stroke-width="4"/><line x1="287.01" y1="146.4" x2="328.69" y2="146.4" fill="none" stroke="#fdb718" stroke-miterlimit="10" stroke-width="4"/><line x1="287.01" y1="200.4" x2="328.69" y2="200.4" fill="none" stroke="#fdb718" stroke-miterlimit="10" stroke-width="4"/><line x1="287.01" y1="247.4" x2="328.69" y2="247.4" fill="none" stroke="#fdb718" stroke-miterlimit="10" stroke-width="4"/><line x1="287.01" y1="293.4" x2="328.69" y2="293.4" fill="none" stroke="#fdb718" stroke-miterlimit="10" stroke-width="4"/><line x1="287.01" y1="340.4" x2="328.69" y2="340.4" fill="none" stroke="#fdb718" stroke-miterlimit="10" stroke-width="4"/><line x1="411.18" y1="293.4" x2="452.86" y2="293.4" fill="none" stroke="#fdb718" stroke-miterlimit="10" stroke-width="4"/><line x1="411.18" y1="340.4" x2="452.86" y2="340.4" fill="none" stroke="#fdb718" stroke-miterlimit="10" stroke-width="4"/><line x1="411.18" y1="199.4" x2="452.86" y2="199.4" fill="none" stroke="#fdb718" stroke-miterlimit="10" stroke-width="4"/><line x1="411.18" y1="246.4" x2="452.86" y2="246.4" fill="none" stroke="#fdb718" stroke-miterlimit="10" stroke-width="4"/><line x1="411.18" y1="98.4" x2="452.86" y2="98.4" fill="none" stroke="#fdb718" stroke-miterlimit="10" stroke-width="4"/><line x1="411.18" y1="145.4" x2="452.86" y2="145.4" fill="none" stroke="#fdb718" stroke-miterlimit="10" stroke-width="4"/><rect x="287.01" y="402.4" width="41.68" height="89.43" fill="#fdb718"/><rect x="411.18" y="402.4" width="41.68" height="89.43" fill="#fdb718"/><rect x="201.2" y="402.4" width="66" height="48" fill="#fdb718"/><rect x="472.35" y="402.4" width="66" height="48" fill="#fdb718"/></g></svg>