<svg xmlns="http://www.w3.org/2000/svg" viewBox="0 0 738 528.12"><title>south boston</title><g id="south_boston" data-name="south boston"><rect x="30.55" y="203.36" width="677.78" height="287.13" fill="#fff" stroke="#fdb718" stroke-miterlimit="10" stroke-width="4"/><line x1="234.86" y1="367.02" x2="503.03" y2="367.02" fill="none" stroke="#fdb718" stroke-miterlimit="10" stroke-width="4"/><path d="M371.22,241.7c-25.88,0-47,15.72-47,35.12V367h94v-90.2C418.21,257.42,397.1,241.7,371.22,241.7Z" fill="#fff" stroke="#fdb718" stroke-miterlimit="10" stroke-width="4"/><path d="M371.22,259.78c-18.51,0-33.62,13.45-33.62,30.05V367h67.24V289.83C404.84,273.23,389.73,259.78,371.22,259.78Z" fill="#fdb718"/><path d="M567.32,242c-25.88,0-47,15.72-47,35.12v90.2h94v-90.2C614.31,257.77,593.2,242,567.32,242Z" fill="#fff" stroke="#fdb718" stroke-miterlimit="10" stroke-width="4"/><path d="M567.32,260.12c-18.51,0-33.62,13.45-33.62,30.05v77.19h67.24V290.17C600.94,273.58,585.83,260.12,567.32,260.12Z" fill="#fdb718"/><path d="M175.12,242c-25.88,0-47,15.72-47,35.12v90.2h94v-90.2C222.11,257.77,201,242,175.12,242Z" fill="#fff" stroke="#fdb718" stroke-miterlimit="10" stroke-width="4"/><path d="M175.12,260.12c-18.51,0-33.62,13.45-33.62,30.05v77.19h67.24V290.17C208.74,273.58,193.63,260.12,175.12,260.12Z" fill="#fdb718"/><rect x="262.38" y="308.64" width="28.87" height="58.38" fill="#fdb718"/><rect x="449.44" y="308.64" width="28.87" height="58.38" fill="#fdb718"/><rect x="483.65" y="221.83" width="14.55" height="145.19" fill="#fff" stroke="#fdb718" stroke-miterlimit="10" stroke-width="4"/><rect x="478.46" y="348.9" width="24.92" height="18.47" fill="#fff" stroke="#fdb718" stroke-miterlimit="10" stroke-width="4"/><rect x="478.46" y="203.36" width="24.92" height="18.47" fill="#fff" stroke="#fdb718" stroke-miterlimit="10" stroke-width="4"/><rect x="428.99" y="222.27" width="14.55" height="145.19" fill="#fff" stroke="#fdb718" stroke-miterlimit="10" stroke-width="4"/><rect x="423.81" y="349.33" width="24.92" height="18.47" fill="#fff" stroke="#fdb718" stroke-miterlimit="10" stroke-width="4"/><rect x="423.81" y="203.8" width="24.92" height="18.47" fill="#fff" stroke="#fdb718" stroke-miterlimit="10" stroke-width="4"/><rect x="296.86" y="221.83" width="14.55" height="145.19" fill="#fff" stroke="#fdb718" stroke-miterlimit="10" stroke-width="4"/><rect x="291.68" y="348.9" width="24.92" height="18.47" fill="#fff" stroke="#fdb718" stroke-miterlimit="10" stroke-width="4"/><rect x="291.68" y="203.36" width="24.92" height="18.47" fill="#fff" stroke="#fdb718" stroke-miterlimit="10" stroke-width="4"/><rect x="242.21" y="222.27" width="14.55" height="145.19" fill="#fff" stroke="#fdb718" stroke-miterlimit="10" stroke-width="4"/><rect x="237.03" y="349.33" width="24.92" height="18.47" fill="#fff" stroke="#fdb718" stroke-miterlimit="10" stroke-width="4"/><rect x="237.03" y="203.8" width="24.92" height="18.47" fill="#fff" stroke="#fdb718" stroke-miterlimit="10" stroke-width="4"/><line x1="29.67" y1="222.27" x2="707.45" y2="222.27" fill="none" stroke="#fdb718" stroke-miterlimit="10" stroke-width="4"/><rect x="443.54" y="298.8" width="40.1" height="9.84" fill="#fff" stroke="#fdb718" stroke-miterlimit="10" stroke-width="4"/><rect x="256.76" y="298.8" width="40.1" height="9.84" fill="#fff" stroke="#fdb718" stroke-miterlimit="10" stroke-width="4"/><rect x="452.68" y="239.76" width="22.39" height="44.62" fill="#fff" stroke="#fdb718" stroke-miterlimit="10" stroke-width="4"/><rect x="265.62" y="239.76" width="22.39" height="44.62" fill="#fff" stroke="#fdb718" stroke-miterlimit="10" stroke-width="4"/><rect x="236.37" y="180.7" width="268.3" height="22.66" fill="#fff" stroke="#fdb718" stroke-miterlimit="10" stroke-width="4"/><line x1="29.67" y1="367.02" x2="707.45" y2="367.02" fill="none" stroke="#fdb718" stroke-miterlimit="10" stroke-width="4"/><line x1="483.65" y1="301.75" x2="638.64" y2="301.75" fill="none" stroke="#fdb718" stroke-miterlimit="10" stroke-width="4"/><line x1="100.72" y1="301.53" x2="255.71" y2="301.53" fill="none" stroke="#fdb718" stroke-miterlimit="10" stroke-width="4"/><rect x="646.22" y="249.22" width="15.75" height="42.34" fill="#fdb718"/><rect x="679.69" y="249.22" width="15.75" height="42.34" fill="#fdb718"/><rect x="679.69" y="310.72" width="15.75" height="42.34" fill="#fdb718"/><rect x="646.22" y="310.72" width="15.75" height="42.34" fill="#fdb718"/><rect x="43.96" y="249.22" width="15.75" height="42.34" fill="#fdb718"/><rect x="77.42" y="249.22" width="15.75" height="42.34" fill="#fdb718"/><rect x="77.42" y="310.72" width="15.75" height="42.34" fill="#fdb718"/><rect x="43.96" y="310.72" width="15.75" height="42.34" fill="#fdb718"/><line x1="29.67" y1="387.34" x2="707.45" y2="387.34" fill="none" stroke="#fdb718" stroke-miterlimit="10" stroke-width="4"/><path d="M105,406.21c-24.12,0-43.81,10.55-43.81,23.57v60.54H148.8V429.78C148.8,416.76,129.11,406.21,105,406.21Z" fill="none" stroke="#fdb718" stroke-miterlimit="10" stroke-width="4"/><line x1="77.27" y1="411.54" x2="77.27" y2="490.32" fill="none" stroke="#fdb718" stroke-miterlimit="10" stroke-width="4"/><line x1="130.66" y1="408.87" x2="130.66" y2="491.83" fill="none" stroke="#fdb718" stroke-miterlimit="10" stroke-width="4"/><line x1="95.06" y1="406.21" x2="95.06" y2="490.32" fill="none" stroke="#fdb718" stroke-miterlimit="10" stroke-width="4"/><line x1="112.86" y1="406.21" x2="112.86" y2="491.83" fill="none" stroke="#fdb718" stroke-miterlimit="10" stroke-width="4"/><line x1="61.18" y1="429.78" x2="148.8" y2="429.78" fill="none" stroke="#fdb718" stroke-miterlimit="10" stroke-width="4"/><line x1="61.18" y1="453.17" x2="148.8" y2="453.17" fill="none" stroke="#fdb718" stroke-miterlimit="10" stroke-width="4"/><path d="M281.29,403.9c-24.12,0-43.81,11-43.81,24.64v63.28H325.1V428.54C325.1,414.93,305.41,403.9,281.29,403.9Z" fill="#fdb718"/><path d="M457.59,405.2c-24.12,0-43.81,10.87-43.81,24.28v62.35H501.4V429.48C501.4,416.07,481.71,405.2,457.59,405.2Z" fill="#fdb718"/><path d="M633.89,409.53c-24.12,0-43.81,10.14-43.81,22.66v58.19H677.7V432.18C677.7,419.67,658,409.53,633.89,409.53Z" fill="none" stroke="#fdb718" stroke-miterlimit="10" stroke-width="4"/><line x1="606.17" y1="414.65" x2="606.17" y2="490.38" fill="none" stroke="#fdb718" stroke-miterlimit="10" stroke-width="4"/><line x1="659.56" y1="412.09" x2="659.56" y2="491.83" fill="none" stroke="#fdb718" stroke-miterlimit="10" stroke-width="4"/><line x1="623.97" y1="409.53" x2="623.97" y2="490.38" fill="none" stroke="#fdb718" stroke-miterlimit="10" stroke-width="4"/><line x1="641.76" y1="409.53" x2="641.76" y2="491.83" fill="none" stroke="#fdb718" stroke-miterlimit="10" stroke-width="4"/><line x1="590.08" y1="432.18" x2="677.7" y2="432.18" fill="none" stroke="#fdb718" stroke-miterlimit="10" stroke-width="4"/><line x1="590.08" y1="454.67" x2="677.7" y2="454.67" fill="none" stroke="#fdb718" stroke-miterlimit="10" stroke-width="4"/></g></svg>