<svg width="30" height="30" viewBox="0 0 30 30" fill="none" xmlns="http://www.w3.org/2000/svg">
  <g clip-path="url(#clip0_death_ssn_alert)">
    <path d="M15.0005 2.21777C22.0595 2.21799 27.7817 7.94093 27.7817 15C27.7815 22.0589 22.0594 27.781 15.0005 27.7812C7.94142 27.7812 2.21848 22.059 2.21826 15C2.21826 7.9408 7.94128 2.21777 15.0005 2.21777Z" stroke="#58585B" stroke-width="3" stroke-miterlimit="10"/>
    <path d="M16.8182 21.5638C16.8264 21.8125 16.7835 22.0603 16.6921 22.2918C16.6006 22.5233 16.4627 22.7335 16.2867 22.9095C16.1107 23.0855 15.9004 23.2235 15.669 23.3149C15.4375 23.4064 15.1897 23.4493 14.9409 23.4411C14.4455 23.4411 13.9703 23.2442 13.6199 22.8939C13.2696 22.5435 13.0728 22.0684 13.0728 21.5729C13.0728 21.0774 13.2696 20.6022 13.6199 20.2519C13.9703 19.9015 14.4455 19.7047 14.9409 19.7047C15.1891 19.6925 15.4372 19.7321 15.6692 19.821C15.9013 19.9099 16.1123 20.0461 16.2889 20.221C16.4654 20.3958 16.6037 20.6055 16.6948 20.8367C16.7859 21.0679 16.828 21.3155 16.8182 21.5638ZM16.1728 17.8911H13.8409L13.1818 11.6683V7.68652H16.85V11.6683L16.1728 17.8911Z" fill="#58585B"/>
  </g>
  <defs>
    <clipPath id="clip0_death_ssn_alert">
      <rect width="30" height="30" fill="white"/>
    </clipPath>
  </defs>
</svg>
